M48
; DRILL file {KiCad 9.0.1-9.0.1-0~ubuntu24.04.1} date 2025-04-10T17:48:20-0400
; FORMAT={-:-/ absolute / metric / decimal}
; #@! TF.CreationDate,2025-04-10T17:48:20-04:00
; #@! TF.GenerationSoftware,Kicad,Pcbnew,9.0.1-9.0.1-0~ubuntu24.04.1
; #@! TF.FileFunction,Plated,1,2,PTH
FMAT,2
METRIC
; #@! TA.AperFunction,Plated,PTH,ComponentDrill
T1C0.700
; #@! TA.AperFunction,Plated,PTH,ComponentDrill
T2C0.800
; #@! TA.AperFunction,Plated,PTH,ViaDrill
T3C1.000
; #@! TA.AperFunction,Plated,PTH,ComponentDrill
T4C1.000
%
G90
G05
T1
X153.289Y-96.52
X160.909Y-96.52
T2
X135.524Y-86.842
X138.024Y-86.842
T3
X127.0Y-62.1
X127.0Y-75.15
X127.0Y-109.0
X127.0Y-122.1
X134.5Y-129.6
X138.0Y-96.041
X140.85Y-107.75
X144.5Y-62.1
X144.5Y-111.0
X144.5Y-122.1
X152.75Y-115.85
X154.5Y-129.6
X157.48Y-94.107
X162.0Y-62.1
X162.0Y-75.2
X162.0Y-122.1
X162.941Y-108.998
T4
X133.402Y-102.59
X133.402Y-105.13
X133.402Y-107.67
X133.402Y-110.21
X133.402Y-112.75
X133.402Y-115.29
X133.402Y-117.83
X133.402Y-120.37
X135.561Y-80.492
X138.101Y-80.492
X140.641Y-80.492
X143.181Y-80.492
X145.721Y-80.492
X148.261Y-80.492
X150.801Y-80.492
X153.341Y-80.492
X155.5Y-102.59
X155.5Y-105.13
X155.5Y-107.67
X155.5Y-110.21
X155.5Y-112.75
X155.5Y-115.29
X155.5Y-117.83
X155.5Y-120.37
X155.881Y-85.953
X155.881Y-88.493
X155.881Y-91.033
M30
