%TF.GenerationSoftware,KiCad,Pcbnew,9.0.1-9.0.1-0~ubuntu24.04.1*%
%TF.CreationDate,2025-04-10T17:48:20-04:00*%
%TF.ProjectId,temperature_sensor,74656d70-6572-4617-9475-72655f73656e,rev?*%
%TF.SameCoordinates,Original*%
%TF.FileFunction,Drillmap*%
%TF.FilePolarity,Positive*%
%FSLAX45Y45*%
G04 Gerber Fmt 4.5, Leading zero omitted, Abs format (unit mm)*
G04 Created by KiCad (PCBNEW 9.0.1-9.0.1-0~ubuntu24.04.1) date 2025-04-10 17:48:20*
%MOMM*%
%LPD*%
G01*
G04 APERTURE LIST*
%ADD10C,0.200000*%
%ADD11C,0.250000*%
G04 APERTURE END LIST*
D10*
X16051700Y-5209400D02*
G75*
G02*
X16451700Y-5609400I0J-400000D01*
G01*
X16451700Y-12809400D02*
G75*
G02*
X16051700Y-13209400I-400000J0D01*
G01*
X16051700Y-13209400D02*
X12851700Y-13209400D01*
X16451700Y-5609400D02*
X16451700Y-12809400D01*
X12451700Y-12809400D02*
X12451700Y-5609400D01*
X12851700Y-13209400D02*
G75*
G02*
X12451700Y-12809400I0J400000D01*
G01*
X12451700Y-5609400D02*
G75*
G02*
X12851700Y-5209400I400000J0D01*
G01*
X12851700Y-5209400D02*
X16051700Y-5209400D01*
D11*
X12701700Y-5459400D02*
X12951700Y-5709400D01*
X12951700Y-5459400D02*
X12701700Y-5709400D01*
X12701700Y-12709400D02*
X12951700Y-12959400D01*
X12951700Y-12709400D02*
X12701700Y-12959400D01*
X13304100Y-5638200D02*
X13554100Y-5888200D01*
X13554100Y-5638200D02*
X13304100Y-5888200D01*
X15336100Y-5638200D02*
X15586100Y-5888200D01*
X15586100Y-5638200D02*
X15336100Y-5888200D01*
X15951700Y-5459400D02*
X16201700Y-5709400D01*
X16201700Y-5459400D02*
X15951700Y-5709400D01*
X15951700Y-12709400D02*
X16201700Y-12959400D01*
X16201700Y-12709400D02*
X15951700Y-12959400D01*
D10*
X12702477Y-13530884D02*
X12702477Y-13330884D01*
X12702477Y-13330884D02*
X12750096Y-13330884D01*
X12750096Y-13330884D02*
X12778667Y-13340408D01*
X12778667Y-13340408D02*
X12797715Y-13359455D01*
X12797715Y-13359455D02*
X12807239Y-13378503D01*
X12807239Y-13378503D02*
X12816762Y-13416598D01*
X12816762Y-13416598D02*
X12816762Y-13445169D01*
X12816762Y-13445169D02*
X12807239Y-13483265D01*
X12807239Y-13483265D02*
X12797715Y-13502312D01*
X12797715Y-13502312D02*
X12778667Y-13521360D01*
X12778667Y-13521360D02*
X12750096Y-13530884D01*
X12750096Y-13530884D02*
X12702477Y-13530884D01*
X12902477Y-13530884D02*
X12902477Y-13397550D01*
X12902477Y-13435646D02*
X12912001Y-13416598D01*
X12912001Y-13416598D02*
X12921524Y-13407074D01*
X12921524Y-13407074D02*
X12940572Y-13397550D01*
X12940572Y-13397550D02*
X12959620Y-13397550D01*
X13026286Y-13530884D02*
X13026286Y-13397550D01*
X13026286Y-13330884D02*
X13016762Y-13340408D01*
X13016762Y-13340408D02*
X13026286Y-13349931D01*
X13026286Y-13349931D02*
X13035810Y-13340408D01*
X13035810Y-13340408D02*
X13026286Y-13330884D01*
X13026286Y-13330884D02*
X13026286Y-13349931D01*
X13150096Y-13530884D02*
X13131048Y-13521360D01*
X13131048Y-13521360D02*
X13121524Y-13502312D01*
X13121524Y-13502312D02*
X13121524Y-13330884D01*
X13254858Y-13530884D02*
X13235810Y-13521360D01*
X13235810Y-13521360D02*
X13226286Y-13502312D01*
X13226286Y-13502312D02*
X13226286Y-13330884D01*
X13483429Y-13530884D02*
X13483429Y-13330884D01*
X13483429Y-13330884D02*
X13550096Y-13473741D01*
X13550096Y-13473741D02*
X13616762Y-13330884D01*
X13616762Y-13330884D02*
X13616762Y-13530884D01*
X13797715Y-13530884D02*
X13797715Y-13426122D01*
X13797715Y-13426122D02*
X13788191Y-13407074D01*
X13788191Y-13407074D02*
X13769143Y-13397550D01*
X13769143Y-13397550D02*
X13731048Y-13397550D01*
X13731048Y-13397550D02*
X13712001Y-13407074D01*
X13797715Y-13521360D02*
X13778667Y-13530884D01*
X13778667Y-13530884D02*
X13731048Y-13530884D01*
X13731048Y-13530884D02*
X13712001Y-13521360D01*
X13712001Y-13521360D02*
X13702477Y-13502312D01*
X13702477Y-13502312D02*
X13702477Y-13483265D01*
X13702477Y-13483265D02*
X13712001Y-13464217D01*
X13712001Y-13464217D02*
X13731048Y-13454693D01*
X13731048Y-13454693D02*
X13778667Y-13454693D01*
X13778667Y-13454693D02*
X13797715Y-13445169D01*
X13892953Y-13397550D02*
X13892953Y-13597550D01*
X13892953Y-13407074D02*
X13912001Y-13397550D01*
X13912001Y-13397550D02*
X13950096Y-13397550D01*
X13950096Y-13397550D02*
X13969143Y-13407074D01*
X13969143Y-13407074D02*
X13978667Y-13416598D01*
X13978667Y-13416598D02*
X13988191Y-13435646D01*
X13988191Y-13435646D02*
X13988191Y-13492788D01*
X13988191Y-13492788D02*
X13978667Y-13511836D01*
X13978667Y-13511836D02*
X13969143Y-13521360D01*
X13969143Y-13521360D02*
X13950096Y-13530884D01*
X13950096Y-13530884D02*
X13912001Y-13530884D01*
X13912001Y-13530884D02*
X13892953Y-13521360D01*
X14073905Y-13511836D02*
X14083429Y-13521360D01*
X14083429Y-13521360D02*
X14073905Y-13530884D01*
X14073905Y-13530884D02*
X14064382Y-13521360D01*
X14064382Y-13521360D02*
X14073905Y-13511836D01*
X14073905Y-13511836D02*
X14073905Y-13530884D01*
X14073905Y-13407074D02*
X14083429Y-13416598D01*
X14083429Y-13416598D02*
X14073905Y-13426122D01*
X14073905Y-13426122D02*
X14064382Y-13416598D01*
X14064382Y-13416598D02*
X14073905Y-13407074D01*
X14073905Y-13407074D02*
X14073905Y-13426122D01*
X12241700Y-13759400D02*
X12441700Y-13959400D01*
X12441700Y-13759400D02*
X12241700Y-13959400D01*
X12692953Y-13769931D02*
X12702477Y-13760408D01*
X12702477Y-13760408D02*
X12721524Y-13750884D01*
X12721524Y-13750884D02*
X12769143Y-13750884D01*
X12769143Y-13750884D02*
X12788191Y-13760408D01*
X12788191Y-13760408D02*
X12797715Y-13769931D01*
X12797715Y-13769931D02*
X12807239Y-13788979D01*
X12807239Y-13788979D02*
X12807239Y-13808027D01*
X12807239Y-13808027D02*
X12797715Y-13836598D01*
X12797715Y-13836598D02*
X12683429Y-13950884D01*
X12683429Y-13950884D02*
X12807239Y-13950884D01*
X12892953Y-13931836D02*
X12902477Y-13941360D01*
X12902477Y-13941360D02*
X12892953Y-13950884D01*
X12892953Y-13950884D02*
X12883429Y-13941360D01*
X12883429Y-13941360D02*
X12892953Y-13931836D01*
X12892953Y-13931836D02*
X12892953Y-13950884D01*
X13083429Y-13750884D02*
X12988191Y-13750884D01*
X12988191Y-13750884D02*
X12978667Y-13846122D01*
X12978667Y-13846122D02*
X12988191Y-13836598D01*
X12988191Y-13836598D02*
X13007239Y-13827074D01*
X13007239Y-13827074D02*
X13054858Y-13827074D01*
X13054858Y-13827074D02*
X13073905Y-13836598D01*
X13073905Y-13836598D02*
X13083429Y-13846122D01*
X13083429Y-13846122D02*
X13092953Y-13865169D01*
X13092953Y-13865169D02*
X13092953Y-13912788D01*
X13092953Y-13912788D02*
X13083429Y-13931836D01*
X13083429Y-13931836D02*
X13073905Y-13941360D01*
X13073905Y-13941360D02*
X13054858Y-13950884D01*
X13054858Y-13950884D02*
X13007239Y-13950884D01*
X13007239Y-13950884D02*
X12988191Y-13941360D01*
X12988191Y-13941360D02*
X12978667Y-13931836D01*
X13216762Y-13750884D02*
X13235810Y-13750884D01*
X13235810Y-13750884D02*
X13254858Y-13760408D01*
X13254858Y-13760408D02*
X13264382Y-13769931D01*
X13264382Y-13769931D02*
X13273905Y-13788979D01*
X13273905Y-13788979D02*
X13283429Y-13827074D01*
X13283429Y-13827074D02*
X13283429Y-13874693D01*
X13283429Y-13874693D02*
X13273905Y-13912788D01*
X13273905Y-13912788D02*
X13264382Y-13931836D01*
X13264382Y-13931836D02*
X13254858Y-13941360D01*
X13254858Y-13941360D02*
X13235810Y-13950884D01*
X13235810Y-13950884D02*
X13216762Y-13950884D01*
X13216762Y-13950884D02*
X13197715Y-13941360D01*
X13197715Y-13941360D02*
X13188191Y-13931836D01*
X13188191Y-13931836D02*
X13178667Y-13912788D01*
X13178667Y-13912788D02*
X13169143Y-13874693D01*
X13169143Y-13874693D02*
X13169143Y-13827074D01*
X13169143Y-13827074D02*
X13178667Y-13788979D01*
X13178667Y-13788979D02*
X13188191Y-13769931D01*
X13188191Y-13769931D02*
X13197715Y-13760408D01*
X13197715Y-13760408D02*
X13216762Y-13750884D01*
X13407239Y-13750884D02*
X13426286Y-13750884D01*
X13426286Y-13750884D02*
X13445334Y-13760408D01*
X13445334Y-13760408D02*
X13454858Y-13769931D01*
X13454858Y-13769931D02*
X13464382Y-13788979D01*
X13464382Y-13788979D02*
X13473905Y-13827074D01*
X13473905Y-13827074D02*
X13473905Y-13874693D01*
X13473905Y-13874693D02*
X13464382Y-13912788D01*
X13464382Y-13912788D02*
X13454858Y-13931836D01*
X13454858Y-13931836D02*
X13445334Y-13941360D01*
X13445334Y-13941360D02*
X13426286Y-13950884D01*
X13426286Y-13950884D02*
X13407239Y-13950884D01*
X13407239Y-13950884D02*
X13388191Y-13941360D01*
X13388191Y-13941360D02*
X13378667Y-13931836D01*
X13378667Y-13931836D02*
X13369143Y-13912788D01*
X13369143Y-13912788D02*
X13359620Y-13874693D01*
X13359620Y-13874693D02*
X13359620Y-13827074D01*
X13359620Y-13827074D02*
X13369143Y-13788979D01*
X13369143Y-13788979D02*
X13378667Y-13769931D01*
X13378667Y-13769931D02*
X13388191Y-13760408D01*
X13388191Y-13760408D02*
X13407239Y-13750884D01*
X13559620Y-13950884D02*
X13559620Y-13817550D01*
X13559620Y-13836598D02*
X13569143Y-13827074D01*
X13569143Y-13827074D02*
X13588191Y-13817550D01*
X13588191Y-13817550D02*
X13616763Y-13817550D01*
X13616763Y-13817550D02*
X13635810Y-13827074D01*
X13635810Y-13827074D02*
X13645334Y-13846122D01*
X13645334Y-13846122D02*
X13645334Y-13950884D01*
X13645334Y-13846122D02*
X13654858Y-13827074D01*
X13654858Y-13827074D02*
X13673905Y-13817550D01*
X13673905Y-13817550D02*
X13702477Y-13817550D01*
X13702477Y-13817550D02*
X13721524Y-13827074D01*
X13721524Y-13827074D02*
X13731048Y-13846122D01*
X13731048Y-13846122D02*
X13731048Y-13950884D01*
X13826286Y-13950884D02*
X13826286Y-13817550D01*
X13826286Y-13836598D02*
X13835810Y-13827074D01*
X13835810Y-13827074D02*
X13854858Y-13817550D01*
X13854858Y-13817550D02*
X13883429Y-13817550D01*
X13883429Y-13817550D02*
X13902477Y-13827074D01*
X13902477Y-13827074D02*
X13912001Y-13846122D01*
X13912001Y-13846122D02*
X13912001Y-13950884D01*
X13912001Y-13846122D02*
X13921524Y-13827074D01*
X13921524Y-13827074D02*
X13940572Y-13817550D01*
X13940572Y-13817550D02*
X13969143Y-13817550D01*
X13969143Y-13817550D02*
X13988191Y-13827074D01*
X13988191Y-13827074D02*
X13997715Y-13846122D01*
X13997715Y-13846122D02*
X13997715Y-13950884D01*
X14388191Y-13741360D02*
X14216763Y-13998503D01*
X14645334Y-13750884D02*
X14664382Y-13750884D01*
X14664382Y-13750884D02*
X14683429Y-13760408D01*
X14683429Y-13760408D02*
X14692953Y-13769931D01*
X14692953Y-13769931D02*
X14702477Y-13788979D01*
X14702477Y-13788979D02*
X14712001Y-13827074D01*
X14712001Y-13827074D02*
X14712001Y-13874693D01*
X14712001Y-13874693D02*
X14702477Y-13912788D01*
X14702477Y-13912788D02*
X14692953Y-13931836D01*
X14692953Y-13931836D02*
X14683429Y-13941360D01*
X14683429Y-13941360D02*
X14664382Y-13950884D01*
X14664382Y-13950884D02*
X14645334Y-13950884D01*
X14645334Y-13950884D02*
X14626286Y-13941360D01*
X14626286Y-13941360D02*
X14616763Y-13931836D01*
X14616763Y-13931836D02*
X14607239Y-13912788D01*
X14607239Y-13912788D02*
X14597715Y-13874693D01*
X14597715Y-13874693D02*
X14597715Y-13827074D01*
X14597715Y-13827074D02*
X14607239Y-13788979D01*
X14607239Y-13788979D02*
X14616763Y-13769931D01*
X14616763Y-13769931D02*
X14626286Y-13760408D01*
X14626286Y-13760408D02*
X14645334Y-13750884D01*
X14797715Y-13931836D02*
X14807239Y-13941360D01*
X14807239Y-13941360D02*
X14797715Y-13950884D01*
X14797715Y-13950884D02*
X14788191Y-13941360D01*
X14788191Y-13941360D02*
X14797715Y-13931836D01*
X14797715Y-13931836D02*
X14797715Y-13950884D01*
X14931048Y-13750884D02*
X14950096Y-13750884D01*
X14950096Y-13750884D02*
X14969144Y-13760408D01*
X14969144Y-13760408D02*
X14978667Y-13769931D01*
X14978667Y-13769931D02*
X14988191Y-13788979D01*
X14988191Y-13788979D02*
X14997715Y-13827074D01*
X14997715Y-13827074D02*
X14997715Y-13874693D01*
X14997715Y-13874693D02*
X14988191Y-13912788D01*
X14988191Y-13912788D02*
X14978667Y-13931836D01*
X14978667Y-13931836D02*
X14969144Y-13941360D01*
X14969144Y-13941360D02*
X14950096Y-13950884D01*
X14950096Y-13950884D02*
X14931048Y-13950884D01*
X14931048Y-13950884D02*
X14912001Y-13941360D01*
X14912001Y-13941360D02*
X14902477Y-13931836D01*
X14902477Y-13931836D02*
X14892953Y-13912788D01*
X14892953Y-13912788D02*
X14883429Y-13874693D01*
X14883429Y-13874693D02*
X14883429Y-13827074D01*
X14883429Y-13827074D02*
X14892953Y-13788979D01*
X14892953Y-13788979D02*
X14902477Y-13769931D01*
X14902477Y-13769931D02*
X14912001Y-13760408D01*
X14912001Y-13760408D02*
X14931048Y-13750884D01*
X15092953Y-13950884D02*
X15131048Y-13950884D01*
X15131048Y-13950884D02*
X15150096Y-13941360D01*
X15150096Y-13941360D02*
X15159620Y-13931836D01*
X15159620Y-13931836D02*
X15178667Y-13903265D01*
X15178667Y-13903265D02*
X15188191Y-13865169D01*
X15188191Y-13865169D02*
X15188191Y-13788979D01*
X15188191Y-13788979D02*
X15178667Y-13769931D01*
X15178667Y-13769931D02*
X15169144Y-13760408D01*
X15169144Y-13760408D02*
X15150096Y-13750884D01*
X15150096Y-13750884D02*
X15112001Y-13750884D01*
X15112001Y-13750884D02*
X15092953Y-13760408D01*
X15092953Y-13760408D02*
X15083429Y-13769931D01*
X15083429Y-13769931D02*
X15073906Y-13788979D01*
X15073906Y-13788979D02*
X15073906Y-13836598D01*
X15073906Y-13836598D02*
X15083429Y-13855646D01*
X15083429Y-13855646D02*
X15092953Y-13865169D01*
X15092953Y-13865169D02*
X15112001Y-13874693D01*
X15112001Y-13874693D02*
X15150096Y-13874693D01*
X15150096Y-13874693D02*
X15169144Y-13865169D01*
X15169144Y-13865169D02*
X15178667Y-13855646D01*
X15178667Y-13855646D02*
X15188191Y-13836598D01*
X15302477Y-13836598D02*
X15283429Y-13827074D01*
X15283429Y-13827074D02*
X15273906Y-13817550D01*
X15273906Y-13817550D02*
X15264382Y-13798503D01*
X15264382Y-13798503D02*
X15264382Y-13788979D01*
X15264382Y-13788979D02*
X15273906Y-13769931D01*
X15273906Y-13769931D02*
X15283429Y-13760408D01*
X15283429Y-13760408D02*
X15302477Y-13750884D01*
X15302477Y-13750884D02*
X15340572Y-13750884D01*
X15340572Y-13750884D02*
X15359620Y-13760408D01*
X15359620Y-13760408D02*
X15369144Y-13769931D01*
X15369144Y-13769931D02*
X15378667Y-13788979D01*
X15378667Y-13788979D02*
X15378667Y-13798503D01*
X15378667Y-13798503D02*
X15369144Y-13817550D01*
X15369144Y-13817550D02*
X15359620Y-13827074D01*
X15359620Y-13827074D02*
X15340572Y-13836598D01*
X15340572Y-13836598D02*
X15302477Y-13836598D01*
X15302477Y-13836598D02*
X15283429Y-13846122D01*
X15283429Y-13846122D02*
X15273906Y-13855646D01*
X15273906Y-13855646D02*
X15264382Y-13874693D01*
X15264382Y-13874693D02*
X15264382Y-13912788D01*
X15264382Y-13912788D02*
X15273906Y-13931836D01*
X15273906Y-13931836D02*
X15283429Y-13941360D01*
X15283429Y-13941360D02*
X15302477Y-13950884D01*
X15302477Y-13950884D02*
X15340572Y-13950884D01*
X15340572Y-13950884D02*
X15359620Y-13941360D01*
X15359620Y-13941360D02*
X15369144Y-13931836D01*
X15369144Y-13931836D02*
X15378667Y-13912788D01*
X15378667Y-13912788D02*
X15378667Y-13874693D01*
X15378667Y-13874693D02*
X15369144Y-13855646D01*
X15369144Y-13855646D02*
X15359620Y-13846122D01*
X15359620Y-13846122D02*
X15340572Y-13836598D01*
X15550096Y-13817550D02*
X15550096Y-13950884D01*
X15502477Y-13741360D02*
X15454858Y-13884217D01*
X15454858Y-13884217D02*
X15578667Y-13884217D01*
X15645334Y-13750884D02*
X15645334Y-13788979D01*
X15721525Y-13750884D02*
X15721525Y-13788979D01*
X16016763Y-14027074D02*
X16007239Y-14017550D01*
X16007239Y-14017550D02*
X15988191Y-13988979D01*
X15988191Y-13988979D02*
X15978668Y-13969931D01*
X15978668Y-13969931D02*
X15969144Y-13941360D01*
X15969144Y-13941360D02*
X15959620Y-13893741D01*
X15959620Y-13893741D02*
X15959620Y-13855646D01*
X15959620Y-13855646D02*
X15969144Y-13808027D01*
X15969144Y-13808027D02*
X15978668Y-13779455D01*
X15978668Y-13779455D02*
X15988191Y-13760408D01*
X15988191Y-13760408D02*
X16007239Y-13731836D01*
X16007239Y-13731836D02*
X16016763Y-13722312D01*
X16178668Y-13750884D02*
X16140572Y-13750884D01*
X16140572Y-13750884D02*
X16121525Y-13760408D01*
X16121525Y-13760408D02*
X16112001Y-13769931D01*
X16112001Y-13769931D02*
X16092953Y-13798503D01*
X16092953Y-13798503D02*
X16083429Y-13836598D01*
X16083429Y-13836598D02*
X16083429Y-13912788D01*
X16083429Y-13912788D02*
X16092953Y-13931836D01*
X16092953Y-13931836D02*
X16102477Y-13941360D01*
X16102477Y-13941360D02*
X16121525Y-13950884D01*
X16121525Y-13950884D02*
X16159620Y-13950884D01*
X16159620Y-13950884D02*
X16178668Y-13941360D01*
X16178668Y-13941360D02*
X16188191Y-13931836D01*
X16188191Y-13931836D02*
X16197715Y-13912788D01*
X16197715Y-13912788D02*
X16197715Y-13865169D01*
X16197715Y-13865169D02*
X16188191Y-13846122D01*
X16188191Y-13846122D02*
X16178668Y-13836598D01*
X16178668Y-13836598D02*
X16159620Y-13827074D01*
X16159620Y-13827074D02*
X16121525Y-13827074D01*
X16121525Y-13827074D02*
X16102477Y-13836598D01*
X16102477Y-13836598D02*
X16092953Y-13846122D01*
X16092953Y-13846122D02*
X16083429Y-13865169D01*
X16435810Y-13950884D02*
X16435810Y-13750884D01*
X16521525Y-13950884D02*
X16521525Y-13846122D01*
X16521525Y-13846122D02*
X16512001Y-13827074D01*
X16512001Y-13827074D02*
X16492953Y-13817550D01*
X16492953Y-13817550D02*
X16464382Y-13817550D01*
X16464382Y-13817550D02*
X16445334Y-13827074D01*
X16445334Y-13827074D02*
X16435810Y-13836598D01*
X16645334Y-13950884D02*
X16626287Y-13941360D01*
X16626287Y-13941360D02*
X16616763Y-13931836D01*
X16616763Y-13931836D02*
X16607239Y-13912788D01*
X16607239Y-13912788D02*
X16607239Y-13855646D01*
X16607239Y-13855646D02*
X16616763Y-13836598D01*
X16616763Y-13836598D02*
X16626287Y-13827074D01*
X16626287Y-13827074D02*
X16645334Y-13817550D01*
X16645334Y-13817550D02*
X16673906Y-13817550D01*
X16673906Y-13817550D02*
X16692953Y-13827074D01*
X16692953Y-13827074D02*
X16702477Y-13836598D01*
X16702477Y-13836598D02*
X16712001Y-13855646D01*
X16712001Y-13855646D02*
X16712001Y-13912788D01*
X16712001Y-13912788D02*
X16702477Y-13931836D01*
X16702477Y-13931836D02*
X16692953Y-13941360D01*
X16692953Y-13941360D02*
X16673906Y-13950884D01*
X16673906Y-13950884D02*
X16645334Y-13950884D01*
X16826287Y-13950884D02*
X16807239Y-13941360D01*
X16807239Y-13941360D02*
X16797715Y-13922312D01*
X16797715Y-13922312D02*
X16797715Y-13750884D01*
X16978668Y-13941360D02*
X16959620Y-13950884D01*
X16959620Y-13950884D02*
X16921525Y-13950884D01*
X16921525Y-13950884D02*
X16902477Y-13941360D01*
X16902477Y-13941360D02*
X16892953Y-13922312D01*
X16892953Y-13922312D02*
X16892953Y-13846122D01*
X16892953Y-13846122D02*
X16902477Y-13827074D01*
X16902477Y-13827074D02*
X16921525Y-13817550D01*
X16921525Y-13817550D02*
X16959620Y-13817550D01*
X16959620Y-13817550D02*
X16978668Y-13827074D01*
X16978668Y-13827074D02*
X16988192Y-13846122D01*
X16988192Y-13846122D02*
X16988192Y-13865169D01*
X16988192Y-13865169D02*
X16892953Y-13884217D01*
X17064382Y-13941360D02*
X17083430Y-13950884D01*
X17083430Y-13950884D02*
X17121525Y-13950884D01*
X17121525Y-13950884D02*
X17140573Y-13941360D01*
X17140573Y-13941360D02*
X17150096Y-13922312D01*
X17150096Y-13922312D02*
X17150096Y-13912788D01*
X17150096Y-13912788D02*
X17140573Y-13893741D01*
X17140573Y-13893741D02*
X17121525Y-13884217D01*
X17121525Y-13884217D02*
X17092953Y-13884217D01*
X17092953Y-13884217D02*
X17073906Y-13874693D01*
X17073906Y-13874693D02*
X17064382Y-13855646D01*
X17064382Y-13855646D02*
X17064382Y-13846122D01*
X17064382Y-13846122D02*
X17073906Y-13827074D01*
X17073906Y-13827074D02*
X17092953Y-13817550D01*
X17092953Y-13817550D02*
X17121525Y-13817550D01*
X17121525Y-13817550D02*
X17140573Y-13827074D01*
X17216763Y-14027074D02*
X17226287Y-14017550D01*
X17226287Y-14017550D02*
X17245334Y-13988979D01*
X17245334Y-13988979D02*
X17254858Y-13969931D01*
X17254858Y-13969931D02*
X17264382Y-13941360D01*
X17264382Y-13941360D02*
X17273906Y-13893741D01*
X17273906Y-13893741D02*
X17273906Y-13855646D01*
X17273906Y-13855646D02*
X17264382Y-13808027D01*
X17264382Y-13808027D02*
X17254858Y-13779455D01*
X17254858Y-13779455D02*
X17245334Y-13760408D01*
X17245334Y-13760408D02*
X17226287Y-13731836D01*
X17226287Y-13731836D02*
X17216763Y-13722312D01*
X17578668Y-14027074D02*
X17569144Y-14017550D01*
X17569144Y-14017550D02*
X17550096Y-13988979D01*
X17550096Y-13988979D02*
X17540573Y-13969931D01*
X17540573Y-13969931D02*
X17531049Y-13941360D01*
X17531049Y-13941360D02*
X17521525Y-13893741D01*
X17521525Y-13893741D02*
X17521525Y-13855646D01*
X17521525Y-13855646D02*
X17531049Y-13808027D01*
X17531049Y-13808027D02*
X17540573Y-13779455D01*
X17540573Y-13779455D02*
X17550096Y-13760408D01*
X17550096Y-13760408D02*
X17569144Y-13731836D01*
X17569144Y-13731836D02*
X17578668Y-13722312D01*
X17654858Y-13817550D02*
X17654858Y-13950884D01*
X17654858Y-13836598D02*
X17664382Y-13827074D01*
X17664382Y-13827074D02*
X17683430Y-13817550D01*
X17683430Y-13817550D02*
X17712001Y-13817550D01*
X17712001Y-13817550D02*
X17731049Y-13827074D01*
X17731049Y-13827074D02*
X17740573Y-13846122D01*
X17740573Y-13846122D02*
X17740573Y-13950884D01*
X17864382Y-13950884D02*
X17845334Y-13941360D01*
X17845334Y-13941360D02*
X17835811Y-13931836D01*
X17835811Y-13931836D02*
X17826287Y-13912788D01*
X17826287Y-13912788D02*
X17826287Y-13855646D01*
X17826287Y-13855646D02*
X17835811Y-13836598D01*
X17835811Y-13836598D02*
X17845334Y-13827074D01*
X17845334Y-13827074D02*
X17864382Y-13817550D01*
X17864382Y-13817550D02*
X17892954Y-13817550D01*
X17892954Y-13817550D02*
X17912001Y-13827074D01*
X17912001Y-13827074D02*
X17921525Y-13836598D01*
X17921525Y-13836598D02*
X17931049Y-13855646D01*
X17931049Y-13855646D02*
X17931049Y-13912788D01*
X17931049Y-13912788D02*
X17921525Y-13931836D01*
X17921525Y-13931836D02*
X17912001Y-13941360D01*
X17912001Y-13941360D02*
X17892954Y-13950884D01*
X17892954Y-13950884D02*
X17864382Y-13950884D01*
X17988192Y-13817550D02*
X18064382Y-13817550D01*
X18016763Y-13750884D02*
X18016763Y-13922312D01*
X18016763Y-13922312D02*
X18026287Y-13941360D01*
X18026287Y-13941360D02*
X18045334Y-13950884D01*
X18045334Y-13950884D02*
X18064382Y-13950884D01*
X18283430Y-13817550D02*
X18283430Y-14017550D01*
X18283430Y-13827074D02*
X18302477Y-13817550D01*
X18302477Y-13817550D02*
X18340573Y-13817550D01*
X18340573Y-13817550D02*
X18359620Y-13827074D01*
X18359620Y-13827074D02*
X18369144Y-13836598D01*
X18369144Y-13836598D02*
X18378668Y-13855646D01*
X18378668Y-13855646D02*
X18378668Y-13912788D01*
X18378668Y-13912788D02*
X18369144Y-13931836D01*
X18369144Y-13931836D02*
X18359620Y-13941360D01*
X18359620Y-13941360D02*
X18340573Y-13950884D01*
X18340573Y-13950884D02*
X18302477Y-13950884D01*
X18302477Y-13950884D02*
X18283430Y-13941360D01*
X18492954Y-13950884D02*
X18473906Y-13941360D01*
X18473906Y-13941360D02*
X18464382Y-13922312D01*
X18464382Y-13922312D02*
X18464382Y-13750884D01*
X18654858Y-13950884D02*
X18654858Y-13846122D01*
X18654858Y-13846122D02*
X18645335Y-13827074D01*
X18645335Y-13827074D02*
X18626287Y-13817550D01*
X18626287Y-13817550D02*
X18588192Y-13817550D01*
X18588192Y-13817550D02*
X18569144Y-13827074D01*
X18654858Y-13941360D02*
X18635811Y-13950884D01*
X18635811Y-13950884D02*
X18588192Y-13950884D01*
X18588192Y-13950884D02*
X18569144Y-13941360D01*
X18569144Y-13941360D02*
X18559620Y-13922312D01*
X18559620Y-13922312D02*
X18559620Y-13903265D01*
X18559620Y-13903265D02*
X18569144Y-13884217D01*
X18569144Y-13884217D02*
X18588192Y-13874693D01*
X18588192Y-13874693D02*
X18635811Y-13874693D01*
X18635811Y-13874693D02*
X18654858Y-13865169D01*
X18721525Y-13817550D02*
X18797715Y-13817550D01*
X18750096Y-13750884D02*
X18750096Y-13922312D01*
X18750096Y-13922312D02*
X18759620Y-13941360D01*
X18759620Y-13941360D02*
X18778668Y-13950884D01*
X18778668Y-13950884D02*
X18797715Y-13950884D01*
X18940573Y-13941360D02*
X18921525Y-13950884D01*
X18921525Y-13950884D02*
X18883430Y-13950884D01*
X18883430Y-13950884D02*
X18864382Y-13941360D01*
X18864382Y-13941360D02*
X18854858Y-13922312D01*
X18854858Y-13922312D02*
X18854858Y-13846122D01*
X18854858Y-13846122D02*
X18864382Y-13827074D01*
X18864382Y-13827074D02*
X18883430Y-13817550D01*
X18883430Y-13817550D02*
X18921525Y-13817550D01*
X18921525Y-13817550D02*
X18940573Y-13827074D01*
X18940573Y-13827074D02*
X18950096Y-13846122D01*
X18950096Y-13846122D02*
X18950096Y-13865169D01*
X18950096Y-13865169D02*
X18854858Y-13884217D01*
X19121525Y-13950884D02*
X19121525Y-13750884D01*
X19121525Y-13941360D02*
X19102477Y-13950884D01*
X19102477Y-13950884D02*
X19064382Y-13950884D01*
X19064382Y-13950884D02*
X19045335Y-13941360D01*
X19045335Y-13941360D02*
X19035811Y-13931836D01*
X19035811Y-13931836D02*
X19026287Y-13912788D01*
X19026287Y-13912788D02*
X19026287Y-13855646D01*
X19026287Y-13855646D02*
X19035811Y-13836598D01*
X19035811Y-13836598D02*
X19045335Y-13827074D01*
X19045335Y-13827074D02*
X19064382Y-13817550D01*
X19064382Y-13817550D02*
X19102477Y-13817550D01*
X19102477Y-13817550D02*
X19121525Y-13827074D01*
X19197716Y-14027074D02*
X19207239Y-14017550D01*
X19207239Y-14017550D02*
X19226287Y-13988979D01*
X19226287Y-13988979D02*
X19235811Y-13969931D01*
X19235811Y-13969931D02*
X19245335Y-13941360D01*
X19245335Y-13941360D02*
X19254858Y-13893741D01*
X19254858Y-13893741D02*
X19254858Y-13855646D01*
X19254858Y-13855646D02*
X19245335Y-13808027D01*
X19245335Y-13808027D02*
X19235811Y-13779455D01*
X19235811Y-13779455D02*
X19226287Y-13760408D01*
X19226287Y-13760408D02*
X19207239Y-13731836D01*
X19207239Y-13731836D02*
X19197716Y-13722312D01*
M02*
