%TF.GenerationSoftware,KiCad,Pcbnew,8.0.8*%
%TF.CreationDate,2025-01-28T15:40:47-03:00*%
%TF.ProjectId,temperature_sensor,74656d70-6572-4617-9475-72655f73656e,rev?*%
%TF.SameCoordinates,Original*%
%TF.FileFunction,Copper,L1,Top*%
%TF.FilePolarity,Positive*%
%FSLAX46Y46*%
G04 Gerber Fmt 4.6, Leading zero omitted, Abs format (unit mm)*
G04 Created by KiCad (PCBNEW 8.0.8) date 2025-01-28 15:40:47*
%MOMM*%
%LPD*%
G01*
G04 APERTURE LIST*
%TA.AperFunction,EtchedComponent*%
%ADD10C,0.000000*%
%TD*%
%TA.AperFunction,ComponentPad*%
%ADD11R,1.700000X1.700000*%
%TD*%
%TA.AperFunction,ComponentPad*%
%ADD12O,1.700000X1.700000*%
%TD*%
%TA.AperFunction,ComponentPad*%
%ADD13C,1.600000*%
%TD*%
%TA.AperFunction,ComponentPad*%
%ADD14R,1.600000X1.600000*%
%TD*%
%TA.AperFunction,ComponentPad*%
%ADD15C,1.400000*%
%TD*%
%TA.AperFunction,ComponentPad*%
%ADD16O,1.400000X1.400000*%
%TD*%
%TA.AperFunction,ViaPad*%
%ADD17C,1.600000*%
%TD*%
G04 APERTURE END LIST*
D10*
%TA.AperFunction,EtchedComponent*%
%TO.C,G\u002A\u002A\u002A*%
G36*
X128069921Y-82376406D02*
G01*
X128092522Y-82381298D01*
X128124546Y-82388800D01*
X128163743Y-82398380D01*
X128207857Y-82409504D01*
X128224810Y-82413862D01*
X128270546Y-82425613D01*
X128312528Y-82436272D01*
X128348412Y-82445255D01*
X128375852Y-82451977D01*
X128392506Y-82455852D01*
X128395326Y-82456423D01*
X128417697Y-82461512D01*
X128450970Y-82470487D01*
X128492445Y-82482494D01*
X128539420Y-82496678D01*
X128589192Y-82512184D01*
X128639060Y-82528158D01*
X128686322Y-82543744D01*
X128728277Y-82558087D01*
X128762223Y-82570334D01*
X128785457Y-82579629D01*
X128787136Y-82580386D01*
X128801590Y-82586364D01*
X128824771Y-82595255D01*
X128853639Y-82605969D01*
X128885152Y-82617415D01*
X128916269Y-82628501D01*
X128943948Y-82638138D01*
X128965148Y-82645233D01*
X128976829Y-82648695D01*
X128978033Y-82648862D01*
X128986862Y-82651073D01*
X129007295Y-82657785D01*
X129037493Y-82668318D01*
X129075615Y-82681992D01*
X129119820Y-82698129D01*
X129168270Y-82716049D01*
X129219123Y-82735074D01*
X129270541Y-82754524D01*
X129320682Y-82773719D01*
X129367707Y-82791982D01*
X129395843Y-82803075D01*
X129422340Y-82813055D01*
X129445887Y-82820990D01*
X129460676Y-82824994D01*
X129475266Y-82829167D01*
X129501992Y-82838388D01*
X129539672Y-82852206D01*
X129587123Y-82870174D01*
X129643164Y-82891843D01*
X129706612Y-82916763D01*
X129776286Y-82944487D01*
X129792043Y-82950802D01*
X129833598Y-82967309D01*
X129874465Y-82983247D01*
X129911055Y-82997238D01*
X129939779Y-83007901D01*
X129950523Y-83011710D01*
X129969057Y-83018455D01*
X129998844Y-83029748D01*
X130037768Y-83044767D01*
X130083714Y-83062689D01*
X130134566Y-83082691D01*
X130188209Y-83103950D01*
X130206252Y-83111137D01*
X130261969Y-83133305D01*
X130317035Y-83155112D01*
X130369021Y-83175604D01*
X130415500Y-83193828D01*
X130454046Y-83208829D01*
X130482229Y-83219654D01*
X130487193Y-83221529D01*
X130521717Y-83234717D01*
X130555504Y-83247992D01*
X130583592Y-83259388D01*
X130595248Y-83264332D01*
X130621377Y-83275465D01*
X130646706Y-83285815D01*
X130656479Y-83289626D01*
X130722938Y-83319938D01*
X130782442Y-83357268D01*
X130832946Y-83399983D01*
X130872404Y-83446448D01*
X130890509Y-83476589D01*
X130901217Y-83499616D01*
X130906688Y-83518726D01*
X130908028Y-83540160D01*
X130906581Y-83567094D01*
X130903091Y-83596984D01*
X130897781Y-83624732D01*
X130892294Y-83642956D01*
X130874617Y-83673120D01*
X130847679Y-83705203D01*
X130815386Y-83735277D01*
X130781642Y-83759411D01*
X130770307Y-83765680D01*
X130722593Y-83786814D01*
X130663491Y-83808291D01*
X130595974Y-83829356D01*
X130523018Y-83849253D01*
X130447601Y-83867228D01*
X130372696Y-83882524D01*
X130301280Y-83894387D01*
X130236329Y-83902060D01*
X130231464Y-83902474D01*
X130194283Y-83905641D01*
X130147118Y-83909830D01*
X130094323Y-83914643D01*
X130040251Y-83919684D01*
X129997346Y-83923775D01*
X129877146Y-83935215D01*
X129755563Y-83946454D01*
X129629727Y-83957748D01*
X129496769Y-83969352D01*
X129353820Y-83981523D01*
X129273382Y-83988260D01*
X129190532Y-83995285D01*
X129105520Y-84002714D01*
X129019580Y-84010426D01*
X128933947Y-84018296D01*
X128849857Y-84026201D01*
X128768544Y-84034017D01*
X128691243Y-84041622D01*
X128619190Y-84048890D01*
X128553619Y-84055699D01*
X128495766Y-84061925D01*
X128446866Y-84067445D01*
X128408152Y-84072134D01*
X128380862Y-84075870D01*
X128366229Y-84078529D01*
X128364262Y-84079220D01*
X128358768Y-84087594D01*
X128367463Y-84096931D01*
X128381932Y-84103925D01*
X128396660Y-84110205D01*
X128421486Y-84121218D01*
X128453438Y-84135630D01*
X128489548Y-84152104D01*
X128506195Y-84159759D01*
X128541748Y-84175892D01*
X128581865Y-84193675D01*
X128624542Y-84212265D01*
X128667775Y-84230820D01*
X128709560Y-84248497D01*
X128747892Y-84264454D01*
X128780768Y-84277849D01*
X128806184Y-84287839D01*
X128822136Y-84293583D01*
X128826756Y-84294489D01*
X128832833Y-84295654D01*
X128848783Y-84301188D01*
X128871187Y-84309902D01*
X128871779Y-84310141D01*
X128894752Y-84319399D01*
X128927387Y-84332478D01*
X128965955Y-84347888D01*
X129006725Y-84364137D01*
X129022657Y-84370475D01*
X129061782Y-84386147D01*
X129098724Y-84401153D01*
X129130241Y-84414164D01*
X129153092Y-84423846D01*
X129159834Y-84426830D01*
X129184986Y-84437722D01*
X129215143Y-84449956D01*
X129246367Y-84462032D01*
X129274717Y-84472448D01*
X129296255Y-84479705D01*
X129304629Y-84481995D01*
X129316917Y-84486151D01*
X129340406Y-84495551D01*
X129373233Y-84509362D01*
X129413536Y-84526751D01*
X129459453Y-84546885D01*
X129509120Y-84568932D01*
X129560677Y-84592058D01*
X129612260Y-84615432D01*
X129662006Y-84638219D01*
X129708054Y-84659587D01*
X129748542Y-84678704D01*
X129781606Y-84694737D01*
X129792043Y-84699952D01*
X129853199Y-84730947D01*
X129914576Y-84762208D01*
X129974765Y-84793006D01*
X130032358Y-84822610D01*
X130085947Y-84850291D01*
X130134124Y-84875318D01*
X130175481Y-84896962D01*
X130208609Y-84914493D01*
X130232101Y-84927181D01*
X130244547Y-84934296D01*
X130245872Y-84935198D01*
X130258692Y-84943846D01*
X130281605Y-84957850D01*
X130312035Y-84975711D01*
X130347402Y-84995928D01*
X130385129Y-85017001D01*
X130407953Y-85029502D01*
X130434632Y-85044544D01*
X130468422Y-85064406D01*
X130506393Y-85087279D01*
X130545614Y-85111353D01*
X130583157Y-85134819D01*
X130616089Y-85155868D01*
X130641482Y-85172689D01*
X130652877Y-85180738D01*
X130672984Y-85194034D01*
X130697835Y-85208322D01*
X130706904Y-85213033D01*
X130726287Y-85223289D01*
X130739694Y-85231446D01*
X130742922Y-85234124D01*
X130749747Y-85240122D01*
X130765762Y-85252945D01*
X130788639Y-85270761D01*
X130816051Y-85291738D01*
X130818560Y-85293642D01*
X130872995Y-85339186D01*
X130925034Y-85390687D01*
X130970947Y-85444174D01*
X131004385Y-85491426D01*
X131030779Y-85538705D01*
X131053612Y-85591239D01*
X131074653Y-85653197D01*
X131078693Y-85666716D01*
X131087995Y-85700823D01*
X131093958Y-85730302D01*
X131097274Y-85760496D01*
X131098638Y-85796747D01*
X131098807Y-85821595D01*
X131098496Y-85860137D01*
X131097212Y-85887686D01*
X131094495Y-85907646D01*
X131089889Y-85923423D01*
X131083131Y-85938047D01*
X131068397Y-85961696D01*
X131050879Y-85979082D01*
X131027705Y-85991753D01*
X130996001Y-86001256D01*
X130952897Y-86009140D01*
X130950561Y-86009494D01*
X130878370Y-86015656D01*
X130811340Y-86012024D01*
X130751870Y-85998808D01*
X130728605Y-85989962D01*
X130689405Y-85968844D01*
X130664511Y-85946266D01*
X130653908Y-85922330D01*
X130657580Y-85897137D01*
X130675511Y-85870789D01*
X130707685Y-85843387D01*
X130754085Y-85815034D01*
X130756035Y-85813990D01*
X130777897Y-85800831D01*
X130794708Y-85787999D01*
X130801346Y-85780489D01*
X130806901Y-85758812D01*
X130805731Y-85732625D01*
X130798716Y-85708567D01*
X130790134Y-85695899D01*
X130780616Y-85689842D01*
X130759318Y-85678133D01*
X130727443Y-85661374D01*
X130686191Y-85640166D01*
X130636763Y-85615109D01*
X130580361Y-85586804D01*
X130518185Y-85555852D01*
X130451436Y-85522853D01*
X130381317Y-85488408D01*
X130309027Y-85453119D01*
X130235769Y-85417585D01*
X130177437Y-85389465D01*
X130131717Y-85368058D01*
X130075931Y-85342841D01*
X130013428Y-85315266D01*
X129947556Y-85286779D01*
X129881663Y-85258831D01*
X129819098Y-85232870D01*
X129766830Y-85211778D01*
X129733910Y-85198648D01*
X129692182Y-85181885D01*
X129646171Y-85163313D01*
X129600403Y-85144757D01*
X129583138Y-85137730D01*
X129533683Y-85117884D01*
X129477267Y-85095727D01*
X129420217Y-85073720D01*
X129368862Y-85054321D01*
X129359825Y-85050968D01*
X129315097Y-85034371D01*
X129268316Y-85016901D01*
X129224102Y-85000291D01*
X129187080Y-84986274D01*
X129176133Y-84982093D01*
X129148041Y-84971558D01*
X129111539Y-84958217D01*
X129068672Y-84942785D01*
X129021484Y-84925976D01*
X128972022Y-84908505D01*
X128922329Y-84891087D01*
X128874452Y-84874436D01*
X128830434Y-84859268D01*
X128792321Y-84846297D01*
X128762158Y-84836238D01*
X128741990Y-84829805D01*
X128734690Y-84827798D01*
X128723440Y-84824674D01*
X128700984Y-84817688D01*
X128669757Y-84807624D01*
X128632191Y-84795265D01*
X128591530Y-84781669D01*
X128541045Y-84764829D01*
X128486994Y-84747098D01*
X128431339Y-84729092D01*
X128376040Y-84711426D01*
X128323058Y-84694714D01*
X128274355Y-84679573D01*
X128231891Y-84666617D01*
X128197626Y-84656461D01*
X128173523Y-84649720D01*
X128162915Y-84647208D01*
X128149101Y-84643711D01*
X128123643Y-84636231D01*
X128088541Y-84625414D01*
X128045795Y-84611903D01*
X127997405Y-84596345D01*
X127945372Y-84579384D01*
X127891695Y-84561665D01*
X127838374Y-84543834D01*
X127787410Y-84526534D01*
X127767823Y-84519800D01*
X127721832Y-84504008D01*
X127671510Y-84486866D01*
X127622620Y-84470329D01*
X127580924Y-84456352D01*
X127576927Y-84455022D01*
X127506472Y-84430170D01*
X127447926Y-84406061D01*
X127398929Y-84381424D01*
X127357125Y-84354988D01*
X127320155Y-84325482D01*
X127298283Y-84304741D01*
X127271356Y-84276642D01*
X127253064Y-84254594D01*
X127241070Y-84235308D01*
X127233038Y-84215500D01*
X127231650Y-84211011D01*
X127224746Y-84185838D01*
X127221983Y-84167456D01*
X127222803Y-84149035D01*
X127225229Y-84132343D01*
X127230324Y-84111945D01*
X127234855Y-84099927D01*
X127241147Y-84085242D01*
X127250120Y-84062967D01*
X127256381Y-84046890D01*
X127283898Y-83992271D01*
X127323866Y-83937641D01*
X127374479Y-83885065D01*
X127433932Y-83836605D01*
X127450863Y-83824765D01*
X127476884Y-83808416D01*
X127508069Y-83790691D01*
X127540994Y-83773325D01*
X127572232Y-83758055D01*
X127598357Y-83746616D01*
X127615944Y-83740744D01*
X127617121Y-83740527D01*
X127629023Y-83737508D01*
X127652462Y-83730636D01*
X127685294Y-83720573D01*
X127725375Y-83707982D01*
X127770562Y-83693527D01*
X127802048Y-83683317D01*
X127853352Y-83666957D01*
X127904659Y-83651251D01*
X127952909Y-83637089D01*
X127995040Y-83625359D01*
X128027990Y-83616950D01*
X128039194Y-83614448D01*
X128075451Y-83607187D01*
X128117144Y-83599221D01*
X128161657Y-83591007D01*
X128206373Y-83583003D01*
X128248675Y-83575667D01*
X128285948Y-83569457D01*
X128315573Y-83564830D01*
X128334936Y-83562244D01*
X128339848Y-83561861D01*
X128352659Y-83560677D01*
X128376295Y-83557702D01*
X128407352Y-83553388D01*
X128441362Y-83548351D01*
X128493943Y-83541376D01*
X128559402Y-83534446D01*
X128636207Y-83527677D01*
X128722830Y-83521186D01*
X128817741Y-83515090D01*
X128919409Y-83509506D01*
X128999644Y-83505703D01*
X129137211Y-83499165D01*
X129261351Y-83492262D01*
X129373043Y-83484870D01*
X129473266Y-83476860D01*
X129562997Y-83468105D01*
X129643216Y-83458480D01*
X129714901Y-83447856D01*
X129779031Y-83436107D01*
X129836584Y-83423106D01*
X129888539Y-83408726D01*
X129935874Y-83392840D01*
X129968656Y-83379976D01*
X129996521Y-83368333D01*
X129982009Y-83353822D01*
X129970310Y-83346789D01*
X129945465Y-83335686D01*
X129908085Y-83320737D01*
X129858776Y-83302163D01*
X129798148Y-83280186D01*
X129726809Y-83255029D01*
X129645367Y-83226914D01*
X129554431Y-83196062D01*
X129500296Y-83177909D01*
X129325066Y-83117472D01*
X129160250Y-83056746D01*
X129093291Y-83030803D01*
X129061452Y-83018526D01*
X129033433Y-83008192D01*
X129012613Y-83001018D01*
X129003245Y-82998341D01*
X128989319Y-82994437D01*
X128965162Y-82986393D01*
X128933936Y-82975377D01*
X128898806Y-82962555D01*
X128862935Y-82949092D01*
X128829486Y-82936155D01*
X128801623Y-82924910D01*
X128787136Y-82918670D01*
X128756050Y-82904927D01*
X128719842Y-82889371D01*
X128680921Y-82872984D01*
X128641695Y-82856751D01*
X128604573Y-82841653D01*
X128571964Y-82828674D01*
X128546275Y-82818796D01*
X128529916Y-82813003D01*
X128525503Y-82811894D01*
X128516935Y-82808774D01*
X128497059Y-82800024D01*
X128467484Y-82786400D01*
X128429818Y-82768656D01*
X128385668Y-82747548D01*
X128336644Y-82723829D01*
X128305792Y-82708773D01*
X128244545Y-82678614D01*
X128194836Y-82653680D01*
X128155141Y-82633119D01*
X128123935Y-82616080D01*
X128099693Y-82601709D01*
X128080891Y-82589156D01*
X128066005Y-82577567D01*
X128057623Y-82570070D01*
X128029294Y-82538594D01*
X128007116Y-82504541D01*
X127992716Y-82471166D01*
X127987718Y-82441724D01*
X127988668Y-82432018D01*
X127998470Y-82412548D01*
X128017097Y-82393711D01*
X128039412Y-82379694D01*
X128058998Y-82374657D01*
X128069921Y-82376406D01*
G37*
%TD.AperFunction*%
%TA.AperFunction,EtchedComponent*%
G36*
X127517941Y-94070526D02*
G01*
X127602744Y-94077172D01*
X127638157Y-94081448D01*
X127683194Y-94088900D01*
X127732319Y-94099317D01*
X127781277Y-94111605D01*
X127825811Y-94124668D01*
X127861665Y-94137412D01*
X127870612Y-94141245D01*
X127902127Y-94155215D01*
X127933129Y-94168324D01*
X127960890Y-94179493D01*
X127982684Y-94187647D01*
X127995780Y-94191708D01*
X127998339Y-94191666D01*
X128004324Y-94193526D01*
X128020667Y-94200830D01*
X128044950Y-94212365D01*
X128074756Y-94226914D01*
X128107665Y-94243265D01*
X128141260Y-94260203D01*
X128173123Y-94276512D01*
X128200836Y-94290979D01*
X128221981Y-94302389D01*
X128234139Y-94309529D01*
X128236059Y-94311059D01*
X128243113Y-94316732D01*
X128260035Y-94328607D01*
X128284549Y-94345137D01*
X128314380Y-94364770D01*
X128326104Y-94372379D01*
X128407916Y-94427888D01*
X128485786Y-94485822D01*
X128557826Y-94544570D01*
X128622148Y-94602518D01*
X128676865Y-94658057D01*
X128718348Y-94707272D01*
X128744298Y-94744023D01*
X128772516Y-94788543D01*
X128801734Y-94838372D01*
X128830681Y-94891049D01*
X128858088Y-94944113D01*
X128882686Y-94995103D01*
X128903206Y-95041558D01*
X128918378Y-95081016D01*
X128926933Y-95111018D01*
X128927129Y-95112039D01*
X128930826Y-95145762D01*
X128928155Y-95178264D01*
X128918250Y-95212047D01*
X128900247Y-95249617D01*
X128873281Y-95293477D01*
X128855444Y-95319581D01*
X128805498Y-95388547D01*
X128758803Y-95447325D01*
X128712974Y-95497939D01*
X128665631Y-95542415D01*
X128614390Y-95582780D01*
X128556868Y-95621059D01*
X128490682Y-95659277D01*
X128413450Y-95699461D01*
X128401742Y-95705299D01*
X128350056Y-95728391D01*
X128296363Y-95746825D01*
X128237430Y-95761429D01*
X128170023Y-95773031D01*
X128106924Y-95780804D01*
X128058819Y-95784834D01*
X128016029Y-95785492D01*
X127975664Y-95782193D01*
X127934831Y-95774351D01*
X127890639Y-95761379D01*
X127840195Y-95742693D01*
X127780608Y-95717707D01*
X127767823Y-95712115D01*
X127725981Y-95694100D01*
X127685313Y-95677269D01*
X127649015Y-95662896D01*
X127620278Y-95652253D01*
X127605741Y-95647522D01*
X127581809Y-95640120D01*
X127563299Y-95633360D01*
X127555316Y-95629389D01*
X127544012Y-95624304D01*
X127521044Y-95616920D01*
X127488862Y-95607820D01*
X127449918Y-95597587D01*
X127406663Y-95586804D01*
X127361547Y-95576054D01*
X127317023Y-95565920D01*
X127275541Y-95556986D01*
X127239552Y-95549835D01*
X127211508Y-95545049D01*
X127193860Y-95543213D01*
X127193074Y-95543210D01*
X127143074Y-95548681D01*
X127099841Y-95564998D01*
X127061495Y-95593263D01*
X127026157Y-95634576D01*
X127018696Y-95645381D01*
X126999440Y-95679941D01*
X126990319Y-95713100D01*
X126990833Y-95749112D01*
X127000481Y-95792232D01*
X127001122Y-95794408D01*
X127006555Y-95809941D01*
X127014094Y-95824686D01*
X127025424Y-95840783D01*
X127042227Y-95860371D01*
X127066187Y-95885590D01*
X127098310Y-95917905D01*
X127130178Y-95949037D01*
X127161741Y-95978849D01*
X127190254Y-96004815D01*
X127212969Y-96024412D01*
X127222087Y-96031630D01*
X127244388Y-96048932D01*
X127263857Y-96065194D01*
X127274374Y-96075003D01*
X127309227Y-96108024D01*
X127355145Y-96145985D01*
X127410215Y-96187572D01*
X127441767Y-96209801D01*
X127472525Y-96231470D01*
X127540160Y-96276364D01*
X127611209Y-96320940D01*
X127683756Y-96363884D01*
X127742610Y-96396734D01*
X127775559Y-96415271D01*
X127811573Y-96436562D01*
X127839859Y-96454106D01*
X127884407Y-96481996D01*
X127931005Y-96509966D01*
X127976550Y-96536245D01*
X128017940Y-96559062D01*
X128052069Y-96576646D01*
X128066221Y-96583268D01*
X128087049Y-96593220D01*
X128117058Y-96608530D01*
X128152900Y-96627446D01*
X128191226Y-96648214D01*
X128209483Y-96658304D01*
X128255416Y-96683439D01*
X128307801Y-96711427D01*
X128360611Y-96739083D01*
X128407816Y-96763222D01*
X128413802Y-96766224D01*
X128457749Y-96788583D01*
X128505513Y-96813531D01*
X128551823Y-96838278D01*
X128591407Y-96860033D01*
X128597495Y-96863464D01*
X128637302Y-96885577D01*
X128681328Y-96909349D01*
X128723559Y-96931562D01*
X128751118Y-96945606D01*
X128791044Y-96965917D01*
X128833231Y-96988046D01*
X128874942Y-97010492D01*
X128913442Y-97031754D01*
X128945993Y-97050331D01*
X128969860Y-97064719D01*
X128978033Y-97070120D01*
X128991986Y-97078662D01*
X129015190Y-97091552D01*
X129043968Y-97106785D01*
X129064476Y-97117273D01*
X129093764Y-97132710D01*
X129131646Y-97153677D01*
X129174479Y-97178104D01*
X129218618Y-97203918D01*
X129250355Y-97222925D01*
X129289792Y-97246724D01*
X129327413Y-97269248D01*
X129360540Y-97288907D01*
X129386490Y-97304109D01*
X129401631Y-97312740D01*
X129427683Y-97327889D01*
X129453768Y-97344253D01*
X129462629Y-97350202D01*
X129478093Y-97360866D01*
X129502612Y-97377724D01*
X129533351Y-97398828D01*
X129567477Y-97422232D01*
X129584424Y-97433846D01*
X129631346Y-97466878D01*
X129682194Y-97504220D01*
X129735154Y-97544406D01*
X129788410Y-97585967D01*
X129840148Y-97627437D01*
X129888552Y-97667348D01*
X129931808Y-97704232D01*
X129968101Y-97736623D01*
X129995615Y-97763053D01*
X130007633Y-97775993D01*
X130031874Y-97807190D01*
X130056199Y-97843460D01*
X130075865Y-97877660D01*
X130078096Y-97882118D01*
X130091906Y-97911867D01*
X130100008Y-97934591D01*
X130103768Y-97955815D01*
X130104557Y-97981064D01*
X130104452Y-97988526D01*
X130098630Y-98042052D01*
X130087857Y-98080024D01*
X130068828Y-98117283D01*
X130041695Y-98154129D01*
X130010261Y-98186130D01*
X129978330Y-98208851D01*
X129976546Y-98209789D01*
X129948217Y-98219749D01*
X129911558Y-98226403D01*
X129872232Y-98229291D01*
X129835902Y-98227955D01*
X129811547Y-98223137D01*
X129788098Y-98216308D01*
X129766426Y-98211358D01*
X129765578Y-98211210D01*
X129736187Y-98203725D01*
X129697932Y-98190443D01*
X129654330Y-98172933D01*
X129608897Y-98152768D01*
X129565150Y-98131518D01*
X129526604Y-98110755D01*
X129496776Y-98092051D01*
X129493259Y-98089512D01*
X129479371Y-98080089D01*
X129455939Y-98065099D01*
X129425812Y-98046328D01*
X129391836Y-98025562D01*
X129377834Y-98017114D01*
X129334958Y-97991112D01*
X129286945Y-97961621D01*
X129239589Y-97932219D01*
X129198683Y-97906485D01*
X129197743Y-97905889D01*
X129159283Y-97881528D01*
X129118276Y-97855692D01*
X129079600Y-97831447D01*
X129048133Y-97811859D01*
X129047846Y-97811682D01*
X129019616Y-97793812D01*
X128994801Y-97777376D01*
X128976787Y-97764655D01*
X128970427Y-97759548D01*
X128959745Y-97751477D01*
X128938620Y-97736988D01*
X128908863Y-97717243D01*
X128872284Y-97693401D01*
X128830695Y-97666625D01*
X128785906Y-97638075D01*
X128739726Y-97608911D01*
X128693968Y-97580294D01*
X128650441Y-97553385D01*
X128617851Y-97533510D01*
X128581342Y-97511417D01*
X128543826Y-97488719D01*
X128509806Y-97468139D01*
X128484584Y-97452886D01*
X128457202Y-97436249D01*
X128422516Y-97415061D01*
X128385473Y-97392347D01*
X128358520Y-97375761D01*
X128316410Y-97351354D01*
X128284906Y-97336685D01*
X128263919Y-97331840D01*
X128253363Y-97336903D01*
X128253149Y-97351957D01*
X128263192Y-97377085D01*
X128283403Y-97412373D01*
X128297551Y-97434238D01*
X128318351Y-97464784D01*
X128338354Y-97492963D01*
X128355102Y-97515380D01*
X128365058Y-97527494D01*
X128380194Y-97546079D01*
X128397705Y-97570480D01*
X128408039Y-97586278D01*
X128423620Y-97609677D01*
X128439123Y-97630469D01*
X128447594Y-97640305D01*
X128472585Y-97668660D01*
X128501564Y-97705721D01*
X128532441Y-97748378D01*
X128563124Y-97793523D01*
X128591524Y-97838046D01*
X128615548Y-97878837D01*
X128633105Y-97912789D01*
X128637281Y-97922348D01*
X128652348Y-97964249D01*
X128664935Y-98008736D01*
X128674228Y-98051960D01*
X128679413Y-98090070D01*
X128679674Y-98119218D01*
X128679410Y-98121406D01*
X128668786Y-98168871D01*
X128651064Y-98215258D01*
X128628535Y-98255041D01*
X128618784Y-98267756D01*
X128602622Y-98287664D01*
X128589602Y-98305271D01*
X128584797Y-98312808D01*
X128570067Y-98331629D01*
X128545114Y-98354953D01*
X128512587Y-98380817D01*
X128475136Y-98407254D01*
X128435410Y-98432300D01*
X128396060Y-98453991D01*
X128390937Y-98456548D01*
X128353145Y-98474516D01*
X128322628Y-98487049D01*
X128294134Y-98495829D01*
X128262412Y-98502540D01*
X128232457Y-98507361D01*
X128183530Y-98513378D01*
X128136906Y-98516060D01*
X128090244Y-98515114D01*
X128041199Y-98510246D01*
X127987428Y-98501163D01*
X127926589Y-98487572D01*
X127856339Y-98469179D01*
X127800239Y-98453270D01*
X127751554Y-98439394D01*
X127700634Y-98425320D01*
X127649610Y-98411595D01*
X127600616Y-98398764D01*
X127555782Y-98387373D01*
X127517241Y-98377967D01*
X127487125Y-98371093D01*
X127467566Y-98367296D01*
X127462078Y-98366716D01*
X127452777Y-98372167D01*
X127452587Y-98388283D01*
X127461340Y-98414708D01*
X127478868Y-98451086D01*
X127505002Y-98497062D01*
X127539573Y-98552280D01*
X127575615Y-98606433D01*
X127608862Y-98667189D01*
X127632074Y-98735987D01*
X127642425Y-98792916D01*
X127647200Y-98833721D01*
X127617753Y-98848744D01*
X127588935Y-98860631D01*
X127565347Y-98862715D01*
X127541953Y-98855308D01*
X127538584Y-98853622D01*
X127527546Y-98845201D01*
X127508013Y-98827379D01*
X127481192Y-98801407D01*
X127448291Y-98768534D01*
X127410514Y-98730012D01*
X127369070Y-98687091D01*
X127325164Y-98641022D01*
X127280004Y-98593054D01*
X127234796Y-98544440D01*
X127190746Y-98496428D01*
X127149062Y-98450270D01*
X127145207Y-98445956D01*
X127102940Y-98397913D01*
X127069558Y-98357947D01*
X127043766Y-98323938D01*
X127024270Y-98293770D01*
X127009775Y-98265324D01*
X126998985Y-98236481D01*
X126990606Y-98205124D01*
X126986672Y-98186626D01*
X126980071Y-98157585D01*
X126971714Y-98129805D01*
X126960772Y-98101981D01*
X126946413Y-98072807D01*
X126927808Y-98040979D01*
X126904125Y-98005190D01*
X126874535Y-97964135D01*
X126838207Y-97916508D01*
X126794309Y-97861005D01*
X126742012Y-97796319D01*
X126725430Y-97775991D01*
X126670169Y-97707563D01*
X126623844Y-97648299D01*
X126585574Y-97596818D01*
X126554481Y-97551741D01*
X126529682Y-97511687D01*
X126510297Y-97475275D01*
X126498043Y-97447097D01*
X127280682Y-97447097D01*
X127288563Y-97489875D01*
X127298238Y-97513298D01*
X127313563Y-97534771D01*
X127339510Y-97562262D01*
X127374324Y-97594414D01*
X127416249Y-97629872D01*
X127463530Y-97667280D01*
X127514411Y-97705281D01*
X127567137Y-97742521D01*
X127619952Y-97777642D01*
X127671102Y-97809290D01*
X127710194Y-97831494D01*
X127764590Y-97857461D01*
X127822300Y-97878913D01*
X127880351Y-97895173D01*
X127935771Y-97905562D01*
X127985587Y-97909402D01*
X128026828Y-97906016D01*
X128031940Y-97904880D01*
X128060488Y-97896242D01*
X128088698Y-97884985D01*
X128112429Y-97873023D01*
X128127544Y-97862268D01*
X128129695Y-97859694D01*
X128134676Y-97842946D01*
X128130987Y-97819330D01*
X128118302Y-97786843D01*
X128117449Y-97785000D01*
X128107557Y-97765182D01*
X128096418Y-97746488D01*
X128082654Y-97727372D01*
X128064888Y-97706289D01*
X128041742Y-97681694D01*
X128011838Y-97652041D01*
X127973798Y-97615785D01*
X127930653Y-97575475D01*
X127865215Y-97515019D01*
X127808772Y-97463710D01*
X127760093Y-97420551D01*
X127717944Y-97384540D01*
X127681094Y-97354680D01*
X127648309Y-97329972D01*
X127618358Y-97309415D01*
X127590008Y-97292011D01*
X127562519Y-97277014D01*
X127515608Y-97255005D01*
X127476406Y-97242205D01*
X127441767Y-97238354D01*
X127408539Y-97243195D01*
X127373574Y-97256469D01*
X127364776Y-97260779D01*
X127334271Y-97283813D01*
X127309776Y-97317128D01*
X127292123Y-97357558D01*
X127282147Y-97401936D01*
X127280682Y-97447097D01*
X126498043Y-97447097D01*
X126495446Y-97441124D01*
X126484248Y-97407855D01*
X126479620Y-97390625D01*
X126467712Y-97337267D01*
X126461062Y-97291272D01*
X126460149Y-97249622D01*
X126465454Y-97209299D01*
X126477456Y-97167287D01*
X126489194Y-97138694D01*
X126814511Y-97138694D01*
X126816154Y-97189354D01*
X126826563Y-97234719D01*
X126832488Y-97248850D01*
X126858262Y-97291788D01*
X126887753Y-97322323D01*
X126920122Y-97339752D01*
X126945998Y-97343801D01*
X126959878Y-97342169D01*
X126969925Y-97335745D01*
X126977290Y-97322239D01*
X126983125Y-97299359D01*
X126988584Y-97264816D01*
X126989632Y-97257055D01*
X126995857Y-97222182D01*
X127005605Y-97180803D01*
X127017174Y-97139839D01*
X127022281Y-97124090D01*
X127037334Y-97078123D01*
X127047117Y-97043071D01*
X127051947Y-97016571D01*
X127052141Y-96996258D01*
X127048014Y-96979768D01*
X127042941Y-96969600D01*
X127030872Y-96953956D01*
X127014839Y-96944037D01*
X126991658Y-96938740D01*
X126958143Y-96936958D01*
X126948744Y-96936929D01*
X126922383Y-96937866D01*
X126905042Y-96941591D01*
X126891380Y-96949766D01*
X126882775Y-96957450D01*
X126855767Y-96992117D01*
X126834959Y-97036358D01*
X126820994Y-97086456D01*
X126814511Y-97138694D01*
X126489194Y-97138694D01*
X126496635Y-97120568D01*
X126523469Y-97066125D01*
X126534524Y-97045126D01*
X126553904Y-97009071D01*
X126571861Y-96976285D01*
X126586901Y-96949451D01*
X126597529Y-96931250D01*
X126600885Y-96925990D01*
X126617499Y-96898866D01*
X126633618Y-96867219D01*
X126646755Y-96836391D01*
X126654424Y-96811728D01*
X126654699Y-96810335D01*
X126655864Y-96792367D01*
X126650719Y-96775069D01*
X126637580Y-96752781D01*
X126637527Y-96752702D01*
X126623433Y-96733805D01*
X126606479Y-96716330D01*
X126584654Y-96698838D01*
X126555943Y-96679895D01*
X126518333Y-96658062D01*
X126469813Y-96631903D01*
X126463966Y-96628827D01*
X126385721Y-96587711D01*
X126319079Y-96552599D01*
X126262868Y-96522839D01*
X126215916Y-96497775D01*
X126177048Y-96476754D01*
X126145095Y-96459120D01*
X126118881Y-96444221D01*
X126097236Y-96431401D01*
X126078987Y-96420006D01*
X126062960Y-96409383D01*
X126047984Y-96398876D01*
X126035350Y-96389655D01*
X125983202Y-96350268D01*
X125939526Y-96315511D01*
X125905199Y-96286143D01*
X125881099Y-96262918D01*
X125868103Y-96246593D01*
X125867092Y-96244626D01*
X125862950Y-96232027D01*
X125865629Y-96221452D01*
X125876914Y-96207924D01*
X125882153Y-96202637D01*
X125897402Y-96189843D01*
X125916000Y-96179896D01*
X125941842Y-96171077D01*
X125970517Y-96163639D01*
X126009485Y-96154704D01*
X126047080Y-96147168D01*
X126085062Y-96140887D01*
X126125193Y-96135718D01*
X126169232Y-96131518D01*
X126218941Y-96128145D01*
X126276080Y-96125453D01*
X126342410Y-96123302D01*
X126419693Y-96121547D01*
X126506035Y-96120098D01*
X126811037Y-96115582D01*
X126731425Y-96014731D01*
X126672790Y-95938842D01*
X126622968Y-95870675D01*
X126580411Y-95807945D01*
X126543570Y-95748364D01*
X126510897Y-95689645D01*
X126509490Y-95686966D01*
X126484858Y-95637721D01*
X126467576Y-95596853D01*
X126456740Y-95560930D01*
X126451446Y-95526521D01*
X126450788Y-95490193D01*
X126452020Y-95468870D01*
X126461475Y-95409735D01*
X126480775Y-95356913D01*
X126510817Y-95309276D01*
X126552501Y-95265696D01*
X126606724Y-95225045D01*
X126674386Y-95186196D01*
X126679215Y-95183734D01*
X126711707Y-95167679D01*
X126742273Y-95153638D01*
X126772975Y-95140928D01*
X126805876Y-95128870D01*
X126843039Y-95116783D01*
X126886525Y-95103986D01*
X126938398Y-95089797D01*
X126948744Y-95087098D01*
X127000719Y-95073537D01*
X127054663Y-95059799D01*
X127088984Y-95050827D01*
X127118228Y-95042637D01*
X127139549Y-95036066D01*
X127150105Y-95031950D01*
X127150555Y-95031623D01*
X127148111Y-95024586D01*
X127137904Y-95008075D01*
X127121171Y-94983866D01*
X127099147Y-94953735D01*
X127073071Y-94919458D01*
X127067096Y-94911772D01*
X127018725Y-94849184D01*
X126978495Y-94795613D01*
X126945177Y-94749131D01*
X126917540Y-94707815D01*
X126894354Y-94669737D01*
X126874386Y-94632974D01*
X126856407Y-94595598D01*
X126839186Y-94555686D01*
X126838626Y-94554328D01*
X126821615Y-94510958D01*
X127177407Y-94510958D01*
X127181998Y-94519218D01*
X127194794Y-94535704D01*
X127214006Y-94558263D01*
X127237845Y-94584744D01*
X127246258Y-94593799D01*
X127272046Y-94621906D01*
X127294625Y-94647556D01*
X127311928Y-94668323D01*
X127321886Y-94681783D01*
X127323052Y-94683861D01*
X127330782Y-94696203D01*
X127336076Y-94700069D01*
X127342381Y-94705207D01*
X127356479Y-94719442D01*
X127376704Y-94741005D01*
X127401391Y-94768128D01*
X127422592Y-94791915D01*
X127447193Y-94819533D01*
X127479730Y-94855721D01*
X127518371Y-94898460D01*
X127561283Y-94945730D01*
X127606634Y-94995511D01*
X127652592Y-95045784D01*
X127683606Y-95079602D01*
X127733129Y-95133383D01*
X127774232Y-95177504D01*
X127808146Y-95213005D01*
X127836103Y-95240920D01*
X127859337Y-95262288D01*
X127879079Y-95278145D01*
X127896561Y-95289527D01*
X127913016Y-95297473D01*
X127929675Y-95303019D01*
X127947772Y-95307201D01*
X127955936Y-95308770D01*
X127984780Y-95308113D01*
X128021947Y-95297649D01*
X128065967Y-95278141D01*
X128115372Y-95250355D01*
X128168695Y-95215052D01*
X128224466Y-95172997D01*
X128237744Y-95162237D01*
X128270711Y-95131745D01*
X128290937Y-95104299D01*
X128299317Y-95078294D01*
X128297510Y-95054961D01*
X128288106Y-95036283D01*
X128268404Y-95010858D01*
X128239994Y-94980081D01*
X128204467Y-94945345D01*
X128163411Y-94908043D01*
X128118417Y-94869567D01*
X128071076Y-94831313D01*
X128022976Y-94794672D01*
X127975709Y-94761038D01*
X127930864Y-94731804D01*
X127923802Y-94727497D01*
X127892178Y-94709036D01*
X127854002Y-94687732D01*
X127811404Y-94664673D01*
X127766513Y-94640948D01*
X127721456Y-94617646D01*
X127678364Y-94595856D01*
X127639363Y-94576667D01*
X127606584Y-94561167D01*
X127582154Y-94550446D01*
X127568202Y-94545591D01*
X127568173Y-94545586D01*
X127557764Y-94542099D01*
X127536308Y-94533830D01*
X127506004Y-94521662D01*
X127469049Y-94506483D01*
X127427642Y-94489177D01*
X127417004Y-94484687D01*
X127375143Y-94467174D01*
X127337463Y-94451779D01*
X127306088Y-94439338D01*
X127283142Y-94430690D01*
X127270748Y-94426672D01*
X127269503Y-94426489D01*
X127257560Y-94429407D01*
X127238446Y-94436594D01*
X127229105Y-94440654D01*
X127202737Y-94458896D01*
X127184435Y-94484102D01*
X127177407Y-94510958D01*
X126821615Y-94510958D01*
X126820539Y-94508215D01*
X126808579Y-94471574D01*
X126802095Y-94441160D01*
X126800438Y-94413731D01*
X126802958Y-94386044D01*
X126803828Y-94380644D01*
X126821725Y-94317176D01*
X126852238Y-94258348D01*
X126893819Y-94206179D01*
X126944919Y-94162688D01*
X126992220Y-94135208D01*
X127043715Y-94115412D01*
X127106968Y-94098811D01*
X127179646Y-94085599D01*
X127259415Y-94075971D01*
X127269503Y-94075273D01*
X127343943Y-94070119D01*
X127430896Y-94068240D01*
X127517941Y-94070526D01*
G37*
%TD.AperFunction*%
%TA.AperFunction,EtchedComponent*%
G36*
X128181223Y-85210635D02*
G01*
X128237563Y-85213061D01*
X128288972Y-85216791D01*
X128332693Y-85221831D01*
X128333308Y-85221922D01*
X128407540Y-85236041D01*
X128490154Y-85257268D01*
X128577768Y-85284392D01*
X128667002Y-85316201D01*
X128754477Y-85351482D01*
X128836810Y-85389023D01*
X128910622Y-85427613D01*
X128916802Y-85431136D01*
X128964580Y-85460404D01*
X129018625Y-85496613D01*
X129077151Y-85538314D01*
X129138368Y-85584056D01*
X129200490Y-85632388D01*
X129261730Y-85681860D01*
X129320300Y-85731022D01*
X129374412Y-85778423D01*
X129422280Y-85822612D01*
X129462115Y-85862139D01*
X129492130Y-85895553D01*
X129497712Y-85902550D01*
X129550643Y-85979101D01*
X129592983Y-86057503D01*
X129624388Y-86136356D01*
X129644513Y-86214263D01*
X129653012Y-86289824D01*
X129649541Y-86361642D01*
X129633753Y-86428316D01*
X129629965Y-86438664D01*
X129603491Y-86492704D01*
X129565150Y-86550061D01*
X129516578Y-86609017D01*
X129459405Y-86667855D01*
X129395267Y-86724858D01*
X129325795Y-86778309D01*
X129273382Y-86813635D01*
X129252484Y-86825562D01*
X129221212Y-86841730D01*
X129182474Y-86860795D01*
X129139176Y-86881409D01*
X129094223Y-86902226D01*
X129050522Y-86921901D01*
X129010978Y-86939085D01*
X128978499Y-86952434D01*
X128956422Y-86960467D01*
X128922968Y-86968180D01*
X128882252Y-86973493D01*
X128839402Y-86976116D01*
X128799548Y-86975757D01*
X128767817Y-86972126D01*
X128764417Y-86971365D01*
X128746221Y-86965735D01*
X128719551Y-86956006D01*
X128687763Y-86943570D01*
X128654214Y-86929818D01*
X128622259Y-86916141D01*
X128595253Y-86903932D01*
X128576554Y-86894583D01*
X128571028Y-86891165D01*
X128560791Y-86885475D01*
X128542567Y-86876990D01*
X128520017Y-86867222D01*
X128496798Y-86857684D01*
X128476570Y-86849887D01*
X128462993Y-86845344D01*
X128459371Y-86845016D01*
X128453831Y-86844472D01*
X128440263Y-86838581D01*
X128437968Y-86837414D01*
X128419565Y-86830173D01*
X128389526Y-86820976D01*
X128350396Y-86810400D01*
X128304722Y-86799023D01*
X128255049Y-86787424D01*
X128203924Y-86776181D01*
X128153891Y-86765873D01*
X128107498Y-86757077D01*
X128067291Y-86750372D01*
X128037959Y-86746549D01*
X128000563Y-86743477D01*
X127955946Y-86740979D01*
X127906851Y-86739090D01*
X127856025Y-86737843D01*
X127806214Y-86737272D01*
X127760163Y-86737411D01*
X127720619Y-86738294D01*
X127690326Y-86739955D01*
X127673652Y-86742055D01*
X127648689Y-86754079D01*
X127630271Y-86776345D01*
X127620335Y-86805444D01*
X127620418Y-86835741D01*
X127635661Y-86884598D01*
X127664023Y-86930259D01*
X127671835Y-86939550D01*
X127685130Y-86952887D01*
X127708024Y-86973988D01*
X127738944Y-87001519D01*
X127776316Y-87034148D01*
X127818567Y-87070542D01*
X127864125Y-87109367D01*
X127911415Y-87149290D01*
X127958865Y-87188978D01*
X128004901Y-87227099D01*
X128047951Y-87262319D01*
X128086440Y-87293306D01*
X128118796Y-87318725D01*
X128124403Y-87323031D01*
X128167722Y-87355719D01*
X128217137Y-87392328D01*
X128267392Y-87429003D01*
X128313232Y-87461890D01*
X128326104Y-87470980D01*
X128360837Y-87495602D01*
X128392628Y-87518539D01*
X128419075Y-87538028D01*
X128437772Y-87552302D01*
X128444964Y-87558249D01*
X128461630Y-87571085D01*
X128484812Y-87586191D01*
X128499926Y-87594976D01*
X128521092Y-87607339D01*
X128550078Y-87625237D01*
X128582788Y-87646103D01*
X128610043Y-87663979D01*
X128646055Y-87687417D01*
X128685044Y-87711949D01*
X128721495Y-87734142D01*
X128742376Y-87746349D01*
X128800978Y-87780380D01*
X128866508Y-87819559D01*
X128934015Y-87860878D01*
X128998551Y-87901328D01*
X129021254Y-87915838D01*
X129095741Y-87963799D01*
X129159321Y-88004878D01*
X129213255Y-88039915D01*
X129258798Y-88069749D01*
X129297211Y-88095219D01*
X129329752Y-88117164D01*
X129357678Y-88136423D01*
X129382248Y-88153835D01*
X129404720Y-88170240D01*
X129420860Y-88182316D01*
X129459555Y-88212332D01*
X129487824Y-88236908D01*
X129507271Y-88258533D01*
X129519500Y-88279693D01*
X129526117Y-88302878D01*
X129528724Y-88330574D01*
X129529032Y-88350069D01*
X129528247Y-88382163D01*
X129525245Y-88404827D01*
X129519040Y-88422985D01*
X129511752Y-88436512D01*
X129473058Y-88487671D01*
X129423875Y-88531276D01*
X129367134Y-88565007D01*
X129331011Y-88579435D01*
X129292322Y-88589976D01*
X129254311Y-88595070D01*
X129213284Y-88594737D01*
X129165551Y-88588994D01*
X129119816Y-88580468D01*
X129084466Y-88573617D01*
X129053710Y-88568488D01*
X129030548Y-88565522D01*
X129017980Y-88565159D01*
X129017164Y-88565368D01*
X129010350Y-88569601D01*
X129007411Y-88576594D01*
X129008976Y-88587627D01*
X129015671Y-88603978D01*
X129028123Y-88626925D01*
X129046960Y-88657749D01*
X129072809Y-88697726D01*
X129106298Y-88748136D01*
X129108239Y-88751035D01*
X129134605Y-88797078D01*
X129160155Y-88854159D01*
X129183726Y-88918914D01*
X129204155Y-88987978D01*
X129220278Y-89057987D01*
X129226505Y-89093206D01*
X129226711Y-89131325D01*
X129217735Y-89175184D01*
X129201189Y-89220979D01*
X129178682Y-89264905D01*
X129151827Y-89303160D01*
X129126977Y-89328218D01*
X129094684Y-89350890D01*
X129060168Y-89366483D01*
X129019600Y-89376254D01*
X128969153Y-89381460D01*
X128964049Y-89381745D01*
X128926831Y-89383225D01*
X128892865Y-89383207D01*
X128860397Y-89381246D01*
X128827676Y-89376898D01*
X128792947Y-89369718D01*
X128754458Y-89359260D01*
X128710455Y-89345081D01*
X128659187Y-89326734D01*
X128598901Y-89303775D01*
X128527842Y-89275759D01*
X128495389Y-89262788D01*
X128458687Y-89247975D01*
X128426184Y-89234551D01*
X128395464Y-89221421D01*
X128364112Y-89207490D01*
X128329711Y-89191662D01*
X128289847Y-89172844D01*
X128242103Y-89149939D01*
X128184064Y-89121853D01*
X128178430Y-89119120D01*
X128137058Y-89099198D01*
X128099114Y-89081211D01*
X128066863Y-89066211D01*
X128042573Y-89055250D01*
X128028509Y-89049379D01*
X128027153Y-89048918D01*
X128013559Y-89043647D01*
X127990423Y-89033576D01*
X127961152Y-89020221D01*
X127933506Y-89007190D01*
X127883509Y-88983835D01*
X127836549Y-88962968D01*
X127794435Y-88945308D01*
X127758976Y-88931573D01*
X127731980Y-88922482D01*
X127715256Y-88918753D01*
X127711536Y-88919026D01*
X127704417Y-88928917D01*
X127704009Y-88948748D01*
X127709719Y-88976038D01*
X127720957Y-89008308D01*
X127737129Y-89043076D01*
X127744216Y-89056024D01*
X127783820Y-89119440D01*
X127811807Y-89155554D01*
X127824981Y-89172553D01*
X127870976Y-89219366D01*
X127894925Y-89240106D01*
X127932498Y-89269403D01*
X127970305Y-89294741D01*
X128011033Y-89317466D01*
X128057370Y-89338921D01*
X128112002Y-89360449D01*
X128177618Y-89383393D01*
X128189235Y-89387259D01*
X128235555Y-89402948D01*
X128281177Y-89419051D01*
X128322807Y-89434356D01*
X128357151Y-89447655D01*
X128380131Y-89457375D01*
X128405133Y-89469889D01*
X128437804Y-89487772D01*
X128462669Y-89502046D01*
X128476275Y-89509856D01*
X128518676Y-89534974D01*
X128563137Y-89561955D01*
X128607789Y-89589633D01*
X128650760Y-89616839D01*
X128690183Y-89642404D01*
X128724186Y-89665160D01*
X128750901Y-89683939D01*
X128768457Y-89697572D01*
X128774561Y-89703834D01*
X128782056Y-89711733D01*
X128798333Y-89726431D01*
X128820907Y-89745748D01*
X128844374Y-89765131D01*
X128901935Y-89812351D01*
X128949928Y-89852879D01*
X128990296Y-89888683D01*
X129024987Y-89921731D01*
X129055945Y-89953990D01*
X129085117Y-89987428D01*
X129114446Y-90024013D01*
X129145880Y-90065712D01*
X129158223Y-90082542D01*
X129176038Y-90106438D01*
X129190966Y-90125492D01*
X129200822Y-90136960D01*
X129203190Y-90139003D01*
X129208698Y-90145792D01*
X129219905Y-90162694D01*
X129235308Y-90187344D01*
X129253401Y-90217376D01*
X129258169Y-90225447D01*
X129294228Y-90288004D01*
X129322594Y-90340398D01*
X129343871Y-90384244D01*
X129358665Y-90421155D01*
X129367581Y-90452746D01*
X129371225Y-90480630D01*
X129370201Y-90506421D01*
X129368184Y-90518761D01*
X129358820Y-90550473D01*
X129342681Y-90589971D01*
X129321679Y-90633548D01*
X129297725Y-90677498D01*
X129272732Y-90718115D01*
X129248612Y-90751691D01*
X129246987Y-90753705D01*
X129196785Y-90809128D01*
X129140825Y-90860114D01*
X129082255Y-90904196D01*
X129024221Y-90938907D01*
X128991413Y-90954030D01*
X128907562Y-90980338D01*
X128817418Y-90994541D01*
X128722788Y-90996450D01*
X128650892Y-90989830D01*
X128626550Y-90984850D01*
X128591717Y-90975586D01*
X128549323Y-90962989D01*
X128502297Y-90948011D01*
X128453571Y-90931604D01*
X128406073Y-90914721D01*
X128362736Y-90898313D01*
X128336910Y-90887817D01*
X128319144Y-90880735D01*
X128307363Y-90876784D01*
X128306184Y-90876553D01*
X128296539Y-90874735D01*
X128277735Y-90870748D01*
X128262962Y-90867489D01*
X128237807Y-90863081D01*
X128215675Y-90861237D01*
X128207244Y-90861595D01*
X128194631Y-90865777D01*
X128190278Y-90876511D01*
X128190239Y-90887015D01*
X128193877Y-90911762D01*
X128201915Y-90942376D01*
X128212706Y-90974134D01*
X128224603Y-91002312D01*
X128235957Y-91022188D01*
X128238448Y-91025229D01*
X128250423Y-91036291D01*
X128271038Y-91053361D01*
X128297263Y-91073995D01*
X128322502Y-91093101D01*
X128350037Y-91113843D01*
X128373580Y-91132103D01*
X128390535Y-91145831D01*
X128398140Y-91152770D01*
X128408483Y-91161416D01*
X128429473Y-91175878D01*
X128459162Y-91194980D01*
X128495601Y-91217546D01*
X128536841Y-91242401D01*
X128580932Y-91268368D01*
X128625926Y-91294271D01*
X128669873Y-91318936D01*
X128707897Y-91339625D01*
X128736418Y-91355156D01*
X128760891Y-91369033D01*
X128778005Y-91379351D01*
X128783535Y-91383180D01*
X128793394Y-91389405D01*
X128813661Y-91400841D01*
X128841904Y-91416160D01*
X128875691Y-91434036D01*
X128898988Y-91446148D01*
X128973732Y-91485250D01*
X129045638Y-91523994D01*
X129116570Y-91563487D01*
X129188392Y-91604833D01*
X129262970Y-91649138D01*
X129342168Y-91697505D01*
X129427851Y-91751041D01*
X129521882Y-91810850D01*
X129608350Y-91866529D01*
X129638691Y-91886204D01*
X129665833Y-91903951D01*
X129691815Y-91921151D01*
X129718680Y-91939189D01*
X129748468Y-91959447D01*
X129783221Y-91983307D01*
X129824979Y-92012152D01*
X129875782Y-92047364D01*
X129896496Y-92061738D01*
X129966821Y-92111473D01*
X130037615Y-92163263D01*
X130107356Y-92215885D01*
X130174521Y-92268112D01*
X130237589Y-92318719D01*
X130295037Y-92366481D01*
X130345342Y-92410173D01*
X130386982Y-92448569D01*
X130418435Y-92480443D01*
X130423105Y-92485628D01*
X130446698Y-92514857D01*
X130472583Y-92550923D01*
X130496540Y-92587813D01*
X130505532Y-92603021D01*
X130527683Y-92645596D01*
X130540517Y-92680511D01*
X130544447Y-92710731D01*
X130539886Y-92739222D01*
X130528327Y-92766878D01*
X130506601Y-92798498D01*
X130475872Y-92829857D01*
X130440552Y-92857261D01*
X130405053Y-92877022D01*
X130390201Y-92882434D01*
X130370343Y-92888090D01*
X130352816Y-92892252D01*
X130336208Y-92894460D01*
X130319105Y-92894253D01*
X130300094Y-92891170D01*
X130277763Y-92884750D01*
X130250697Y-92874532D01*
X130217485Y-92860057D01*
X130176712Y-92840862D01*
X130126966Y-92816488D01*
X130066833Y-92786472D01*
X130012926Y-92759409D01*
X129892124Y-92698323D01*
X129776514Y-92639056D01*
X129667077Y-92582136D01*
X129564796Y-92528091D01*
X129470653Y-92477450D01*
X129385631Y-92430741D01*
X129310713Y-92388494D01*
X129246880Y-92351236D01*
X129195115Y-92319496D01*
X129194142Y-92318878D01*
X129178285Y-92309136D01*
X129152641Y-92293754D01*
X129119890Y-92274309D01*
X129082717Y-92252376D01*
X129043803Y-92229530D01*
X129005830Y-92207348D01*
X128971482Y-92187406D01*
X128943441Y-92171278D01*
X128927607Y-92162323D01*
X128905741Y-92149793D01*
X128877098Y-92132921D01*
X128847158Y-92114940D01*
X128841164Y-92111293D01*
X128768718Y-92067337D01*
X128707287Y-92030589D01*
X128657212Y-92001249D01*
X128618833Y-91979521D01*
X128614249Y-91977008D01*
X128574938Y-91955294D01*
X128533134Y-91931725D01*
X128491645Y-91907930D01*
X128453279Y-91885539D01*
X128420846Y-91866183D01*
X128397153Y-91851490D01*
X128390937Y-91847409D01*
X128375322Y-91838080D01*
X128348370Y-91823335D01*
X128311727Y-91803999D01*
X128267043Y-91780897D01*
X128215964Y-91754854D01*
X128160140Y-91726695D01*
X128101217Y-91697243D01*
X128040845Y-91667324D01*
X127980670Y-91637762D01*
X127922340Y-91609383D01*
X127867505Y-91583010D01*
X127817811Y-91559469D01*
X127785832Y-91544594D01*
X127728234Y-91518426D01*
X127672892Y-91493958D01*
X127621719Y-91471986D01*
X127576628Y-91453310D01*
X127539533Y-91438728D01*
X127512347Y-91429039D01*
X127501288Y-91425835D01*
X127491271Y-91422801D01*
X127469973Y-91415917D01*
X127439756Y-91405961D01*
X127402982Y-91393711D01*
X127363374Y-91380405D01*
X127320324Y-91366271D01*
X127279385Y-91353534D01*
X127243529Y-91343067D01*
X127215727Y-91335741D01*
X127200471Y-91332610D01*
X127155136Y-91332294D01*
X127112131Y-91342909D01*
X127074418Y-91363024D01*
X127044958Y-91391206D01*
X127031004Y-91414575D01*
X127024763Y-91430571D01*
X127021061Y-91446609D01*
X127019596Y-91466385D01*
X127020062Y-91493592D01*
X127021805Y-91526231D01*
X127026662Y-91578823D01*
X127035128Y-91641309D01*
X127046511Y-91709832D01*
X127060120Y-91780536D01*
X127075264Y-91849565D01*
X127090943Y-91911928D01*
X127100109Y-91946697D01*
X127107993Y-91978423D01*
X127113689Y-92003352D01*
X127116182Y-92016735D01*
X127119668Y-92033998D01*
X127126999Y-92062982D01*
X127137609Y-92101692D01*
X127150931Y-92148132D01*
X127166399Y-92200309D01*
X127183447Y-92256227D01*
X127191849Y-92283251D01*
X127203132Y-92320997D01*
X127215917Y-92366584D01*
X127229621Y-92417650D01*
X127243663Y-92471834D01*
X127257461Y-92526775D01*
X127270433Y-92580112D01*
X127281998Y-92629485D01*
X127291572Y-92672531D01*
X127298576Y-92706891D01*
X127302426Y-92730202D01*
X127302767Y-92733339D01*
X127306256Y-92763397D01*
X127310817Y-92793062D01*
X127313687Y-92807743D01*
X127321742Y-92854334D01*
X127327704Y-92910686D01*
X127331542Y-92973379D01*
X127333226Y-93038997D01*
X127332727Y-93104121D01*
X127330014Y-93165333D01*
X127325057Y-93219215D01*
X127317825Y-93262350D01*
X127317689Y-93262944D01*
X127311447Y-93290018D01*
X127306206Y-93312900D01*
X127303082Y-93326719D01*
X127303048Y-93326873D01*
X127292726Y-93350909D01*
X127272766Y-93379368D01*
X127245886Y-93409267D01*
X127214804Y-93437624D01*
X127182241Y-93461456D01*
X127177934Y-93464131D01*
X127143284Y-93482988D01*
X127105387Y-93500083D01*
X127068217Y-93513920D01*
X127035750Y-93523004D01*
X127013899Y-93525877D01*
X126983855Y-93520436D01*
X126951877Y-93506079D01*
X126924202Y-93485756D01*
X126919913Y-93481429D01*
X126905958Y-93462013D01*
X126889825Y-93432765D01*
X126873294Y-93397705D01*
X126858139Y-93360854D01*
X126846140Y-93326233D01*
X126839263Y-93298963D01*
X126833363Y-93256791D01*
X126828140Y-93200743D01*
X126823588Y-93130718D01*
X126819703Y-93046617D01*
X126816480Y-92948341D01*
X126813912Y-92835791D01*
X126813497Y-92812718D01*
X126811347Y-92708561D01*
X126808649Y-92611726D01*
X126805457Y-92523362D01*
X126801825Y-92444619D01*
X126797808Y-92376646D01*
X126793458Y-92320592D01*
X126788831Y-92277607D01*
X126788053Y-92271907D01*
X126781173Y-92238259D01*
X126770704Y-92202792D01*
X126762260Y-92180988D01*
X126751680Y-92153567D01*
X126738981Y-92114258D01*
X126724727Y-92065329D01*
X126709482Y-92009049D01*
X126693810Y-91947685D01*
X126678275Y-91883504D01*
X126663442Y-91818775D01*
X126649875Y-91755765D01*
X126638139Y-91696742D01*
X126629083Y-91645730D01*
X126621280Y-91581366D01*
X126617080Y-91508933D01*
X126616601Y-91434338D01*
X126619959Y-91363491D01*
X126622880Y-91333311D01*
X126634749Y-91261553D01*
X126653266Y-91199375D01*
X126679905Y-91142909D01*
X126716141Y-91088289D01*
X126716433Y-91087902D01*
X126754218Y-91047097D01*
X126803421Y-91007953D01*
X126861056Y-90972113D01*
X126924134Y-90941218D01*
X126989668Y-90916913D01*
X127054670Y-90900840D01*
X127057569Y-90900331D01*
X127085179Y-90897429D01*
X127123662Y-90895943D01*
X127169561Y-90895831D01*
X127219414Y-90897053D01*
X127269762Y-90899568D01*
X127317146Y-90903336D01*
X127317596Y-90903381D01*
X127369027Y-90908688D01*
X127414712Y-90914069D01*
X127458257Y-90920078D01*
X127503269Y-90927274D01*
X127553354Y-90936213D01*
X127612119Y-90947453D01*
X127645361Y-90954006D01*
X127711558Y-90967030D01*
X127765213Y-90977256D01*
X127807879Y-90984869D01*
X127841110Y-90990055D01*
X127866459Y-90992999D01*
X127885480Y-90993887D01*
X127899725Y-90992904D01*
X127910747Y-90990236D01*
X127918948Y-90986676D01*
X127941056Y-90968984D01*
X127951189Y-90944430D01*
X127949689Y-90912027D01*
X127947876Y-90903921D01*
X127940930Y-90881472D01*
X127930499Y-90857374D01*
X127915660Y-90830230D01*
X127895492Y-90798637D01*
X127869070Y-90761196D01*
X127835472Y-90716507D01*
X127793775Y-90663169D01*
X127767358Y-90630018D01*
X127713569Y-90562653D01*
X127667454Y-90504402D01*
X127627504Y-90453282D01*
X127592205Y-90407309D01*
X127560045Y-90364498D01*
X127529514Y-90322868D01*
X127499098Y-90280432D01*
X127476393Y-90248225D01*
X127453021Y-90215239D01*
X127431237Y-90185144D01*
X127412967Y-90160554D01*
X127400138Y-90144086D01*
X127396791Y-90140171D01*
X127381393Y-90118959D01*
X127363285Y-90087024D01*
X127346934Y-90053664D01*
X128126108Y-90053664D01*
X128126885Y-90092142D01*
X128139533Y-90127162D01*
X128154302Y-90145622D01*
X128180982Y-90168356D01*
X128218020Y-90194514D01*
X128263860Y-90223249D01*
X128316950Y-90253711D01*
X128375734Y-90285052D01*
X128438659Y-90316424D01*
X128504169Y-90346976D01*
X128570711Y-90375861D01*
X128636731Y-90402229D01*
X128657471Y-90409989D01*
X128695900Y-90424376D01*
X128733304Y-90438839D01*
X128765651Y-90451790D01*
X128788911Y-90461640D01*
X128790738Y-90462465D01*
X128827072Y-90474623D01*
X128868060Y-90481361D01*
X128909364Y-90482583D01*
X128946642Y-90478192D01*
X128975556Y-90468092D01*
X128978033Y-90466633D01*
X129006918Y-90442210D01*
X129024326Y-90411190D01*
X129031241Y-90371603D01*
X129031443Y-90359762D01*
X129028656Y-90328307D01*
X129020177Y-90296091D01*
X129004966Y-90260725D01*
X128981985Y-90219822D01*
X128950196Y-90170992D01*
X128947994Y-90167769D01*
X128888757Y-90090938D01*
X128823791Y-90025737D01*
X128759765Y-89975913D01*
X128689032Y-89934084D01*
X128614654Y-89903046D01*
X128538557Y-89883039D01*
X128462669Y-89874303D01*
X128388916Y-89877081D01*
X128319225Y-89891613D01*
X128263647Y-89913878D01*
X128208385Y-89946328D01*
X128166968Y-89980568D01*
X128139506Y-90016410D01*
X128126108Y-90053664D01*
X127346934Y-90053664D01*
X127343887Y-90047447D01*
X127324622Y-90003306D01*
X127306911Y-89957680D01*
X127292175Y-89913650D01*
X127292055Y-89913256D01*
X127273724Y-89836059D01*
X127267589Y-89764793D01*
X127273735Y-89697582D01*
X127281505Y-89670290D01*
X127710536Y-89670290D01*
X127711391Y-89693165D01*
X127712265Y-89705213D01*
X127717566Y-89743497D01*
X127728522Y-89780581D01*
X127742326Y-89813333D01*
X127762089Y-89854329D01*
X127778946Y-89884315D01*
X127794821Y-89905858D01*
X127811637Y-89921520D01*
X127831320Y-89933868D01*
X127833670Y-89935096D01*
X127856931Y-89945480D01*
X127874471Y-89948441D01*
X127889754Y-89945825D01*
X127923181Y-89932797D01*
X127948776Y-89913716D01*
X127969848Y-89885507D01*
X127983743Y-89858551D01*
X127996045Y-89830261D01*
X128002708Y-89808872D01*
X128004925Y-89788602D01*
X128003889Y-89763668D01*
X128003731Y-89761665D01*
X127994964Y-89711008D01*
X127977117Y-89671174D01*
X127949291Y-89641178D01*
X127910588Y-89620034D01*
X127862895Y-89607242D01*
X127811807Y-89602195D01*
X127770759Y-89607193D01*
X127739403Y-89622299D01*
X127729180Y-89631523D01*
X127718385Y-89644024D01*
X127712518Y-89655428D01*
X127710536Y-89670290D01*
X127281505Y-89670290D01*
X127292250Y-89632550D01*
X127306572Y-89599435D01*
X127324467Y-89565186D01*
X127344309Y-89533939D01*
X127368406Y-89502718D01*
X127399061Y-89468542D01*
X127438581Y-89428433D01*
X127440024Y-89427011D01*
X127470909Y-89395163D01*
X127497741Y-89364711D01*
X127518078Y-89338550D01*
X127527931Y-89322847D01*
X127538389Y-89300748D01*
X127542495Y-89284222D01*
X127541209Y-89266430D01*
X127537999Y-89251212D01*
X127531857Y-89231990D01*
X127520535Y-89203257D01*
X127505431Y-89168321D01*
X127487944Y-89130489D01*
X127479991Y-89114055D01*
X127456851Y-89066658D01*
X127439131Y-89029451D01*
X127425747Y-88999769D01*
X127415615Y-88974949D01*
X127407650Y-88952326D01*
X127400768Y-88929235D01*
X127393884Y-88903011D01*
X127393535Y-88901629D01*
X127379136Y-88832340D01*
X127373673Y-88771953D01*
X127377340Y-88717921D01*
X127390334Y-88667692D01*
X127412850Y-88618717D01*
X127415581Y-88613880D01*
X127445067Y-88570243D01*
X127478895Y-88536745D01*
X127520583Y-88510488D01*
X127563259Y-88492270D01*
X127620312Y-88473141D01*
X127672682Y-88459945D01*
X127723763Y-88452445D01*
X127776944Y-88450403D01*
X127835619Y-88453583D01*
X127903178Y-88461746D01*
X127933506Y-88466363D01*
X128007615Y-88480837D01*
X128090450Y-88501702D01*
X128178447Y-88527836D01*
X128268036Y-88558119D01*
X128355652Y-88591428D01*
X128424656Y-88620722D01*
X128467161Y-88638621D01*
X128512067Y-88655587D01*
X128555685Y-88670382D01*
X128594326Y-88681769D01*
X128624302Y-88688510D01*
X128628657Y-88689156D01*
X128640361Y-88691146D01*
X128643064Y-88692137D01*
X128649297Y-88693717D01*
X128664314Y-88695995D01*
X128664578Y-88696030D01*
X128684954Y-88699472D01*
X128710726Y-88704818D01*
X128720489Y-88707077D01*
X128749105Y-88712269D01*
X128766254Y-88710626D01*
X128773520Y-88701422D01*
X128772483Y-88683928D01*
X128772336Y-88683245D01*
X128766844Y-88662130D01*
X128759407Y-88642960D01*
X128748679Y-88624146D01*
X128733312Y-88604097D01*
X128711961Y-88581224D01*
X128683278Y-88553936D01*
X128645918Y-88520644D01*
X128603877Y-88484332D01*
X128554918Y-88442451D01*
X128514648Y-88408232D01*
X128480853Y-88379921D01*
X128451320Y-88355762D01*
X128423836Y-88334001D01*
X128396186Y-88312882D01*
X128366157Y-88290649D01*
X128331535Y-88265549D01*
X128293688Y-88238389D01*
X128259263Y-88213594D01*
X128228483Y-88191151D01*
X128203453Y-88172616D01*
X128186279Y-88159546D01*
X128179434Y-88153900D01*
X128167566Y-88145174D01*
X128148049Y-88133572D01*
X128135208Y-88126756D01*
X128113707Y-88115014D01*
X128096706Y-88104236D01*
X128090982Y-88099683D01*
X128079776Y-88090751D01*
X128059402Y-88076428D01*
X128032174Y-88058177D01*
X128000403Y-88037458D01*
X127966401Y-88015732D01*
X127932479Y-87994462D01*
X127900950Y-87975108D01*
X127874125Y-87959131D01*
X127854316Y-87947993D01*
X127843836Y-87943156D01*
X127843203Y-87943064D01*
X127835846Y-87939302D01*
X127819229Y-87929179D01*
X127796004Y-87914439D01*
X127768825Y-87896823D01*
X127740343Y-87878076D01*
X127713209Y-87859940D01*
X127690078Y-87844160D01*
X127673600Y-87832477D01*
X127666972Y-87827235D01*
X127656371Y-87818289D01*
X127637575Y-87803582D01*
X127614053Y-87785809D01*
X127605741Y-87779655D01*
X127565993Y-87748874D01*
X127535259Y-87720703D01*
X127510255Y-87691201D01*
X127487702Y-87656424D01*
X127464316Y-87612430D01*
X127461038Y-87605817D01*
X127449940Y-87580455D01*
X127445552Y-87560268D01*
X127446563Y-87538464D01*
X127447193Y-87534004D01*
X127455414Y-87500996D01*
X127469064Y-87468165D01*
X127485833Y-87440050D01*
X127503408Y-87421190D01*
X127505314Y-87419860D01*
X127522290Y-87404304D01*
X127534266Y-87387299D01*
X127539891Y-87373863D01*
X127541169Y-87360238D01*
X127538078Y-87341254D01*
X127533983Y-87324623D01*
X127515731Y-87267836D01*
X127490766Y-87215466D01*
X127456761Y-87163072D01*
X127433377Y-87132655D01*
X127360317Y-87036768D01*
X127297108Y-86942201D01*
X127240594Y-86844083D01*
X127218161Y-86800774D01*
X127194366Y-86741442D01*
X127180905Y-86680339D01*
X127178132Y-86620662D01*
X127186400Y-86565610D01*
X127190589Y-86551904D01*
X127219578Y-86489170D01*
X127260195Y-86433691D01*
X127311008Y-86386643D01*
X127370583Y-86349201D01*
X127437485Y-86322544D01*
X127483279Y-86311722D01*
X127500125Y-86308696D01*
X127526448Y-86303916D01*
X127557556Y-86298236D01*
X127569723Y-86296007D01*
X127605740Y-86290965D01*
X127654502Y-86286589D01*
X127714357Y-86282995D01*
X127783653Y-86280297D01*
X127802554Y-86279769D01*
X127970553Y-86275423D01*
X127856022Y-86124147D01*
X127821890Y-86078782D01*
X127787652Y-86032768D01*
X127755214Y-85988704D01*
X127726482Y-85949188D01*
X127703363Y-85916821D01*
X127692240Y-85900834D01*
X127669311Y-85867403D01*
X127645815Y-85833326D01*
X127624895Y-85803148D01*
X127612620Y-85785576D01*
X127574597Y-85725036D01*
X127548677Y-85669076D01*
X127538180Y-85629861D01*
X127890285Y-85629861D01*
X127894079Y-85638406D01*
X127904173Y-85655548D01*
X127918634Y-85678062D01*
X127923743Y-85685689D01*
X127962570Y-85740248D01*
X128007059Y-85797268D01*
X128058082Y-85857701D01*
X128116513Y-85922500D01*
X128183227Y-85992615D01*
X128259097Y-86068999D01*
X128344996Y-86152604D01*
X128403136Y-86207975D01*
X128444280Y-86246757D01*
X128476971Y-86277132D01*
X128503144Y-86300679D01*
X128524733Y-86318976D01*
X128543671Y-86333602D01*
X128561893Y-86346134D01*
X128581333Y-86358151D01*
X128601495Y-86369846D01*
X128667737Y-86402068D01*
X128729832Y-86420650D01*
X128788084Y-86425657D01*
X128837124Y-86418699D01*
X128880018Y-86405305D01*
X128923101Y-86387802D01*
X128963463Y-86367759D01*
X128998195Y-86346748D01*
X129024388Y-86326336D01*
X129037932Y-86310348D01*
X129040001Y-86296365D01*
X129037542Y-86272787D01*
X129031356Y-86243404D01*
X129022248Y-86212007D01*
X129011021Y-86182384D01*
X129010605Y-86181438D01*
X129004928Y-86169395D01*
X128998487Y-86158531D01*
X128989883Y-86147656D01*
X128977715Y-86135582D01*
X128960585Y-86121121D01*
X128937091Y-86103084D01*
X128905836Y-86080283D01*
X128865418Y-86051529D01*
X128819627Y-86019280D01*
X128789829Y-85998189D01*
X128763435Y-85979234D01*
X128743179Y-85964398D01*
X128731799Y-85955665D01*
X128731372Y-85955305D01*
X128717780Y-85945654D01*
X128697161Y-85933068D01*
X128684475Y-85925965D01*
X128661680Y-85912954D01*
X128632562Y-85895374D01*
X128602779Y-85876655D01*
X128597770Y-85873421D01*
X128575729Y-85859542D01*
X128547427Y-85842336D01*
X128515284Y-85823203D01*
X128481720Y-85803542D01*
X128449156Y-85784754D01*
X128420013Y-85768239D01*
X128396711Y-85755397D01*
X128381671Y-85747628D01*
X128377386Y-85745956D01*
X128370172Y-85742605D01*
X128353022Y-85733478D01*
X128328501Y-85719969D01*
X128299170Y-85703470D01*
X128299053Y-85703404D01*
X128261853Y-85682736D01*
X128217550Y-85658810D01*
X128171962Y-85634736D01*
X128134631Y-85615508D01*
X128097777Y-85597108D01*
X128070495Y-85584466D01*
X128049659Y-85576528D01*
X128032147Y-85572237D01*
X128014835Y-85570540D01*
X128000837Y-85570332D01*
X127963179Y-85573486D01*
X127937862Y-85582724D01*
X127937324Y-85583071D01*
X127916502Y-85598590D01*
X127899928Y-85614313D01*
X127890985Y-85626874D01*
X127890285Y-85629861D01*
X127538180Y-85629861D01*
X127535098Y-85618345D01*
X127534096Y-85573492D01*
X127534395Y-85571314D01*
X127543166Y-85538099D01*
X127559715Y-85498513D01*
X127581945Y-85456674D01*
X127607761Y-85416703D01*
X127623605Y-85395933D01*
X127679990Y-85337999D01*
X127746496Y-85288524D01*
X127820551Y-85249153D01*
X127893886Y-85223064D01*
X127921965Y-85217816D01*
X127961641Y-85213829D01*
X128000837Y-85211633D01*
X128010160Y-85211111D01*
X128064766Y-85209667D01*
X128122706Y-85209506D01*
X128181223Y-85210635D01*
G37*
%TD.AperFunction*%
%TD*%
D11*
%TO.P,U103,1,GND*%
%TO.N,GND*%
X155881000Y-85953000D03*
D12*
%TO.P,U103,2,DQ*%
%TO.N,/DALLAS_TEMP*%
X155881000Y-88493000D03*
%TO.P,U103,3,V_{DD}*%
%TO.N,+5V*%
X155881000Y-91033000D03*
%TD*%
D13*
%TO.P,U102,1,VIN*%
%TO.N,+5V*%
X135561000Y-80492000D03*
%TO.P,U102,2,GND*%
%TO.N,GND*%
X138101000Y-80492000D03*
%TO.P,U102,3,3V3*%
%TO.N,unconnected-(U102-3V3-Pad3)*%
X140641000Y-80492000D03*
%TO.P,U102,4,CLK*%
%TO.N,/CLK*%
X143181000Y-80492000D03*
%TO.P,U102,5,SDO*%
%TO.N,/SDO*%
X145721000Y-80492000D03*
%TO.P,U102,6,SDI*%
%TO.N,/SDI*%
X148261000Y-80492000D03*
%TO.P,U102,7,CS*%
%TO.N,unconnected-(U102-CS-Pad7)*%
X150801000Y-80492000D03*
%TO.P,U102,8,NC*%
%TO.N,unconnected-(U102-NC-Pad8)*%
X153341000Y-80492000D03*
%TD*%
D14*
%TO.P,C101,1*%
%TO.N,+5V*%
X135524288Y-86842000D03*
D13*
%TO.P,C101,2*%
%TO.N,GND*%
X138024288Y-86842000D03*
%TD*%
%TO.P,U101,1,3V3*%
%TO.N,+3V3*%
X133402000Y-120370000D03*
%TO.P,U101,2,D8*%
%TO.N,unconnected-(U101-D8-Pad2)*%
X133402000Y-117830000D03*
%TO.P,U101,3,D7*%
%TO.N,/SDI*%
X133402000Y-115290000D03*
%TO.P,U101,4,D6*%
%TO.N,/SDO*%
X133402000Y-112750000D03*
%TO.P,U101,5,D5*%
%TO.N,/CLK*%
X133402000Y-110210000D03*
%TO.P,U101,6,D0*%
%TO.N,unconnected-(U101-D0-Pad6)*%
X133402000Y-107670000D03*
%TO.P,U101,7,A0*%
%TO.N,unconnected-(U101-A0-Pad7)*%
X133402000Y-105130000D03*
%TO.P,U101,8,RST*%
%TO.N,unconnected-(U101-RST-Pad8)*%
X133402000Y-102590000D03*
%TO.P,U101,9,5V*%
%TO.N,+5V*%
X155500000Y-120370000D03*
%TO.P,U101,10,GND*%
%TO.N,GND*%
X155500000Y-117830000D03*
%TO.P,U101,11,D4*%
%TO.N,/DALLAS_TEMP*%
X155500000Y-115290000D03*
%TO.P,U101,12,D3*%
%TO.N,unconnected-(U101-D3-Pad12)*%
X155500000Y-112750000D03*
%TO.P,U101,13,D2*%
%TO.N,unconnected-(U101-D2-Pad13)*%
X155500000Y-110210000D03*
%TO.P,U101,14,D1*%
%TO.N,unconnected-(U101-D1-Pad14)*%
X155500000Y-107670000D03*
%TO.P,U101,15,RX*%
%TO.N,unconnected-(U101-RX-Pad15)*%
X155500000Y-105130000D03*
%TO.P,U101,16,TX*%
%TO.N,unconnected-(U101-TX-Pad16)*%
X155500000Y-102590000D03*
%TD*%
D15*
%TO.P,R101,1*%
%TO.N,+5V*%
X155881000Y-96994000D03*
D16*
%TO.P,R101,2*%
%TO.N,/DALLAS_TEMP*%
X150801000Y-96994000D03*
%TD*%
D17*
%TO.N,GND*%
X152750000Y-117850000D03*
X144500000Y-124100000D03*
X154500000Y-131600000D03*
X127000000Y-124100000D03*
X162000000Y-72200000D03*
X154500000Y-51600000D03*
X138000000Y-98040979D03*
X162000000Y-111050000D03*
X150800000Y-85950000D03*
X144500000Y-59100000D03*
X162000000Y-98100000D03*
X162000000Y-124100000D03*
X162000000Y-85150000D03*
X144500000Y-72150000D03*
X134500000Y-51600000D03*
X127000000Y-111000000D03*
X127000000Y-59100000D03*
X127000000Y-72150000D03*
X162000000Y-59100000D03*
X140850000Y-107750000D03*
X134500000Y-131600000D03*
X144500000Y-111000000D03*
%TD*%
%TA.AperFunction,Conductor*%
%TO.N,GND*%
G36*
X160520032Y-49594648D02*
G01*
X160853929Y-49611052D01*
X160866037Y-49612245D01*
X160969146Y-49627539D01*
X161193699Y-49660849D01*
X161205617Y-49663219D01*
X161526951Y-49743709D01*
X161538588Y-49747240D01*
X161609806Y-49772722D01*
X161850467Y-49858832D01*
X161861688Y-49863479D01*
X162161163Y-50005120D01*
X162171871Y-50010844D01*
X162455988Y-50181137D01*
X162466106Y-50187897D01*
X162732170Y-50385224D01*
X162741576Y-50392944D01*
X162987013Y-50615395D01*
X162995604Y-50623986D01*
X163182755Y-50830475D01*
X163218055Y-50869423D01*
X163225775Y-50878829D01*
X163423102Y-51144893D01*
X163429862Y-51155011D01*
X163564982Y-51380446D01*
X163600148Y-51439116D01*
X163605883Y-51449844D01*
X163723954Y-51699485D01*
X163747514Y-51749297D01*
X163752170Y-51760540D01*
X163863759Y-52072411D01*
X163867292Y-52084055D01*
X163947777Y-52405369D01*
X163950151Y-52417305D01*
X163998754Y-52744962D01*
X163999947Y-52757071D01*
X164016351Y-53090966D01*
X164016500Y-53097051D01*
X164016500Y-130090948D01*
X164016351Y-130097033D01*
X163999947Y-130430928D01*
X163998754Y-130443037D01*
X163950151Y-130770694D01*
X163947777Y-130782630D01*
X163867292Y-131103944D01*
X163863759Y-131115588D01*
X163752170Y-131427459D01*
X163747514Y-131438702D01*
X163605885Y-131738151D01*
X163600148Y-131748883D01*
X163429862Y-132032988D01*
X163423102Y-132043106D01*
X163225775Y-132309170D01*
X163218055Y-132318576D01*
X162995611Y-132564006D01*
X162987006Y-132572611D01*
X162741576Y-132795055D01*
X162732170Y-132802775D01*
X162466106Y-133000102D01*
X162455988Y-133006862D01*
X162171883Y-133177148D01*
X162161151Y-133182885D01*
X161861702Y-133324514D01*
X161850459Y-133329170D01*
X161538588Y-133440759D01*
X161526944Y-133444292D01*
X161205630Y-133524777D01*
X161193694Y-133527151D01*
X160866037Y-133575754D01*
X160853928Y-133576947D01*
X160538989Y-133592419D01*
X160520031Y-133593351D01*
X160513949Y-133593500D01*
X128520051Y-133593500D01*
X128513968Y-133593351D01*
X128493900Y-133592365D01*
X128180071Y-133576947D01*
X128167962Y-133575754D01*
X127840305Y-133527151D01*
X127828369Y-133524777D01*
X127507055Y-133444292D01*
X127495411Y-133440759D01*
X127183540Y-133329170D01*
X127172301Y-133324515D01*
X126872844Y-133182883D01*
X126862121Y-133177150D01*
X126578011Y-133006862D01*
X126567893Y-133000102D01*
X126301829Y-132802775D01*
X126292423Y-132795055D01*
X126253475Y-132759755D01*
X126046986Y-132572604D01*
X126038395Y-132564013D01*
X125815944Y-132318576D01*
X125808224Y-132309170D01*
X125610897Y-132043106D01*
X125604137Y-132032988D01*
X125491162Y-131844500D01*
X125433844Y-131748871D01*
X125428120Y-131738163D01*
X125286479Y-131438688D01*
X125281829Y-131427459D01*
X125170240Y-131115588D01*
X125166707Y-131103944D01*
X125157958Y-131069015D01*
X125086219Y-130782617D01*
X125083848Y-130770694D01*
X125035245Y-130443037D01*
X125034052Y-130430927D01*
X125023980Y-130225902D01*
X126766500Y-130225902D01*
X126766500Y-130462097D01*
X126803446Y-130695368D01*
X126876433Y-130919996D01*
X126952363Y-131069015D01*
X126983657Y-131130433D01*
X127122483Y-131321510D01*
X127289490Y-131488517D01*
X127480567Y-131627343D01*
X127579991Y-131678002D01*
X127691003Y-131734566D01*
X127691005Y-131734566D01*
X127691008Y-131734568D01*
X127811412Y-131773689D01*
X127915631Y-131807553D01*
X128148903Y-131844500D01*
X128148908Y-131844500D01*
X128385097Y-131844500D01*
X128618368Y-131807553D01*
X128842992Y-131734568D01*
X129053433Y-131627343D01*
X129244510Y-131488517D01*
X129411517Y-131321510D01*
X129550343Y-131130433D01*
X129657568Y-130919992D01*
X129730553Y-130695368D01*
X129732671Y-130681993D01*
X129767500Y-130462097D01*
X129767500Y-130225902D01*
X159266500Y-130225902D01*
X159266500Y-130462097D01*
X159303446Y-130695368D01*
X159376433Y-130919996D01*
X159452363Y-131069015D01*
X159483657Y-131130433D01*
X159622483Y-131321510D01*
X159789490Y-131488517D01*
X159980567Y-131627343D01*
X160079991Y-131678002D01*
X160191003Y-131734566D01*
X160191005Y-131734566D01*
X160191008Y-131734568D01*
X160311412Y-131773689D01*
X160415631Y-131807553D01*
X160648903Y-131844500D01*
X160648908Y-131844500D01*
X160885097Y-131844500D01*
X161118368Y-131807553D01*
X161342992Y-131734568D01*
X161553433Y-131627343D01*
X161744510Y-131488517D01*
X161911517Y-131321510D01*
X162050343Y-131130433D01*
X162157568Y-130919992D01*
X162230553Y-130695368D01*
X162232671Y-130681993D01*
X162267500Y-130462097D01*
X162267500Y-130225902D01*
X162230553Y-129992631D01*
X162157566Y-129768003D01*
X162050342Y-129557566D01*
X161911517Y-129366490D01*
X161744510Y-129199483D01*
X161553433Y-129060657D01*
X161342996Y-128953433D01*
X161118368Y-128880446D01*
X160885097Y-128843500D01*
X160885092Y-128843500D01*
X160648908Y-128843500D01*
X160648903Y-128843500D01*
X160415631Y-128880446D01*
X160191003Y-128953433D01*
X159980566Y-129060657D01*
X159871550Y-129139862D01*
X159789490Y-129199483D01*
X159789488Y-129199485D01*
X159789487Y-129199485D01*
X159622485Y-129366487D01*
X159622485Y-129366488D01*
X159622483Y-129366490D01*
X159562862Y-129448550D01*
X159483657Y-129557566D01*
X159376433Y-129768003D01*
X159303446Y-129992631D01*
X159266500Y-130225902D01*
X129767500Y-130225902D01*
X129730553Y-129992631D01*
X129657566Y-129768003D01*
X129550342Y-129557566D01*
X129411517Y-129366490D01*
X129244510Y-129199483D01*
X129053433Y-129060657D01*
X128842996Y-128953433D01*
X128618368Y-128880446D01*
X128385097Y-128843500D01*
X128385092Y-128843500D01*
X128148908Y-128843500D01*
X128148903Y-128843500D01*
X127915631Y-128880446D01*
X127691003Y-128953433D01*
X127480566Y-129060657D01*
X127371550Y-129139862D01*
X127289490Y-129199483D01*
X127289488Y-129199485D01*
X127289487Y-129199485D01*
X127122485Y-129366487D01*
X127122485Y-129366488D01*
X127122483Y-129366490D01*
X127062862Y-129448550D01*
X126983657Y-129557566D01*
X126876433Y-129768003D01*
X126803446Y-129992631D01*
X126766500Y-130225902D01*
X125023980Y-130225902D01*
X125017649Y-130097032D01*
X125017500Y-130090948D01*
X125017500Y-102589998D01*
X132096532Y-102589998D01*
X132096532Y-102590001D01*
X132116364Y-102816686D01*
X132116366Y-102816697D01*
X132175258Y-103036488D01*
X132175261Y-103036497D01*
X132271431Y-103242732D01*
X132271432Y-103242734D01*
X132401954Y-103429141D01*
X132562858Y-103590045D01*
X132562861Y-103590047D01*
X132749266Y-103720568D01*
X132807275Y-103747618D01*
X132859714Y-103793791D01*
X132878866Y-103860984D01*
X132858650Y-103927865D01*
X132807275Y-103972382D01*
X132749267Y-103999431D01*
X132749265Y-103999432D01*
X132562858Y-104129954D01*
X132401954Y-104290858D01*
X132271432Y-104477265D01*
X132271431Y-104477267D01*
X132175261Y-104683502D01*
X132175258Y-104683511D01*
X132116366Y-104903302D01*
X132116364Y-104903313D01*
X132096532Y-105129998D01*
X132096532Y-105130001D01*
X132116364Y-105356686D01*
X132116366Y-105356697D01*
X132175258Y-105576488D01*
X132175261Y-105576497D01*
X132271431Y-105782732D01*
X132271432Y-105782734D01*
X132401954Y-105969141D01*
X132562858Y-106130045D01*
X132562861Y-106130047D01*
X132749266Y-106260568D01*
X132807275Y-106287618D01*
X132859714Y-106333791D01*
X132878866Y-106400984D01*
X132858650Y-106467865D01*
X132807275Y-106512382D01*
X132749267Y-106539431D01*
X132749265Y-106539432D01*
X132562858Y-106669954D01*
X132401954Y-106830858D01*
X132271432Y-107017265D01*
X132271431Y-107017267D01*
X132175261Y-107223502D01*
X132175258Y-107223511D01*
X132116366Y-107443302D01*
X132116364Y-107443313D01*
X132096532Y-107669998D01*
X132096532Y-107670001D01*
X132116364Y-107896686D01*
X132116366Y-107896697D01*
X132175258Y-108116488D01*
X132175261Y-108116497D01*
X132271431Y-108322732D01*
X132271432Y-108322734D01*
X132401954Y-108509141D01*
X132562858Y-108670045D01*
X132562861Y-108670047D01*
X132749266Y-108800568D01*
X132807275Y-108827618D01*
X132859714Y-108873791D01*
X132878866Y-108940984D01*
X132858650Y-109007865D01*
X132807275Y-109052382D01*
X132749267Y-109079431D01*
X132749265Y-109079432D01*
X132562858Y-109209954D01*
X132401954Y-109370858D01*
X132271432Y-109557265D01*
X132271431Y-109557267D01*
X132175261Y-109763502D01*
X132175258Y-109763511D01*
X132116366Y-109983302D01*
X132116364Y-109983313D01*
X132096532Y-110209998D01*
X132096532Y-110210001D01*
X132116364Y-110436686D01*
X132116366Y-110436697D01*
X132175258Y-110656488D01*
X132175261Y-110656497D01*
X132271431Y-110862732D01*
X132271432Y-110862734D01*
X132401954Y-111049141D01*
X132562858Y-111210045D01*
X132562861Y-111210047D01*
X132749266Y-111340568D01*
X132807275Y-111367618D01*
X132859714Y-111413791D01*
X132878866Y-111480984D01*
X132858650Y-111547865D01*
X132807275Y-111592382D01*
X132749267Y-111619431D01*
X132749265Y-111619432D01*
X132562858Y-111749954D01*
X132401954Y-111910858D01*
X132271432Y-112097265D01*
X132271431Y-112097267D01*
X132175261Y-112303502D01*
X132175258Y-112303511D01*
X132116366Y-112523302D01*
X132116364Y-112523313D01*
X132096532Y-112749998D01*
X132096532Y-112750001D01*
X132116364Y-112976686D01*
X132116366Y-112976697D01*
X132175258Y-113196488D01*
X132175261Y-113196497D01*
X132271431Y-113402732D01*
X132271432Y-113402734D01*
X132401954Y-113589141D01*
X132562858Y-113750045D01*
X132562861Y-113750047D01*
X132749266Y-113880568D01*
X132807275Y-113907618D01*
X132859714Y-113953791D01*
X132878866Y-114020984D01*
X132858650Y-114087865D01*
X132807275Y-114132382D01*
X132749267Y-114159431D01*
X132749265Y-114159432D01*
X132562858Y-114289954D01*
X132401954Y-114450858D01*
X132271432Y-114637265D01*
X132271431Y-114637267D01*
X132175261Y-114843502D01*
X132175258Y-114843511D01*
X132116366Y-115063302D01*
X132116364Y-115063313D01*
X132096532Y-115289998D01*
X132096532Y-115290001D01*
X132116364Y-115516686D01*
X132116366Y-115516697D01*
X132175258Y-115736488D01*
X132175261Y-115736497D01*
X132271431Y-115942732D01*
X132271432Y-115942734D01*
X132401954Y-116129141D01*
X132562858Y-116290045D01*
X132562861Y-116290047D01*
X132749266Y-116420568D01*
X132807275Y-116447618D01*
X132859714Y-116493791D01*
X132878866Y-116560984D01*
X132858650Y-116627865D01*
X132807275Y-116672382D01*
X132749267Y-116699431D01*
X132749265Y-116699432D01*
X132562858Y-116829954D01*
X132401954Y-116990858D01*
X132271432Y-117177265D01*
X132271431Y-117177267D01*
X132175261Y-117383502D01*
X132175258Y-117383511D01*
X132116366Y-117603302D01*
X132116364Y-117603313D01*
X132096532Y-117829998D01*
X132096532Y-117830001D01*
X132116364Y-118056686D01*
X132116366Y-118056697D01*
X132175258Y-118276488D01*
X132175261Y-118276497D01*
X132271431Y-118482732D01*
X132271432Y-118482734D01*
X132401954Y-118669141D01*
X132562858Y-118830045D01*
X132562861Y-118830047D01*
X132749266Y-118960568D01*
X132806681Y-118987341D01*
X132807275Y-118987618D01*
X132859714Y-119033791D01*
X132878866Y-119100984D01*
X132858650Y-119167865D01*
X132807275Y-119212382D01*
X132749267Y-119239431D01*
X132749265Y-119239432D01*
X132562858Y-119369954D01*
X132401954Y-119530858D01*
X132271432Y-119717265D01*
X132271431Y-119717267D01*
X132175261Y-119923502D01*
X132175258Y-119923511D01*
X132116366Y-120143302D01*
X132116364Y-120143313D01*
X132096532Y-120369998D01*
X132096532Y-120370001D01*
X132116364Y-120596686D01*
X132116366Y-120596697D01*
X132175258Y-120816488D01*
X132175261Y-120816497D01*
X132271431Y-121022732D01*
X132271432Y-121022734D01*
X132401954Y-121209141D01*
X132562858Y-121370045D01*
X132562861Y-121370047D01*
X132749266Y-121500568D01*
X132955504Y-121596739D01*
X133175308Y-121655635D01*
X133337230Y-121669801D01*
X133401998Y-121675468D01*
X133402000Y-121675468D01*
X133402002Y-121675468D01*
X133458673Y-121670509D01*
X133628692Y-121655635D01*
X133848496Y-121596739D01*
X134054734Y-121500568D01*
X134241139Y-121370047D01*
X134402047Y-121209139D01*
X134532568Y-121022734D01*
X134628739Y-120816496D01*
X134687635Y-120596692D01*
X134707468Y-120370000D01*
X134687635Y-120143308D01*
X134628739Y-119923504D01*
X134532568Y-119717266D01*
X134402047Y-119530861D01*
X134402045Y-119530858D01*
X134241141Y-119369954D01*
X134054734Y-119239432D01*
X134054728Y-119239429D01*
X133996725Y-119212382D01*
X133944285Y-119166210D01*
X133925133Y-119099017D01*
X133945348Y-119032135D01*
X133996725Y-118987618D01*
X133997319Y-118987341D01*
X134054734Y-118960568D01*
X134241139Y-118830047D01*
X134402047Y-118669139D01*
X134532568Y-118482734D01*
X134628739Y-118276496D01*
X134687635Y-118056692D01*
X134707468Y-117830000D01*
X134687635Y-117603308D01*
X134628739Y-117383504D01*
X134532568Y-117177266D01*
X134402047Y-116990861D01*
X134402045Y-116990858D01*
X134241141Y-116829954D01*
X134054734Y-116699432D01*
X134054728Y-116699429D01*
X133996725Y-116672382D01*
X133944285Y-116626210D01*
X133925133Y-116559017D01*
X133945348Y-116492135D01*
X133996725Y-116447618D01*
X134054734Y-116420568D01*
X134241139Y-116290047D01*
X134402047Y-116129139D01*
X134532568Y-115942734D01*
X134628739Y-115736496D01*
X134687635Y-115516692D01*
X134707468Y-115290000D01*
X134687635Y-115063308D01*
X134628739Y-114843504D01*
X134532568Y-114637266D01*
X134402047Y-114450861D01*
X134402045Y-114450858D01*
X134241141Y-114289954D01*
X134054734Y-114159432D01*
X134054728Y-114159429D01*
X133996725Y-114132382D01*
X133944285Y-114086210D01*
X133925133Y-114019017D01*
X133945348Y-113952135D01*
X133996725Y-113907618D01*
X134054734Y-113880568D01*
X134241139Y-113750047D01*
X134402047Y-113589139D01*
X134532568Y-113402734D01*
X134628739Y-113196496D01*
X134687635Y-112976692D01*
X134707468Y-112750000D01*
X134687635Y-112523308D01*
X134628739Y-112303504D01*
X134532568Y-112097266D01*
X134402047Y-111910861D01*
X134402045Y-111910858D01*
X134241141Y-111749954D01*
X134054734Y-111619432D01*
X134054728Y-111619429D01*
X133996725Y-111592382D01*
X133944285Y-111546210D01*
X133925133Y-111479017D01*
X133945348Y-111412135D01*
X133996725Y-111367618D01*
X134054734Y-111340568D01*
X134241139Y-111210047D01*
X134402047Y-111049139D01*
X134532568Y-110862734D01*
X134628739Y-110656496D01*
X134687635Y-110436692D01*
X134707468Y-110210000D01*
X134687635Y-109983308D01*
X134628739Y-109763504D01*
X134532568Y-109557266D01*
X134402047Y-109370861D01*
X134402045Y-109370858D01*
X134241141Y-109209954D01*
X134054734Y-109079432D01*
X134054728Y-109079429D01*
X133996725Y-109052382D01*
X133944285Y-109006210D01*
X133925133Y-108939017D01*
X133945348Y-108872135D01*
X133996725Y-108827618D01*
X134054734Y-108800568D01*
X134241139Y-108670047D01*
X134402047Y-108509139D01*
X134532568Y-108322734D01*
X134628739Y-108116496D01*
X134687635Y-107896692D01*
X134707468Y-107670000D01*
X134687635Y-107443308D01*
X134628739Y-107223504D01*
X134532568Y-107017266D01*
X134402047Y-106830861D01*
X134402045Y-106830858D01*
X134241141Y-106669954D01*
X134054734Y-106539432D01*
X134054728Y-106539429D01*
X133996725Y-106512382D01*
X133944285Y-106466210D01*
X133925133Y-106399017D01*
X133945348Y-106332135D01*
X133996725Y-106287618D01*
X134054734Y-106260568D01*
X134241139Y-106130047D01*
X134402047Y-105969139D01*
X134532568Y-105782734D01*
X134628739Y-105576496D01*
X134687635Y-105356692D01*
X134707468Y-105130000D01*
X134687635Y-104903308D01*
X134628739Y-104683504D01*
X134532568Y-104477266D01*
X134402047Y-104290861D01*
X134402045Y-104290858D01*
X134241141Y-104129954D01*
X134054734Y-103999432D01*
X134054728Y-103999429D01*
X133996725Y-103972382D01*
X133944285Y-103926210D01*
X133925133Y-103859017D01*
X133945348Y-103792135D01*
X133996725Y-103747618D01*
X134054734Y-103720568D01*
X134241139Y-103590047D01*
X134402047Y-103429139D01*
X134532568Y-103242734D01*
X134628739Y-103036496D01*
X134687635Y-102816692D01*
X134707468Y-102590000D01*
X134707468Y-102589998D01*
X154194532Y-102589998D01*
X154194532Y-102590001D01*
X154214364Y-102816686D01*
X154214366Y-102816697D01*
X154273258Y-103036488D01*
X154273261Y-103036497D01*
X154369431Y-103242732D01*
X154369432Y-103242734D01*
X154499954Y-103429141D01*
X154660858Y-103590045D01*
X154660861Y-103590047D01*
X154847266Y-103720568D01*
X154905275Y-103747618D01*
X154957714Y-103793791D01*
X154976866Y-103860984D01*
X154956650Y-103927865D01*
X154905275Y-103972382D01*
X154847267Y-103999431D01*
X154847265Y-103999432D01*
X154660858Y-104129954D01*
X154499954Y-104290858D01*
X154369432Y-104477265D01*
X154369431Y-104477267D01*
X154273261Y-104683502D01*
X154273258Y-104683511D01*
X154214366Y-104903302D01*
X154214364Y-104903313D01*
X154194532Y-105129998D01*
X154194532Y-105130001D01*
X154214364Y-105356686D01*
X154214366Y-105356697D01*
X154273258Y-105576488D01*
X154273261Y-105576497D01*
X154369431Y-105782732D01*
X154369432Y-105782734D01*
X154499954Y-105969141D01*
X154660858Y-106130045D01*
X154660861Y-106130047D01*
X154847266Y-106260568D01*
X154905275Y-106287618D01*
X154957714Y-106333791D01*
X154976866Y-106400984D01*
X154956650Y-106467865D01*
X154905275Y-106512382D01*
X154847267Y-106539431D01*
X154847265Y-106539432D01*
X154660858Y-106669954D01*
X154499954Y-106830858D01*
X154369432Y-107017265D01*
X154369431Y-107017267D01*
X154273261Y-107223502D01*
X154273258Y-107223511D01*
X154214366Y-107443302D01*
X154214364Y-107443313D01*
X154194532Y-107669998D01*
X154194532Y-107670001D01*
X154214364Y-107896686D01*
X154214366Y-107896697D01*
X154273258Y-108116488D01*
X154273261Y-108116497D01*
X154369431Y-108322732D01*
X154369432Y-108322734D01*
X154499954Y-108509141D01*
X154660858Y-108670045D01*
X154660861Y-108670047D01*
X154847266Y-108800568D01*
X154905275Y-108827618D01*
X154957714Y-108873791D01*
X154976866Y-108940984D01*
X154956650Y-109007865D01*
X154905275Y-109052382D01*
X154847267Y-109079431D01*
X154847265Y-109079432D01*
X154660858Y-109209954D01*
X154499954Y-109370858D01*
X154369432Y-109557265D01*
X154369431Y-109557267D01*
X154273261Y-109763502D01*
X154273258Y-109763511D01*
X154214366Y-109983302D01*
X154214364Y-109983313D01*
X154194532Y-110209998D01*
X154194532Y-110210001D01*
X154214364Y-110436686D01*
X154214366Y-110436697D01*
X154273258Y-110656488D01*
X154273261Y-110656497D01*
X154369431Y-110862732D01*
X154369432Y-110862734D01*
X154499954Y-111049141D01*
X154660858Y-111210045D01*
X154660861Y-111210047D01*
X154847266Y-111340568D01*
X154905275Y-111367618D01*
X154957714Y-111413791D01*
X154976866Y-111480984D01*
X154956650Y-111547865D01*
X154905275Y-111592382D01*
X154847267Y-111619431D01*
X154847265Y-111619432D01*
X154660858Y-111749954D01*
X154499954Y-111910858D01*
X154369432Y-112097265D01*
X154369431Y-112097267D01*
X154273261Y-112303502D01*
X154273258Y-112303511D01*
X154214366Y-112523302D01*
X154214364Y-112523313D01*
X154194532Y-112749998D01*
X154194532Y-112750001D01*
X154214364Y-112976686D01*
X154214366Y-112976697D01*
X154273258Y-113196488D01*
X154273261Y-113196497D01*
X154369431Y-113402732D01*
X154369432Y-113402734D01*
X154499954Y-113589141D01*
X154660858Y-113750045D01*
X154660861Y-113750047D01*
X154847266Y-113880568D01*
X154905275Y-113907618D01*
X154957714Y-113953791D01*
X154976866Y-114020984D01*
X154956650Y-114087865D01*
X154905275Y-114132382D01*
X154847267Y-114159431D01*
X154847265Y-114159432D01*
X154660858Y-114289954D01*
X154499954Y-114450858D01*
X154369432Y-114637265D01*
X154369431Y-114637267D01*
X154273261Y-114843502D01*
X154273258Y-114843511D01*
X154214366Y-115063302D01*
X154214364Y-115063313D01*
X154194532Y-115289998D01*
X154194532Y-115290001D01*
X154214364Y-115516686D01*
X154214366Y-115516697D01*
X154273258Y-115736488D01*
X154273261Y-115736497D01*
X154369431Y-115942732D01*
X154369432Y-115942734D01*
X154499954Y-116129141D01*
X154660858Y-116290045D01*
X154660861Y-116290047D01*
X154847266Y-116420568D01*
X154905865Y-116447893D01*
X154958305Y-116494065D01*
X154977457Y-116561258D01*
X154957242Y-116628139D01*
X154905867Y-116672657D01*
X154847513Y-116699868D01*
X154847512Y-116699868D01*
X154774526Y-116750973D01*
X154774526Y-116750974D01*
X155370590Y-117347037D01*
X155307007Y-117364075D01*
X155192993Y-117429901D01*
X155099901Y-117522993D01*
X155034075Y-117637007D01*
X155017037Y-117700590D01*
X154420974Y-117104526D01*
X154420973Y-117104526D01*
X154369868Y-117177512D01*
X154369866Y-117177516D01*
X154273734Y-117383673D01*
X154273730Y-117383682D01*
X154214860Y-117603389D01*
X154214858Y-117603400D01*
X154195034Y-117829997D01*
X154195034Y-117830002D01*
X154214858Y-118056599D01*
X154214860Y-118056610D01*
X154273730Y-118276317D01*
X154273735Y-118276331D01*
X154369863Y-118482478D01*
X154420974Y-118555472D01*
X155017037Y-117959409D01*
X155034075Y-118022993D01*
X155099901Y-118137007D01*
X155192993Y-118230099D01*
X155307007Y-118295925D01*
X155370590Y-118312962D01*
X154774526Y-118909025D01*
X154847513Y-118960132D01*
X154847521Y-118960136D01*
X154905864Y-118987342D01*
X154958304Y-119033514D01*
X154977456Y-119100707D01*
X154957241Y-119167589D01*
X154905866Y-119212105D01*
X154847272Y-119239428D01*
X154847265Y-119239432D01*
X154660858Y-119369954D01*
X154499954Y-119530858D01*
X154369432Y-119717265D01*
X154369431Y-119717267D01*
X154273261Y-119923502D01*
X154273258Y-119923511D01*
X154214366Y-120143302D01*
X154214364Y-120143313D01*
X154194532Y-120369998D01*
X154194532Y-120370001D01*
X154214364Y-120596686D01*
X154214366Y-120596697D01*
X154273258Y-120816488D01*
X154273261Y-120816497D01*
X154369431Y-121022732D01*
X154369432Y-121022734D01*
X154499954Y-121209141D01*
X154660858Y-121370045D01*
X154660861Y-121370047D01*
X154847266Y-121500568D01*
X155053504Y-121596739D01*
X155273308Y-121655635D01*
X155435230Y-121669801D01*
X155499998Y-121675468D01*
X155500000Y-121675468D01*
X155500002Y-121675468D01*
X155556673Y-121670509D01*
X155726692Y-121655635D01*
X155946496Y-121596739D01*
X156152734Y-121500568D01*
X156339139Y-121370047D01*
X156500047Y-121209139D01*
X156630568Y-121022734D01*
X156726739Y-120816496D01*
X156785635Y-120596692D01*
X156805468Y-120370000D01*
X156785635Y-120143308D01*
X156726739Y-119923504D01*
X156630568Y-119717266D01*
X156500047Y-119530861D01*
X156500045Y-119530858D01*
X156339141Y-119369954D01*
X156152735Y-119239433D01*
X156152736Y-119239433D01*
X156152734Y-119239432D01*
X156094132Y-119212105D01*
X156041694Y-119165933D01*
X156022543Y-119098739D01*
X156042759Y-119031858D01*
X156094135Y-118987341D01*
X156152482Y-118960133D01*
X156225471Y-118909024D01*
X155629409Y-118312962D01*
X155692993Y-118295925D01*
X155807007Y-118230099D01*
X155900099Y-118137007D01*
X155965925Y-118022993D01*
X155982962Y-117959409D01*
X156579024Y-118555471D01*
X156630136Y-118482478D01*
X156726264Y-118276331D01*
X156726269Y-118276317D01*
X156785139Y-118056610D01*
X156785141Y-118056599D01*
X156804966Y-117830002D01*
X156804966Y-117829997D01*
X156785141Y-117603400D01*
X156785139Y-117603389D01*
X156726269Y-117383682D01*
X156726264Y-117383668D01*
X156630136Y-117177521D01*
X156630132Y-117177513D01*
X156579025Y-117104526D01*
X155982962Y-117700589D01*
X155965925Y-117637007D01*
X155900099Y-117522993D01*
X155807007Y-117429901D01*
X155692993Y-117364075D01*
X155629408Y-117347037D01*
X156225472Y-116750974D01*
X156152480Y-116699864D01*
X156094134Y-116672657D01*
X156041695Y-116626484D01*
X156022543Y-116559291D01*
X156042759Y-116492410D01*
X156094134Y-116447893D01*
X156152734Y-116420568D01*
X156339139Y-116290047D01*
X156500047Y-116129139D01*
X156630568Y-115942734D01*
X156726739Y-115736496D01*
X156785635Y-115516692D01*
X156805468Y-115290000D01*
X156785635Y-115063308D01*
X156726739Y-114843504D01*
X156630568Y-114637266D01*
X156500047Y-114450861D01*
X156500045Y-114450858D01*
X156339141Y-114289954D01*
X156152734Y-114159432D01*
X156152728Y-114159429D01*
X156094725Y-114132382D01*
X156042285Y-114086210D01*
X156023133Y-114019017D01*
X156043348Y-113952135D01*
X156094725Y-113907618D01*
X156152734Y-113880568D01*
X156339139Y-113750047D01*
X156500047Y-113589139D01*
X156630568Y-113402734D01*
X156726739Y-113196496D01*
X156785635Y-112976692D01*
X156805468Y-112750000D01*
X156785635Y-112523308D01*
X156726739Y-112303504D01*
X156630568Y-112097266D01*
X156500047Y-111910861D01*
X156500045Y-111910858D01*
X156339141Y-111749954D01*
X156152734Y-111619432D01*
X156152728Y-111619429D01*
X156094725Y-111592382D01*
X156042285Y-111546210D01*
X156023133Y-111479017D01*
X156043348Y-111412135D01*
X156094725Y-111367618D01*
X156152734Y-111340568D01*
X156339139Y-111210047D01*
X156500047Y-111049139D01*
X156630568Y-110862734D01*
X156726739Y-110656496D01*
X156785635Y-110436692D01*
X156805468Y-110210000D01*
X156785635Y-109983308D01*
X156726739Y-109763504D01*
X156630568Y-109557266D01*
X156500047Y-109370861D01*
X156500045Y-109370858D01*
X156339141Y-109209954D01*
X156152734Y-109079432D01*
X156152728Y-109079429D01*
X156094725Y-109052382D01*
X156042285Y-109006210D01*
X156023133Y-108939017D01*
X156043348Y-108872135D01*
X156094725Y-108827618D01*
X156152734Y-108800568D01*
X156339139Y-108670047D01*
X156500047Y-108509139D01*
X156630568Y-108322734D01*
X156726739Y-108116496D01*
X156785635Y-107896692D01*
X156805468Y-107670000D01*
X156785635Y-107443308D01*
X156726739Y-107223504D01*
X156630568Y-107017266D01*
X156500047Y-106830861D01*
X156500045Y-106830858D01*
X156339141Y-106669954D01*
X156152734Y-106539432D01*
X156152728Y-106539429D01*
X156094725Y-106512382D01*
X156042285Y-106466210D01*
X156023133Y-106399017D01*
X156043348Y-106332135D01*
X156094725Y-106287618D01*
X156152734Y-106260568D01*
X156339139Y-106130047D01*
X156500047Y-105969139D01*
X156630568Y-105782734D01*
X156726739Y-105576496D01*
X156785635Y-105356692D01*
X156805468Y-105130000D01*
X156785635Y-104903308D01*
X156726739Y-104683504D01*
X156630568Y-104477266D01*
X156500047Y-104290861D01*
X156500045Y-104290858D01*
X156339141Y-104129954D01*
X156152734Y-103999432D01*
X156152728Y-103999429D01*
X156094725Y-103972382D01*
X156042285Y-103926210D01*
X156023133Y-103859017D01*
X156043348Y-103792135D01*
X156094725Y-103747618D01*
X156152734Y-103720568D01*
X156339139Y-103590047D01*
X156500047Y-103429139D01*
X156630568Y-103242734D01*
X156726739Y-103036496D01*
X156785635Y-102816692D01*
X156805468Y-102590000D01*
X156785635Y-102363308D01*
X156726739Y-102143504D01*
X156630568Y-101937266D01*
X156500047Y-101750861D01*
X156500045Y-101750858D01*
X156339141Y-101589954D01*
X156152734Y-101459432D01*
X156152732Y-101459431D01*
X155946497Y-101363261D01*
X155946488Y-101363258D01*
X155726697Y-101304366D01*
X155726693Y-101304365D01*
X155726692Y-101304365D01*
X155726691Y-101304364D01*
X155726686Y-101304364D01*
X155500002Y-101284532D01*
X155499998Y-101284532D01*
X155273313Y-101304364D01*
X155273302Y-101304366D01*
X155053511Y-101363258D01*
X155053502Y-101363261D01*
X154847267Y-101459431D01*
X154847265Y-101459432D01*
X154660858Y-101589954D01*
X154499954Y-101750858D01*
X154369432Y-101937265D01*
X154369431Y-101937267D01*
X154273261Y-102143502D01*
X154273258Y-102143511D01*
X154214366Y-102363302D01*
X154214364Y-102363313D01*
X154194532Y-102589998D01*
X134707468Y-102589998D01*
X134687635Y-102363308D01*
X134628739Y-102143504D01*
X134532568Y-101937266D01*
X134402047Y-101750861D01*
X134402045Y-101750858D01*
X134241141Y-101589954D01*
X134054734Y-101459432D01*
X134054732Y-101459431D01*
X133848497Y-101363261D01*
X133848488Y-101363258D01*
X133628697Y-101304366D01*
X133628693Y-101304365D01*
X133628692Y-101304365D01*
X133628691Y-101304364D01*
X133628686Y-101304364D01*
X133402002Y-101284532D01*
X133401998Y-101284532D01*
X133175313Y-101304364D01*
X133175302Y-101304366D01*
X132955511Y-101363258D01*
X132955502Y-101363261D01*
X132749267Y-101459431D01*
X132749265Y-101459432D01*
X132562858Y-101589954D01*
X132401954Y-101750858D01*
X132271432Y-101937265D01*
X132271431Y-101937267D01*
X132175261Y-102143502D01*
X132175258Y-102143511D01*
X132116366Y-102363302D01*
X132116364Y-102363313D01*
X132096532Y-102589998D01*
X125017500Y-102589998D01*
X125017500Y-96248214D01*
X125357709Y-96248214D01*
X125382734Y-96389897D01*
X125382734Y-96389900D01*
X125386876Y-96402498D01*
X125386877Y-96402501D01*
X125417494Y-96475691D01*
X125417501Y-96475707D01*
X125418512Y-96477674D01*
X125442861Y-96515366D01*
X125470710Y-96558476D01*
X125472619Y-96561430D01*
X125485615Y-96577755D01*
X125485618Y-96577758D01*
X125485625Y-96577766D01*
X125530322Y-96626905D01*
X125530325Y-96626908D01*
X125550713Y-96646555D01*
X125554425Y-96650132D01*
X125576580Y-96670252D01*
X125610907Y-96699620D01*
X125624759Y-96711051D01*
X125668435Y-96745808D01*
X125678537Y-96753641D01*
X125696926Y-96767530D01*
X125730704Y-96793043D01*
X125737313Y-96797949D01*
X125737340Y-96797969D01*
X125749974Y-96807190D01*
X125757658Y-96812689D01*
X125772634Y-96823196D01*
X125783682Y-96830731D01*
X125799709Y-96841354D01*
X125811252Y-96848781D01*
X125829501Y-96860176D01*
X125839630Y-96866337D01*
X125861275Y-96879157D01*
X125869100Y-96883698D01*
X125869125Y-96883712D01*
X125869166Y-96883736D01*
X125881782Y-96890906D01*
X125895314Y-96898597D01*
X125900849Y-96901697D01*
X125900908Y-96901729D01*
X125900957Y-96901757D01*
X125910719Y-96907144D01*
X125923907Y-96914422D01*
X125973091Y-96964045D01*
X125987638Y-97032384D01*
X125983226Y-97057046D01*
X125979398Y-97070443D01*
X125964275Y-97143345D01*
X125958967Y-97183692D01*
X125954770Y-97260685D01*
X125954770Y-97260715D01*
X125955682Y-97302340D01*
X125955682Y-97302350D01*
X125960764Y-97363607D01*
X125967415Y-97409610D01*
X125974346Y-97447359D01*
X125986256Y-97500728D01*
X125991427Y-97521768D01*
X125996055Y-97538997D01*
X126005150Y-97569084D01*
X126016360Y-97602390D01*
X126031877Y-97642702D01*
X126046732Y-97676863D01*
X126064097Y-97712839D01*
X126083461Y-97749212D01*
X126099898Y-97777800D01*
X126124688Y-97817839D01*
X126124690Y-97817842D01*
X126138370Y-97838764D01*
X126143654Y-97846425D01*
X126169456Y-97883831D01*
X126179905Y-97898420D01*
X126210835Y-97940026D01*
X126218159Y-97949878D01*
X126225579Y-97959611D01*
X126271904Y-98018875D01*
X126276898Y-98025160D01*
X126276932Y-98025202D01*
X126332190Y-98093627D01*
X126333627Y-98095397D01*
X126349344Y-98114665D01*
X126349685Y-98115085D01*
X126399089Y-98176193D01*
X126399918Y-98177229D01*
X126438323Y-98225786D01*
X126439660Y-98227508D01*
X126467419Y-98263902D01*
X126469416Y-98266595D01*
X126479509Y-98280597D01*
X126499499Y-98324186D01*
X126502245Y-98335638D01*
X126510615Y-98366961D01*
X126510620Y-98366979D01*
X126525530Y-98413598D01*
X126535776Y-98440987D01*
X126536322Y-98442446D01*
X126536324Y-98442451D01*
X126559369Y-98494811D01*
X126559376Y-98494826D01*
X126559378Y-98494829D01*
X126573873Y-98523275D01*
X126599710Y-98568141D01*
X126599716Y-98568150D01*
X126599717Y-98568152D01*
X126619007Y-98598002D01*
X126619206Y-98598309D01*
X126626485Y-98608695D01*
X126637458Y-98624353D01*
X126640993Y-98629396D01*
X126650047Y-98641335D01*
X126666796Y-98663419D01*
X126681597Y-98682010D01*
X126712516Y-98719027D01*
X126714972Y-98721967D01*
X126723412Y-98731812D01*
X126739955Y-98750616D01*
X126765682Y-98779859D01*
X126766913Y-98781247D01*
X126768275Y-98782783D01*
X126768351Y-98782868D01*
X126772016Y-98786971D01*
X126773919Y-98789090D01*
X126815554Y-98835194D01*
X126817881Y-98837749D01*
X126818265Y-98838171D01*
X126862315Y-98886183D01*
X126864621Y-98888680D01*
X126864734Y-98888802D01*
X126909792Y-98937255D01*
X126909829Y-98937294D01*
X126911951Y-98939561D01*
X126957111Y-98987529D01*
X126958046Y-98988517D01*
X126959362Y-98989907D01*
X127003097Y-99035796D01*
X127005438Y-99038237D01*
X127039674Y-99073692D01*
X127046869Y-99081143D01*
X127049599Y-99083947D01*
X127087376Y-99122469D01*
X127091001Y-99126129D01*
X127123902Y-99159002D01*
X127123962Y-99159061D01*
X127123975Y-99159074D01*
X127129493Y-99164503D01*
X127156381Y-99190539D01*
X127167286Y-99200789D01*
X127186830Y-99218622D01*
X127207680Y-99236029D01*
X127220936Y-99247097D01*
X127231974Y-99255518D01*
X127312357Y-99305674D01*
X127312373Y-99305682D01*
X127315709Y-99307352D01*
X127315718Y-99307356D01*
X127315726Y-99307360D01*
X127389367Y-99337229D01*
X127412761Y-99344636D01*
X127412764Y-99344636D01*
X127412768Y-99344638D01*
X127428211Y-99348614D01*
X127466169Y-99358390D01*
X127609835Y-99366254D01*
X127633423Y-99364170D01*
X127642229Y-99363314D01*
X127781692Y-99327937D01*
X127810510Y-99316050D01*
X127847476Y-99299030D01*
X127876923Y-99284007D01*
X127909212Y-99266017D01*
X128020391Y-99174688D01*
X128089118Y-99073690D01*
X128143107Y-99029342D01*
X128184512Y-99019658D01*
X128206655Y-99018383D01*
X128212560Y-99018044D01*
X128245231Y-99015098D01*
X128294158Y-99009081D01*
X128312779Y-99006439D01*
X128342734Y-99001618D01*
X128367038Y-98997094D01*
X128398760Y-98990383D01*
X128442990Y-98978915D01*
X128471484Y-98970135D01*
X128514667Y-98954651D01*
X128545184Y-98942118D01*
X128570199Y-98931044D01*
X128607991Y-98913076D01*
X128616686Y-98908840D01*
X128619323Y-98907523D01*
X128621776Y-98906300D01*
X128621796Y-98906289D01*
X128621809Y-98906283D01*
X128640089Y-98896688D01*
X128679439Y-98874997D01*
X128705004Y-98859909D01*
X128744730Y-98834863D01*
X128766657Y-98820226D01*
X128804108Y-98793789D01*
X128827200Y-98776480D01*
X128859727Y-98750616D01*
X128890299Y-98724246D01*
X128915252Y-98700922D01*
X128968145Y-98643180D01*
X128968159Y-98643161D01*
X128969708Y-98641335D01*
X128969759Y-98641378D01*
X128972240Y-98638023D01*
X128974303Y-98635312D01*
X128978939Y-98629388D01*
X128982875Y-98624359D01*
X128994000Y-98608635D01*
X128995477Y-98606594D01*
X128996044Y-98605826D01*
X128996045Y-98605827D01*
X129000618Y-98599641D01*
X129004047Y-98595218D01*
X129011228Y-98586374D01*
X129011361Y-98586206D01*
X129019909Y-98575374D01*
X129029660Y-98562659D01*
X129041201Y-98545223D01*
X129094615Y-98500189D01*
X129163901Y-98491179D01*
X129214220Y-98511058D01*
X129242070Y-98529954D01*
X129250054Y-98534004D01*
X129258055Y-98539021D01*
X129286880Y-98555797D01*
X129325426Y-98576560D01*
X129344283Y-98586213D01*
X129388030Y-98607463D01*
X129403827Y-98614803D01*
X129449260Y-98634968D01*
X129465950Y-98642021D01*
X129509552Y-98659531D01*
X129509567Y-98659536D01*
X129509568Y-98659537D01*
X129532146Y-98667984D01*
X129570388Y-98681261D01*
X129611100Y-98693489D01*
X129613262Y-98694897D01*
X129657480Y-98704992D01*
X129664562Y-98706830D01*
X129670203Y-98708474D01*
X129713448Y-98719027D01*
X129737803Y-98723845D01*
X129737805Y-98723845D01*
X129737809Y-98723846D01*
X129737808Y-98723846D01*
X129780041Y-98728768D01*
X129817325Y-98733114D01*
X129853655Y-98734450D01*
X129909255Y-98733433D01*
X129948581Y-98730545D01*
X129948595Y-98730543D01*
X129948598Y-98730543D01*
X130001818Y-98723779D01*
X130001831Y-98723776D01*
X130001837Y-98723776D01*
X130008181Y-98722624D01*
X130038482Y-98717125D01*
X130038491Y-98717123D01*
X130038492Y-98717122D01*
X130038496Y-98717122D01*
X130115882Y-98696634D01*
X130144211Y-98686674D01*
X130211795Y-98657213D01*
X130213579Y-98656275D01*
X130271404Y-98620722D01*
X130303335Y-98598001D01*
X130370884Y-98540363D01*
X130402318Y-98508362D01*
X130448739Y-98453872D01*
X130475872Y-98417026D01*
X130519014Y-98347203D01*
X130538043Y-98309944D01*
X130574164Y-98217994D01*
X130574164Y-98217990D01*
X130574168Y-98217982D01*
X130584935Y-98180029D01*
X130584934Y-98180029D01*
X130584937Y-98180022D01*
X130601166Y-98096713D01*
X130606988Y-98043187D01*
X130609902Y-97995638D01*
X130610007Y-97988176D01*
X130609810Y-97965275D01*
X130609021Y-97940026D01*
X130601517Y-97867635D01*
X130599617Y-97856913D01*
X130597760Y-97846425D01*
X130597758Y-97846420D01*
X130597757Y-97846411D01*
X130576149Y-97764828D01*
X130568047Y-97742104D01*
X130550411Y-97699021D01*
X130536601Y-97669272D01*
X130530148Y-97655889D01*
X130527917Y-97651431D01*
X130514081Y-97625673D01*
X130494415Y-97591473D01*
X130476024Y-97561898D01*
X130451699Y-97525628D01*
X130431036Y-97497029D01*
X130406795Y-97465832D01*
X130378027Y-97431990D01*
X130375740Y-97429528D01*
X130366005Y-97419046D01*
X130345806Y-97398502D01*
X130318296Y-97372076D01*
X130304685Y-97359474D01*
X130268382Y-97327074D01*
X130259833Y-97319616D01*
X130259825Y-97319609D01*
X130259795Y-97319583D01*
X130216539Y-97282699D01*
X130213489Y-97280141D01*
X130210176Y-97277363D01*
X130189967Y-97260700D01*
X130161733Y-97237420D01*
X130156301Y-97233004D01*
X130104563Y-97191534D01*
X130099358Y-97187416D01*
X130046158Y-97145899D01*
X130040688Y-97141690D01*
X129987796Y-97101555D01*
X129981384Y-97096769D01*
X129930601Y-97059476D01*
X129930559Y-97059445D01*
X129926205Y-97056314D01*
X129924501Y-97054126D01*
X129871339Y-97017667D01*
X129870749Y-97017259D01*
X129870294Y-97016943D01*
X129854922Y-97006408D01*
X129854890Y-97006386D01*
X129836828Y-96993999D01*
X149595357Y-96993999D01*
X149595357Y-96994000D01*
X149615884Y-97215535D01*
X149615885Y-97215537D01*
X149676769Y-97429523D01*
X149676775Y-97429538D01*
X149775938Y-97628683D01*
X149775943Y-97628691D01*
X149910020Y-97806238D01*
X150056779Y-97940026D01*
X150067586Y-97949878D01*
X150074437Y-97956123D01*
X150074439Y-97956125D01*
X150263595Y-98073245D01*
X150263596Y-98073245D01*
X150263599Y-98073247D01*
X150471060Y-98153618D01*
X150689757Y-98194500D01*
X150689759Y-98194500D01*
X150912241Y-98194500D01*
X150912243Y-98194500D01*
X151130940Y-98153618D01*
X151338401Y-98073247D01*
X151527562Y-97956124D01*
X151691981Y-97806236D01*
X151826058Y-97628689D01*
X151925229Y-97429528D01*
X151986115Y-97215536D01*
X152006643Y-96994000D01*
X152006643Y-96993999D01*
X154675357Y-96993999D01*
X154675357Y-96994000D01*
X154695884Y-97215535D01*
X154695885Y-97215537D01*
X154756769Y-97429523D01*
X154756775Y-97429538D01*
X154855938Y-97628683D01*
X154855943Y-97628691D01*
X154990020Y-97806238D01*
X155136779Y-97940026D01*
X155147586Y-97949878D01*
X155154437Y-97956123D01*
X155154439Y-97956125D01*
X155343595Y-98073245D01*
X155343596Y-98073245D01*
X155343599Y-98073247D01*
X155551060Y-98153618D01*
X155769757Y-98194500D01*
X155769759Y-98194500D01*
X155992241Y-98194500D01*
X155992243Y-98194500D01*
X156210940Y-98153618D01*
X156418401Y-98073247D01*
X156607562Y-97956124D01*
X156771981Y-97806236D01*
X156906058Y-97628689D01*
X157005229Y-97429528D01*
X157066115Y-97215536D01*
X157086643Y-96994000D01*
X157083579Y-96960939D01*
X157066115Y-96772464D01*
X157066114Y-96772462D01*
X157064720Y-96767563D01*
X157005229Y-96558472D01*
X157005224Y-96558461D01*
X156906061Y-96359316D01*
X156906056Y-96359308D01*
X156771979Y-96181761D01*
X156607562Y-96031876D01*
X156607560Y-96031874D01*
X156418404Y-95914754D01*
X156418398Y-95914752D01*
X156408308Y-95910843D01*
X156210940Y-95834382D01*
X155992243Y-95793500D01*
X155769757Y-95793500D01*
X155551060Y-95834382D01*
X155468508Y-95866363D01*
X155343601Y-95914752D01*
X155343595Y-95914754D01*
X155154439Y-96031874D01*
X155154437Y-96031876D01*
X154990020Y-96181761D01*
X154855943Y-96359308D01*
X154855938Y-96359316D01*
X154756775Y-96558461D01*
X154756769Y-96558476D01*
X154695885Y-96772462D01*
X154695884Y-96772464D01*
X154675357Y-96993999D01*
X152006643Y-96993999D01*
X152003579Y-96960939D01*
X151986115Y-96772464D01*
X151986114Y-96772462D01*
X151984720Y-96767563D01*
X151925229Y-96558472D01*
X151925224Y-96558461D01*
X151826061Y-96359316D01*
X151826056Y-96359308D01*
X151691979Y-96181761D01*
X151527562Y-96031876D01*
X151527560Y-96031874D01*
X151338404Y-95914754D01*
X151338398Y-95914752D01*
X151328308Y-95910843D01*
X151130940Y-95834382D01*
X150912243Y-95793500D01*
X150689757Y-95793500D01*
X150471060Y-95834382D01*
X150388508Y-95866363D01*
X150263601Y-95914752D01*
X150263595Y-95914754D01*
X150074439Y-96031874D01*
X150074437Y-96031876D01*
X149910020Y-96181761D01*
X149775943Y-96359308D01*
X149775938Y-96359316D01*
X149676775Y-96558461D01*
X149676769Y-96558476D01*
X149615885Y-96772462D01*
X149615884Y-96772464D01*
X149595357Y-96993999D01*
X129836828Y-96993999D01*
X129819304Y-96981981D01*
X129819263Y-96981931D01*
X129819253Y-96981946D01*
X129788725Y-96960987D01*
X129788725Y-96960985D01*
X129788655Y-96960939D01*
X129764488Y-96944323D01*
X129764487Y-96944322D01*
X129749603Y-96934058D01*
X129744395Y-96930514D01*
X129735540Y-96924568D01*
X129726102Y-96918442D01*
X129722401Y-96916040D01*
X129696316Y-96899676D01*
X129681789Y-96890899D01*
X129669405Y-96883698D01*
X129655778Y-96875773D01*
X129653868Y-96874674D01*
X129651970Y-96873581D01*
X129651856Y-96873516D01*
X129640051Y-96866786D01*
X129638788Y-96866056D01*
X129628750Y-96860176D01*
X129617538Y-96853608D01*
X129617079Y-96853337D01*
X129586546Y-96835216D01*
X129586138Y-96834973D01*
X129550142Y-96813423D01*
X129549767Y-96813197D01*
X129511653Y-96790196D01*
X129510170Y-96789305D01*
X129510079Y-96789250D01*
X129478342Y-96770243D01*
X129478319Y-96770229D01*
X129473757Y-96767530D01*
X129429764Y-96741801D01*
X129424844Y-96738960D01*
X129382136Y-96714604D01*
X129376360Y-96711359D01*
X129338620Y-96690471D01*
X129338621Y-96690471D01*
X129338555Y-96690435D01*
X129329465Y-96685524D01*
X129329441Y-96685511D01*
X129329420Y-96685500D01*
X129320559Y-96680830D01*
X129300177Y-96670087D01*
X129294641Y-96667213D01*
X129294620Y-96667202D01*
X129294581Y-96667182D01*
X129278098Y-96658753D01*
X129276543Y-96657944D01*
X129257288Y-96647751D01*
X129255116Y-96646573D01*
X129250841Y-96644199D01*
X129244866Y-96640656D01*
X129230841Y-96631800D01*
X129222726Y-96626908D01*
X129206942Y-96617392D01*
X129196560Y-96611301D01*
X129182498Y-96603276D01*
X129164001Y-96592720D01*
X129157819Y-96589250D01*
X129119319Y-96567988D01*
X129114486Y-96565353D01*
X129072775Y-96542907D01*
X129068045Y-96540394D01*
X129068012Y-96540376D01*
X129067958Y-96540348D01*
X129025933Y-96518304D01*
X129020314Y-96515400D01*
X129012042Y-96511192D01*
X128980684Y-96495239D01*
X128980637Y-96495215D01*
X128956658Y-96482995D01*
X128955235Y-96482258D01*
X128919687Y-96463560D01*
X128918496Y-96462926D01*
X128880788Y-96442565D01*
X128879488Y-96441853D01*
X128844590Y-96422467D01*
X128843944Y-96422105D01*
X128839546Y-96419627D01*
X128834873Y-96417025D01*
X128795286Y-96395269D01*
X128790167Y-96392495D01*
X128743771Y-96367702D01*
X128743758Y-96367695D01*
X128739544Y-96365469D01*
X128739463Y-96365426D01*
X128739403Y-96365395D01*
X128695401Y-96342412D01*
X128645092Y-96293927D01*
X128628983Y-96225940D01*
X128652188Y-96160036D01*
X128695574Y-96122501D01*
X128724003Y-96107710D01*
X128743459Y-96097037D01*
X128809645Y-96058819D01*
X128836919Y-96041893D01*
X128894441Y-96003614D01*
X128927198Y-95979871D01*
X128978439Y-95939506D01*
X129011744Y-95910839D01*
X129059087Y-95866363D01*
X129087690Y-95837230D01*
X129133519Y-95786616D01*
X129154605Y-95761762D01*
X129201300Y-95702984D01*
X129214909Y-95685048D01*
X129264855Y-95616082D01*
X129272813Y-95604771D01*
X129290650Y-95578667D01*
X129303903Y-95558232D01*
X129330869Y-95514372D01*
X129356112Y-95468061D01*
X129374115Y-95430491D01*
X129403330Y-95354270D01*
X129413235Y-95320487D01*
X129431957Y-95219666D01*
X129434628Y-95187164D01*
X129433315Y-95090675D01*
X129429618Y-95056952D01*
X129423564Y-95016739D01*
X129423368Y-95015718D01*
X129413056Y-94972401D01*
X129409358Y-94959435D01*
X129404501Y-94942397D01*
X129390203Y-94899600D01*
X129375027Y-94860133D01*
X129365603Y-94837306D01*
X129345085Y-94790856D01*
X129345084Y-94790853D01*
X129337977Y-94775467D01*
X129320342Y-94738910D01*
X129313382Y-94724482D01*
X129310303Y-94718316D01*
X129307220Y-94712141D01*
X129290553Y-94679871D01*
X129279830Y-94659109D01*
X129273686Y-94647581D01*
X129244755Y-94594934D01*
X129244751Y-94594926D01*
X129237798Y-94582679D01*
X129208580Y-94532850D01*
X129199477Y-94517924D01*
X129182546Y-94491212D01*
X129171257Y-94473400D01*
X129157237Y-94452456D01*
X129131282Y-94415698D01*
X129104852Y-94381473D01*
X129063385Y-94332277D01*
X129063377Y-94332268D01*
X129036962Y-94303289D01*
X129033951Y-94300233D01*
X128982260Y-94247763D01*
X128960498Y-94226952D01*
X128896171Y-94169000D01*
X128877297Y-94152820D01*
X128805250Y-94094066D01*
X128787523Y-94080255D01*
X128709649Y-94022317D01*
X128691754Y-94009599D01*
X128691733Y-94009584D01*
X128609921Y-93954075D01*
X128601301Y-93948354D01*
X128591293Y-93941858D01*
X128590658Y-93941443D01*
X128565326Y-93924770D01*
X128564177Y-93924005D01*
X128547489Y-93912753D01*
X128545634Y-93911476D01*
X128533484Y-93902951D01*
X128533483Y-93902951D01*
X128498330Y-93878283D01*
X128491971Y-93874806D01*
X128491969Y-93874811D01*
X128491908Y-93874772D01*
X128491262Y-93874419D01*
X128490121Y-93873635D01*
X128490110Y-93873628D01*
X128477972Y-93866500D01*
X128462024Y-93857518D01*
X128440895Y-93846117D01*
X128434840Y-93842903D01*
X128407028Y-93828384D01*
X128403374Y-93826496D01*
X128371485Y-93810174D01*
X128369004Y-93808913D01*
X128369004Y-93808914D01*
X128368835Y-93808828D01*
X128335240Y-93791890D01*
X128332592Y-93790564D01*
X128332411Y-93790474D01*
X128299751Y-93774246D01*
X128296392Y-93772593D01*
X128266811Y-93758153D01*
X128261864Y-93755770D01*
X128237566Y-93744228D01*
X128226890Y-93739308D01*
X128218446Y-93735534D01*
X128210580Y-93732019D01*
X128154344Y-93710800D01*
X128154336Y-93710797D01*
X128154318Y-93710791D01*
X128148381Y-93708946D01*
X128144071Y-93707682D01*
X128132702Y-93703738D01*
X128126894Y-93701402D01*
X128124977Y-93700612D01*
X128103868Y-93691685D01*
X128102079Y-93690910D01*
X128075466Y-93679114D01*
X128075439Y-93679102D01*
X128069701Y-93676601D01*
X128069676Y-93676590D01*
X128067113Y-93675492D01*
X128060719Y-93672752D01*
X128030978Y-93661110D01*
X127995118Y-93648364D01*
X127995110Y-93648361D01*
X127968093Y-93639605D01*
X127968086Y-93639603D01*
X127968077Y-93639600D01*
X127923564Y-93626543D01*
X127904309Y-93621304D01*
X127880239Y-93615263D01*
X127820008Y-93579850D01*
X127788485Y-93517496D01*
X127789477Y-93467654D01*
X127796138Y-93438181D01*
X127796140Y-93438182D01*
X127799114Y-93425026D01*
X127804105Y-93403235D01*
X127804917Y-93399716D01*
X127810271Y-93376492D01*
X127810450Y-93375713D01*
X127810575Y-93375168D01*
X127816367Y-93345935D01*
X127820135Y-93323464D01*
X127823601Y-93302789D01*
X127825678Y-93286755D01*
X127828431Y-93265524D01*
X127833388Y-93211642D01*
X127835018Y-93187715D01*
X127836771Y-93148158D01*
X127837731Y-93126510D01*
X127838212Y-93107983D01*
X127838358Y-93088891D01*
X127838711Y-93042870D01*
X127838560Y-93026028D01*
X127836876Y-92960410D01*
X127836097Y-92942491D01*
X127832259Y-92879798D01*
X127830398Y-92857501D01*
X127824436Y-92801149D01*
X127819853Y-92768217D01*
X127811798Y-92721626D01*
X127809796Y-92710758D01*
X127809370Y-92708584D01*
X127808508Y-92703641D01*
X127807656Y-92698099D01*
X127807044Y-92693559D01*
X127805155Y-92677290D01*
X127805073Y-92676566D01*
X127804966Y-92675575D01*
X127804962Y-92675547D01*
X127804903Y-92675000D01*
X127804752Y-92673805D01*
X127801507Y-92645524D01*
X127798666Y-92632673D01*
X127797320Y-92624519D01*
X127797312Y-92624475D01*
X127793894Y-92605944D01*
X127791770Y-92595525D01*
X127786886Y-92571565D01*
X127786217Y-92568426D01*
X127785022Y-92562813D01*
X127781792Y-92548294D01*
X127775441Y-92519737D01*
X127774176Y-92514199D01*
X127762611Y-92464826D01*
X127761615Y-92460652D01*
X127748643Y-92407315D01*
X127747736Y-92403646D01*
X127733938Y-92348705D01*
X127732998Y-92345021D01*
X127721992Y-92302552D01*
X127724228Y-92232722D01*
X127763863Y-92175183D01*
X127828315Y-92148206D01*
X127897120Y-92160358D01*
X127897467Y-92160530D01*
X127933126Y-92178354D01*
X127933529Y-92178557D01*
X127987206Y-92205632D01*
X127987441Y-92205751D01*
X128036063Y-92230542D01*
X128077483Y-92251956D01*
X128078070Y-92252262D01*
X128107508Y-92267796D01*
X128108299Y-92268214D01*
X128109904Y-92269077D01*
X128120362Y-92274799D01*
X128127544Y-92279049D01*
X128130706Y-92281067D01*
X128130724Y-92281078D01*
X128130741Y-92281089D01*
X128154434Y-92295782D01*
X128158773Y-92298421D01*
X128161797Y-92300261D01*
X128172927Y-92306903D01*
X128194224Y-92319613D01*
X128198480Y-92322126D01*
X128221425Y-92335517D01*
X128236849Y-92344519D01*
X128237721Y-92345023D01*
X128240154Y-92346430D01*
X128281643Y-92370225D01*
X128282810Y-92370889D01*
X128284771Y-92372005D01*
X128306205Y-92384089D01*
X128326677Y-92395631D01*
X128330525Y-92397779D01*
X128369836Y-92419493D01*
X128370858Y-92420055D01*
X128371186Y-92420236D01*
X128372174Y-92420778D01*
X128373540Y-92421539D01*
X128404238Y-92438918D01*
X128405630Y-92439720D01*
X128449325Y-92465322D01*
X128450113Y-92465788D01*
X128459149Y-92471194D01*
X128507530Y-92500136D01*
X128508196Y-92500537D01*
X128578947Y-92543465D01*
X128584405Y-92546786D01*
X128586899Y-92548294D01*
X128586969Y-92548336D01*
X128616912Y-92566319D01*
X128620455Y-92568426D01*
X128620518Y-92568463D01*
X128620538Y-92568475D01*
X128649181Y-92585347D01*
X128654412Y-92588386D01*
X128676278Y-92600916D01*
X128678759Y-92602329D01*
X128692655Y-92610188D01*
X128693426Y-92610628D01*
X128706173Y-92617959D01*
X128718527Y-92625064D01*
X128751355Y-92644124D01*
X128788461Y-92665799D01*
X128826270Y-92687997D01*
X128862147Y-92709165D01*
X128862386Y-92709421D01*
X128862437Y-92709337D01*
X128893429Y-92727737D01*
X128893910Y-92728024D01*
X128915403Y-92740916D01*
X128916465Y-92741561D01*
X128928635Y-92749038D01*
X128929069Y-92749306D01*
X128930881Y-92750437D01*
X128930911Y-92750455D01*
X128930936Y-92750471D01*
X128982644Y-92782176D01*
X128982646Y-92782177D01*
X128992061Y-92787810D01*
X129055894Y-92825068D01*
X129061598Y-92828341D01*
X129062434Y-92828821D01*
X129078972Y-92838147D01*
X129137333Y-92871057D01*
X129142234Y-92873785D01*
X129142282Y-92873811D01*
X129142346Y-92873847D01*
X129153179Y-92879798D01*
X129227256Y-92920494D01*
X129231184Y-92922630D01*
X129325327Y-92973271D01*
X129325382Y-92973300D01*
X129325387Y-92973303D01*
X129328437Y-92974929D01*
X129328538Y-92974982D01*
X129328633Y-92975033D01*
X129430914Y-93029078D01*
X129431003Y-93029124D01*
X129431085Y-93029168D01*
X129433636Y-93030506D01*
X129433761Y-93030571D01*
X129433822Y-93030603D01*
X129543259Y-93087523D01*
X129543419Y-93087606D01*
X129545874Y-93088874D01*
X129661418Y-93148107D01*
X129661486Y-93148141D01*
X129661518Y-93148158D01*
X129664013Y-93149428D01*
X129784815Y-93210514D01*
X129786126Y-93211174D01*
X129840033Y-93238237D01*
X129841070Y-93238757D01*
X129901203Y-93268773D01*
X129904550Y-93270428D01*
X129940389Y-93287988D01*
X129954222Y-93294766D01*
X129954248Y-93294778D01*
X129954296Y-93294802D01*
X129961401Y-93298215D01*
X130002174Y-93317410D01*
X130015518Y-93323457D01*
X130048730Y-93337932D01*
X130072159Y-93347453D01*
X130099225Y-93357671D01*
X130099239Y-93357675D01*
X130099240Y-93357676D01*
X130138071Y-93370564D01*
X130138077Y-93370565D01*
X130138093Y-93370571D01*
X130160424Y-93376991D01*
X130219175Y-93390151D01*
X130238186Y-93393234D01*
X130312987Y-93399716D01*
X130330090Y-93399923D01*
X130402827Y-93395551D01*
X130419435Y-93393343D01*
X130469606Y-93384076D01*
X130480164Y-93381568D01*
X130487092Y-93379924D01*
X130487103Y-93379921D01*
X130487133Y-93379914D01*
X130508814Y-93374255D01*
X130528672Y-93368599D01*
X130563270Y-93357384D01*
X130578122Y-93351972D01*
X130650919Y-93318701D01*
X130686418Y-93298940D01*
X130750426Y-93256646D01*
X130785746Y-93229242D01*
X130836923Y-93183654D01*
X130867652Y-93152295D01*
X130923233Y-93084764D01*
X130944959Y-93053144D01*
X130994729Y-92961813D01*
X131006288Y-92934157D01*
X131039031Y-92819128D01*
X131043592Y-92790637D01*
X131043787Y-92789409D01*
X131045726Y-92645542D01*
X131045724Y-92645524D01*
X131041798Y-92615333D01*
X131041796Y-92615328D01*
X131041796Y-92615322D01*
X131014979Y-92506109D01*
X131002145Y-92471194D01*
X130976119Y-92412283D01*
X130953968Y-92369708D01*
X130942307Y-92348705D01*
X130940665Y-92345748D01*
X130931671Y-92330536D01*
X130920488Y-92312499D01*
X130920486Y-92312495D01*
X130896529Y-92275605D01*
X130883259Y-92256176D01*
X130857374Y-92220110D01*
X130857370Y-92220104D01*
X130844422Y-92203101D01*
X130840046Y-92197355D01*
X130816453Y-92168126D01*
X130798714Y-92147326D01*
X130798710Y-92147321D01*
X130798701Y-92147311D01*
X130794042Y-92142138D01*
X130778248Y-92125387D01*
X130746796Y-92093513D01*
X130729672Y-92076960D01*
X130729655Y-92076944D01*
X130688015Y-92038548D01*
X130687996Y-92038531D01*
X130687970Y-92038507D01*
X130676847Y-92028552D01*
X130626505Y-91984828D01*
X130618200Y-91977771D01*
X130560791Y-91930041D01*
X130554938Y-91925260D01*
X130553954Y-91924456D01*
X130549908Y-91921209D01*
X130490905Y-91873863D01*
X130486752Y-91870583D01*
X130484822Y-91869059D01*
X130417657Y-91816832D01*
X130417658Y-91816832D01*
X130417576Y-91816769D01*
X130411871Y-91812399D01*
X130342106Y-91759758D01*
X130339414Y-91757759D01*
X130336078Y-91755280D01*
X130265284Y-91703490D01*
X130258702Y-91698755D01*
X130188377Y-91649020D01*
X130184686Y-91646435D01*
X130184572Y-91646355D01*
X130164001Y-91632081D01*
X130164000Y-91632080D01*
X130163785Y-91631931D01*
X130112901Y-91596663D01*
X130112901Y-91596662D01*
X130112323Y-91596263D01*
X130111324Y-91595573D01*
X130070523Y-91567389D01*
X130070447Y-91567336D01*
X130069403Y-91566617D01*
X130069403Y-91566618D01*
X130069335Y-91566571D01*
X130034582Y-91542711D01*
X130034560Y-91542696D01*
X130034461Y-91542628D01*
X130033927Y-91542264D01*
X130032736Y-91541450D01*
X130032666Y-91541402D01*
X130003098Y-91521294D01*
X130003095Y-91521292D01*
X130002948Y-91521192D01*
X130000464Y-91519513D01*
X129973599Y-91501475D01*
X129970852Y-91499643D01*
X129944870Y-91482443D01*
X129942471Y-91480865D01*
X129942313Y-91480761D01*
X129942313Y-91480760D01*
X129915441Y-91463190D01*
X129913821Y-91462135D01*
X129913821Y-91462136D01*
X129913724Y-91462073D01*
X129883383Y-91442398D01*
X129882024Y-91441520D01*
X129881940Y-91441465D01*
X129795614Y-91385878D01*
X129793321Y-91384411D01*
X129793179Y-91384320D01*
X129699148Y-91324511D01*
X129695708Y-91322342D01*
X129678658Y-91311689D01*
X129641496Y-91288469D01*
X129595073Y-91236251D01*
X129584251Y-91167225D01*
X129612465Y-91103305D01*
X129615255Y-91100113D01*
X129621640Y-91093065D01*
X129640398Y-91071129D01*
X129642023Y-91069115D01*
X129659160Y-91046616D01*
X129683280Y-91013040D01*
X129703255Y-90983030D01*
X129728248Y-90942413D01*
X129741581Y-90919412D01*
X129765535Y-90875462D01*
X129777052Y-90853016D01*
X129798054Y-90809439D01*
X129810625Y-90781174D01*
X129826764Y-90741676D01*
X129843626Y-90693628D01*
X129852990Y-90661916D01*
X129867064Y-90600304D01*
X129869081Y-90587964D01*
X129875303Y-90526475D01*
X129875634Y-90518141D01*
X129876327Y-90500698D01*
X129876326Y-90500691D01*
X129876327Y-90500684D01*
X129872463Y-90415126D01*
X129868819Y-90387242D01*
X129854076Y-90315441D01*
X129845160Y-90283850D01*
X129827880Y-90233093D01*
X129813086Y-90196182D01*
X129798652Y-90163554D01*
X129797702Y-90161597D01*
X129777369Y-90119695D01*
X129767128Y-90099733D01*
X129738760Y-90047335D01*
X129732189Y-90035575D01*
X129696078Y-89972929D01*
X129693385Y-89968314D01*
X129688646Y-89960293D01*
X129688628Y-89960262D01*
X129686394Y-89956516D01*
X129668301Y-89926484D01*
X129668272Y-89926436D01*
X129664059Y-89919570D01*
X129663997Y-89919470D01*
X129648594Y-89894820D01*
X129641207Y-89883347D01*
X129630000Y-89866445D01*
X129628626Y-89864575D01*
X129624022Y-89858307D01*
X129611623Y-89841427D01*
X129610346Y-89837907D01*
X129602664Y-89828970D01*
X129600421Y-89826284D01*
X129595744Y-89820519D01*
X129595740Y-89820515D01*
X129595737Y-89820511D01*
X129595321Y-89820082D01*
X129590290Y-89814573D01*
X129583655Y-89806854D01*
X129580092Y-89802515D01*
X129578572Y-89800574D01*
X129576781Y-89798231D01*
X129564990Y-89782414D01*
X129564417Y-89781639D01*
X129553511Y-89766769D01*
X129549378Y-89761209D01*
X129525183Y-89695662D01*
X129540266Y-89627440D01*
X129553789Y-89607670D01*
X129565560Y-89593600D01*
X129592415Y-89555345D01*
X129628564Y-89495418D01*
X129651071Y-89451492D01*
X129676609Y-89392751D01*
X129693155Y-89346956D01*
X129712970Y-89276537D01*
X129721946Y-89232678D01*
X129732204Y-89128593D01*
X129731998Y-89090474D01*
X129724510Y-89007696D01*
X129738075Y-88939157D01*
X129765740Y-88903745D01*
X129808407Y-88865918D01*
X129808414Y-88865909D01*
X129808420Y-88865905D01*
X129876217Y-88792616D01*
X129876218Y-88792613D01*
X129876226Y-88792606D01*
X129914920Y-88741447D01*
X129956772Y-88676277D01*
X129964060Y-88662750D01*
X129997382Y-88586445D01*
X130003587Y-88568287D01*
X130021254Y-88492999D01*
X154525341Y-88492999D01*
X154525341Y-88493000D01*
X154545936Y-88728403D01*
X154545938Y-88728413D01*
X154607094Y-88956655D01*
X154607096Y-88956659D01*
X154607097Y-88956663D01*
X154693751Y-89142493D01*
X154706965Y-89170830D01*
X154706967Y-89170834D01*
X154842501Y-89364395D01*
X154842506Y-89364402D01*
X155009597Y-89531493D01*
X155009603Y-89531498D01*
X155195158Y-89661425D01*
X155238783Y-89716002D01*
X155245977Y-89785500D01*
X155214454Y-89847855D01*
X155195158Y-89864575D01*
X155009597Y-89994505D01*
X154842505Y-90161597D01*
X154706965Y-90355169D01*
X154706964Y-90355171D01*
X154607098Y-90569335D01*
X154607094Y-90569344D01*
X154545938Y-90797586D01*
X154545936Y-90797596D01*
X154525341Y-91032999D01*
X154525341Y-91033000D01*
X154545936Y-91268403D01*
X154545938Y-91268413D01*
X154607094Y-91496655D01*
X154607096Y-91496659D01*
X154607097Y-91496663D01*
X154701334Y-91698755D01*
X154706965Y-91710830D01*
X154706967Y-91710834D01*
X154778084Y-91812399D01*
X154842505Y-91904401D01*
X155009599Y-92071495D01*
X155041044Y-92093513D01*
X155203165Y-92207032D01*
X155203167Y-92207033D01*
X155203170Y-92207035D01*
X155417337Y-92306903D01*
X155417343Y-92306904D01*
X155417344Y-92306905D01*
X155425096Y-92308982D01*
X155645592Y-92368063D01*
X155833918Y-92384539D01*
X155880999Y-92388659D01*
X155881000Y-92388659D01*
X155881001Y-92388659D01*
X155920234Y-92385226D01*
X156116408Y-92368063D01*
X156344663Y-92306903D01*
X156558830Y-92207035D01*
X156752401Y-92071495D01*
X156919495Y-91904401D01*
X157055035Y-91710830D01*
X157154903Y-91496663D01*
X157216063Y-91268408D01*
X157236659Y-91033000D01*
X157216063Y-90797592D01*
X157163203Y-90600313D01*
X157154905Y-90569344D01*
X157154904Y-90569343D01*
X157154903Y-90569337D01*
X157055035Y-90355171D01*
X157027213Y-90315436D01*
X156919494Y-90161597D01*
X156752402Y-89994506D01*
X156752396Y-89994501D01*
X156566842Y-89864575D01*
X156523217Y-89809998D01*
X156516023Y-89740500D01*
X156547546Y-89678145D01*
X156566842Y-89661425D01*
X156663707Y-89593599D01*
X156752401Y-89531495D01*
X156919495Y-89364401D01*
X157055035Y-89170830D01*
X157154903Y-88956663D01*
X157216063Y-88728408D01*
X157236659Y-88493000D01*
X157216063Y-88257592D01*
X157154903Y-88029337D01*
X157055035Y-87815171D01*
X157032579Y-87783101D01*
X156919496Y-87621600D01*
X156865367Y-87567471D01*
X156797179Y-87499283D01*
X156763696Y-87437963D01*
X156768680Y-87368271D01*
X156810551Y-87312337D01*
X156841529Y-87295422D01*
X156973086Y-87246354D01*
X156973093Y-87246350D01*
X157088187Y-87160190D01*
X157088190Y-87160187D01*
X157174350Y-87045093D01*
X157174354Y-87045086D01*
X157224596Y-86910379D01*
X157224598Y-86910372D01*
X157230999Y-86850844D01*
X157231000Y-86850827D01*
X157231000Y-86203000D01*
X156314012Y-86203000D01*
X156346925Y-86145993D01*
X156381000Y-86018826D01*
X156381000Y-85887174D01*
X156346925Y-85760007D01*
X156314012Y-85703000D01*
X157231000Y-85703000D01*
X157231000Y-85055172D01*
X157230999Y-85055155D01*
X157224598Y-84995627D01*
X157224596Y-84995620D01*
X157174354Y-84860913D01*
X157174350Y-84860906D01*
X157088190Y-84745812D01*
X157088187Y-84745809D01*
X156973093Y-84659649D01*
X156973086Y-84659645D01*
X156838379Y-84609403D01*
X156838372Y-84609401D01*
X156778844Y-84603000D01*
X156131000Y-84603000D01*
X156131000Y-85519988D01*
X156073993Y-85487075D01*
X155946826Y-85453000D01*
X155815174Y-85453000D01*
X155688007Y-85487075D01*
X155631000Y-85519988D01*
X155631000Y-84603000D01*
X154983155Y-84603000D01*
X154923627Y-84609401D01*
X154923620Y-84609403D01*
X154788913Y-84659645D01*
X154788906Y-84659649D01*
X154673812Y-84745809D01*
X154673809Y-84745812D01*
X154587649Y-84860906D01*
X154587645Y-84860913D01*
X154537403Y-84995620D01*
X154537401Y-84995627D01*
X154531000Y-85055155D01*
X154531000Y-85703000D01*
X155447988Y-85703000D01*
X155415075Y-85760007D01*
X155381000Y-85887174D01*
X155381000Y-86018826D01*
X155415075Y-86145993D01*
X155447988Y-86203000D01*
X154531000Y-86203000D01*
X154531000Y-86850844D01*
X154537401Y-86910372D01*
X154537403Y-86910379D01*
X154587645Y-87045086D01*
X154587649Y-87045093D01*
X154673809Y-87160187D01*
X154673812Y-87160190D01*
X154788906Y-87246350D01*
X154788913Y-87246354D01*
X154920470Y-87295421D01*
X154976403Y-87337292D01*
X155000821Y-87402756D01*
X154985970Y-87471029D01*
X154964819Y-87499284D01*
X154842503Y-87621600D01*
X154706965Y-87815169D01*
X154706964Y-87815171D01*
X154607098Y-88029335D01*
X154607094Y-88029344D01*
X154545938Y-88257586D01*
X154545936Y-88257596D01*
X154525341Y-88492999D01*
X130021254Y-88492999D01*
X130026368Y-88471204D01*
X130029370Y-88448540D01*
X130033596Y-88394524D01*
X130034381Y-88362430D01*
X130034469Y-88342084D01*
X130034161Y-88322589D01*
X130031999Y-88283201D01*
X130029392Y-88255505D01*
X130012208Y-88164148D01*
X130005591Y-88140963D01*
X129957166Y-88026753D01*
X129944937Y-88005593D01*
X129883140Y-87920520D01*
X129863693Y-87898895D01*
X129858400Y-87893690D01*
X129819495Y-87855433D01*
X129819487Y-87855426D01*
X129819478Y-87855417D01*
X129791209Y-87830841D01*
X129772134Y-87815171D01*
X129769383Y-87812911D01*
X129730688Y-87782895D01*
X129723740Y-87777601D01*
X129707440Y-87765406D01*
X129702893Y-87762046D01*
X129702774Y-87761958D01*
X129680302Y-87745553D01*
X129680274Y-87745533D01*
X129680229Y-87745500D01*
X129674503Y-87741381D01*
X129650060Y-87724059D01*
X129644650Y-87720277D01*
X129616660Y-87700974D01*
X129612382Y-87698057D01*
X129580035Y-87676243D01*
X129579952Y-87676187D01*
X129579846Y-87676116D01*
X129576558Y-87673917D01*
X129538145Y-87648447D01*
X129537999Y-87648350D01*
X129535938Y-87646992D01*
X129490157Y-87617002D01*
X129488541Y-87615948D01*
X129434794Y-87581032D01*
X129433694Y-87580320D01*
X129371482Y-87540125D01*
X129325856Y-87487210D01*
X129316080Y-87418028D01*
X129345259Y-87354543D01*
X129385475Y-87324013D01*
X129399770Y-87317208D01*
X129405689Y-87314343D01*
X129444427Y-87295278D01*
X129453369Y-87290766D01*
X129484641Y-87274598D01*
X129503049Y-87264592D01*
X129523947Y-87252665D01*
X129555905Y-87232814D01*
X129587983Y-87211193D01*
X129608304Y-87197498D01*
X129611003Y-87195553D01*
X129634044Y-87178950D01*
X129703516Y-87125499D01*
X129731075Y-87102698D01*
X129795213Y-87045695D01*
X129821940Y-87020131D01*
X129879113Y-86961293D01*
X129906724Y-86930446D01*
X129955296Y-86871490D01*
X129985403Y-86830984D01*
X130023744Y-86773627D01*
X130057444Y-86715094D01*
X130083918Y-86661054D01*
X130104660Y-86612431D01*
X130108448Y-86602083D01*
X130125650Y-86544794D01*
X130141438Y-86478120D01*
X130149294Y-86422536D01*
X130178165Y-86358914D01*
X130236853Y-86320998D01*
X130306722Y-86320830D01*
X130346458Y-86341500D01*
X130346735Y-86341109D01*
X130349598Y-86343133D01*
X130349665Y-86343168D01*
X130349795Y-86343272D01*
X130349800Y-86343275D01*
X130349805Y-86343280D01*
X130449657Y-86413873D01*
X130449660Y-86413875D01*
X130488851Y-86434988D01*
X130488857Y-86434991D01*
X130548948Y-86462459D01*
X130548949Y-86462459D01*
X130548950Y-86462460D01*
X130559650Y-86466528D01*
X130572213Y-86471305D01*
X130572216Y-86471306D01*
X130572219Y-86471307D01*
X130594966Y-86478120D01*
X130642208Y-86492270D01*
X130701678Y-86505486D01*
X130783990Y-86516784D01*
X130851020Y-86520416D01*
X130851034Y-86520415D01*
X130851044Y-86520416D01*
X130892195Y-86519777D01*
X130921362Y-86519325D01*
X130993553Y-86513163D01*
X131026300Y-86509288D01*
X131026324Y-86509284D01*
X131026327Y-86509284D01*
X131028592Y-86508941D01*
X131028613Y-86508937D01*
X131028636Y-86508934D01*
X131043847Y-86506391D01*
X131043866Y-86506387D01*
X131043893Y-86506383D01*
X131063923Y-86502718D01*
X131086951Y-86498507D01*
X131141140Y-86485472D01*
X131172844Y-86475969D01*
X131172844Y-86475968D01*
X131172847Y-86475968D01*
X131205176Y-86462459D01*
X131270217Y-86435282D01*
X131293391Y-86422611D01*
X131406967Y-86337874D01*
X131424485Y-86320488D01*
X131497440Y-86229002D01*
X131512174Y-86205353D01*
X131542003Y-86150100D01*
X131548761Y-86135476D01*
X131575133Y-86065087D01*
X131579739Y-86049310D01*
X131591480Y-85994135D01*
X134223788Y-85994135D01*
X134223788Y-87689870D01*
X134223789Y-87689876D01*
X134230196Y-87749483D01*
X134280490Y-87884328D01*
X134280494Y-87884335D01*
X134366740Y-87999544D01*
X134366743Y-87999547D01*
X134481952Y-88085793D01*
X134481959Y-88085797D01*
X134616805Y-88136091D01*
X134616804Y-88136091D01*
X134623732Y-88136835D01*
X134676415Y-88142500D01*
X136372160Y-88142499D01*
X136431771Y-88136091D01*
X136566619Y-88085796D01*
X136681834Y-87999546D01*
X136768084Y-87884331D01*
X136818379Y-87749483D01*
X136824788Y-87689873D01*
X136824787Y-87689845D01*
X136824966Y-87686547D01*
X136826471Y-87686627D01*
X136844400Y-87625326D01*
X136897156Y-87579514D01*
X136940753Y-87571981D01*
X137624288Y-86888446D01*
X137624288Y-86894661D01*
X137651547Y-86996394D01*
X137704208Y-87087606D01*
X137778682Y-87162080D01*
X137869894Y-87214741D01*
X137971627Y-87242000D01*
X137977841Y-87242000D01*
X137298814Y-87921025D01*
X137371801Y-87972132D01*
X137371809Y-87972136D01*
X137577956Y-88068264D01*
X137577970Y-88068269D01*
X137797677Y-88127139D01*
X137797688Y-88127141D01*
X138024286Y-88146966D01*
X138024290Y-88146966D01*
X138250887Y-88127141D01*
X138250898Y-88127139D01*
X138470605Y-88068269D01*
X138470619Y-88068264D01*
X138676766Y-87972136D01*
X138749759Y-87921024D01*
X138070735Y-87242000D01*
X138076949Y-87242000D01*
X138178682Y-87214741D01*
X138269894Y-87162080D01*
X138344368Y-87087606D01*
X138397029Y-86996394D01*
X138424288Y-86894661D01*
X138424288Y-86888447D01*
X139103312Y-87567471D01*
X139154424Y-87494478D01*
X139250552Y-87288331D01*
X139250557Y-87288317D01*
X139309427Y-87068610D01*
X139309429Y-87068599D01*
X139329254Y-86842002D01*
X139329254Y-86841997D01*
X139309429Y-86615400D01*
X139309427Y-86615389D01*
X139250557Y-86395682D01*
X139250552Y-86395668D01*
X139154424Y-86189521D01*
X139154420Y-86189513D01*
X139103313Y-86116526D01*
X138424288Y-86795551D01*
X138424288Y-86789339D01*
X138397029Y-86687606D01*
X138344368Y-86596394D01*
X138269894Y-86521920D01*
X138178682Y-86469259D01*
X138076949Y-86442000D01*
X138070733Y-86442000D01*
X138749760Y-85762974D01*
X138676766Y-85711863D01*
X138470619Y-85615735D01*
X138470605Y-85615730D01*
X138250898Y-85556860D01*
X138250887Y-85556858D01*
X138024290Y-85537034D01*
X138024286Y-85537034D01*
X137797688Y-85556858D01*
X137797677Y-85556860D01*
X137577970Y-85615730D01*
X137577961Y-85615734D01*
X137371804Y-85711866D01*
X137371800Y-85711868D01*
X137298814Y-85762973D01*
X137298814Y-85762974D01*
X137977841Y-86442000D01*
X137971627Y-86442000D01*
X137869894Y-86469259D01*
X137778682Y-86521920D01*
X137704208Y-86596394D01*
X137651547Y-86687606D01*
X137624288Y-86789339D01*
X137624288Y-86795552D01*
X136940087Y-86111351D01*
X136891093Y-86101505D01*
X136840910Y-86052889D01*
X136826269Y-85997366D01*
X136825188Y-85997423D01*
X136825142Y-85997429D01*
X136825141Y-85997426D01*
X136824964Y-85997436D01*
X136824787Y-85994135D01*
X136824787Y-85994128D01*
X136818379Y-85934517D01*
X136809690Y-85911221D01*
X136768085Y-85799671D01*
X136768081Y-85799664D01*
X136681835Y-85684455D01*
X136681832Y-85684452D01*
X136566623Y-85598206D01*
X136566616Y-85598202D01*
X136431770Y-85547908D01*
X136431771Y-85547908D01*
X136372171Y-85541501D01*
X136372169Y-85541500D01*
X136372161Y-85541500D01*
X136372152Y-85541500D01*
X134676417Y-85541500D01*
X134676411Y-85541501D01*
X134616804Y-85547908D01*
X134481959Y-85598202D01*
X134481952Y-85598206D01*
X134366743Y-85684452D01*
X134366740Y-85684455D01*
X134280494Y-85799664D01*
X134280490Y-85799671D01*
X134230196Y-85934517D01*
X134223789Y-85994116D01*
X134223789Y-85994123D01*
X134223788Y-85994135D01*
X131591480Y-85994135D01*
X131595376Y-85975827D01*
X131598093Y-85955867D01*
X131602164Y-85911221D01*
X131603448Y-85883672D01*
X131603980Y-85864216D01*
X131604291Y-85825674D01*
X131604295Y-85818157D01*
X131604126Y-85793309D01*
X131603781Y-85777740D01*
X131603559Y-85771844D01*
X131602418Y-85741495D01*
X131599754Y-85705323D01*
X131597462Y-85684452D01*
X131596437Y-85675118D01*
X131589423Y-85630080D01*
X131583460Y-85600601D01*
X131575683Y-85567816D01*
X131566381Y-85533709D01*
X131563029Y-85521978D01*
X131563018Y-85521939D01*
X131558990Y-85508463D01*
X131557802Y-85504741D01*
X131553305Y-85490646D01*
X131536878Y-85442276D01*
X131532263Y-85428685D01*
X131517214Y-85389737D01*
X131494383Y-85337207D01*
X131472158Y-85292301D01*
X131445764Y-85245022D01*
X131445757Y-85245009D01*
X131417021Y-85199430D01*
X131417018Y-85199425D01*
X131383580Y-85152173D01*
X131354514Y-85114922D01*
X131308601Y-85061435D01*
X131280614Y-85031392D01*
X131228575Y-84979891D01*
X131197370Y-84951487D01*
X131142935Y-84905943D01*
X131124141Y-84890963D01*
X131123762Y-84890675D01*
X131122727Y-84889889D01*
X131122370Y-84889616D01*
X131097905Y-84870895D01*
X131097069Y-84870250D01*
X131079700Y-84856723D01*
X131078417Y-84855710D01*
X131078044Y-84855411D01*
X131075377Y-84853277D01*
X131072364Y-84850786D01*
X131065681Y-84845078D01*
X131062453Y-84842400D01*
X131028221Y-84817984D01*
X131002440Y-84799596D01*
X131002432Y-84799591D01*
X130989049Y-84791448D01*
X130983204Y-84788128D01*
X130962704Y-84776481D01*
X130960509Y-84775319D01*
X130945960Y-84767621D01*
X130933966Y-84760227D01*
X130933896Y-84760330D01*
X130920627Y-84751252D01*
X130895298Y-84734474D01*
X130888308Y-84729926D01*
X130855449Y-84708923D01*
X130851023Y-84706125D01*
X130813454Y-84682642D01*
X130810133Y-84680585D01*
X130770801Y-84656444D01*
X130767255Y-84654287D01*
X130729296Y-84631422D01*
X130724546Y-84628595D01*
X130690832Y-84608778D01*
X130682837Y-84604174D01*
X130656246Y-84589182D01*
X130650741Y-84586123D01*
X130630182Y-84574862D01*
X130629280Y-84574364D01*
X130617239Y-84567638D01*
X130568311Y-84517760D01*
X130554117Y-84449347D01*
X130579162Y-84384120D01*
X130635496Y-84342789D01*
X130647013Y-84339242D01*
X130656023Y-84336941D01*
X130728979Y-84317044D01*
X130746530Y-84311915D01*
X130814047Y-84290850D01*
X130836138Y-84283394D01*
X130895240Y-84261917D01*
X130911094Y-84255534D01*
X130927301Y-84249010D01*
X130941788Y-84242593D01*
X130975026Y-84227871D01*
X131014957Y-84208033D01*
X131026292Y-84201764D01*
X131075709Y-84170574D01*
X131109453Y-84146440D01*
X131159893Y-84105203D01*
X131192186Y-84075129D01*
X131234812Y-84030254D01*
X131261750Y-83998171D01*
X131310745Y-83928704D01*
X131328422Y-83898540D01*
X131376330Y-83788693D01*
X131381817Y-83770469D01*
X131394272Y-83719743D01*
X131399582Y-83691995D01*
X131405180Y-83655609D01*
X131408670Y-83625719D01*
X131411353Y-83594212D01*
X131412800Y-83567278D01*
X131412543Y-83508619D01*
X131411203Y-83487185D01*
X131392664Y-83379596D01*
X131387193Y-83360486D01*
X131359582Y-83286468D01*
X131348874Y-83263441D01*
X131323842Y-83216296D01*
X131305737Y-83186155D01*
X131257717Y-83119241D01*
X131218259Y-83072776D01*
X131159384Y-83014019D01*
X131159379Y-83014014D01*
X131108882Y-82971306D01*
X131108880Y-82971304D01*
X131051081Y-82929058D01*
X130991577Y-82891728D01*
X130991568Y-82891723D01*
X130991569Y-82891723D01*
X130932723Y-82860025D01*
X130932695Y-82860011D01*
X130866248Y-82829705D01*
X130840157Y-82818678D01*
X130840144Y-82818673D01*
X130840130Y-82818667D01*
X130835029Y-82816677D01*
X130833254Y-82815968D01*
X130816946Y-82809304D01*
X130815254Y-82808598D01*
X130804441Y-82803991D01*
X130793394Y-82799285D01*
X130792638Y-82798964D01*
X130792576Y-82798937D01*
X130780931Y-82793998D01*
X130773716Y-82791004D01*
X130745586Y-82779591D01*
X130745551Y-82779577D01*
X130740360Y-82777504D01*
X130706573Y-82764229D01*
X130705053Y-82763640D01*
X130702022Y-82762465D01*
X130667557Y-82749300D01*
X130665887Y-82748666D01*
X130665887Y-82748667D01*
X130665813Y-82748639D01*
X130662413Y-82747354D01*
X130661987Y-82747192D01*
X130636255Y-82737309D01*
X130599436Y-82722980D01*
X130597942Y-82722394D01*
X130554131Y-82705216D01*
X130553924Y-82705135D01*
X130544098Y-82701262D01*
X130503158Y-82685124D01*
X130448523Y-82663487D01*
X130393126Y-82641447D01*
X130384844Y-82638148D01*
X130375167Y-82634293D01*
X130375167Y-82634292D01*
X130374452Y-82634009D01*
X130374452Y-82634010D01*
X130357239Y-82627188D01*
X130320806Y-82612750D01*
X130320752Y-82612728D01*
X130319693Y-82612309D01*
X130319693Y-82612310D01*
X130319599Y-82612273D01*
X130268747Y-82592271D01*
X130267412Y-82591748D01*
X130221466Y-82573826D01*
X130221353Y-82573782D01*
X130219838Y-82573194D01*
X130219741Y-82573157D01*
X130199440Y-82565323D01*
X130180865Y-82558156D01*
X130177880Y-82557015D01*
X130148249Y-82545781D01*
X130141975Y-82543450D01*
X130123476Y-82536718D01*
X130123451Y-82536709D01*
X130123396Y-82536689D01*
X130119434Y-82535265D01*
X130117949Y-82534738D01*
X130113012Y-82532987D01*
X130111309Y-82532369D01*
X130089848Y-82524402D01*
X130088714Y-82523975D01*
X130056896Y-82511808D01*
X130056130Y-82511512D01*
X130019235Y-82497123D01*
X130018514Y-82496839D01*
X129979495Y-82481340D01*
X129979151Y-82481203D01*
X129972343Y-82478475D01*
X129964337Y-82475267D01*
X129964279Y-82475243D01*
X129963257Y-82474835D01*
X129893606Y-82447120D01*
X129893504Y-82447080D01*
X129892619Y-82446730D01*
X129891398Y-82446247D01*
X129859962Y-82433901D01*
X129827963Y-82421333D01*
X129827813Y-82421274D01*
X129825624Y-82420421D01*
X129825469Y-82420361D01*
X129769428Y-82398692D01*
X129769325Y-82398652D01*
X129769220Y-82398612D01*
X129766278Y-82397486D01*
X129718568Y-82379420D01*
X129713720Y-82377613D01*
X129676047Y-82363798D01*
X129666913Y-82360548D01*
X129666899Y-82360543D01*
X129666862Y-82360530D01*
X129640136Y-82351309D01*
X129614274Y-82343156D01*
X129606870Y-82341038D01*
X129599654Y-82338974D01*
X129597802Y-82338458D01*
X129587425Y-82335065D01*
X129578450Y-82331686D01*
X129576722Y-82331019D01*
X129559153Y-82324093D01*
X129553257Y-82321768D01*
X129553187Y-82321740D01*
X129553117Y-82321713D01*
X129550710Y-82320771D01*
X129550689Y-82320763D01*
X129550554Y-82320710D01*
X129550554Y-82320709D01*
X129503806Y-82302555D01*
X129503685Y-82302508D01*
X129501408Y-82301629D01*
X129451267Y-82282434D01*
X129449390Y-82281720D01*
X129397972Y-82262270D01*
X129396250Y-82261622D01*
X129396107Y-82261568D01*
X129396107Y-82261567D01*
X129345456Y-82242618D01*
X129343565Y-82241916D01*
X129343565Y-82241915D01*
X129295139Y-82224004D01*
X129293294Y-82223326D01*
X129293164Y-82223279D01*
X129272570Y-82215761D01*
X129248884Y-82207114D01*
X129246448Y-82206233D01*
X129241790Y-82204562D01*
X129208164Y-82192501D01*
X129203974Y-82191019D01*
X129203920Y-82191000D01*
X129173836Y-82180506D01*
X129165055Y-82177532D01*
X129144623Y-82170821D01*
X129138772Y-82169129D01*
X129115989Y-82162543D01*
X129111083Y-82161014D01*
X129107905Y-82159950D01*
X129106504Y-82159471D01*
X129084556Y-82151830D01*
X129083818Y-82151570D01*
X129056497Y-82141836D01*
X129056051Y-82141676D01*
X129048759Y-82139028D01*
X129028190Y-82131556D01*
X129027382Y-82131259D01*
X129003929Y-82122555D01*
X129002662Y-82122077D01*
X128990214Y-82117302D01*
X128987248Y-82116120D01*
X128976030Y-82111482D01*
X128974890Y-82111004D01*
X128973228Y-82110297D01*
X128971922Y-82109775D01*
X128970593Y-82109235D01*
X128941645Y-82097265D01*
X128935864Y-82095629D01*
X128933774Y-82094834D01*
X128933750Y-82094825D01*
X128933736Y-82094820D01*
X128899806Y-82082578D01*
X128891890Y-82079797D01*
X128849812Y-82065412D01*
X128844591Y-82063659D01*
X128797431Y-82048107D01*
X128797376Y-82048089D01*
X128793266Y-82046753D01*
X128766809Y-82038278D01*
X128743449Y-82030795D01*
X128739509Y-82029550D01*
X128689773Y-82014056D01*
X128685595Y-82012773D01*
X128638581Y-81998578D01*
X128632974Y-81996920D01*
X128591535Y-81984923D01*
X128584603Y-81982985D01*
X128582618Y-81982430D01*
X128549345Y-81973455D01*
X128529835Y-81968607D01*
X128507401Y-81963504D01*
X128503973Y-81962766D01*
X128501998Y-81962324D01*
X128493960Y-81960454D01*
X128492557Y-81960118D01*
X128470091Y-81954615D01*
X128469480Y-81954464D01*
X128436676Y-81946252D01*
X128436274Y-81946151D01*
X128395622Y-81935830D01*
X128395278Y-81935742D01*
X128354070Y-81925154D01*
X128354060Y-81925151D01*
X128352397Y-81924724D01*
X128350664Y-81924279D01*
X128333711Y-81919921D01*
X128333665Y-81919909D01*
X128333551Y-81919880D01*
X128333551Y-81919879D01*
X128331573Y-81919377D01*
X128287514Y-81908267D01*
X128287482Y-81908259D01*
X128287343Y-81908224D01*
X128283758Y-81907334D01*
X128283704Y-81907320D01*
X128283584Y-81907291D01*
X128244629Y-81897770D01*
X128239894Y-81896637D01*
X128239844Y-81896625D01*
X128229244Y-81894141D01*
X128207831Y-81889125D01*
X128199440Y-81887234D01*
X128183617Y-81883809D01*
X128176860Y-81882347D01*
X128176853Y-81882345D01*
X128176836Y-81882342D01*
X128149851Y-81877264D01*
X128138926Y-81875515D01*
X128138911Y-81875513D01*
X128076124Y-81869446D01*
X127933100Y-81885085D01*
X127933097Y-81885086D01*
X127924726Y-81887239D01*
X127913508Y-81890124D01*
X127902020Y-81893223D01*
X127902018Y-81893223D01*
X127902017Y-81893224D01*
X127770533Y-81951635D01*
X127748211Y-81965656D01*
X127657657Y-82038277D01*
X127639045Y-82057099D01*
X127629286Y-82067245D01*
X127546963Y-82185233D01*
X127546952Y-82185252D01*
X127537164Y-82204694D01*
X127519823Y-82243034D01*
X127485572Y-82382774D01*
X127485570Y-82382785D01*
X127484622Y-82392475D01*
X127484622Y-82392480D01*
X127484622Y-82392482D01*
X127486521Y-82446253D01*
X127489348Y-82526329D01*
X127494346Y-82555766D01*
X127494349Y-82555780D01*
X127528574Y-82671425D01*
X127528576Y-82671430D01*
X127542966Y-82704781D01*
X127542982Y-82704815D01*
X127566847Y-82749309D01*
X127583530Y-82780413D01*
X127605708Y-82814466D01*
X127653562Y-82876760D01*
X127681891Y-82908236D01*
X127681896Y-82908241D01*
X127681904Y-82908249D01*
X127720606Y-82946831D01*
X127720633Y-82946856D01*
X127729015Y-82954354D01*
X127747833Y-82970064D01*
X127786681Y-83028139D01*
X127787963Y-83097997D01*
X127751275Y-83157458D01*
X127705383Y-83183598D01*
X127703933Y-83184051D01*
X127699776Y-83185351D01*
X127699660Y-83185388D01*
X127648605Y-83201668D01*
X127646025Y-83202496D01*
X127615681Y-83212336D01*
X127615214Y-83212487D01*
X127572948Y-83226007D01*
X127572333Y-83226202D01*
X127535959Y-83237629D01*
X127535131Y-83237886D01*
X127507998Y-83246202D01*
X127506551Y-83246635D01*
X127497919Y-83249166D01*
X127493544Y-83250363D01*
X127460206Y-83258826D01*
X127446057Y-83264374D01*
X127444036Y-83264966D01*
X127441635Y-83266011D01*
X127438267Y-83267136D01*
X127438260Y-83267138D01*
X127438259Y-83267139D01*
X127438250Y-83267142D01*
X127395612Y-83283555D01*
X127369466Y-83295002D01*
X127350254Y-83303900D01*
X127318980Y-83319188D01*
X127305209Y-83326183D01*
X127272187Y-83343599D01*
X127258338Y-83351186D01*
X127227062Y-83368963D01*
X127207965Y-83380381D01*
X127181942Y-83396731D01*
X127161144Y-83410525D01*
X127144257Y-83422335D01*
X127114549Y-83444782D01*
X127055087Y-83493250D01*
X127010315Y-83534474D01*
X127010297Y-83534492D01*
X126959690Y-83587061D01*
X126915891Y-83639165D01*
X126875926Y-83693792D01*
X126832449Y-83764841D01*
X126804933Y-83819458D01*
X126785343Y-83863441D01*
X126785338Y-83863451D01*
X126780402Y-83876126D01*
X126779877Y-83877451D01*
X126774828Y-83889985D01*
X126773793Y-83892475D01*
X126770221Y-83900813D01*
X126761850Y-83921609D01*
X126757324Y-83933614D01*
X126739893Y-83989440D01*
X126734796Y-84009844D01*
X126724984Y-84059638D01*
X126724981Y-84059660D01*
X126722561Y-84076312D01*
X126722557Y-84076342D01*
X126717803Y-84126548D01*
X126716983Y-84144970D01*
X126716983Y-84144974D01*
X126722097Y-84242593D01*
X126724859Y-84260971D01*
X126737247Y-84319539D01*
X126744145Y-84344690D01*
X126748707Y-84360331D01*
X126748709Y-84360337D01*
X126750097Y-84364826D01*
X126764586Y-84405454D01*
X126764589Y-84405461D01*
X126772616Y-84425257D01*
X126772629Y-84425286D01*
X126811804Y-84502254D01*
X126811810Y-84502265D01*
X126820330Y-84515965D01*
X126823808Y-84521558D01*
X126823810Y-84521560D01*
X126864013Y-84577347D01*
X126864020Y-84577355D01*
X126864023Y-84577359D01*
X126882315Y-84599407D01*
X126906383Y-84626392D01*
X126906391Y-84626400D01*
X126933293Y-84654474D01*
X126933308Y-84654489D01*
X126933310Y-84654491D01*
X126950450Y-84671541D01*
X126950469Y-84671559D01*
X126950471Y-84671561D01*
X126972314Y-84692276D01*
X127004816Y-84720566D01*
X127004822Y-84720570D01*
X127004828Y-84720576D01*
X127036448Y-84745812D01*
X127041811Y-84750092D01*
X127086946Y-84782227D01*
X127086959Y-84782236D01*
X127101511Y-84791438D01*
X127128751Y-84808664D01*
X127171842Y-84833045D01*
X127190441Y-84842397D01*
X127218794Y-84856654D01*
X127269845Y-84904356D01*
X127287002Y-84972087D01*
X127264817Y-85038341D01*
X127256985Y-85048428D01*
X127221699Y-85089335D01*
X127205845Y-85110118D01*
X127183125Y-85142448D01*
X127157310Y-85182419D01*
X127135544Y-85219487D01*
X127113324Y-85261307D01*
X127113306Y-85261344D01*
X127093323Y-85303551D01*
X127093321Y-85303556D01*
X127076781Y-85343120D01*
X127054422Y-85409026D01*
X127054419Y-85409035D01*
X127054419Y-85409037D01*
X127045648Y-85442252D01*
X127045644Y-85442270D01*
X127045643Y-85442276D01*
X127033593Y-85502557D01*
X127033589Y-85502576D01*
X127033292Y-85504739D01*
X127028722Y-85584757D01*
X127028722Y-85584790D01*
X127029724Y-85629635D01*
X127029724Y-85629641D01*
X127046789Y-85749054D01*
X127060363Y-85799769D01*
X127070489Y-85827714D01*
X127074820Y-85897450D01*
X127040762Y-85958456D01*
X127029345Y-85968369D01*
X126967576Y-86015718D01*
X126967571Y-86015722D01*
X126916759Y-86062769D01*
X126916755Y-86062773D01*
X126852320Y-86135079D01*
X126852316Y-86135084D01*
X126811703Y-86190557D01*
X126760702Y-86277125D01*
X126731716Y-86339852D01*
X126731711Y-86339863D01*
X126707167Y-86404143D01*
X126707164Y-86404153D01*
X126704194Y-86413873D01*
X126702973Y-86417867D01*
X126701898Y-86422611D01*
X126687654Y-86485470D01*
X126686506Y-86490534D01*
X126678238Y-86545582D01*
X126673177Y-86644125D01*
X126673177Y-86644143D01*
X126675949Y-86703797D01*
X126675949Y-86703803D01*
X126687238Y-86789073D01*
X126687243Y-86789101D01*
X126700702Y-86850193D01*
X126700703Y-86850196D01*
X126725191Y-86929604D01*
X126725191Y-86929607D01*
X126737899Y-86961292D01*
X126748986Y-86988936D01*
X126769302Y-87033272D01*
X126769306Y-87033279D01*
X126769320Y-87033309D01*
X126791714Y-87076543D01*
X126802558Y-87096384D01*
X126859081Y-87194517D01*
X126876844Y-87223109D01*
X126938779Y-87315769D01*
X126959668Y-87382443D01*
X126956881Y-87410237D01*
X126956985Y-87410258D01*
X126956768Y-87411371D01*
X126956758Y-87411474D01*
X126956677Y-87411835D01*
X126946664Y-87463286D01*
X126946660Y-87463311D01*
X126946036Y-87467728D01*
X126946031Y-87467765D01*
X126943960Y-87489900D01*
X126943082Y-87499286D01*
X126941607Y-87515044D01*
X126941606Y-87515055D01*
X126940595Y-87536854D01*
X126951585Y-87667628D01*
X126951587Y-87667640D01*
X126955714Y-87686627D01*
X126955975Y-87687825D01*
X126955978Y-87687839D01*
X126986833Y-87783091D01*
X126986835Y-87783096D01*
X126986837Y-87783101D01*
X126997935Y-87808463D01*
X127008127Y-87830321D01*
X127008385Y-87830841D01*
X127011402Y-87836929D01*
X127017944Y-87849669D01*
X127041345Y-87893690D01*
X127063585Y-87931480D01*
X127086123Y-87966233D01*
X127086127Y-87966239D01*
X127086132Y-87966246D01*
X127110884Y-87999547D01*
X127124623Y-88018031D01*
X127125801Y-88019514D01*
X127152080Y-88084254D01*
X127139186Y-88152924D01*
X127115951Y-88184741D01*
X127089384Y-88211049D01*
X127089383Y-88211050D01*
X127026220Y-88287227D01*
X126996734Y-88330864D01*
X126975402Y-88365338D01*
X126972660Y-88370195D01*
X126953571Y-88407546D01*
X126931045Y-88456544D01*
X126931041Y-88456554D01*
X126900950Y-88541070D01*
X126900942Y-88541096D01*
X126887950Y-88591318D01*
X126872998Y-88683700D01*
X126869333Y-88737720D01*
X126869332Y-88737734D01*
X126870228Y-88817475D01*
X126870229Y-88817494D01*
X126875692Y-88877889D01*
X126884209Y-88935188D01*
X126884211Y-88935201D01*
X126898607Y-89004477D01*
X126903417Y-89025385D01*
X126903781Y-89026824D01*
X126904966Y-89031424D01*
X126911830Y-89057571D01*
X126916324Y-89073609D01*
X126923203Y-89096692D01*
X126930843Y-89120214D01*
X126938688Y-89142493D01*
X126942385Y-89212265D01*
X126923255Y-89254861D01*
X126917576Y-89262961D01*
X126917570Y-89262969D01*
X126917559Y-89262986D01*
X126897733Y-89294209D01*
X126876441Y-89331086D01*
X126858542Y-89365342D01*
X126842600Y-89398784D01*
X126828291Y-89431867D01*
X126828281Y-89431892D01*
X126821284Y-89451500D01*
X126806070Y-89494132D01*
X126805704Y-89495418D01*
X126787553Y-89559170D01*
X126770334Y-89651555D01*
X126764189Y-89718752D01*
X126763952Y-89808148D01*
X126770087Y-89879419D01*
X126781902Y-89952860D01*
X126800231Y-90030047D01*
X126808481Y-90060520D01*
X126808608Y-90060937D01*
X126812801Y-90074058D01*
X126827547Y-90118116D01*
X126835677Y-90140625D01*
X126853371Y-90186207D01*
X126861329Y-90205520D01*
X126880593Y-90249657D01*
X126890553Y-90271168D01*
X126890108Y-90271373D01*
X126901624Y-90338416D01*
X126874345Y-90402740D01*
X126816620Y-90442105D01*
X126814956Y-90442630D01*
X126813928Y-90442946D01*
X126813886Y-90442960D01*
X126748362Y-90467261D01*
X126701782Y-90487246D01*
X126701776Y-90487249D01*
X126675285Y-90500224D01*
X126638705Y-90518141D01*
X126638696Y-90518146D01*
X126594132Y-90542832D01*
X126594105Y-90542848D01*
X126536482Y-90578681D01*
X126488719Y-90612361D01*
X126488712Y-90612366D01*
X126439504Y-90651514D01*
X126383325Y-90703632D01*
X126383303Y-90703654D01*
X126345538Y-90744438D01*
X126345535Y-90744441D01*
X126312922Y-90783420D01*
X126312911Y-90783434D01*
X126312611Y-90783831D01*
X126294905Y-90808841D01*
X126258682Y-90863441D01*
X126258660Y-90863476D01*
X126222742Y-90927198D01*
X126222722Y-90927236D01*
X126196084Y-90983702D01*
X126168796Y-91055088D01*
X126168788Y-91055111D01*
X126150272Y-91117287D01*
X126136026Y-91179053D01*
X126124152Y-91250840D01*
X126119731Y-91284609D01*
X126116809Y-91314799D01*
X126115026Y-91339536D01*
X126111667Y-91410407D01*
X126111110Y-91437600D01*
X126111589Y-91512149D01*
X126112429Y-91538212D01*
X126116627Y-91610631D01*
X126119451Y-91642184D01*
X126127259Y-91706586D01*
X126131363Y-91734080D01*
X126140427Y-91785131D01*
X126142347Y-91795337D01*
X126154064Y-91854267D01*
X126154081Y-91854348D01*
X126155700Y-91862168D01*
X126164793Y-91904401D01*
X126169285Y-91925260D01*
X126170708Y-91931661D01*
X126185530Y-91996344D01*
X126186969Y-92002450D01*
X126202516Y-92066682D01*
X126204001Y-92072654D01*
X126219702Y-92134135D01*
X126220642Y-92137706D01*
X126221566Y-92141215D01*
X126221582Y-92141273D01*
X126236792Y-92197430D01*
X126239410Y-92206744D01*
X126252549Y-92251842D01*
X126253656Y-92255643D01*
X126257959Y-92269655D01*
X126259619Y-92274793D01*
X126270663Y-92308982D01*
X126274429Y-92319613D01*
X126280067Y-92335532D01*
X126282957Y-92343021D01*
X126290897Y-92378064D01*
X126293372Y-92409962D01*
X126293528Y-92412239D01*
X126296966Y-92470414D01*
X126297050Y-92472016D01*
X126300344Y-92543434D01*
X126300395Y-92544670D01*
X126303384Y-92627394D01*
X126303417Y-92628418D01*
X126305979Y-92720383D01*
X126306001Y-92721276D01*
X126308090Y-92822441D01*
X126308096Y-92822768D01*
X126308495Y-92844954D01*
X126308541Y-92847178D01*
X126311114Y-92959975D01*
X126311251Y-92964931D01*
X126314471Y-93063096D01*
X126314742Y-93069966D01*
X126318625Y-93154045D01*
X126319152Y-93163496D01*
X126323705Y-93233545D01*
X126324821Y-93247651D01*
X126330042Y-93303687D01*
X126332738Y-93326827D01*
X126338638Y-93369000D01*
X126338642Y-93369021D01*
X126349110Y-93422579D01*
X126355982Y-93449827D01*
X126368515Y-93491778D01*
X126380510Y-93526388D01*
X126390629Y-93553119D01*
X126403959Y-93585530D01*
X126405785Y-93589969D01*
X126406460Y-93591500D01*
X126416067Y-93613285D01*
X126432601Y-93648351D01*
X126447196Y-93676917D01*
X126463321Y-93706151D01*
X126463344Y-93706190D01*
X126496468Y-93758600D01*
X126495829Y-93759003D01*
X126516129Y-93822846D01*
X126497942Y-93890307D01*
X126489129Y-93902892D01*
X126456939Y-93943279D01*
X126456935Y-93943285D01*
X126403510Y-94025595D01*
X126403509Y-94025596D01*
X126372993Y-94084430D01*
X126372991Y-94084434D01*
X126335202Y-94179972D01*
X126335195Y-94179991D01*
X126317302Y-94243447D01*
X126317292Y-94243485D01*
X126304764Y-94300233D01*
X126303894Y-94305639D01*
X126299540Y-94340207D01*
X126297019Y-94367909D01*
X126297019Y-94367911D01*
X126296813Y-94381483D01*
X126295858Y-94444226D01*
X126295858Y-94444229D01*
X126297514Y-94471634D01*
X126297514Y-94471637D01*
X126297515Y-94471642D01*
X126297755Y-94473404D01*
X126307705Y-94546560D01*
X126307705Y-94546561D01*
X126314191Y-94576983D01*
X126314191Y-94576986D01*
X126328025Y-94628411D01*
X126328026Y-94628414D01*
X126339990Y-94665072D01*
X126345303Y-94679871D01*
X126349426Y-94749619D01*
X126315186Y-94810524D01*
X126302978Y-94820979D01*
X126249269Y-94861245D01*
X126187206Y-94916280D01*
X126145526Y-94959856D01*
X126145506Y-94959879D01*
X126083242Y-95039626D01*
X126053198Y-95087267D01*
X126005979Y-95183425D01*
X126005974Y-95183436D01*
X125986677Y-95236250D01*
X125986673Y-95236263D01*
X125962316Y-95329918D01*
X125952861Y-95389052D01*
X125947364Y-95439687D01*
X125947360Y-95439732D01*
X125946130Y-95461014D01*
X125945371Y-95499347D01*
X125946029Y-95535671D01*
X125946030Y-95535696D01*
X125946498Y-95541165D01*
X125932596Y-95609638D01*
X125883882Y-95659724D01*
X125852391Y-95672182D01*
X125843598Y-95674330D01*
X125814912Y-95681771D01*
X125778590Y-95692663D01*
X125754754Y-95700797D01*
X125752735Y-95701487D01*
X125690897Y-95728363D01*
X125677596Y-95734145D01*
X125658996Y-95744092D01*
X125658990Y-95744096D01*
X125572499Y-95802586D01*
X125572479Y-95802601D01*
X125557269Y-95815363D01*
X125557249Y-95815380D01*
X125523092Y-95846820D01*
X125517842Y-95852118D01*
X125488750Y-95884105D01*
X125477453Y-95897647D01*
X125430433Y-95964285D01*
X125375610Y-96097311D01*
X125375605Y-96097327D01*
X125372933Y-96107873D01*
X125372930Y-96107885D01*
X125357709Y-96248214D01*
X125017500Y-96248214D01*
X125017500Y-80491998D01*
X134255532Y-80491998D01*
X134255532Y-80492001D01*
X134275364Y-80718686D01*
X134275366Y-80718697D01*
X134334258Y-80938488D01*
X134334261Y-80938497D01*
X134430431Y-81144732D01*
X134430432Y-81144734D01*
X134560954Y-81331141D01*
X134721858Y-81492045D01*
X134721861Y-81492047D01*
X134908266Y-81622568D01*
X135114504Y-81718739D01*
X135334308Y-81777635D01*
X135496230Y-81791801D01*
X135560998Y-81797468D01*
X135561000Y-81797468D01*
X135561002Y-81797468D01*
X135617673Y-81792509D01*
X135787692Y-81777635D01*
X136007496Y-81718739D01*
X136213734Y-81622568D01*
X136400139Y-81492047D01*
X136561047Y-81331139D01*
X136691568Y-81144734D01*
X136718893Y-81086134D01*
X136765065Y-81033695D01*
X136832258Y-81014543D01*
X136899139Y-81034758D01*
X136943657Y-81086134D01*
X136970864Y-81144480D01*
X137021974Y-81217472D01*
X137618037Y-80621409D01*
X137635075Y-80684993D01*
X137700901Y-80799007D01*
X137793993Y-80892099D01*
X137908007Y-80957925D01*
X137971590Y-80974962D01*
X137375526Y-81571025D01*
X137448513Y-81622132D01*
X137448521Y-81622136D01*
X137654668Y-81718264D01*
X137654682Y-81718269D01*
X137874389Y-81777139D01*
X137874400Y-81777141D01*
X138100998Y-81796966D01*
X138101002Y-81796966D01*
X138327599Y-81777141D01*
X138327610Y-81777139D01*
X138547317Y-81718269D01*
X138547331Y-81718264D01*
X138753478Y-81622136D01*
X138826471Y-81571024D01*
X138230409Y-80974962D01*
X138293993Y-80957925D01*
X138408007Y-80892099D01*
X138501099Y-80799007D01*
X138566925Y-80684993D01*
X138583962Y-80621409D01*
X139180024Y-81217471D01*
X139231133Y-81144482D01*
X139258341Y-81086135D01*
X139304513Y-81033696D01*
X139371707Y-81014543D01*
X139438588Y-81034758D01*
X139483105Y-81086132D01*
X139510432Y-81144734D01*
X139510433Y-81144735D01*
X139640954Y-81331141D01*
X139801858Y-81492045D01*
X139801861Y-81492047D01*
X139988266Y-81622568D01*
X140194504Y-81718739D01*
X140414308Y-81777635D01*
X140576230Y-81791801D01*
X140640998Y-81797468D01*
X140641000Y-81797468D01*
X140641002Y-81797468D01*
X140697673Y-81792509D01*
X140867692Y-81777635D01*
X141087496Y-81718739D01*
X141293734Y-81622568D01*
X141480139Y-81492047D01*
X141641047Y-81331139D01*
X141771568Y-81144734D01*
X141798618Y-81086724D01*
X141844790Y-81034285D01*
X141911983Y-81015133D01*
X141978865Y-81035348D01*
X142023382Y-81086725D01*
X142050429Y-81144728D01*
X142050432Y-81144734D01*
X142180954Y-81331141D01*
X142341858Y-81492045D01*
X142341861Y-81492047D01*
X142528266Y-81622568D01*
X142734504Y-81718739D01*
X142954308Y-81777635D01*
X143116230Y-81791801D01*
X143180998Y-81797468D01*
X143181000Y-81797468D01*
X143181002Y-81797468D01*
X143237673Y-81792509D01*
X143407692Y-81777635D01*
X143627496Y-81718739D01*
X143833734Y-81622568D01*
X144020139Y-81492047D01*
X144181047Y-81331139D01*
X144311568Y-81144734D01*
X144338618Y-81086724D01*
X144384790Y-81034285D01*
X144451983Y-81015133D01*
X144518865Y-81035348D01*
X144563382Y-81086725D01*
X144590429Y-81144728D01*
X144590432Y-81144734D01*
X144720954Y-81331141D01*
X144881858Y-81492045D01*
X144881861Y-81492047D01*
X145068266Y-81622568D01*
X145274504Y-81718739D01*
X145494308Y-81777635D01*
X145656230Y-81791801D01*
X145720998Y-81797468D01*
X145721000Y-81797468D01*
X145721002Y-81797468D01*
X145777673Y-81792509D01*
X145947692Y-81777635D01*
X146167496Y-81718739D01*
X146373734Y-81622568D01*
X146560139Y-81492047D01*
X146721047Y-81331139D01*
X146851568Y-81144734D01*
X146878618Y-81086724D01*
X146924790Y-81034285D01*
X146991983Y-81015133D01*
X147058865Y-81035348D01*
X147103382Y-81086725D01*
X147130429Y-81144728D01*
X147130432Y-81144734D01*
X147260954Y-81331141D01*
X147421858Y-81492045D01*
X147421861Y-81492047D01*
X147608266Y-81622568D01*
X147814504Y-81718739D01*
X148034308Y-81777635D01*
X148196230Y-81791801D01*
X148260998Y-81797468D01*
X148261000Y-81797468D01*
X148261002Y-81797468D01*
X148317673Y-81792509D01*
X148487692Y-81777635D01*
X148707496Y-81718739D01*
X148913734Y-81622568D01*
X149100139Y-81492047D01*
X149261047Y-81331139D01*
X149391568Y-81144734D01*
X149418618Y-81086724D01*
X149464790Y-81034285D01*
X149531983Y-81015133D01*
X149598865Y-81035348D01*
X149643382Y-81086725D01*
X149670429Y-81144728D01*
X149670432Y-81144734D01*
X149800954Y-81331141D01*
X149961858Y-81492045D01*
X149961861Y-81492047D01*
X150148266Y-81622568D01*
X150354504Y-81718739D01*
X150574308Y-81777635D01*
X150736230Y-81791801D01*
X150800998Y-81797468D01*
X150801000Y-81797468D01*
X150801002Y-81797468D01*
X150857673Y-81792509D01*
X151027692Y-81777635D01*
X151247496Y-81718739D01*
X151453734Y-81622568D01*
X151640139Y-81492047D01*
X151801047Y-81331139D01*
X151931568Y-81144734D01*
X151958618Y-81086724D01*
X152004790Y-81034285D01*
X152071983Y-81015133D01*
X152138865Y-81035348D01*
X152183382Y-81086725D01*
X152210429Y-81144728D01*
X152210432Y-81144734D01*
X152340954Y-81331141D01*
X152501858Y-81492045D01*
X152501861Y-81492047D01*
X152688266Y-81622568D01*
X152894504Y-81718739D01*
X153114308Y-81777635D01*
X153276230Y-81791801D01*
X153340998Y-81797468D01*
X153341000Y-81797468D01*
X153341002Y-81797468D01*
X153397673Y-81792509D01*
X153567692Y-81777635D01*
X153787496Y-81718739D01*
X153993734Y-81622568D01*
X154180139Y-81492047D01*
X154341047Y-81331139D01*
X154471568Y-81144734D01*
X154567739Y-80938496D01*
X154626635Y-80718692D01*
X154646468Y-80492000D01*
X154626635Y-80265308D01*
X154567739Y-80045504D01*
X154471568Y-79839266D01*
X154341047Y-79652861D01*
X154341045Y-79652858D01*
X154180141Y-79491954D01*
X153993734Y-79361432D01*
X153993732Y-79361431D01*
X153787497Y-79265261D01*
X153787488Y-79265258D01*
X153567697Y-79206366D01*
X153567693Y-79206365D01*
X153567692Y-79206365D01*
X153567691Y-79206364D01*
X153567686Y-79206364D01*
X153341002Y-79186532D01*
X153340998Y-79186532D01*
X153114313Y-79206364D01*
X153114302Y-79206366D01*
X152894511Y-79265258D01*
X152894502Y-79265261D01*
X152688267Y-79361431D01*
X152688265Y-79361432D01*
X152501858Y-79491954D01*
X152340954Y-79652858D01*
X152210432Y-79839265D01*
X152210431Y-79839267D01*
X152183382Y-79897275D01*
X152137209Y-79949714D01*
X152070016Y-79968866D01*
X152003135Y-79948650D01*
X151958618Y-79897275D01*
X151931568Y-79839266D01*
X151801047Y-79652861D01*
X151801045Y-79652858D01*
X151640141Y-79491954D01*
X151453734Y-79361432D01*
X151453732Y-79361431D01*
X151247497Y-79265261D01*
X151247488Y-79265258D01*
X151027697Y-79206366D01*
X151027693Y-79206365D01*
X151027692Y-79206365D01*
X151027691Y-79206364D01*
X151027686Y-79206364D01*
X150801002Y-79186532D01*
X150800998Y-79186532D01*
X150574313Y-79206364D01*
X150574302Y-79206366D01*
X150354511Y-79265258D01*
X150354502Y-79265261D01*
X150148267Y-79361431D01*
X150148265Y-79361432D01*
X149961858Y-79491954D01*
X149800954Y-79652858D01*
X149670432Y-79839265D01*
X149670431Y-79839267D01*
X149643382Y-79897275D01*
X149597209Y-79949714D01*
X149530016Y-79968866D01*
X149463135Y-79948650D01*
X149418618Y-79897275D01*
X149391568Y-79839266D01*
X149261047Y-79652861D01*
X149261045Y-79652858D01*
X149100141Y-79491954D01*
X148913734Y-79361432D01*
X148913732Y-79361431D01*
X148707497Y-79265261D01*
X148707488Y-79265258D01*
X148487697Y-79206366D01*
X148487693Y-79206365D01*
X148487692Y-79206365D01*
X148487691Y-79206364D01*
X148487686Y-79206364D01*
X148261002Y-79186532D01*
X148260998Y-79186532D01*
X148034313Y-79206364D01*
X148034302Y-79206366D01*
X147814511Y-79265258D01*
X147814502Y-79265261D01*
X147608267Y-79361431D01*
X147608265Y-79361432D01*
X147421858Y-79491954D01*
X147260954Y-79652858D01*
X147130432Y-79839265D01*
X147130431Y-79839267D01*
X147103382Y-79897275D01*
X147057209Y-79949714D01*
X146990016Y-79968866D01*
X146923135Y-79948650D01*
X146878618Y-79897275D01*
X146851568Y-79839266D01*
X146721047Y-79652861D01*
X146721045Y-79652858D01*
X146560141Y-79491954D01*
X146373734Y-79361432D01*
X146373732Y-79361431D01*
X146167497Y-79265261D01*
X146167488Y-79265258D01*
X145947697Y-79206366D01*
X145947693Y-79206365D01*
X145947692Y-79206365D01*
X145947691Y-79206364D01*
X145947686Y-79206364D01*
X145721002Y-79186532D01*
X145720998Y-79186532D01*
X145494313Y-79206364D01*
X145494302Y-79206366D01*
X145274511Y-79265258D01*
X145274502Y-79265261D01*
X145068267Y-79361431D01*
X145068265Y-79361432D01*
X144881858Y-79491954D01*
X144720954Y-79652858D01*
X144590432Y-79839265D01*
X144590431Y-79839267D01*
X144563382Y-79897275D01*
X144517209Y-79949714D01*
X144450016Y-79968866D01*
X144383135Y-79948650D01*
X144338618Y-79897275D01*
X144311568Y-79839266D01*
X144181047Y-79652861D01*
X144181045Y-79652858D01*
X144020141Y-79491954D01*
X143833734Y-79361432D01*
X143833732Y-79361431D01*
X143627497Y-79265261D01*
X143627488Y-79265258D01*
X143407697Y-79206366D01*
X143407693Y-79206365D01*
X143407692Y-79206365D01*
X143407691Y-79206364D01*
X143407686Y-79206364D01*
X143181002Y-79186532D01*
X143180998Y-79186532D01*
X142954313Y-79206364D01*
X142954302Y-79206366D01*
X142734511Y-79265258D01*
X142734502Y-79265261D01*
X142528267Y-79361431D01*
X142528265Y-79361432D01*
X142341858Y-79491954D01*
X142180954Y-79652858D01*
X142050432Y-79839265D01*
X142050431Y-79839267D01*
X142023382Y-79897275D01*
X141977209Y-79949714D01*
X141910016Y-79968866D01*
X141843135Y-79948650D01*
X141798618Y-79897275D01*
X141771568Y-79839266D01*
X141641047Y-79652861D01*
X141641045Y-79652858D01*
X141480141Y-79491954D01*
X141293734Y-79361432D01*
X141293732Y-79361431D01*
X141087497Y-79265261D01*
X141087488Y-79265258D01*
X140867697Y-79206366D01*
X140867693Y-79206365D01*
X140867692Y-79206365D01*
X140867691Y-79206364D01*
X140867686Y-79206364D01*
X140641002Y-79186532D01*
X140640998Y-79186532D01*
X140414313Y-79206364D01*
X140414302Y-79206366D01*
X140194511Y-79265258D01*
X140194502Y-79265261D01*
X139988267Y-79361431D01*
X139988265Y-79361432D01*
X139801858Y-79491954D01*
X139640954Y-79652858D01*
X139510432Y-79839265D01*
X139510428Y-79839272D01*
X139483105Y-79897866D01*
X139436932Y-79950305D01*
X139369738Y-79969456D01*
X139302858Y-79949239D01*
X139258342Y-79897864D01*
X139231136Y-79839521D01*
X139231132Y-79839513D01*
X139180025Y-79766526D01*
X138583962Y-80362589D01*
X138566925Y-80299007D01*
X138501099Y-80184993D01*
X138408007Y-80091901D01*
X138293993Y-80026075D01*
X138230408Y-80009037D01*
X138826472Y-79412974D01*
X138753478Y-79361863D01*
X138547331Y-79265735D01*
X138547317Y-79265730D01*
X138327610Y-79206860D01*
X138327599Y-79206858D01*
X138101002Y-79187034D01*
X138100998Y-79187034D01*
X137874400Y-79206858D01*
X137874389Y-79206860D01*
X137654682Y-79265730D01*
X137654673Y-79265734D01*
X137448516Y-79361866D01*
X137448512Y-79361868D01*
X137375526Y-79412973D01*
X137375526Y-79412974D01*
X137971590Y-80009037D01*
X137908007Y-80026075D01*
X137793993Y-80091901D01*
X137700901Y-80184993D01*
X137635075Y-80299007D01*
X137618037Y-80362590D01*
X137021974Y-79766526D01*
X137021973Y-79766526D01*
X136970868Y-79839512D01*
X136970868Y-79839513D01*
X136943657Y-79897867D01*
X136897484Y-79950306D01*
X136830290Y-79969457D01*
X136763409Y-79949241D01*
X136718893Y-79897865D01*
X136691682Y-79839512D01*
X136691568Y-79839266D01*
X136561047Y-79652861D01*
X136561045Y-79652858D01*
X136400141Y-79491954D01*
X136213734Y-79361432D01*
X136213732Y-79361431D01*
X136007497Y-79265261D01*
X136007488Y-79265258D01*
X135787697Y-79206366D01*
X135787693Y-79206365D01*
X135787692Y-79206365D01*
X135787691Y-79206364D01*
X135787686Y-79206364D01*
X135561002Y-79186532D01*
X135560998Y-79186532D01*
X135334313Y-79206364D01*
X135334302Y-79206366D01*
X135114511Y-79265258D01*
X135114502Y-79265261D01*
X134908267Y-79361431D01*
X134908265Y-79361432D01*
X134721858Y-79491954D01*
X134560954Y-79652858D01*
X134430432Y-79839265D01*
X134430431Y-79839267D01*
X134334261Y-80045502D01*
X134334258Y-80045511D01*
X134275366Y-80265302D01*
X134275364Y-80265313D01*
X134255532Y-80491998D01*
X125017500Y-80491998D01*
X125017500Y-57513902D01*
X132790500Y-57513902D01*
X132790500Y-57750097D01*
X132827446Y-57983368D01*
X132900433Y-58207996D01*
X133007657Y-58418433D01*
X133146483Y-58609510D01*
X133313490Y-58776517D01*
X133504567Y-58915343D01*
X133603991Y-58966002D01*
X133715003Y-59022566D01*
X133715005Y-59022566D01*
X133715008Y-59022568D01*
X133835412Y-59061689D01*
X133939631Y-59095553D01*
X134172903Y-59132500D01*
X134172908Y-59132500D01*
X134409097Y-59132500D01*
X134642368Y-59095553D01*
X134866992Y-59022568D01*
X135077433Y-58915343D01*
X135268510Y-58776517D01*
X135435517Y-58609510D01*
X135574343Y-58418433D01*
X135681568Y-58207992D01*
X135754553Y-57983368D01*
X135791500Y-57750097D01*
X135791500Y-57513902D01*
X153110500Y-57513902D01*
X153110500Y-57750097D01*
X153147446Y-57983368D01*
X153220433Y-58207996D01*
X153327657Y-58418433D01*
X153466483Y-58609510D01*
X153633490Y-58776517D01*
X153824567Y-58915343D01*
X153923991Y-58966002D01*
X154035003Y-59022566D01*
X154035005Y-59022566D01*
X154035008Y-59022568D01*
X154155412Y-59061689D01*
X154259631Y-59095553D01*
X154492903Y-59132500D01*
X154492908Y-59132500D01*
X154729097Y-59132500D01*
X154962368Y-59095553D01*
X155186992Y-59022568D01*
X155397433Y-58915343D01*
X155588510Y-58776517D01*
X155755517Y-58609510D01*
X155894343Y-58418433D01*
X156001568Y-58207992D01*
X156074553Y-57983368D01*
X156111500Y-57750097D01*
X156111500Y-57513902D01*
X156074553Y-57280631D01*
X156001566Y-57056003D01*
X155894342Y-56845566D01*
X155755517Y-56654490D01*
X155588510Y-56487483D01*
X155397433Y-56348657D01*
X155186996Y-56241433D01*
X154962368Y-56168446D01*
X154729097Y-56131500D01*
X154729092Y-56131500D01*
X154492908Y-56131500D01*
X154492903Y-56131500D01*
X154259631Y-56168446D01*
X154035003Y-56241433D01*
X153824566Y-56348657D01*
X153715550Y-56427862D01*
X153633490Y-56487483D01*
X153633488Y-56487485D01*
X153633487Y-56487485D01*
X153466485Y-56654487D01*
X153466485Y-56654488D01*
X153466483Y-56654490D01*
X153406862Y-56736550D01*
X153327657Y-56845566D01*
X153220433Y-57056003D01*
X153147446Y-57280631D01*
X153110500Y-57513902D01*
X135791500Y-57513902D01*
X135754553Y-57280631D01*
X135681566Y-57056003D01*
X135574342Y-56845566D01*
X135435517Y-56654490D01*
X135268510Y-56487483D01*
X135077433Y-56348657D01*
X134866996Y-56241433D01*
X134642368Y-56168446D01*
X134409097Y-56131500D01*
X134409092Y-56131500D01*
X134172908Y-56131500D01*
X134172903Y-56131500D01*
X133939631Y-56168446D01*
X133715003Y-56241433D01*
X133504566Y-56348657D01*
X133395550Y-56427862D01*
X133313490Y-56487483D01*
X133313488Y-56487485D01*
X133313487Y-56487485D01*
X133146485Y-56654487D01*
X133146485Y-56654488D01*
X133146483Y-56654490D01*
X133086862Y-56736550D01*
X133007657Y-56845566D01*
X132900433Y-57056003D01*
X132827446Y-57280631D01*
X132790500Y-57513902D01*
X125017500Y-57513902D01*
X125017500Y-53097051D01*
X125017649Y-53090967D01*
X125034052Y-52757072D01*
X125035245Y-52744962D01*
X125038072Y-52725902D01*
X126766500Y-52725902D01*
X126766500Y-52962097D01*
X126803446Y-53195368D01*
X126876433Y-53419996D01*
X126983657Y-53630433D01*
X127122483Y-53821510D01*
X127289490Y-53988517D01*
X127480567Y-54127343D01*
X127579991Y-54178002D01*
X127691003Y-54234566D01*
X127691005Y-54234566D01*
X127691008Y-54234568D01*
X127811412Y-54273689D01*
X127915631Y-54307553D01*
X128148903Y-54344500D01*
X128148908Y-54344500D01*
X128385097Y-54344500D01*
X128618368Y-54307553D01*
X128842992Y-54234568D01*
X129053433Y-54127343D01*
X129244510Y-53988517D01*
X129411517Y-53821510D01*
X129550343Y-53630433D01*
X129657568Y-53419992D01*
X129730553Y-53195368D01*
X129746608Y-53094000D01*
X129767500Y-52962097D01*
X129767500Y-52725902D01*
X159266500Y-52725902D01*
X159266500Y-52962097D01*
X159303446Y-53195368D01*
X159376433Y-53419996D01*
X159483657Y-53630433D01*
X159622483Y-53821510D01*
X159789490Y-53988517D01*
X159980567Y-54127343D01*
X160079991Y-54178002D01*
X160191003Y-54234566D01*
X160191005Y-54234566D01*
X160191008Y-54234568D01*
X160311412Y-54273689D01*
X160415631Y-54307553D01*
X160648903Y-54344500D01*
X160648908Y-54344500D01*
X160885097Y-54344500D01*
X161118368Y-54307553D01*
X161342992Y-54234568D01*
X161553433Y-54127343D01*
X161744510Y-53988517D01*
X161911517Y-53821510D01*
X162050343Y-53630433D01*
X162157568Y-53419992D01*
X162230553Y-53195368D01*
X162246608Y-53094000D01*
X162267500Y-52962097D01*
X162267500Y-52725902D01*
X162230553Y-52492631D01*
X162157566Y-52268003D01*
X162050342Y-52057566D01*
X161911517Y-51866490D01*
X161744510Y-51699483D01*
X161553433Y-51560657D01*
X161342996Y-51453433D01*
X161118368Y-51380446D01*
X160885097Y-51343500D01*
X160885092Y-51343500D01*
X160648908Y-51343500D01*
X160648903Y-51343500D01*
X160415631Y-51380446D01*
X160191003Y-51453433D01*
X159980566Y-51560657D01*
X159871550Y-51639862D01*
X159789490Y-51699483D01*
X159789488Y-51699485D01*
X159789487Y-51699485D01*
X159622485Y-51866487D01*
X159622485Y-51866488D01*
X159622483Y-51866490D01*
X159562862Y-51948550D01*
X159483657Y-52057566D01*
X159376433Y-52268003D01*
X159303446Y-52492631D01*
X159266500Y-52725902D01*
X129767500Y-52725902D01*
X129730553Y-52492631D01*
X129657566Y-52268003D01*
X129550342Y-52057566D01*
X129411517Y-51866490D01*
X129244510Y-51699483D01*
X129053433Y-51560657D01*
X128842996Y-51453433D01*
X128618368Y-51380446D01*
X128385097Y-51343500D01*
X128385092Y-51343500D01*
X128148908Y-51343500D01*
X128148903Y-51343500D01*
X127915631Y-51380446D01*
X127691003Y-51453433D01*
X127480566Y-51560657D01*
X127371550Y-51639862D01*
X127289490Y-51699483D01*
X127289488Y-51699485D01*
X127289487Y-51699485D01*
X127122485Y-51866487D01*
X127122485Y-51866488D01*
X127122483Y-51866490D01*
X127062862Y-51948550D01*
X126983657Y-52057566D01*
X126876433Y-52268003D01*
X126803446Y-52492631D01*
X126766500Y-52725902D01*
X125038072Y-52725902D01*
X125083849Y-52417296D01*
X125086218Y-52405385D01*
X125166710Y-52084043D01*
X125170240Y-52072411D01*
X125243920Y-51866490D01*
X125281835Y-51760525D01*
X125286476Y-51749318D01*
X125428124Y-51449828D01*
X125433840Y-51439136D01*
X125604145Y-51154998D01*
X125610888Y-51144905D01*
X125808232Y-50878818D01*
X125815935Y-50869433D01*
X126038405Y-50623975D01*
X126046975Y-50615405D01*
X126292433Y-50392935D01*
X126301818Y-50385232D01*
X126567905Y-50187888D01*
X126577998Y-50181145D01*
X126862136Y-50010840D01*
X126872828Y-50005124D01*
X127172318Y-49863476D01*
X127183525Y-49858835D01*
X127495412Y-49747239D01*
X127507043Y-49743710D01*
X127828385Y-49663218D01*
X127840296Y-49660849D01*
X128167962Y-49612244D01*
X128180068Y-49611052D01*
X128513967Y-49594648D01*
X128520051Y-49594500D01*
X128582892Y-49594500D01*
X160451108Y-49594500D01*
X160513949Y-49594500D01*
X160520032Y-49594648D01*
G37*
%TD.AperFunction*%
%TD*%
M02*
