%TF.GenerationSoftware,KiCad,Pcbnew,8.0.8*%
%TF.CreationDate,2025-01-28T15:40:34-03:00*%
%TF.ProjectId,temperature_sensor,74656d70-6572-4617-9475-72655f73656e,rev?*%
%TF.SameCoordinates,Original*%
%TF.FileFunction,Drillmap*%
%TF.FilePolarity,Positive*%
%FSLAX45Y45*%
G04 Gerber Fmt 4.5, Leading zero omitted, Abs format (unit mm)*
G04 Created by KiCad (PCBNEW 8.0.8) date 2025-01-28 15:40:34*
%MOMM*%
%LPD*%
G01*
G04 APERTURE LIST*
%ADD10C,0.200000*%
%ADD11C,0.250000*%
G04 APERTURE END LIST*
D10*
X16051700Y-4909400D02*
G75*
G02*
X16451700Y-5309400I0J-400000D01*
G01*
X16451700Y-13009400D02*
G75*
G02*
X16051700Y-13409400I-400000J0D01*
G01*
X16051700Y-13409400D02*
X12851700Y-13409400D01*
X16451700Y-5309400D02*
X16451700Y-13009400D01*
X12451700Y-13009400D02*
X12451700Y-5309400D01*
X12851700Y-13409400D02*
G75*
G02*
X12451700Y-13009400I0J400000D01*
G01*
X12451700Y-5309400D02*
G75*
G02*
X12851700Y-4909400I400000J0D01*
G01*
X12851700Y-4909400D02*
X16051700Y-4909400D01*
D11*
X12701700Y-5159400D02*
X12951700Y-5409400D01*
X12951700Y-5159400D02*
X12701700Y-5409400D01*
X12701700Y-12909400D02*
X12951700Y-13159400D01*
X12951700Y-12909400D02*
X12701700Y-13159400D01*
X13304100Y-5638200D02*
X13554100Y-5888200D01*
X13554100Y-5638200D02*
X13304100Y-5888200D01*
X15336100Y-5638200D02*
X15586100Y-5888200D01*
X15586100Y-5638200D02*
X15336100Y-5888200D01*
X15951700Y-5159400D02*
X16201700Y-5409400D01*
X16201700Y-5159400D02*
X15951700Y-5409400D01*
X15951700Y-12909400D02*
X16201700Y-13159400D01*
X16201700Y-12909400D02*
X15951700Y-13159400D01*
D10*
X12702477Y-13730884D02*
X12702477Y-13530884D01*
X12702477Y-13530884D02*
X12750096Y-13530884D01*
X12750096Y-13530884D02*
X12778667Y-13540408D01*
X12778667Y-13540408D02*
X12797715Y-13559455D01*
X12797715Y-13559455D02*
X12807239Y-13578503D01*
X12807239Y-13578503D02*
X12816762Y-13616598D01*
X12816762Y-13616598D02*
X12816762Y-13645169D01*
X12816762Y-13645169D02*
X12807239Y-13683265D01*
X12807239Y-13683265D02*
X12797715Y-13702312D01*
X12797715Y-13702312D02*
X12778667Y-13721360D01*
X12778667Y-13721360D02*
X12750096Y-13730884D01*
X12750096Y-13730884D02*
X12702477Y-13730884D01*
X12902477Y-13730884D02*
X12902477Y-13597550D01*
X12902477Y-13635646D02*
X12912001Y-13616598D01*
X12912001Y-13616598D02*
X12921524Y-13607074D01*
X12921524Y-13607074D02*
X12940572Y-13597550D01*
X12940572Y-13597550D02*
X12959620Y-13597550D01*
X13026286Y-13730884D02*
X13026286Y-13597550D01*
X13026286Y-13530884D02*
X13016762Y-13540408D01*
X13016762Y-13540408D02*
X13026286Y-13549931D01*
X13026286Y-13549931D02*
X13035810Y-13540408D01*
X13035810Y-13540408D02*
X13026286Y-13530884D01*
X13026286Y-13530884D02*
X13026286Y-13549931D01*
X13150096Y-13730884D02*
X13131048Y-13721360D01*
X13131048Y-13721360D02*
X13121524Y-13702312D01*
X13121524Y-13702312D02*
X13121524Y-13530884D01*
X13254858Y-13730884D02*
X13235810Y-13721360D01*
X13235810Y-13721360D02*
X13226286Y-13702312D01*
X13226286Y-13702312D02*
X13226286Y-13530884D01*
X13483429Y-13730884D02*
X13483429Y-13530884D01*
X13483429Y-13530884D02*
X13550096Y-13673741D01*
X13550096Y-13673741D02*
X13616762Y-13530884D01*
X13616762Y-13530884D02*
X13616762Y-13730884D01*
X13797715Y-13730884D02*
X13797715Y-13626122D01*
X13797715Y-13626122D02*
X13788191Y-13607074D01*
X13788191Y-13607074D02*
X13769143Y-13597550D01*
X13769143Y-13597550D02*
X13731048Y-13597550D01*
X13731048Y-13597550D02*
X13712001Y-13607074D01*
X13797715Y-13721360D02*
X13778667Y-13730884D01*
X13778667Y-13730884D02*
X13731048Y-13730884D01*
X13731048Y-13730884D02*
X13712001Y-13721360D01*
X13712001Y-13721360D02*
X13702477Y-13702312D01*
X13702477Y-13702312D02*
X13702477Y-13683265D01*
X13702477Y-13683265D02*
X13712001Y-13664217D01*
X13712001Y-13664217D02*
X13731048Y-13654693D01*
X13731048Y-13654693D02*
X13778667Y-13654693D01*
X13778667Y-13654693D02*
X13797715Y-13645169D01*
X13892953Y-13597550D02*
X13892953Y-13797550D01*
X13892953Y-13607074D02*
X13912001Y-13597550D01*
X13912001Y-13597550D02*
X13950096Y-13597550D01*
X13950096Y-13597550D02*
X13969143Y-13607074D01*
X13969143Y-13607074D02*
X13978667Y-13616598D01*
X13978667Y-13616598D02*
X13988191Y-13635646D01*
X13988191Y-13635646D02*
X13988191Y-13692788D01*
X13988191Y-13692788D02*
X13978667Y-13711836D01*
X13978667Y-13711836D02*
X13969143Y-13721360D01*
X13969143Y-13721360D02*
X13950096Y-13730884D01*
X13950096Y-13730884D02*
X13912001Y-13730884D01*
X13912001Y-13730884D02*
X13892953Y-13721360D01*
X14073905Y-13711836D02*
X14083429Y-13721360D01*
X14083429Y-13721360D02*
X14073905Y-13730884D01*
X14073905Y-13730884D02*
X14064382Y-13721360D01*
X14064382Y-13721360D02*
X14073905Y-13711836D01*
X14073905Y-13711836D02*
X14073905Y-13730884D01*
X14073905Y-13607074D02*
X14083429Y-13616598D01*
X14083429Y-13616598D02*
X14073905Y-13626122D01*
X14073905Y-13626122D02*
X14064382Y-13616598D01*
X14064382Y-13616598D02*
X14073905Y-13607074D01*
X14073905Y-13607074D02*
X14073905Y-13626122D01*
X12241700Y-13959400D02*
X12441700Y-14159400D01*
X12441700Y-13959400D02*
X12241700Y-14159400D01*
X12692953Y-13969931D02*
X12702477Y-13960408D01*
X12702477Y-13960408D02*
X12721524Y-13950884D01*
X12721524Y-13950884D02*
X12769143Y-13950884D01*
X12769143Y-13950884D02*
X12788191Y-13960408D01*
X12788191Y-13960408D02*
X12797715Y-13969931D01*
X12797715Y-13969931D02*
X12807239Y-13988979D01*
X12807239Y-13988979D02*
X12807239Y-14008027D01*
X12807239Y-14008027D02*
X12797715Y-14036598D01*
X12797715Y-14036598D02*
X12683429Y-14150884D01*
X12683429Y-14150884D02*
X12807239Y-14150884D01*
X12892953Y-14131836D02*
X12902477Y-14141360D01*
X12902477Y-14141360D02*
X12892953Y-14150884D01*
X12892953Y-14150884D02*
X12883429Y-14141360D01*
X12883429Y-14141360D02*
X12892953Y-14131836D01*
X12892953Y-14131836D02*
X12892953Y-14150884D01*
X13083429Y-13950884D02*
X12988191Y-13950884D01*
X12988191Y-13950884D02*
X12978667Y-14046122D01*
X12978667Y-14046122D02*
X12988191Y-14036598D01*
X12988191Y-14036598D02*
X13007239Y-14027074D01*
X13007239Y-14027074D02*
X13054858Y-14027074D01*
X13054858Y-14027074D02*
X13073905Y-14036598D01*
X13073905Y-14036598D02*
X13083429Y-14046122D01*
X13083429Y-14046122D02*
X13092953Y-14065169D01*
X13092953Y-14065169D02*
X13092953Y-14112788D01*
X13092953Y-14112788D02*
X13083429Y-14131836D01*
X13083429Y-14131836D02*
X13073905Y-14141360D01*
X13073905Y-14141360D02*
X13054858Y-14150884D01*
X13054858Y-14150884D02*
X13007239Y-14150884D01*
X13007239Y-14150884D02*
X12988191Y-14141360D01*
X12988191Y-14141360D02*
X12978667Y-14131836D01*
X13216762Y-13950884D02*
X13235810Y-13950884D01*
X13235810Y-13950884D02*
X13254858Y-13960408D01*
X13254858Y-13960408D02*
X13264382Y-13969931D01*
X13264382Y-13969931D02*
X13273905Y-13988979D01*
X13273905Y-13988979D02*
X13283429Y-14027074D01*
X13283429Y-14027074D02*
X13283429Y-14074693D01*
X13283429Y-14074693D02*
X13273905Y-14112788D01*
X13273905Y-14112788D02*
X13264382Y-14131836D01*
X13264382Y-14131836D02*
X13254858Y-14141360D01*
X13254858Y-14141360D02*
X13235810Y-14150884D01*
X13235810Y-14150884D02*
X13216762Y-14150884D01*
X13216762Y-14150884D02*
X13197715Y-14141360D01*
X13197715Y-14141360D02*
X13188191Y-14131836D01*
X13188191Y-14131836D02*
X13178667Y-14112788D01*
X13178667Y-14112788D02*
X13169143Y-14074693D01*
X13169143Y-14074693D02*
X13169143Y-14027074D01*
X13169143Y-14027074D02*
X13178667Y-13988979D01*
X13178667Y-13988979D02*
X13188191Y-13969931D01*
X13188191Y-13969931D02*
X13197715Y-13960408D01*
X13197715Y-13960408D02*
X13216762Y-13950884D01*
X13407239Y-13950884D02*
X13426286Y-13950884D01*
X13426286Y-13950884D02*
X13445334Y-13960408D01*
X13445334Y-13960408D02*
X13454858Y-13969931D01*
X13454858Y-13969931D02*
X13464382Y-13988979D01*
X13464382Y-13988979D02*
X13473905Y-14027074D01*
X13473905Y-14027074D02*
X13473905Y-14074693D01*
X13473905Y-14074693D02*
X13464382Y-14112788D01*
X13464382Y-14112788D02*
X13454858Y-14131836D01*
X13454858Y-14131836D02*
X13445334Y-14141360D01*
X13445334Y-14141360D02*
X13426286Y-14150884D01*
X13426286Y-14150884D02*
X13407239Y-14150884D01*
X13407239Y-14150884D02*
X13388191Y-14141360D01*
X13388191Y-14141360D02*
X13378667Y-14131836D01*
X13378667Y-14131836D02*
X13369143Y-14112788D01*
X13369143Y-14112788D02*
X13359620Y-14074693D01*
X13359620Y-14074693D02*
X13359620Y-14027074D01*
X13359620Y-14027074D02*
X13369143Y-13988979D01*
X13369143Y-13988979D02*
X13378667Y-13969931D01*
X13378667Y-13969931D02*
X13388191Y-13960408D01*
X13388191Y-13960408D02*
X13407239Y-13950884D01*
X13559620Y-14150884D02*
X13559620Y-14017550D01*
X13559620Y-14036598D02*
X13569143Y-14027074D01*
X13569143Y-14027074D02*
X13588191Y-14017550D01*
X13588191Y-14017550D02*
X13616763Y-14017550D01*
X13616763Y-14017550D02*
X13635810Y-14027074D01*
X13635810Y-14027074D02*
X13645334Y-14046122D01*
X13645334Y-14046122D02*
X13645334Y-14150884D01*
X13645334Y-14046122D02*
X13654858Y-14027074D01*
X13654858Y-14027074D02*
X13673905Y-14017550D01*
X13673905Y-14017550D02*
X13702477Y-14017550D01*
X13702477Y-14017550D02*
X13721524Y-14027074D01*
X13721524Y-14027074D02*
X13731048Y-14046122D01*
X13731048Y-14046122D02*
X13731048Y-14150884D01*
X13826286Y-14150884D02*
X13826286Y-14017550D01*
X13826286Y-14036598D02*
X13835810Y-14027074D01*
X13835810Y-14027074D02*
X13854858Y-14017550D01*
X13854858Y-14017550D02*
X13883429Y-14017550D01*
X13883429Y-14017550D02*
X13902477Y-14027074D01*
X13902477Y-14027074D02*
X13912001Y-14046122D01*
X13912001Y-14046122D02*
X13912001Y-14150884D01*
X13912001Y-14046122D02*
X13921524Y-14027074D01*
X13921524Y-14027074D02*
X13940572Y-14017550D01*
X13940572Y-14017550D02*
X13969143Y-14017550D01*
X13969143Y-14017550D02*
X13988191Y-14027074D01*
X13988191Y-14027074D02*
X13997715Y-14046122D01*
X13997715Y-14046122D02*
X13997715Y-14150884D01*
X14388191Y-13941360D02*
X14216763Y-14198503D01*
X14645334Y-13950884D02*
X14664382Y-13950884D01*
X14664382Y-13950884D02*
X14683429Y-13960408D01*
X14683429Y-13960408D02*
X14692953Y-13969931D01*
X14692953Y-13969931D02*
X14702477Y-13988979D01*
X14702477Y-13988979D02*
X14712001Y-14027074D01*
X14712001Y-14027074D02*
X14712001Y-14074693D01*
X14712001Y-14074693D02*
X14702477Y-14112788D01*
X14702477Y-14112788D02*
X14692953Y-14131836D01*
X14692953Y-14131836D02*
X14683429Y-14141360D01*
X14683429Y-14141360D02*
X14664382Y-14150884D01*
X14664382Y-14150884D02*
X14645334Y-14150884D01*
X14645334Y-14150884D02*
X14626286Y-14141360D01*
X14626286Y-14141360D02*
X14616763Y-14131836D01*
X14616763Y-14131836D02*
X14607239Y-14112788D01*
X14607239Y-14112788D02*
X14597715Y-14074693D01*
X14597715Y-14074693D02*
X14597715Y-14027074D01*
X14597715Y-14027074D02*
X14607239Y-13988979D01*
X14607239Y-13988979D02*
X14616763Y-13969931D01*
X14616763Y-13969931D02*
X14626286Y-13960408D01*
X14626286Y-13960408D02*
X14645334Y-13950884D01*
X14797715Y-14131836D02*
X14807239Y-14141360D01*
X14807239Y-14141360D02*
X14797715Y-14150884D01*
X14797715Y-14150884D02*
X14788191Y-14141360D01*
X14788191Y-14141360D02*
X14797715Y-14131836D01*
X14797715Y-14131836D02*
X14797715Y-14150884D01*
X14931048Y-13950884D02*
X14950096Y-13950884D01*
X14950096Y-13950884D02*
X14969144Y-13960408D01*
X14969144Y-13960408D02*
X14978667Y-13969931D01*
X14978667Y-13969931D02*
X14988191Y-13988979D01*
X14988191Y-13988979D02*
X14997715Y-14027074D01*
X14997715Y-14027074D02*
X14997715Y-14074693D01*
X14997715Y-14074693D02*
X14988191Y-14112788D01*
X14988191Y-14112788D02*
X14978667Y-14131836D01*
X14978667Y-14131836D02*
X14969144Y-14141360D01*
X14969144Y-14141360D02*
X14950096Y-14150884D01*
X14950096Y-14150884D02*
X14931048Y-14150884D01*
X14931048Y-14150884D02*
X14912001Y-14141360D01*
X14912001Y-14141360D02*
X14902477Y-14131836D01*
X14902477Y-14131836D02*
X14892953Y-14112788D01*
X14892953Y-14112788D02*
X14883429Y-14074693D01*
X14883429Y-14074693D02*
X14883429Y-14027074D01*
X14883429Y-14027074D02*
X14892953Y-13988979D01*
X14892953Y-13988979D02*
X14902477Y-13969931D01*
X14902477Y-13969931D02*
X14912001Y-13960408D01*
X14912001Y-13960408D02*
X14931048Y-13950884D01*
X15092953Y-14150884D02*
X15131048Y-14150884D01*
X15131048Y-14150884D02*
X15150096Y-14141360D01*
X15150096Y-14141360D02*
X15159620Y-14131836D01*
X15159620Y-14131836D02*
X15178667Y-14103265D01*
X15178667Y-14103265D02*
X15188191Y-14065169D01*
X15188191Y-14065169D02*
X15188191Y-13988979D01*
X15188191Y-13988979D02*
X15178667Y-13969931D01*
X15178667Y-13969931D02*
X15169144Y-13960408D01*
X15169144Y-13960408D02*
X15150096Y-13950884D01*
X15150096Y-13950884D02*
X15112001Y-13950884D01*
X15112001Y-13950884D02*
X15092953Y-13960408D01*
X15092953Y-13960408D02*
X15083429Y-13969931D01*
X15083429Y-13969931D02*
X15073906Y-13988979D01*
X15073906Y-13988979D02*
X15073906Y-14036598D01*
X15073906Y-14036598D02*
X15083429Y-14055646D01*
X15083429Y-14055646D02*
X15092953Y-14065169D01*
X15092953Y-14065169D02*
X15112001Y-14074693D01*
X15112001Y-14074693D02*
X15150096Y-14074693D01*
X15150096Y-14074693D02*
X15169144Y-14065169D01*
X15169144Y-14065169D02*
X15178667Y-14055646D01*
X15178667Y-14055646D02*
X15188191Y-14036598D01*
X15302477Y-14036598D02*
X15283429Y-14027074D01*
X15283429Y-14027074D02*
X15273906Y-14017550D01*
X15273906Y-14017550D02*
X15264382Y-13998503D01*
X15264382Y-13998503D02*
X15264382Y-13988979D01*
X15264382Y-13988979D02*
X15273906Y-13969931D01*
X15273906Y-13969931D02*
X15283429Y-13960408D01*
X15283429Y-13960408D02*
X15302477Y-13950884D01*
X15302477Y-13950884D02*
X15340572Y-13950884D01*
X15340572Y-13950884D02*
X15359620Y-13960408D01*
X15359620Y-13960408D02*
X15369144Y-13969931D01*
X15369144Y-13969931D02*
X15378667Y-13988979D01*
X15378667Y-13988979D02*
X15378667Y-13998503D01*
X15378667Y-13998503D02*
X15369144Y-14017550D01*
X15369144Y-14017550D02*
X15359620Y-14027074D01*
X15359620Y-14027074D02*
X15340572Y-14036598D01*
X15340572Y-14036598D02*
X15302477Y-14036598D01*
X15302477Y-14036598D02*
X15283429Y-14046122D01*
X15283429Y-14046122D02*
X15273906Y-14055646D01*
X15273906Y-14055646D02*
X15264382Y-14074693D01*
X15264382Y-14074693D02*
X15264382Y-14112788D01*
X15264382Y-14112788D02*
X15273906Y-14131836D01*
X15273906Y-14131836D02*
X15283429Y-14141360D01*
X15283429Y-14141360D02*
X15302477Y-14150884D01*
X15302477Y-14150884D02*
X15340572Y-14150884D01*
X15340572Y-14150884D02*
X15359620Y-14141360D01*
X15359620Y-14141360D02*
X15369144Y-14131836D01*
X15369144Y-14131836D02*
X15378667Y-14112788D01*
X15378667Y-14112788D02*
X15378667Y-14074693D01*
X15378667Y-14074693D02*
X15369144Y-14055646D01*
X15369144Y-14055646D02*
X15359620Y-14046122D01*
X15359620Y-14046122D02*
X15340572Y-14036598D01*
X15550096Y-14017550D02*
X15550096Y-14150884D01*
X15502477Y-13941360D02*
X15454858Y-14084217D01*
X15454858Y-14084217D02*
X15578667Y-14084217D01*
X15645334Y-13950884D02*
X15645334Y-13988979D01*
X15721525Y-13950884D02*
X15721525Y-13988979D01*
X16016763Y-14227074D02*
X16007239Y-14217550D01*
X16007239Y-14217550D02*
X15988191Y-14188979D01*
X15988191Y-14188979D02*
X15978668Y-14169931D01*
X15978668Y-14169931D02*
X15969144Y-14141360D01*
X15969144Y-14141360D02*
X15959620Y-14093741D01*
X15959620Y-14093741D02*
X15959620Y-14055646D01*
X15959620Y-14055646D02*
X15969144Y-14008027D01*
X15969144Y-14008027D02*
X15978668Y-13979455D01*
X15978668Y-13979455D02*
X15988191Y-13960408D01*
X15988191Y-13960408D02*
X16007239Y-13931836D01*
X16007239Y-13931836D02*
X16016763Y-13922312D01*
X16178668Y-13950884D02*
X16140572Y-13950884D01*
X16140572Y-13950884D02*
X16121525Y-13960408D01*
X16121525Y-13960408D02*
X16112001Y-13969931D01*
X16112001Y-13969931D02*
X16092953Y-13998503D01*
X16092953Y-13998503D02*
X16083429Y-14036598D01*
X16083429Y-14036598D02*
X16083429Y-14112788D01*
X16083429Y-14112788D02*
X16092953Y-14131836D01*
X16092953Y-14131836D02*
X16102477Y-14141360D01*
X16102477Y-14141360D02*
X16121525Y-14150884D01*
X16121525Y-14150884D02*
X16159620Y-14150884D01*
X16159620Y-14150884D02*
X16178668Y-14141360D01*
X16178668Y-14141360D02*
X16188191Y-14131836D01*
X16188191Y-14131836D02*
X16197715Y-14112788D01*
X16197715Y-14112788D02*
X16197715Y-14065169D01*
X16197715Y-14065169D02*
X16188191Y-14046122D01*
X16188191Y-14046122D02*
X16178668Y-14036598D01*
X16178668Y-14036598D02*
X16159620Y-14027074D01*
X16159620Y-14027074D02*
X16121525Y-14027074D01*
X16121525Y-14027074D02*
X16102477Y-14036598D01*
X16102477Y-14036598D02*
X16092953Y-14046122D01*
X16092953Y-14046122D02*
X16083429Y-14065169D01*
X16435810Y-14150884D02*
X16435810Y-13950884D01*
X16521525Y-14150884D02*
X16521525Y-14046122D01*
X16521525Y-14046122D02*
X16512001Y-14027074D01*
X16512001Y-14027074D02*
X16492953Y-14017550D01*
X16492953Y-14017550D02*
X16464382Y-14017550D01*
X16464382Y-14017550D02*
X16445334Y-14027074D01*
X16445334Y-14027074D02*
X16435810Y-14036598D01*
X16645334Y-14150884D02*
X16626287Y-14141360D01*
X16626287Y-14141360D02*
X16616763Y-14131836D01*
X16616763Y-14131836D02*
X16607239Y-14112788D01*
X16607239Y-14112788D02*
X16607239Y-14055646D01*
X16607239Y-14055646D02*
X16616763Y-14036598D01*
X16616763Y-14036598D02*
X16626287Y-14027074D01*
X16626287Y-14027074D02*
X16645334Y-14017550D01*
X16645334Y-14017550D02*
X16673906Y-14017550D01*
X16673906Y-14017550D02*
X16692953Y-14027074D01*
X16692953Y-14027074D02*
X16702477Y-14036598D01*
X16702477Y-14036598D02*
X16712001Y-14055646D01*
X16712001Y-14055646D02*
X16712001Y-14112788D01*
X16712001Y-14112788D02*
X16702477Y-14131836D01*
X16702477Y-14131836D02*
X16692953Y-14141360D01*
X16692953Y-14141360D02*
X16673906Y-14150884D01*
X16673906Y-14150884D02*
X16645334Y-14150884D01*
X16826287Y-14150884D02*
X16807239Y-14141360D01*
X16807239Y-14141360D02*
X16797715Y-14122312D01*
X16797715Y-14122312D02*
X16797715Y-13950884D01*
X16978668Y-14141360D02*
X16959620Y-14150884D01*
X16959620Y-14150884D02*
X16921525Y-14150884D01*
X16921525Y-14150884D02*
X16902477Y-14141360D01*
X16902477Y-14141360D02*
X16892953Y-14122312D01*
X16892953Y-14122312D02*
X16892953Y-14046122D01*
X16892953Y-14046122D02*
X16902477Y-14027074D01*
X16902477Y-14027074D02*
X16921525Y-14017550D01*
X16921525Y-14017550D02*
X16959620Y-14017550D01*
X16959620Y-14017550D02*
X16978668Y-14027074D01*
X16978668Y-14027074D02*
X16988192Y-14046122D01*
X16988192Y-14046122D02*
X16988192Y-14065169D01*
X16988192Y-14065169D02*
X16892953Y-14084217D01*
X17064382Y-14141360D02*
X17083430Y-14150884D01*
X17083430Y-14150884D02*
X17121525Y-14150884D01*
X17121525Y-14150884D02*
X17140573Y-14141360D01*
X17140573Y-14141360D02*
X17150096Y-14122312D01*
X17150096Y-14122312D02*
X17150096Y-14112788D01*
X17150096Y-14112788D02*
X17140573Y-14093741D01*
X17140573Y-14093741D02*
X17121525Y-14084217D01*
X17121525Y-14084217D02*
X17092953Y-14084217D01*
X17092953Y-14084217D02*
X17073906Y-14074693D01*
X17073906Y-14074693D02*
X17064382Y-14055646D01*
X17064382Y-14055646D02*
X17064382Y-14046122D01*
X17064382Y-14046122D02*
X17073906Y-14027074D01*
X17073906Y-14027074D02*
X17092953Y-14017550D01*
X17092953Y-14017550D02*
X17121525Y-14017550D01*
X17121525Y-14017550D02*
X17140573Y-14027074D01*
X17216763Y-14227074D02*
X17226287Y-14217550D01*
X17226287Y-14217550D02*
X17245334Y-14188979D01*
X17245334Y-14188979D02*
X17254858Y-14169931D01*
X17254858Y-14169931D02*
X17264382Y-14141360D01*
X17264382Y-14141360D02*
X17273906Y-14093741D01*
X17273906Y-14093741D02*
X17273906Y-14055646D01*
X17273906Y-14055646D02*
X17264382Y-14008027D01*
X17264382Y-14008027D02*
X17254858Y-13979455D01*
X17254858Y-13979455D02*
X17245334Y-13960408D01*
X17245334Y-13960408D02*
X17226287Y-13931836D01*
X17226287Y-13931836D02*
X17216763Y-13922312D01*
X17578668Y-14227074D02*
X17569144Y-14217550D01*
X17569144Y-14217550D02*
X17550096Y-14188979D01*
X17550096Y-14188979D02*
X17540573Y-14169931D01*
X17540573Y-14169931D02*
X17531049Y-14141360D01*
X17531049Y-14141360D02*
X17521525Y-14093741D01*
X17521525Y-14093741D02*
X17521525Y-14055646D01*
X17521525Y-14055646D02*
X17531049Y-14008027D01*
X17531049Y-14008027D02*
X17540573Y-13979455D01*
X17540573Y-13979455D02*
X17550096Y-13960408D01*
X17550096Y-13960408D02*
X17569144Y-13931836D01*
X17569144Y-13931836D02*
X17578668Y-13922312D01*
X17654858Y-14017550D02*
X17654858Y-14150884D01*
X17654858Y-14036598D02*
X17664382Y-14027074D01*
X17664382Y-14027074D02*
X17683430Y-14017550D01*
X17683430Y-14017550D02*
X17712001Y-14017550D01*
X17712001Y-14017550D02*
X17731049Y-14027074D01*
X17731049Y-14027074D02*
X17740573Y-14046122D01*
X17740573Y-14046122D02*
X17740573Y-14150884D01*
X17864382Y-14150884D02*
X17845334Y-14141360D01*
X17845334Y-14141360D02*
X17835811Y-14131836D01*
X17835811Y-14131836D02*
X17826287Y-14112788D01*
X17826287Y-14112788D02*
X17826287Y-14055646D01*
X17826287Y-14055646D02*
X17835811Y-14036598D01*
X17835811Y-14036598D02*
X17845334Y-14027074D01*
X17845334Y-14027074D02*
X17864382Y-14017550D01*
X17864382Y-14017550D02*
X17892954Y-14017550D01*
X17892954Y-14017550D02*
X17912001Y-14027074D01*
X17912001Y-14027074D02*
X17921525Y-14036598D01*
X17921525Y-14036598D02*
X17931049Y-14055646D01*
X17931049Y-14055646D02*
X17931049Y-14112788D01*
X17931049Y-14112788D02*
X17921525Y-14131836D01*
X17921525Y-14131836D02*
X17912001Y-14141360D01*
X17912001Y-14141360D02*
X17892954Y-14150884D01*
X17892954Y-14150884D02*
X17864382Y-14150884D01*
X17988192Y-14017550D02*
X18064382Y-14017550D01*
X18016763Y-13950884D02*
X18016763Y-14122312D01*
X18016763Y-14122312D02*
X18026287Y-14141360D01*
X18026287Y-14141360D02*
X18045334Y-14150884D01*
X18045334Y-14150884D02*
X18064382Y-14150884D01*
X18283430Y-14017550D02*
X18283430Y-14217550D01*
X18283430Y-14027074D02*
X18302477Y-14017550D01*
X18302477Y-14017550D02*
X18340573Y-14017550D01*
X18340573Y-14017550D02*
X18359620Y-14027074D01*
X18359620Y-14027074D02*
X18369144Y-14036598D01*
X18369144Y-14036598D02*
X18378668Y-14055646D01*
X18378668Y-14055646D02*
X18378668Y-14112788D01*
X18378668Y-14112788D02*
X18369144Y-14131836D01*
X18369144Y-14131836D02*
X18359620Y-14141360D01*
X18359620Y-14141360D02*
X18340573Y-14150884D01*
X18340573Y-14150884D02*
X18302477Y-14150884D01*
X18302477Y-14150884D02*
X18283430Y-14141360D01*
X18492954Y-14150884D02*
X18473906Y-14141360D01*
X18473906Y-14141360D02*
X18464382Y-14122312D01*
X18464382Y-14122312D02*
X18464382Y-13950884D01*
X18654858Y-14150884D02*
X18654858Y-14046122D01*
X18654858Y-14046122D02*
X18645335Y-14027074D01*
X18645335Y-14027074D02*
X18626287Y-14017550D01*
X18626287Y-14017550D02*
X18588192Y-14017550D01*
X18588192Y-14017550D02*
X18569144Y-14027074D01*
X18654858Y-14141360D02*
X18635811Y-14150884D01*
X18635811Y-14150884D02*
X18588192Y-14150884D01*
X18588192Y-14150884D02*
X18569144Y-14141360D01*
X18569144Y-14141360D02*
X18559620Y-14122312D01*
X18559620Y-14122312D02*
X18559620Y-14103265D01*
X18559620Y-14103265D02*
X18569144Y-14084217D01*
X18569144Y-14084217D02*
X18588192Y-14074693D01*
X18588192Y-14074693D02*
X18635811Y-14074693D01*
X18635811Y-14074693D02*
X18654858Y-14065169D01*
X18721525Y-14017550D02*
X18797715Y-14017550D01*
X18750096Y-13950884D02*
X18750096Y-14122312D01*
X18750096Y-14122312D02*
X18759620Y-14141360D01*
X18759620Y-14141360D02*
X18778668Y-14150884D01*
X18778668Y-14150884D02*
X18797715Y-14150884D01*
X18940573Y-14141360D02*
X18921525Y-14150884D01*
X18921525Y-14150884D02*
X18883430Y-14150884D01*
X18883430Y-14150884D02*
X18864382Y-14141360D01*
X18864382Y-14141360D02*
X18854858Y-14122312D01*
X18854858Y-14122312D02*
X18854858Y-14046122D01*
X18854858Y-14046122D02*
X18864382Y-14027074D01*
X18864382Y-14027074D02*
X18883430Y-14017550D01*
X18883430Y-14017550D02*
X18921525Y-14017550D01*
X18921525Y-14017550D02*
X18940573Y-14027074D01*
X18940573Y-14027074D02*
X18950096Y-14046122D01*
X18950096Y-14046122D02*
X18950096Y-14065169D01*
X18950096Y-14065169D02*
X18854858Y-14084217D01*
X19121525Y-14150884D02*
X19121525Y-13950884D01*
X19121525Y-14141360D02*
X19102477Y-14150884D01*
X19102477Y-14150884D02*
X19064382Y-14150884D01*
X19064382Y-14150884D02*
X19045335Y-14141360D01*
X19045335Y-14141360D02*
X19035811Y-14131836D01*
X19035811Y-14131836D02*
X19026287Y-14112788D01*
X19026287Y-14112788D02*
X19026287Y-14055646D01*
X19026287Y-14055646D02*
X19035811Y-14036598D01*
X19035811Y-14036598D02*
X19045335Y-14027074D01*
X19045335Y-14027074D02*
X19064382Y-14017550D01*
X19064382Y-14017550D02*
X19102477Y-14017550D01*
X19102477Y-14017550D02*
X19121525Y-14027074D01*
X19197716Y-14227074D02*
X19207239Y-14217550D01*
X19207239Y-14217550D02*
X19226287Y-14188979D01*
X19226287Y-14188979D02*
X19235811Y-14169931D01*
X19235811Y-14169931D02*
X19245335Y-14141360D01*
X19245335Y-14141360D02*
X19254858Y-14093741D01*
X19254858Y-14093741D02*
X19254858Y-14055646D01*
X19254858Y-14055646D02*
X19245335Y-14008027D01*
X19245335Y-14008027D02*
X19235811Y-13979455D01*
X19235811Y-13979455D02*
X19226287Y-13960408D01*
X19226287Y-13960408D02*
X19207239Y-13931836D01*
X19207239Y-13931836D02*
X19197716Y-13922312D01*
M02*
