M48
; DRILL file {KiCad 8.0.8} date 2025-01-28T15:40:22-0300
; FORMAT={-:-/ absolute / metric / decimal}
; #@! TF.CreationDate,2025-01-28T15:40:22-03:00
; #@! TF.GenerationSoftware,Kicad,Pcbnew,8.0.8
; #@! TF.FileFunction,Plated,1,2,PTH
FMAT,2
METRIC
; #@! TA.AperFunction,Plated,PTH,ComponentDrill
T1C0.800
; #@! TA.AperFunction,Plated,PTH,ViaDrill
T2C1.000
; #@! TA.AperFunction,Plated,PTH,ComponentDrill
T3C1.000
%
G90
G05
T1
X135.524Y-86.842
X138.024Y-86.842
X150.801Y-96.994
X155.881Y-96.994
T2
X127.0Y-59.1
X127.0Y-72.15
X127.0Y-111.0
X127.0Y-124.1
X134.5Y-51.6
X134.5Y-131.6
X138.0Y-98.041
X140.85Y-107.75
X144.5Y-59.1
X144.5Y-72.15
X144.5Y-111.0
X144.5Y-124.1
X150.8Y-85.95
X152.75Y-117.85
X154.5Y-51.6
X154.5Y-131.6
X162.0Y-59.1
X162.0Y-72.2
X162.0Y-85.15
X162.0Y-98.1
X162.0Y-111.05
X162.0Y-124.1
T3
X133.402Y-102.59
X133.402Y-105.13
X133.402Y-107.67
X133.402Y-110.21
X133.402Y-112.75
X133.402Y-115.29
X133.402Y-117.83
X133.402Y-120.37
X135.561Y-80.492
X138.101Y-80.492
X140.641Y-80.492
X143.181Y-80.492
X145.721Y-80.492
X148.261Y-80.492
X150.801Y-80.492
X153.341Y-80.492
X155.5Y-102.59
X155.5Y-105.13
X155.5Y-107.67
X155.5Y-110.21
X155.5Y-112.75
X155.5Y-115.29
X155.5Y-117.83
X155.5Y-120.37
X155.881Y-85.953
X155.881Y-88.493
X155.881Y-91.033
M30
