%TF.GenerationSoftware,KiCad,Pcbnew,9.0.1-9.0.1-0~ubuntu24.04.1*%
%TF.CreationDate,2025-04-10T17:48:20-04:00*%
%TF.ProjectId,temperature_sensor,74656d70-6572-4617-9475-72655f73656e,rev?*%
%TF.SameCoordinates,Original*%
%TF.FileFunction,Drillmap*%
%TF.FilePolarity,Positive*%
%FSLAX45Y45*%
G04 Gerber Fmt 4.5, Leading zero omitted, Abs format (unit mm)*
G04 Created by KiCad (PCBNEW 9.0.1-9.0.1-0~ubuntu24.04.1) date 2025-04-10 17:48:20*
%MOMM*%
%LPD*%
G01*
G04 APERTURE LIST*
%ADD10C,0.200000*%
%ADD11C,0.100000*%
G04 APERTURE END LIST*
D10*
X16051700Y-5209400D02*
G75*
G02*
X16451700Y-5609400I0J-400000D01*
G01*
X16451700Y-12809400D02*
G75*
G02*
X16051700Y-13209400I-400000J0D01*
G01*
X16051700Y-13209400D02*
X12851700Y-13209400D01*
X16451700Y-5609400D02*
X16451700Y-12809400D01*
X12451700Y-12809400D02*
X12451700Y-5609400D01*
X12851700Y-13209400D02*
G75*
G02*
X12451700Y-12809400I0J400000D01*
G01*
X12451700Y-5609400D02*
G75*
G02*
X12851700Y-5209400I400000J0D01*
G01*
X12851700Y-5209400D02*
X16051700Y-5209400D01*
D11*
X15293900Y-9617000D02*
X15363900Y-9687000D01*
X15363900Y-9617000D02*
X15293900Y-9687000D01*
X16055900Y-9617000D02*
X16125900Y-9687000D01*
X16125900Y-9617000D02*
X16055900Y-9687000D01*
X13592429Y-8684200D02*
G75*
G02*
X13512429Y-8684200I-40000J0D01*
G01*
X13512429Y-8684200D02*
G75*
G02*
X13592429Y-8684200I40000J0D01*
G01*
X13842429Y-8684200D02*
G75*
G02*
X13762429Y-8684200I-40000J0D01*
G01*
X13762429Y-8684200D02*
G75*
G02*
X13842429Y-8684200I40000J0D01*
G01*
X12700000Y-6160000D02*
X12700000Y-6260000D01*
X12650000Y-6210000D02*
X12750000Y-6210000D01*
X12700000Y-7465000D02*
X12700000Y-7565000D01*
X12650000Y-7515000D02*
X12750000Y-7515000D01*
X12700000Y-10850000D02*
X12700000Y-10950000D01*
X12650000Y-10900000D02*
X12750000Y-10900000D01*
X12700000Y-12160000D02*
X12700000Y-12260000D01*
X12650000Y-12210000D02*
X12750000Y-12210000D01*
X13450000Y-12910000D02*
X13450000Y-13010000D01*
X13400000Y-12960000D02*
X13500000Y-12960000D01*
X13800000Y-9554098D02*
X13800000Y-9654098D01*
X13750000Y-9604098D02*
X13850000Y-9604098D01*
X14085000Y-10725000D02*
X14085000Y-10825000D01*
X14035000Y-10775000D02*
X14135000Y-10775000D01*
X14450000Y-6160000D02*
X14450000Y-6260000D01*
X14400000Y-6210000D02*
X14500000Y-6210000D01*
X14450000Y-11050000D02*
X14450000Y-11150000D01*
X14400000Y-11100000D02*
X14500000Y-11100000D01*
X14450000Y-12160000D02*
X14450000Y-12260000D01*
X14400000Y-12210000D02*
X14500000Y-12210000D01*
X15275000Y-11535000D02*
X15275000Y-11635000D01*
X15225000Y-11585000D02*
X15325000Y-11585000D01*
X15450000Y-12910000D02*
X15450000Y-13010000D01*
X15400000Y-12960000D02*
X15500000Y-12960000D01*
X15748000Y-9360700D02*
X15748000Y-9460700D01*
X15698000Y-9410700D02*
X15798000Y-9410700D01*
X16200000Y-6160000D02*
X16200000Y-6260000D01*
X16150000Y-6210000D02*
X16250000Y-6210000D01*
X16200000Y-7470000D02*
X16200000Y-7570000D01*
X16150000Y-7520000D02*
X16250000Y-7520000D01*
X16200000Y-12160000D02*
X16200000Y-12260000D01*
X16150000Y-12210000D02*
X16250000Y-12210000D01*
X16294100Y-10849800D02*
X16294100Y-10949800D01*
X16244100Y-10899800D02*
X16344100Y-10899800D01*
X13375556Y-10294356D02*
X13375556Y-10223644D01*
X13304844Y-10223644D01*
X13304844Y-10294356D01*
X13375556Y-10294356D01*
X13375556Y-10548356D02*
X13375556Y-10477644D01*
X13304844Y-10477644D01*
X13304844Y-10548356D01*
X13375556Y-10548356D01*
X13375556Y-10802356D02*
X13375556Y-10731644D01*
X13304844Y-10731644D01*
X13304844Y-10802356D01*
X13375556Y-10802356D01*
X13375556Y-11056356D02*
X13375556Y-10985644D01*
X13304844Y-10985644D01*
X13304844Y-11056356D01*
X13375556Y-11056356D01*
X13375556Y-11310356D02*
X13375556Y-11239644D01*
X13304844Y-11239644D01*
X13304844Y-11310356D01*
X13375556Y-11310356D01*
X13375556Y-11564356D02*
X13375556Y-11493644D01*
X13304844Y-11493644D01*
X13304844Y-11564356D01*
X13375556Y-11564356D01*
X13375556Y-11818356D02*
X13375556Y-11747644D01*
X13304844Y-11747644D01*
X13304844Y-11818356D01*
X13375556Y-11818356D01*
X13375556Y-12072356D02*
X13375556Y-12001644D01*
X13304844Y-12001644D01*
X13304844Y-12072356D01*
X13375556Y-12072356D01*
X13591456Y-8084556D02*
X13591456Y-8013844D01*
X13520744Y-8013844D01*
X13520744Y-8084556D01*
X13591456Y-8084556D01*
X13845456Y-8084556D02*
X13845456Y-8013844D01*
X13774744Y-8013844D01*
X13774744Y-8084556D01*
X13845456Y-8084556D01*
X14099456Y-8084556D02*
X14099456Y-8013844D01*
X14028744Y-8013844D01*
X14028744Y-8084556D01*
X14099456Y-8084556D01*
X14353456Y-8084556D02*
X14353456Y-8013844D01*
X14282744Y-8013844D01*
X14282744Y-8084556D01*
X14353456Y-8084556D01*
X14607456Y-8084556D02*
X14607456Y-8013844D01*
X14536744Y-8013844D01*
X14536744Y-8084556D01*
X14607456Y-8084556D01*
X14861456Y-8084556D02*
X14861456Y-8013844D01*
X14790744Y-8013844D01*
X14790744Y-8084556D01*
X14861456Y-8084556D01*
X15115456Y-8084556D02*
X15115456Y-8013844D01*
X15044744Y-8013844D01*
X15044744Y-8084556D01*
X15115456Y-8084556D01*
X15369456Y-8084556D02*
X15369456Y-8013844D01*
X15298744Y-8013844D01*
X15298744Y-8084556D01*
X15369456Y-8084556D01*
X15585356Y-10294356D02*
X15585356Y-10223644D01*
X15514644Y-10223644D01*
X15514644Y-10294356D01*
X15585356Y-10294356D01*
X15585356Y-10548356D02*
X15585356Y-10477644D01*
X15514644Y-10477644D01*
X15514644Y-10548356D01*
X15585356Y-10548356D01*
X15585356Y-10802356D02*
X15585356Y-10731644D01*
X15514644Y-10731644D01*
X15514644Y-10802356D01*
X15585356Y-10802356D01*
X15585356Y-11056356D02*
X15585356Y-10985644D01*
X15514644Y-10985644D01*
X15514644Y-11056356D01*
X15585356Y-11056356D01*
X15585356Y-11310356D02*
X15585356Y-11239644D01*
X15514644Y-11239644D01*
X15514644Y-11310356D01*
X15585356Y-11310356D01*
X15585356Y-11564356D02*
X15585356Y-11493644D01*
X15514644Y-11493644D01*
X15514644Y-11564356D01*
X15585356Y-11564356D01*
X15585356Y-11818356D02*
X15585356Y-11747644D01*
X15514644Y-11747644D01*
X15514644Y-11818356D01*
X15585356Y-11818356D01*
X15585356Y-12072356D02*
X15585356Y-12001644D01*
X15514644Y-12001644D01*
X15514644Y-12072356D01*
X15585356Y-12072356D01*
X15623456Y-8630656D02*
X15623456Y-8559944D01*
X15552744Y-8559944D01*
X15552744Y-8630656D01*
X15623456Y-8630656D01*
X15623456Y-8884656D02*
X15623456Y-8813944D01*
X15552744Y-8813944D01*
X15552744Y-8884656D01*
X15623456Y-8884656D01*
X15623456Y-9138656D02*
X15623456Y-9067944D01*
X15552744Y-9067944D01*
X15552744Y-9138656D01*
X15623456Y-9138656D01*
D10*
X12702477Y-13530884D02*
X12702477Y-13330884D01*
X12702477Y-13330884D02*
X12750096Y-13330884D01*
X12750096Y-13330884D02*
X12778667Y-13340408D01*
X12778667Y-13340408D02*
X12797715Y-13359455D01*
X12797715Y-13359455D02*
X12807239Y-13378503D01*
X12807239Y-13378503D02*
X12816762Y-13416598D01*
X12816762Y-13416598D02*
X12816762Y-13445169D01*
X12816762Y-13445169D02*
X12807239Y-13483265D01*
X12807239Y-13483265D02*
X12797715Y-13502312D01*
X12797715Y-13502312D02*
X12778667Y-13521360D01*
X12778667Y-13521360D02*
X12750096Y-13530884D01*
X12750096Y-13530884D02*
X12702477Y-13530884D01*
X12902477Y-13530884D02*
X12902477Y-13397550D01*
X12902477Y-13435646D02*
X12912001Y-13416598D01*
X12912001Y-13416598D02*
X12921524Y-13407074D01*
X12921524Y-13407074D02*
X12940572Y-13397550D01*
X12940572Y-13397550D02*
X12959620Y-13397550D01*
X13026286Y-13530884D02*
X13026286Y-13397550D01*
X13026286Y-13330884D02*
X13016762Y-13340408D01*
X13016762Y-13340408D02*
X13026286Y-13349931D01*
X13026286Y-13349931D02*
X13035810Y-13340408D01*
X13035810Y-13340408D02*
X13026286Y-13330884D01*
X13026286Y-13330884D02*
X13026286Y-13349931D01*
X13150096Y-13530884D02*
X13131048Y-13521360D01*
X13131048Y-13521360D02*
X13121524Y-13502312D01*
X13121524Y-13502312D02*
X13121524Y-13330884D01*
X13254858Y-13530884D02*
X13235810Y-13521360D01*
X13235810Y-13521360D02*
X13226286Y-13502312D01*
X13226286Y-13502312D02*
X13226286Y-13330884D01*
X13483429Y-13530884D02*
X13483429Y-13330884D01*
X13483429Y-13330884D02*
X13550096Y-13473741D01*
X13550096Y-13473741D02*
X13616762Y-13330884D01*
X13616762Y-13330884D02*
X13616762Y-13530884D01*
X13797715Y-13530884D02*
X13797715Y-13426122D01*
X13797715Y-13426122D02*
X13788191Y-13407074D01*
X13788191Y-13407074D02*
X13769143Y-13397550D01*
X13769143Y-13397550D02*
X13731048Y-13397550D01*
X13731048Y-13397550D02*
X13712001Y-13407074D01*
X13797715Y-13521360D02*
X13778667Y-13530884D01*
X13778667Y-13530884D02*
X13731048Y-13530884D01*
X13731048Y-13530884D02*
X13712001Y-13521360D01*
X13712001Y-13521360D02*
X13702477Y-13502312D01*
X13702477Y-13502312D02*
X13702477Y-13483265D01*
X13702477Y-13483265D02*
X13712001Y-13464217D01*
X13712001Y-13464217D02*
X13731048Y-13454693D01*
X13731048Y-13454693D02*
X13778667Y-13454693D01*
X13778667Y-13454693D02*
X13797715Y-13445169D01*
X13892953Y-13397550D02*
X13892953Y-13597550D01*
X13892953Y-13407074D02*
X13912001Y-13397550D01*
X13912001Y-13397550D02*
X13950096Y-13397550D01*
X13950096Y-13397550D02*
X13969143Y-13407074D01*
X13969143Y-13407074D02*
X13978667Y-13416598D01*
X13978667Y-13416598D02*
X13988191Y-13435646D01*
X13988191Y-13435646D02*
X13988191Y-13492788D01*
X13988191Y-13492788D02*
X13978667Y-13511836D01*
X13978667Y-13511836D02*
X13969143Y-13521360D01*
X13969143Y-13521360D02*
X13950096Y-13530884D01*
X13950096Y-13530884D02*
X13912001Y-13530884D01*
X13912001Y-13530884D02*
X13892953Y-13521360D01*
X14073905Y-13511836D02*
X14083429Y-13521360D01*
X14083429Y-13521360D02*
X14073905Y-13530884D01*
X14073905Y-13530884D02*
X14064382Y-13521360D01*
X14064382Y-13521360D02*
X14073905Y-13511836D01*
X14073905Y-13511836D02*
X14073905Y-13530884D01*
X14073905Y-13407074D02*
X14083429Y-13416598D01*
X14083429Y-13416598D02*
X14073905Y-13426122D01*
X14073905Y-13426122D02*
X14064382Y-13416598D01*
X14064382Y-13416598D02*
X14073905Y-13407074D01*
X14073905Y-13407074D02*
X14073905Y-13426122D01*
D11*
X12371700Y-13824400D02*
X12441700Y-13894400D01*
X12441700Y-13824400D02*
X12371700Y-13894400D01*
D10*
X12740572Y-13750884D02*
X12759620Y-13750884D01*
X12759620Y-13750884D02*
X12778667Y-13760408D01*
X12778667Y-13760408D02*
X12788191Y-13769931D01*
X12788191Y-13769931D02*
X12797715Y-13788979D01*
X12797715Y-13788979D02*
X12807239Y-13827074D01*
X12807239Y-13827074D02*
X12807239Y-13874693D01*
X12807239Y-13874693D02*
X12797715Y-13912788D01*
X12797715Y-13912788D02*
X12788191Y-13931836D01*
X12788191Y-13931836D02*
X12778667Y-13941360D01*
X12778667Y-13941360D02*
X12759620Y-13950884D01*
X12759620Y-13950884D02*
X12740572Y-13950884D01*
X12740572Y-13950884D02*
X12721524Y-13941360D01*
X12721524Y-13941360D02*
X12712001Y-13931836D01*
X12712001Y-13931836D02*
X12702477Y-13912788D01*
X12702477Y-13912788D02*
X12692953Y-13874693D01*
X12692953Y-13874693D02*
X12692953Y-13827074D01*
X12692953Y-13827074D02*
X12702477Y-13788979D01*
X12702477Y-13788979D02*
X12712001Y-13769931D01*
X12712001Y-13769931D02*
X12721524Y-13760408D01*
X12721524Y-13760408D02*
X12740572Y-13750884D01*
X12892953Y-13931836D02*
X12902477Y-13941360D01*
X12902477Y-13941360D02*
X12892953Y-13950884D01*
X12892953Y-13950884D02*
X12883429Y-13941360D01*
X12883429Y-13941360D02*
X12892953Y-13931836D01*
X12892953Y-13931836D02*
X12892953Y-13950884D01*
X12969143Y-13750884D02*
X13102477Y-13750884D01*
X13102477Y-13750884D02*
X13016762Y-13950884D01*
X13216762Y-13750884D02*
X13235810Y-13750884D01*
X13235810Y-13750884D02*
X13254858Y-13760408D01*
X13254858Y-13760408D02*
X13264382Y-13769931D01*
X13264382Y-13769931D02*
X13273905Y-13788979D01*
X13273905Y-13788979D02*
X13283429Y-13827074D01*
X13283429Y-13827074D02*
X13283429Y-13874693D01*
X13283429Y-13874693D02*
X13273905Y-13912788D01*
X13273905Y-13912788D02*
X13264382Y-13931836D01*
X13264382Y-13931836D02*
X13254858Y-13941360D01*
X13254858Y-13941360D02*
X13235810Y-13950884D01*
X13235810Y-13950884D02*
X13216762Y-13950884D01*
X13216762Y-13950884D02*
X13197715Y-13941360D01*
X13197715Y-13941360D02*
X13188191Y-13931836D01*
X13188191Y-13931836D02*
X13178667Y-13912788D01*
X13178667Y-13912788D02*
X13169143Y-13874693D01*
X13169143Y-13874693D02*
X13169143Y-13827074D01*
X13169143Y-13827074D02*
X13178667Y-13788979D01*
X13178667Y-13788979D02*
X13188191Y-13769931D01*
X13188191Y-13769931D02*
X13197715Y-13760408D01*
X13197715Y-13760408D02*
X13216762Y-13750884D01*
X13407239Y-13750884D02*
X13426286Y-13750884D01*
X13426286Y-13750884D02*
X13445334Y-13760408D01*
X13445334Y-13760408D02*
X13454858Y-13769931D01*
X13454858Y-13769931D02*
X13464382Y-13788979D01*
X13464382Y-13788979D02*
X13473905Y-13827074D01*
X13473905Y-13827074D02*
X13473905Y-13874693D01*
X13473905Y-13874693D02*
X13464382Y-13912788D01*
X13464382Y-13912788D02*
X13454858Y-13931836D01*
X13454858Y-13931836D02*
X13445334Y-13941360D01*
X13445334Y-13941360D02*
X13426286Y-13950884D01*
X13426286Y-13950884D02*
X13407239Y-13950884D01*
X13407239Y-13950884D02*
X13388191Y-13941360D01*
X13388191Y-13941360D02*
X13378667Y-13931836D01*
X13378667Y-13931836D02*
X13369143Y-13912788D01*
X13369143Y-13912788D02*
X13359620Y-13874693D01*
X13359620Y-13874693D02*
X13359620Y-13827074D01*
X13359620Y-13827074D02*
X13369143Y-13788979D01*
X13369143Y-13788979D02*
X13378667Y-13769931D01*
X13378667Y-13769931D02*
X13388191Y-13760408D01*
X13388191Y-13760408D02*
X13407239Y-13750884D01*
X13559620Y-13950884D02*
X13559620Y-13817550D01*
X13559620Y-13836598D02*
X13569143Y-13827074D01*
X13569143Y-13827074D02*
X13588191Y-13817550D01*
X13588191Y-13817550D02*
X13616763Y-13817550D01*
X13616763Y-13817550D02*
X13635810Y-13827074D01*
X13635810Y-13827074D02*
X13645334Y-13846122D01*
X13645334Y-13846122D02*
X13645334Y-13950884D01*
X13645334Y-13846122D02*
X13654858Y-13827074D01*
X13654858Y-13827074D02*
X13673905Y-13817550D01*
X13673905Y-13817550D02*
X13702477Y-13817550D01*
X13702477Y-13817550D02*
X13721524Y-13827074D01*
X13721524Y-13827074D02*
X13731048Y-13846122D01*
X13731048Y-13846122D02*
X13731048Y-13950884D01*
X13826286Y-13950884D02*
X13826286Y-13817550D01*
X13826286Y-13836598D02*
X13835810Y-13827074D01*
X13835810Y-13827074D02*
X13854858Y-13817550D01*
X13854858Y-13817550D02*
X13883429Y-13817550D01*
X13883429Y-13817550D02*
X13902477Y-13827074D01*
X13902477Y-13827074D02*
X13912001Y-13846122D01*
X13912001Y-13846122D02*
X13912001Y-13950884D01*
X13912001Y-13846122D02*
X13921524Y-13827074D01*
X13921524Y-13827074D02*
X13940572Y-13817550D01*
X13940572Y-13817550D02*
X13969143Y-13817550D01*
X13969143Y-13817550D02*
X13988191Y-13827074D01*
X13988191Y-13827074D02*
X13997715Y-13846122D01*
X13997715Y-13846122D02*
X13997715Y-13950884D01*
X14388191Y-13741360D02*
X14216763Y-13998503D01*
X14645334Y-13750884D02*
X14664382Y-13750884D01*
X14664382Y-13750884D02*
X14683429Y-13760408D01*
X14683429Y-13760408D02*
X14692953Y-13769931D01*
X14692953Y-13769931D02*
X14702477Y-13788979D01*
X14702477Y-13788979D02*
X14712001Y-13827074D01*
X14712001Y-13827074D02*
X14712001Y-13874693D01*
X14712001Y-13874693D02*
X14702477Y-13912788D01*
X14702477Y-13912788D02*
X14692953Y-13931836D01*
X14692953Y-13931836D02*
X14683429Y-13941360D01*
X14683429Y-13941360D02*
X14664382Y-13950884D01*
X14664382Y-13950884D02*
X14645334Y-13950884D01*
X14645334Y-13950884D02*
X14626286Y-13941360D01*
X14626286Y-13941360D02*
X14616763Y-13931836D01*
X14616763Y-13931836D02*
X14607239Y-13912788D01*
X14607239Y-13912788D02*
X14597715Y-13874693D01*
X14597715Y-13874693D02*
X14597715Y-13827074D01*
X14597715Y-13827074D02*
X14607239Y-13788979D01*
X14607239Y-13788979D02*
X14616763Y-13769931D01*
X14616763Y-13769931D02*
X14626286Y-13760408D01*
X14626286Y-13760408D02*
X14645334Y-13750884D01*
X14797715Y-13931836D02*
X14807239Y-13941360D01*
X14807239Y-13941360D02*
X14797715Y-13950884D01*
X14797715Y-13950884D02*
X14788191Y-13941360D01*
X14788191Y-13941360D02*
X14797715Y-13931836D01*
X14797715Y-13931836D02*
X14797715Y-13950884D01*
X14931048Y-13750884D02*
X14950096Y-13750884D01*
X14950096Y-13750884D02*
X14969144Y-13760408D01*
X14969144Y-13760408D02*
X14978667Y-13769931D01*
X14978667Y-13769931D02*
X14988191Y-13788979D01*
X14988191Y-13788979D02*
X14997715Y-13827074D01*
X14997715Y-13827074D02*
X14997715Y-13874693D01*
X14997715Y-13874693D02*
X14988191Y-13912788D01*
X14988191Y-13912788D02*
X14978667Y-13931836D01*
X14978667Y-13931836D02*
X14969144Y-13941360D01*
X14969144Y-13941360D02*
X14950096Y-13950884D01*
X14950096Y-13950884D02*
X14931048Y-13950884D01*
X14931048Y-13950884D02*
X14912001Y-13941360D01*
X14912001Y-13941360D02*
X14902477Y-13931836D01*
X14902477Y-13931836D02*
X14892953Y-13912788D01*
X14892953Y-13912788D02*
X14883429Y-13874693D01*
X14883429Y-13874693D02*
X14883429Y-13827074D01*
X14883429Y-13827074D02*
X14892953Y-13788979D01*
X14892953Y-13788979D02*
X14902477Y-13769931D01*
X14902477Y-13769931D02*
X14912001Y-13760408D01*
X14912001Y-13760408D02*
X14931048Y-13750884D01*
X15073906Y-13769931D02*
X15083429Y-13760408D01*
X15083429Y-13760408D02*
X15102477Y-13750884D01*
X15102477Y-13750884D02*
X15150096Y-13750884D01*
X15150096Y-13750884D02*
X15169144Y-13760408D01*
X15169144Y-13760408D02*
X15178667Y-13769931D01*
X15178667Y-13769931D02*
X15188191Y-13788979D01*
X15188191Y-13788979D02*
X15188191Y-13808027D01*
X15188191Y-13808027D02*
X15178667Y-13836598D01*
X15178667Y-13836598D02*
X15064382Y-13950884D01*
X15064382Y-13950884D02*
X15188191Y-13950884D01*
X15254858Y-13750884D02*
X15388191Y-13750884D01*
X15388191Y-13750884D02*
X15302477Y-13950884D01*
X15550096Y-13750884D02*
X15512001Y-13750884D01*
X15512001Y-13750884D02*
X15492953Y-13760408D01*
X15492953Y-13760408D02*
X15483429Y-13769931D01*
X15483429Y-13769931D02*
X15464382Y-13798503D01*
X15464382Y-13798503D02*
X15454858Y-13836598D01*
X15454858Y-13836598D02*
X15454858Y-13912788D01*
X15454858Y-13912788D02*
X15464382Y-13931836D01*
X15464382Y-13931836D02*
X15473906Y-13941360D01*
X15473906Y-13941360D02*
X15492953Y-13950884D01*
X15492953Y-13950884D02*
X15531048Y-13950884D01*
X15531048Y-13950884D02*
X15550096Y-13941360D01*
X15550096Y-13941360D02*
X15559620Y-13931836D01*
X15559620Y-13931836D02*
X15569144Y-13912788D01*
X15569144Y-13912788D02*
X15569144Y-13865169D01*
X15569144Y-13865169D02*
X15559620Y-13846122D01*
X15559620Y-13846122D02*
X15550096Y-13836598D01*
X15550096Y-13836598D02*
X15531048Y-13827074D01*
X15531048Y-13827074D02*
X15492953Y-13827074D01*
X15492953Y-13827074D02*
X15473906Y-13836598D01*
X15473906Y-13836598D02*
X15464382Y-13846122D01*
X15464382Y-13846122D02*
X15454858Y-13865169D01*
X15645334Y-13750884D02*
X15645334Y-13788979D01*
X15721525Y-13750884D02*
X15721525Y-13788979D01*
X16016763Y-14027074D02*
X16007239Y-14017550D01*
X16007239Y-14017550D02*
X15988191Y-13988979D01*
X15988191Y-13988979D02*
X15978668Y-13969931D01*
X15978668Y-13969931D02*
X15969144Y-13941360D01*
X15969144Y-13941360D02*
X15959620Y-13893741D01*
X15959620Y-13893741D02*
X15959620Y-13855646D01*
X15959620Y-13855646D02*
X15969144Y-13808027D01*
X15969144Y-13808027D02*
X15978668Y-13779455D01*
X15978668Y-13779455D02*
X15988191Y-13760408D01*
X15988191Y-13760408D02*
X16007239Y-13731836D01*
X16007239Y-13731836D02*
X16016763Y-13722312D01*
X16083429Y-13769931D02*
X16092953Y-13760408D01*
X16092953Y-13760408D02*
X16112001Y-13750884D01*
X16112001Y-13750884D02*
X16159620Y-13750884D01*
X16159620Y-13750884D02*
X16178668Y-13760408D01*
X16178668Y-13760408D02*
X16188191Y-13769931D01*
X16188191Y-13769931D02*
X16197715Y-13788979D01*
X16197715Y-13788979D02*
X16197715Y-13808027D01*
X16197715Y-13808027D02*
X16188191Y-13836598D01*
X16188191Y-13836598D02*
X16073906Y-13950884D01*
X16073906Y-13950884D02*
X16197715Y-13950884D01*
X16435810Y-13950884D02*
X16435810Y-13750884D01*
X16521525Y-13950884D02*
X16521525Y-13846122D01*
X16521525Y-13846122D02*
X16512001Y-13827074D01*
X16512001Y-13827074D02*
X16492953Y-13817550D01*
X16492953Y-13817550D02*
X16464382Y-13817550D01*
X16464382Y-13817550D02*
X16445334Y-13827074D01*
X16445334Y-13827074D02*
X16435810Y-13836598D01*
X16645334Y-13950884D02*
X16626287Y-13941360D01*
X16626287Y-13941360D02*
X16616763Y-13931836D01*
X16616763Y-13931836D02*
X16607239Y-13912788D01*
X16607239Y-13912788D02*
X16607239Y-13855646D01*
X16607239Y-13855646D02*
X16616763Y-13836598D01*
X16616763Y-13836598D02*
X16626287Y-13827074D01*
X16626287Y-13827074D02*
X16645334Y-13817550D01*
X16645334Y-13817550D02*
X16673906Y-13817550D01*
X16673906Y-13817550D02*
X16692953Y-13827074D01*
X16692953Y-13827074D02*
X16702477Y-13836598D01*
X16702477Y-13836598D02*
X16712001Y-13855646D01*
X16712001Y-13855646D02*
X16712001Y-13912788D01*
X16712001Y-13912788D02*
X16702477Y-13931836D01*
X16702477Y-13931836D02*
X16692953Y-13941360D01*
X16692953Y-13941360D02*
X16673906Y-13950884D01*
X16673906Y-13950884D02*
X16645334Y-13950884D01*
X16826287Y-13950884D02*
X16807239Y-13941360D01*
X16807239Y-13941360D02*
X16797715Y-13922312D01*
X16797715Y-13922312D02*
X16797715Y-13750884D01*
X16978668Y-13941360D02*
X16959620Y-13950884D01*
X16959620Y-13950884D02*
X16921525Y-13950884D01*
X16921525Y-13950884D02*
X16902477Y-13941360D01*
X16902477Y-13941360D02*
X16892953Y-13922312D01*
X16892953Y-13922312D02*
X16892953Y-13846122D01*
X16892953Y-13846122D02*
X16902477Y-13827074D01*
X16902477Y-13827074D02*
X16921525Y-13817550D01*
X16921525Y-13817550D02*
X16959620Y-13817550D01*
X16959620Y-13817550D02*
X16978668Y-13827074D01*
X16978668Y-13827074D02*
X16988192Y-13846122D01*
X16988192Y-13846122D02*
X16988192Y-13865169D01*
X16988192Y-13865169D02*
X16892953Y-13884217D01*
X17064382Y-13941360D02*
X17083430Y-13950884D01*
X17083430Y-13950884D02*
X17121525Y-13950884D01*
X17121525Y-13950884D02*
X17140573Y-13941360D01*
X17140573Y-13941360D02*
X17150096Y-13922312D01*
X17150096Y-13922312D02*
X17150096Y-13912788D01*
X17150096Y-13912788D02*
X17140573Y-13893741D01*
X17140573Y-13893741D02*
X17121525Y-13884217D01*
X17121525Y-13884217D02*
X17092953Y-13884217D01*
X17092953Y-13884217D02*
X17073906Y-13874693D01*
X17073906Y-13874693D02*
X17064382Y-13855646D01*
X17064382Y-13855646D02*
X17064382Y-13846122D01*
X17064382Y-13846122D02*
X17073906Y-13827074D01*
X17073906Y-13827074D02*
X17092953Y-13817550D01*
X17092953Y-13817550D02*
X17121525Y-13817550D01*
X17121525Y-13817550D02*
X17140573Y-13827074D01*
X17216763Y-14027074D02*
X17226287Y-14017550D01*
X17226287Y-14017550D02*
X17245334Y-13988979D01*
X17245334Y-13988979D02*
X17254858Y-13969931D01*
X17254858Y-13969931D02*
X17264382Y-13941360D01*
X17264382Y-13941360D02*
X17273906Y-13893741D01*
X17273906Y-13893741D02*
X17273906Y-13855646D01*
X17273906Y-13855646D02*
X17264382Y-13808027D01*
X17264382Y-13808027D02*
X17254858Y-13779455D01*
X17254858Y-13779455D02*
X17245334Y-13760408D01*
X17245334Y-13760408D02*
X17226287Y-13731836D01*
X17226287Y-13731836D02*
X17216763Y-13722312D01*
D11*
X12441700Y-14123400D02*
G75*
G02*
X12361700Y-14123400I-40000J0D01*
G01*
X12361700Y-14123400D02*
G75*
G02*
X12441700Y-14123400I40000J0D01*
G01*
D10*
X12740572Y-14014884D02*
X12759620Y-14014884D01*
X12759620Y-14014884D02*
X12778667Y-14024408D01*
X12778667Y-14024408D02*
X12788191Y-14033931D01*
X12788191Y-14033931D02*
X12797715Y-14052979D01*
X12797715Y-14052979D02*
X12807239Y-14091074D01*
X12807239Y-14091074D02*
X12807239Y-14138693D01*
X12807239Y-14138693D02*
X12797715Y-14176788D01*
X12797715Y-14176788D02*
X12788191Y-14195836D01*
X12788191Y-14195836D02*
X12778667Y-14205360D01*
X12778667Y-14205360D02*
X12759620Y-14214884D01*
X12759620Y-14214884D02*
X12740572Y-14214884D01*
X12740572Y-14214884D02*
X12721524Y-14205360D01*
X12721524Y-14205360D02*
X12712001Y-14195836D01*
X12712001Y-14195836D02*
X12702477Y-14176788D01*
X12702477Y-14176788D02*
X12692953Y-14138693D01*
X12692953Y-14138693D02*
X12692953Y-14091074D01*
X12692953Y-14091074D02*
X12702477Y-14052979D01*
X12702477Y-14052979D02*
X12712001Y-14033931D01*
X12712001Y-14033931D02*
X12721524Y-14024408D01*
X12721524Y-14024408D02*
X12740572Y-14014884D01*
X12892953Y-14195836D02*
X12902477Y-14205360D01*
X12902477Y-14205360D02*
X12892953Y-14214884D01*
X12892953Y-14214884D02*
X12883429Y-14205360D01*
X12883429Y-14205360D02*
X12892953Y-14195836D01*
X12892953Y-14195836D02*
X12892953Y-14214884D01*
X13016762Y-14100598D02*
X12997715Y-14091074D01*
X12997715Y-14091074D02*
X12988191Y-14081550D01*
X12988191Y-14081550D02*
X12978667Y-14062503D01*
X12978667Y-14062503D02*
X12978667Y-14052979D01*
X12978667Y-14052979D02*
X12988191Y-14033931D01*
X12988191Y-14033931D02*
X12997715Y-14024408D01*
X12997715Y-14024408D02*
X13016762Y-14014884D01*
X13016762Y-14014884D02*
X13054858Y-14014884D01*
X13054858Y-14014884D02*
X13073905Y-14024408D01*
X13073905Y-14024408D02*
X13083429Y-14033931D01*
X13083429Y-14033931D02*
X13092953Y-14052979D01*
X13092953Y-14052979D02*
X13092953Y-14062503D01*
X13092953Y-14062503D02*
X13083429Y-14081550D01*
X13083429Y-14081550D02*
X13073905Y-14091074D01*
X13073905Y-14091074D02*
X13054858Y-14100598D01*
X13054858Y-14100598D02*
X13016762Y-14100598D01*
X13016762Y-14100598D02*
X12997715Y-14110122D01*
X12997715Y-14110122D02*
X12988191Y-14119646D01*
X12988191Y-14119646D02*
X12978667Y-14138693D01*
X12978667Y-14138693D02*
X12978667Y-14176788D01*
X12978667Y-14176788D02*
X12988191Y-14195836D01*
X12988191Y-14195836D02*
X12997715Y-14205360D01*
X12997715Y-14205360D02*
X13016762Y-14214884D01*
X13016762Y-14214884D02*
X13054858Y-14214884D01*
X13054858Y-14214884D02*
X13073905Y-14205360D01*
X13073905Y-14205360D02*
X13083429Y-14195836D01*
X13083429Y-14195836D02*
X13092953Y-14176788D01*
X13092953Y-14176788D02*
X13092953Y-14138693D01*
X13092953Y-14138693D02*
X13083429Y-14119646D01*
X13083429Y-14119646D02*
X13073905Y-14110122D01*
X13073905Y-14110122D02*
X13054858Y-14100598D01*
X13216762Y-14014884D02*
X13235810Y-14014884D01*
X13235810Y-14014884D02*
X13254858Y-14024408D01*
X13254858Y-14024408D02*
X13264382Y-14033931D01*
X13264382Y-14033931D02*
X13273905Y-14052979D01*
X13273905Y-14052979D02*
X13283429Y-14091074D01*
X13283429Y-14091074D02*
X13283429Y-14138693D01*
X13283429Y-14138693D02*
X13273905Y-14176788D01*
X13273905Y-14176788D02*
X13264382Y-14195836D01*
X13264382Y-14195836D02*
X13254858Y-14205360D01*
X13254858Y-14205360D02*
X13235810Y-14214884D01*
X13235810Y-14214884D02*
X13216762Y-14214884D01*
X13216762Y-14214884D02*
X13197715Y-14205360D01*
X13197715Y-14205360D02*
X13188191Y-14195836D01*
X13188191Y-14195836D02*
X13178667Y-14176788D01*
X13178667Y-14176788D02*
X13169143Y-14138693D01*
X13169143Y-14138693D02*
X13169143Y-14091074D01*
X13169143Y-14091074D02*
X13178667Y-14052979D01*
X13178667Y-14052979D02*
X13188191Y-14033931D01*
X13188191Y-14033931D02*
X13197715Y-14024408D01*
X13197715Y-14024408D02*
X13216762Y-14014884D01*
X13407239Y-14014884D02*
X13426286Y-14014884D01*
X13426286Y-14014884D02*
X13445334Y-14024408D01*
X13445334Y-14024408D02*
X13454858Y-14033931D01*
X13454858Y-14033931D02*
X13464382Y-14052979D01*
X13464382Y-14052979D02*
X13473905Y-14091074D01*
X13473905Y-14091074D02*
X13473905Y-14138693D01*
X13473905Y-14138693D02*
X13464382Y-14176788D01*
X13464382Y-14176788D02*
X13454858Y-14195836D01*
X13454858Y-14195836D02*
X13445334Y-14205360D01*
X13445334Y-14205360D02*
X13426286Y-14214884D01*
X13426286Y-14214884D02*
X13407239Y-14214884D01*
X13407239Y-14214884D02*
X13388191Y-14205360D01*
X13388191Y-14205360D02*
X13378667Y-14195836D01*
X13378667Y-14195836D02*
X13369143Y-14176788D01*
X13369143Y-14176788D02*
X13359620Y-14138693D01*
X13359620Y-14138693D02*
X13359620Y-14091074D01*
X13359620Y-14091074D02*
X13369143Y-14052979D01*
X13369143Y-14052979D02*
X13378667Y-14033931D01*
X13378667Y-14033931D02*
X13388191Y-14024408D01*
X13388191Y-14024408D02*
X13407239Y-14014884D01*
X13559620Y-14214884D02*
X13559620Y-14081550D01*
X13559620Y-14100598D02*
X13569143Y-14091074D01*
X13569143Y-14091074D02*
X13588191Y-14081550D01*
X13588191Y-14081550D02*
X13616763Y-14081550D01*
X13616763Y-14081550D02*
X13635810Y-14091074D01*
X13635810Y-14091074D02*
X13645334Y-14110122D01*
X13645334Y-14110122D02*
X13645334Y-14214884D01*
X13645334Y-14110122D02*
X13654858Y-14091074D01*
X13654858Y-14091074D02*
X13673905Y-14081550D01*
X13673905Y-14081550D02*
X13702477Y-14081550D01*
X13702477Y-14081550D02*
X13721524Y-14091074D01*
X13721524Y-14091074D02*
X13731048Y-14110122D01*
X13731048Y-14110122D02*
X13731048Y-14214884D01*
X13826286Y-14214884D02*
X13826286Y-14081550D01*
X13826286Y-14100598D02*
X13835810Y-14091074D01*
X13835810Y-14091074D02*
X13854858Y-14081550D01*
X13854858Y-14081550D02*
X13883429Y-14081550D01*
X13883429Y-14081550D02*
X13902477Y-14091074D01*
X13902477Y-14091074D02*
X13912001Y-14110122D01*
X13912001Y-14110122D02*
X13912001Y-14214884D01*
X13912001Y-14110122D02*
X13921524Y-14091074D01*
X13921524Y-14091074D02*
X13940572Y-14081550D01*
X13940572Y-14081550D02*
X13969143Y-14081550D01*
X13969143Y-14081550D02*
X13988191Y-14091074D01*
X13988191Y-14091074D02*
X13997715Y-14110122D01*
X13997715Y-14110122D02*
X13997715Y-14214884D01*
X14388191Y-14005360D02*
X14216763Y-14262503D01*
X14645334Y-14014884D02*
X14664382Y-14014884D01*
X14664382Y-14014884D02*
X14683429Y-14024408D01*
X14683429Y-14024408D02*
X14692953Y-14033931D01*
X14692953Y-14033931D02*
X14702477Y-14052979D01*
X14702477Y-14052979D02*
X14712001Y-14091074D01*
X14712001Y-14091074D02*
X14712001Y-14138693D01*
X14712001Y-14138693D02*
X14702477Y-14176788D01*
X14702477Y-14176788D02*
X14692953Y-14195836D01*
X14692953Y-14195836D02*
X14683429Y-14205360D01*
X14683429Y-14205360D02*
X14664382Y-14214884D01*
X14664382Y-14214884D02*
X14645334Y-14214884D01*
X14645334Y-14214884D02*
X14626286Y-14205360D01*
X14626286Y-14205360D02*
X14616763Y-14195836D01*
X14616763Y-14195836D02*
X14607239Y-14176788D01*
X14607239Y-14176788D02*
X14597715Y-14138693D01*
X14597715Y-14138693D02*
X14597715Y-14091074D01*
X14597715Y-14091074D02*
X14607239Y-14052979D01*
X14607239Y-14052979D02*
X14616763Y-14033931D01*
X14616763Y-14033931D02*
X14626286Y-14024408D01*
X14626286Y-14024408D02*
X14645334Y-14014884D01*
X14797715Y-14195836D02*
X14807239Y-14205360D01*
X14807239Y-14205360D02*
X14797715Y-14214884D01*
X14797715Y-14214884D02*
X14788191Y-14205360D01*
X14788191Y-14205360D02*
X14797715Y-14195836D01*
X14797715Y-14195836D02*
X14797715Y-14214884D01*
X14931048Y-14014884D02*
X14950096Y-14014884D01*
X14950096Y-14014884D02*
X14969144Y-14024408D01*
X14969144Y-14024408D02*
X14978667Y-14033931D01*
X14978667Y-14033931D02*
X14988191Y-14052979D01*
X14988191Y-14052979D02*
X14997715Y-14091074D01*
X14997715Y-14091074D02*
X14997715Y-14138693D01*
X14997715Y-14138693D02*
X14988191Y-14176788D01*
X14988191Y-14176788D02*
X14978667Y-14195836D01*
X14978667Y-14195836D02*
X14969144Y-14205360D01*
X14969144Y-14205360D02*
X14950096Y-14214884D01*
X14950096Y-14214884D02*
X14931048Y-14214884D01*
X14931048Y-14214884D02*
X14912001Y-14205360D01*
X14912001Y-14205360D02*
X14902477Y-14195836D01*
X14902477Y-14195836D02*
X14892953Y-14176788D01*
X14892953Y-14176788D02*
X14883429Y-14138693D01*
X14883429Y-14138693D02*
X14883429Y-14091074D01*
X14883429Y-14091074D02*
X14892953Y-14052979D01*
X14892953Y-14052979D02*
X14902477Y-14033931D01*
X14902477Y-14033931D02*
X14912001Y-14024408D01*
X14912001Y-14024408D02*
X14931048Y-14014884D01*
X15064382Y-14014884D02*
X15188191Y-14014884D01*
X15188191Y-14014884D02*
X15121525Y-14091074D01*
X15121525Y-14091074D02*
X15150096Y-14091074D01*
X15150096Y-14091074D02*
X15169144Y-14100598D01*
X15169144Y-14100598D02*
X15178667Y-14110122D01*
X15178667Y-14110122D02*
X15188191Y-14129169D01*
X15188191Y-14129169D02*
X15188191Y-14176788D01*
X15188191Y-14176788D02*
X15178667Y-14195836D01*
X15178667Y-14195836D02*
X15169144Y-14205360D01*
X15169144Y-14205360D02*
X15150096Y-14214884D01*
X15150096Y-14214884D02*
X15092953Y-14214884D01*
X15092953Y-14214884D02*
X15073906Y-14205360D01*
X15073906Y-14205360D02*
X15064382Y-14195836D01*
X15378667Y-14214884D02*
X15264382Y-14214884D01*
X15321525Y-14214884D02*
X15321525Y-14014884D01*
X15321525Y-14014884D02*
X15302477Y-14043455D01*
X15302477Y-14043455D02*
X15283429Y-14062503D01*
X15283429Y-14062503D02*
X15264382Y-14072027D01*
X15559620Y-14014884D02*
X15464382Y-14014884D01*
X15464382Y-14014884D02*
X15454858Y-14110122D01*
X15454858Y-14110122D02*
X15464382Y-14100598D01*
X15464382Y-14100598D02*
X15483429Y-14091074D01*
X15483429Y-14091074D02*
X15531048Y-14091074D01*
X15531048Y-14091074D02*
X15550096Y-14100598D01*
X15550096Y-14100598D02*
X15559620Y-14110122D01*
X15559620Y-14110122D02*
X15569144Y-14129169D01*
X15569144Y-14129169D02*
X15569144Y-14176788D01*
X15569144Y-14176788D02*
X15559620Y-14195836D01*
X15559620Y-14195836D02*
X15550096Y-14205360D01*
X15550096Y-14205360D02*
X15531048Y-14214884D01*
X15531048Y-14214884D02*
X15483429Y-14214884D01*
X15483429Y-14214884D02*
X15464382Y-14205360D01*
X15464382Y-14205360D02*
X15454858Y-14195836D01*
X15645334Y-14014884D02*
X15645334Y-14052979D01*
X15721525Y-14014884D02*
X15721525Y-14052979D01*
X16016763Y-14291074D02*
X16007239Y-14281550D01*
X16007239Y-14281550D02*
X15988191Y-14252979D01*
X15988191Y-14252979D02*
X15978668Y-14233931D01*
X15978668Y-14233931D02*
X15969144Y-14205360D01*
X15969144Y-14205360D02*
X15959620Y-14157741D01*
X15959620Y-14157741D02*
X15959620Y-14119646D01*
X15959620Y-14119646D02*
X15969144Y-14072027D01*
X15969144Y-14072027D02*
X15978668Y-14043455D01*
X15978668Y-14043455D02*
X15988191Y-14024408D01*
X15988191Y-14024408D02*
X16007239Y-13995836D01*
X16007239Y-13995836D02*
X16016763Y-13986312D01*
X16083429Y-14033931D02*
X16092953Y-14024408D01*
X16092953Y-14024408D02*
X16112001Y-14014884D01*
X16112001Y-14014884D02*
X16159620Y-14014884D01*
X16159620Y-14014884D02*
X16178668Y-14024408D01*
X16178668Y-14024408D02*
X16188191Y-14033931D01*
X16188191Y-14033931D02*
X16197715Y-14052979D01*
X16197715Y-14052979D02*
X16197715Y-14072027D01*
X16197715Y-14072027D02*
X16188191Y-14100598D01*
X16188191Y-14100598D02*
X16073906Y-14214884D01*
X16073906Y-14214884D02*
X16197715Y-14214884D01*
X16435810Y-14214884D02*
X16435810Y-14014884D01*
X16521525Y-14214884D02*
X16521525Y-14110122D01*
X16521525Y-14110122D02*
X16512001Y-14091074D01*
X16512001Y-14091074D02*
X16492953Y-14081550D01*
X16492953Y-14081550D02*
X16464382Y-14081550D01*
X16464382Y-14081550D02*
X16445334Y-14091074D01*
X16445334Y-14091074D02*
X16435810Y-14100598D01*
X16645334Y-14214884D02*
X16626287Y-14205360D01*
X16626287Y-14205360D02*
X16616763Y-14195836D01*
X16616763Y-14195836D02*
X16607239Y-14176788D01*
X16607239Y-14176788D02*
X16607239Y-14119646D01*
X16607239Y-14119646D02*
X16616763Y-14100598D01*
X16616763Y-14100598D02*
X16626287Y-14091074D01*
X16626287Y-14091074D02*
X16645334Y-14081550D01*
X16645334Y-14081550D02*
X16673906Y-14081550D01*
X16673906Y-14081550D02*
X16692953Y-14091074D01*
X16692953Y-14091074D02*
X16702477Y-14100598D01*
X16702477Y-14100598D02*
X16712001Y-14119646D01*
X16712001Y-14119646D02*
X16712001Y-14176788D01*
X16712001Y-14176788D02*
X16702477Y-14195836D01*
X16702477Y-14195836D02*
X16692953Y-14205360D01*
X16692953Y-14205360D02*
X16673906Y-14214884D01*
X16673906Y-14214884D02*
X16645334Y-14214884D01*
X16826287Y-14214884D02*
X16807239Y-14205360D01*
X16807239Y-14205360D02*
X16797715Y-14186312D01*
X16797715Y-14186312D02*
X16797715Y-14014884D01*
X16978668Y-14205360D02*
X16959620Y-14214884D01*
X16959620Y-14214884D02*
X16921525Y-14214884D01*
X16921525Y-14214884D02*
X16902477Y-14205360D01*
X16902477Y-14205360D02*
X16892953Y-14186312D01*
X16892953Y-14186312D02*
X16892953Y-14110122D01*
X16892953Y-14110122D02*
X16902477Y-14091074D01*
X16902477Y-14091074D02*
X16921525Y-14081550D01*
X16921525Y-14081550D02*
X16959620Y-14081550D01*
X16959620Y-14081550D02*
X16978668Y-14091074D01*
X16978668Y-14091074D02*
X16988192Y-14110122D01*
X16988192Y-14110122D02*
X16988192Y-14129169D01*
X16988192Y-14129169D02*
X16892953Y-14148217D01*
X17064382Y-14205360D02*
X17083430Y-14214884D01*
X17083430Y-14214884D02*
X17121525Y-14214884D01*
X17121525Y-14214884D02*
X17140573Y-14205360D01*
X17140573Y-14205360D02*
X17150096Y-14186312D01*
X17150096Y-14186312D02*
X17150096Y-14176788D01*
X17150096Y-14176788D02*
X17140573Y-14157741D01*
X17140573Y-14157741D02*
X17121525Y-14148217D01*
X17121525Y-14148217D02*
X17092953Y-14148217D01*
X17092953Y-14148217D02*
X17073906Y-14138693D01*
X17073906Y-14138693D02*
X17064382Y-14119646D01*
X17064382Y-14119646D02*
X17064382Y-14110122D01*
X17064382Y-14110122D02*
X17073906Y-14091074D01*
X17073906Y-14091074D02*
X17092953Y-14081550D01*
X17092953Y-14081550D02*
X17121525Y-14081550D01*
X17121525Y-14081550D02*
X17140573Y-14091074D01*
X17216763Y-14291074D02*
X17226287Y-14281550D01*
X17226287Y-14281550D02*
X17245334Y-14252979D01*
X17245334Y-14252979D02*
X17254858Y-14233931D01*
X17254858Y-14233931D02*
X17264382Y-14205360D01*
X17264382Y-14205360D02*
X17273906Y-14157741D01*
X17273906Y-14157741D02*
X17273906Y-14119646D01*
X17273906Y-14119646D02*
X17264382Y-14072027D01*
X17264382Y-14072027D02*
X17254858Y-14043455D01*
X17254858Y-14043455D02*
X17245334Y-14024408D01*
X17245334Y-14024408D02*
X17226287Y-13995836D01*
X17226287Y-13995836D02*
X17216763Y-13986312D01*
D11*
X12391700Y-14337400D02*
X12391700Y-14437400D01*
X12341700Y-14387400D02*
X12441700Y-14387400D01*
D10*
X12807239Y-14478884D02*
X12692953Y-14478884D01*
X12750096Y-14478884D02*
X12750096Y-14278884D01*
X12750096Y-14278884D02*
X12731048Y-14307455D01*
X12731048Y-14307455D02*
X12712001Y-14326503D01*
X12712001Y-14326503D02*
X12692953Y-14336027D01*
X12892953Y-14459836D02*
X12902477Y-14469360D01*
X12902477Y-14469360D02*
X12892953Y-14478884D01*
X12892953Y-14478884D02*
X12883429Y-14469360D01*
X12883429Y-14469360D02*
X12892953Y-14459836D01*
X12892953Y-14459836D02*
X12892953Y-14478884D01*
X13026286Y-14278884D02*
X13045334Y-14278884D01*
X13045334Y-14278884D02*
X13064382Y-14288408D01*
X13064382Y-14288408D02*
X13073905Y-14297931D01*
X13073905Y-14297931D02*
X13083429Y-14316979D01*
X13083429Y-14316979D02*
X13092953Y-14355074D01*
X13092953Y-14355074D02*
X13092953Y-14402693D01*
X13092953Y-14402693D02*
X13083429Y-14440788D01*
X13083429Y-14440788D02*
X13073905Y-14459836D01*
X13073905Y-14459836D02*
X13064382Y-14469360D01*
X13064382Y-14469360D02*
X13045334Y-14478884D01*
X13045334Y-14478884D02*
X13026286Y-14478884D01*
X13026286Y-14478884D02*
X13007239Y-14469360D01*
X13007239Y-14469360D02*
X12997715Y-14459836D01*
X12997715Y-14459836D02*
X12988191Y-14440788D01*
X12988191Y-14440788D02*
X12978667Y-14402693D01*
X12978667Y-14402693D02*
X12978667Y-14355074D01*
X12978667Y-14355074D02*
X12988191Y-14316979D01*
X12988191Y-14316979D02*
X12997715Y-14297931D01*
X12997715Y-14297931D02*
X13007239Y-14288408D01*
X13007239Y-14288408D02*
X13026286Y-14278884D01*
X13216762Y-14278884D02*
X13235810Y-14278884D01*
X13235810Y-14278884D02*
X13254858Y-14288408D01*
X13254858Y-14288408D02*
X13264382Y-14297931D01*
X13264382Y-14297931D02*
X13273905Y-14316979D01*
X13273905Y-14316979D02*
X13283429Y-14355074D01*
X13283429Y-14355074D02*
X13283429Y-14402693D01*
X13283429Y-14402693D02*
X13273905Y-14440788D01*
X13273905Y-14440788D02*
X13264382Y-14459836D01*
X13264382Y-14459836D02*
X13254858Y-14469360D01*
X13254858Y-14469360D02*
X13235810Y-14478884D01*
X13235810Y-14478884D02*
X13216762Y-14478884D01*
X13216762Y-14478884D02*
X13197715Y-14469360D01*
X13197715Y-14469360D02*
X13188191Y-14459836D01*
X13188191Y-14459836D02*
X13178667Y-14440788D01*
X13178667Y-14440788D02*
X13169143Y-14402693D01*
X13169143Y-14402693D02*
X13169143Y-14355074D01*
X13169143Y-14355074D02*
X13178667Y-14316979D01*
X13178667Y-14316979D02*
X13188191Y-14297931D01*
X13188191Y-14297931D02*
X13197715Y-14288408D01*
X13197715Y-14288408D02*
X13216762Y-14278884D01*
X13407239Y-14278884D02*
X13426286Y-14278884D01*
X13426286Y-14278884D02*
X13445334Y-14288408D01*
X13445334Y-14288408D02*
X13454858Y-14297931D01*
X13454858Y-14297931D02*
X13464382Y-14316979D01*
X13464382Y-14316979D02*
X13473905Y-14355074D01*
X13473905Y-14355074D02*
X13473905Y-14402693D01*
X13473905Y-14402693D02*
X13464382Y-14440788D01*
X13464382Y-14440788D02*
X13454858Y-14459836D01*
X13454858Y-14459836D02*
X13445334Y-14469360D01*
X13445334Y-14469360D02*
X13426286Y-14478884D01*
X13426286Y-14478884D02*
X13407239Y-14478884D01*
X13407239Y-14478884D02*
X13388191Y-14469360D01*
X13388191Y-14469360D02*
X13378667Y-14459836D01*
X13378667Y-14459836D02*
X13369143Y-14440788D01*
X13369143Y-14440788D02*
X13359620Y-14402693D01*
X13359620Y-14402693D02*
X13359620Y-14355074D01*
X13359620Y-14355074D02*
X13369143Y-14316979D01*
X13369143Y-14316979D02*
X13378667Y-14297931D01*
X13378667Y-14297931D02*
X13388191Y-14288408D01*
X13388191Y-14288408D02*
X13407239Y-14278884D01*
X13559620Y-14478884D02*
X13559620Y-14345550D01*
X13559620Y-14364598D02*
X13569143Y-14355074D01*
X13569143Y-14355074D02*
X13588191Y-14345550D01*
X13588191Y-14345550D02*
X13616763Y-14345550D01*
X13616763Y-14345550D02*
X13635810Y-14355074D01*
X13635810Y-14355074D02*
X13645334Y-14374122D01*
X13645334Y-14374122D02*
X13645334Y-14478884D01*
X13645334Y-14374122D02*
X13654858Y-14355074D01*
X13654858Y-14355074D02*
X13673905Y-14345550D01*
X13673905Y-14345550D02*
X13702477Y-14345550D01*
X13702477Y-14345550D02*
X13721524Y-14355074D01*
X13721524Y-14355074D02*
X13731048Y-14374122D01*
X13731048Y-14374122D02*
X13731048Y-14478884D01*
X13826286Y-14478884D02*
X13826286Y-14345550D01*
X13826286Y-14364598D02*
X13835810Y-14355074D01*
X13835810Y-14355074D02*
X13854858Y-14345550D01*
X13854858Y-14345550D02*
X13883429Y-14345550D01*
X13883429Y-14345550D02*
X13902477Y-14355074D01*
X13902477Y-14355074D02*
X13912001Y-14374122D01*
X13912001Y-14374122D02*
X13912001Y-14478884D01*
X13912001Y-14374122D02*
X13921524Y-14355074D01*
X13921524Y-14355074D02*
X13940572Y-14345550D01*
X13940572Y-14345550D02*
X13969143Y-14345550D01*
X13969143Y-14345550D02*
X13988191Y-14355074D01*
X13988191Y-14355074D02*
X13997715Y-14374122D01*
X13997715Y-14374122D02*
X13997715Y-14478884D01*
X14388191Y-14269360D02*
X14216763Y-14526503D01*
X14645334Y-14278884D02*
X14664382Y-14278884D01*
X14664382Y-14278884D02*
X14683429Y-14288408D01*
X14683429Y-14288408D02*
X14692953Y-14297931D01*
X14692953Y-14297931D02*
X14702477Y-14316979D01*
X14702477Y-14316979D02*
X14712001Y-14355074D01*
X14712001Y-14355074D02*
X14712001Y-14402693D01*
X14712001Y-14402693D02*
X14702477Y-14440788D01*
X14702477Y-14440788D02*
X14692953Y-14459836D01*
X14692953Y-14459836D02*
X14683429Y-14469360D01*
X14683429Y-14469360D02*
X14664382Y-14478884D01*
X14664382Y-14478884D02*
X14645334Y-14478884D01*
X14645334Y-14478884D02*
X14626286Y-14469360D01*
X14626286Y-14469360D02*
X14616763Y-14459836D01*
X14616763Y-14459836D02*
X14607239Y-14440788D01*
X14607239Y-14440788D02*
X14597715Y-14402693D01*
X14597715Y-14402693D02*
X14597715Y-14355074D01*
X14597715Y-14355074D02*
X14607239Y-14316979D01*
X14607239Y-14316979D02*
X14616763Y-14297931D01*
X14616763Y-14297931D02*
X14626286Y-14288408D01*
X14626286Y-14288408D02*
X14645334Y-14278884D01*
X14797715Y-14459836D02*
X14807239Y-14469360D01*
X14807239Y-14469360D02*
X14797715Y-14478884D01*
X14797715Y-14478884D02*
X14788191Y-14469360D01*
X14788191Y-14469360D02*
X14797715Y-14459836D01*
X14797715Y-14459836D02*
X14797715Y-14478884D01*
X14931048Y-14278884D02*
X14950096Y-14278884D01*
X14950096Y-14278884D02*
X14969144Y-14288408D01*
X14969144Y-14288408D02*
X14978667Y-14297931D01*
X14978667Y-14297931D02*
X14988191Y-14316979D01*
X14988191Y-14316979D02*
X14997715Y-14355074D01*
X14997715Y-14355074D02*
X14997715Y-14402693D01*
X14997715Y-14402693D02*
X14988191Y-14440788D01*
X14988191Y-14440788D02*
X14978667Y-14459836D01*
X14978667Y-14459836D02*
X14969144Y-14469360D01*
X14969144Y-14469360D02*
X14950096Y-14478884D01*
X14950096Y-14478884D02*
X14931048Y-14478884D01*
X14931048Y-14478884D02*
X14912001Y-14469360D01*
X14912001Y-14469360D02*
X14902477Y-14459836D01*
X14902477Y-14459836D02*
X14892953Y-14440788D01*
X14892953Y-14440788D02*
X14883429Y-14402693D01*
X14883429Y-14402693D02*
X14883429Y-14355074D01*
X14883429Y-14355074D02*
X14892953Y-14316979D01*
X14892953Y-14316979D02*
X14902477Y-14297931D01*
X14902477Y-14297931D02*
X14912001Y-14288408D01*
X14912001Y-14288408D02*
X14931048Y-14278884D01*
X15064382Y-14278884D02*
X15188191Y-14278884D01*
X15188191Y-14278884D02*
X15121525Y-14355074D01*
X15121525Y-14355074D02*
X15150096Y-14355074D01*
X15150096Y-14355074D02*
X15169144Y-14364598D01*
X15169144Y-14364598D02*
X15178667Y-14374122D01*
X15178667Y-14374122D02*
X15188191Y-14393169D01*
X15188191Y-14393169D02*
X15188191Y-14440788D01*
X15188191Y-14440788D02*
X15178667Y-14459836D01*
X15178667Y-14459836D02*
X15169144Y-14469360D01*
X15169144Y-14469360D02*
X15150096Y-14478884D01*
X15150096Y-14478884D02*
X15092953Y-14478884D01*
X15092953Y-14478884D02*
X15073906Y-14469360D01*
X15073906Y-14469360D02*
X15064382Y-14459836D01*
X15283429Y-14478884D02*
X15321525Y-14478884D01*
X15321525Y-14478884D02*
X15340572Y-14469360D01*
X15340572Y-14469360D02*
X15350096Y-14459836D01*
X15350096Y-14459836D02*
X15369144Y-14431265D01*
X15369144Y-14431265D02*
X15378667Y-14393169D01*
X15378667Y-14393169D02*
X15378667Y-14316979D01*
X15378667Y-14316979D02*
X15369144Y-14297931D01*
X15369144Y-14297931D02*
X15359620Y-14288408D01*
X15359620Y-14288408D02*
X15340572Y-14278884D01*
X15340572Y-14278884D02*
X15302477Y-14278884D01*
X15302477Y-14278884D02*
X15283429Y-14288408D01*
X15283429Y-14288408D02*
X15273906Y-14297931D01*
X15273906Y-14297931D02*
X15264382Y-14316979D01*
X15264382Y-14316979D02*
X15264382Y-14364598D01*
X15264382Y-14364598D02*
X15273906Y-14383646D01*
X15273906Y-14383646D02*
X15283429Y-14393169D01*
X15283429Y-14393169D02*
X15302477Y-14402693D01*
X15302477Y-14402693D02*
X15340572Y-14402693D01*
X15340572Y-14402693D02*
X15359620Y-14393169D01*
X15359620Y-14393169D02*
X15369144Y-14383646D01*
X15369144Y-14383646D02*
X15378667Y-14364598D01*
X15550096Y-14345550D02*
X15550096Y-14478884D01*
X15502477Y-14269360D02*
X15454858Y-14412217D01*
X15454858Y-14412217D02*
X15578667Y-14412217D01*
X15645334Y-14278884D02*
X15645334Y-14316979D01*
X15721525Y-14278884D02*
X15721525Y-14316979D01*
X16016763Y-14555074D02*
X16007239Y-14545550D01*
X16007239Y-14545550D02*
X15988191Y-14516979D01*
X15988191Y-14516979D02*
X15978668Y-14497931D01*
X15978668Y-14497931D02*
X15969144Y-14469360D01*
X15969144Y-14469360D02*
X15959620Y-14421741D01*
X15959620Y-14421741D02*
X15959620Y-14383646D01*
X15959620Y-14383646D02*
X15969144Y-14336027D01*
X15969144Y-14336027D02*
X15978668Y-14307455D01*
X15978668Y-14307455D02*
X15988191Y-14288408D01*
X15988191Y-14288408D02*
X16007239Y-14259836D01*
X16007239Y-14259836D02*
X16016763Y-14250312D01*
X16197715Y-14478884D02*
X16083429Y-14478884D01*
X16140572Y-14478884D02*
X16140572Y-14278884D01*
X16140572Y-14278884D02*
X16121525Y-14307455D01*
X16121525Y-14307455D02*
X16102477Y-14326503D01*
X16102477Y-14326503D02*
X16083429Y-14336027D01*
X16264382Y-14278884D02*
X16397715Y-14278884D01*
X16397715Y-14278884D02*
X16312001Y-14478884D01*
X16626287Y-14478884D02*
X16626287Y-14278884D01*
X16712001Y-14478884D02*
X16712001Y-14374122D01*
X16712001Y-14374122D02*
X16702477Y-14355074D01*
X16702477Y-14355074D02*
X16683430Y-14345550D01*
X16683430Y-14345550D02*
X16654858Y-14345550D01*
X16654858Y-14345550D02*
X16635810Y-14355074D01*
X16635810Y-14355074D02*
X16626287Y-14364598D01*
X16835811Y-14478884D02*
X16816763Y-14469360D01*
X16816763Y-14469360D02*
X16807239Y-14459836D01*
X16807239Y-14459836D02*
X16797715Y-14440788D01*
X16797715Y-14440788D02*
X16797715Y-14383646D01*
X16797715Y-14383646D02*
X16807239Y-14364598D01*
X16807239Y-14364598D02*
X16816763Y-14355074D01*
X16816763Y-14355074D02*
X16835811Y-14345550D01*
X16835811Y-14345550D02*
X16864382Y-14345550D01*
X16864382Y-14345550D02*
X16883430Y-14355074D01*
X16883430Y-14355074D02*
X16892953Y-14364598D01*
X16892953Y-14364598D02*
X16902477Y-14383646D01*
X16902477Y-14383646D02*
X16902477Y-14440788D01*
X16902477Y-14440788D02*
X16892953Y-14459836D01*
X16892953Y-14459836D02*
X16883430Y-14469360D01*
X16883430Y-14469360D02*
X16864382Y-14478884D01*
X16864382Y-14478884D02*
X16835811Y-14478884D01*
X17016763Y-14478884D02*
X16997715Y-14469360D01*
X16997715Y-14469360D02*
X16988192Y-14450312D01*
X16988192Y-14450312D02*
X16988192Y-14278884D01*
X17169144Y-14469360D02*
X17150096Y-14478884D01*
X17150096Y-14478884D02*
X17112001Y-14478884D01*
X17112001Y-14478884D02*
X17092953Y-14469360D01*
X17092953Y-14469360D02*
X17083430Y-14450312D01*
X17083430Y-14450312D02*
X17083430Y-14374122D01*
X17083430Y-14374122D02*
X17092953Y-14355074D01*
X17092953Y-14355074D02*
X17112001Y-14345550D01*
X17112001Y-14345550D02*
X17150096Y-14345550D01*
X17150096Y-14345550D02*
X17169144Y-14355074D01*
X17169144Y-14355074D02*
X17178668Y-14374122D01*
X17178668Y-14374122D02*
X17178668Y-14393169D01*
X17178668Y-14393169D02*
X17083430Y-14412217D01*
X17254858Y-14469360D02*
X17273906Y-14478884D01*
X17273906Y-14478884D02*
X17312001Y-14478884D01*
X17312001Y-14478884D02*
X17331049Y-14469360D01*
X17331049Y-14469360D02*
X17340573Y-14450312D01*
X17340573Y-14450312D02*
X17340573Y-14440788D01*
X17340573Y-14440788D02*
X17331049Y-14421741D01*
X17331049Y-14421741D02*
X17312001Y-14412217D01*
X17312001Y-14412217D02*
X17283430Y-14412217D01*
X17283430Y-14412217D02*
X17264382Y-14402693D01*
X17264382Y-14402693D02*
X17254858Y-14383646D01*
X17254858Y-14383646D02*
X17254858Y-14374122D01*
X17254858Y-14374122D02*
X17264382Y-14355074D01*
X17264382Y-14355074D02*
X17283430Y-14345550D01*
X17283430Y-14345550D02*
X17312001Y-14345550D01*
X17312001Y-14345550D02*
X17331049Y-14355074D01*
X17407239Y-14555074D02*
X17416763Y-14545550D01*
X17416763Y-14545550D02*
X17435811Y-14516979D01*
X17435811Y-14516979D02*
X17445334Y-14497931D01*
X17445334Y-14497931D02*
X17454858Y-14469360D01*
X17454858Y-14469360D02*
X17464382Y-14421741D01*
X17464382Y-14421741D02*
X17464382Y-14383646D01*
X17464382Y-14383646D02*
X17454858Y-14336027D01*
X17454858Y-14336027D02*
X17445334Y-14307455D01*
X17445334Y-14307455D02*
X17435811Y-14288408D01*
X17435811Y-14288408D02*
X17416763Y-14259836D01*
X17416763Y-14259836D02*
X17407239Y-14250312D01*
D11*
X12427056Y-14686756D02*
X12427056Y-14616044D01*
X12356344Y-14616044D01*
X12356344Y-14686756D01*
X12427056Y-14686756D01*
D10*
X12807239Y-14742884D02*
X12692953Y-14742884D01*
X12750096Y-14742884D02*
X12750096Y-14542884D01*
X12750096Y-14542884D02*
X12731048Y-14571455D01*
X12731048Y-14571455D02*
X12712001Y-14590503D01*
X12712001Y-14590503D02*
X12692953Y-14600027D01*
X12892953Y-14723836D02*
X12902477Y-14733360D01*
X12902477Y-14733360D02*
X12892953Y-14742884D01*
X12892953Y-14742884D02*
X12883429Y-14733360D01*
X12883429Y-14733360D02*
X12892953Y-14723836D01*
X12892953Y-14723836D02*
X12892953Y-14742884D01*
X13026286Y-14542884D02*
X13045334Y-14542884D01*
X13045334Y-14542884D02*
X13064382Y-14552408D01*
X13064382Y-14552408D02*
X13073905Y-14561931D01*
X13073905Y-14561931D02*
X13083429Y-14580979D01*
X13083429Y-14580979D02*
X13092953Y-14619074D01*
X13092953Y-14619074D02*
X13092953Y-14666693D01*
X13092953Y-14666693D02*
X13083429Y-14704788D01*
X13083429Y-14704788D02*
X13073905Y-14723836D01*
X13073905Y-14723836D02*
X13064382Y-14733360D01*
X13064382Y-14733360D02*
X13045334Y-14742884D01*
X13045334Y-14742884D02*
X13026286Y-14742884D01*
X13026286Y-14742884D02*
X13007239Y-14733360D01*
X13007239Y-14733360D02*
X12997715Y-14723836D01*
X12997715Y-14723836D02*
X12988191Y-14704788D01*
X12988191Y-14704788D02*
X12978667Y-14666693D01*
X12978667Y-14666693D02*
X12978667Y-14619074D01*
X12978667Y-14619074D02*
X12988191Y-14580979D01*
X12988191Y-14580979D02*
X12997715Y-14561931D01*
X12997715Y-14561931D02*
X13007239Y-14552408D01*
X13007239Y-14552408D02*
X13026286Y-14542884D01*
X13216762Y-14542884D02*
X13235810Y-14542884D01*
X13235810Y-14542884D02*
X13254858Y-14552408D01*
X13254858Y-14552408D02*
X13264382Y-14561931D01*
X13264382Y-14561931D02*
X13273905Y-14580979D01*
X13273905Y-14580979D02*
X13283429Y-14619074D01*
X13283429Y-14619074D02*
X13283429Y-14666693D01*
X13283429Y-14666693D02*
X13273905Y-14704788D01*
X13273905Y-14704788D02*
X13264382Y-14723836D01*
X13264382Y-14723836D02*
X13254858Y-14733360D01*
X13254858Y-14733360D02*
X13235810Y-14742884D01*
X13235810Y-14742884D02*
X13216762Y-14742884D01*
X13216762Y-14742884D02*
X13197715Y-14733360D01*
X13197715Y-14733360D02*
X13188191Y-14723836D01*
X13188191Y-14723836D02*
X13178667Y-14704788D01*
X13178667Y-14704788D02*
X13169143Y-14666693D01*
X13169143Y-14666693D02*
X13169143Y-14619074D01*
X13169143Y-14619074D02*
X13178667Y-14580979D01*
X13178667Y-14580979D02*
X13188191Y-14561931D01*
X13188191Y-14561931D02*
X13197715Y-14552408D01*
X13197715Y-14552408D02*
X13216762Y-14542884D01*
X13407239Y-14542884D02*
X13426286Y-14542884D01*
X13426286Y-14542884D02*
X13445334Y-14552408D01*
X13445334Y-14552408D02*
X13454858Y-14561931D01*
X13454858Y-14561931D02*
X13464382Y-14580979D01*
X13464382Y-14580979D02*
X13473905Y-14619074D01*
X13473905Y-14619074D02*
X13473905Y-14666693D01*
X13473905Y-14666693D02*
X13464382Y-14704788D01*
X13464382Y-14704788D02*
X13454858Y-14723836D01*
X13454858Y-14723836D02*
X13445334Y-14733360D01*
X13445334Y-14733360D02*
X13426286Y-14742884D01*
X13426286Y-14742884D02*
X13407239Y-14742884D01*
X13407239Y-14742884D02*
X13388191Y-14733360D01*
X13388191Y-14733360D02*
X13378667Y-14723836D01*
X13378667Y-14723836D02*
X13369143Y-14704788D01*
X13369143Y-14704788D02*
X13359620Y-14666693D01*
X13359620Y-14666693D02*
X13359620Y-14619074D01*
X13359620Y-14619074D02*
X13369143Y-14580979D01*
X13369143Y-14580979D02*
X13378667Y-14561931D01*
X13378667Y-14561931D02*
X13388191Y-14552408D01*
X13388191Y-14552408D02*
X13407239Y-14542884D01*
X13559620Y-14742884D02*
X13559620Y-14609550D01*
X13559620Y-14628598D02*
X13569143Y-14619074D01*
X13569143Y-14619074D02*
X13588191Y-14609550D01*
X13588191Y-14609550D02*
X13616763Y-14609550D01*
X13616763Y-14609550D02*
X13635810Y-14619074D01*
X13635810Y-14619074D02*
X13645334Y-14638122D01*
X13645334Y-14638122D02*
X13645334Y-14742884D01*
X13645334Y-14638122D02*
X13654858Y-14619074D01*
X13654858Y-14619074D02*
X13673905Y-14609550D01*
X13673905Y-14609550D02*
X13702477Y-14609550D01*
X13702477Y-14609550D02*
X13721524Y-14619074D01*
X13721524Y-14619074D02*
X13731048Y-14638122D01*
X13731048Y-14638122D02*
X13731048Y-14742884D01*
X13826286Y-14742884D02*
X13826286Y-14609550D01*
X13826286Y-14628598D02*
X13835810Y-14619074D01*
X13835810Y-14619074D02*
X13854858Y-14609550D01*
X13854858Y-14609550D02*
X13883429Y-14609550D01*
X13883429Y-14609550D02*
X13902477Y-14619074D01*
X13902477Y-14619074D02*
X13912001Y-14638122D01*
X13912001Y-14638122D02*
X13912001Y-14742884D01*
X13912001Y-14638122D02*
X13921524Y-14619074D01*
X13921524Y-14619074D02*
X13940572Y-14609550D01*
X13940572Y-14609550D02*
X13969143Y-14609550D01*
X13969143Y-14609550D02*
X13988191Y-14619074D01*
X13988191Y-14619074D02*
X13997715Y-14638122D01*
X13997715Y-14638122D02*
X13997715Y-14742884D01*
X14388191Y-14533360D02*
X14216763Y-14790503D01*
X14645334Y-14542884D02*
X14664382Y-14542884D01*
X14664382Y-14542884D02*
X14683429Y-14552408D01*
X14683429Y-14552408D02*
X14692953Y-14561931D01*
X14692953Y-14561931D02*
X14702477Y-14580979D01*
X14702477Y-14580979D02*
X14712001Y-14619074D01*
X14712001Y-14619074D02*
X14712001Y-14666693D01*
X14712001Y-14666693D02*
X14702477Y-14704788D01*
X14702477Y-14704788D02*
X14692953Y-14723836D01*
X14692953Y-14723836D02*
X14683429Y-14733360D01*
X14683429Y-14733360D02*
X14664382Y-14742884D01*
X14664382Y-14742884D02*
X14645334Y-14742884D01*
X14645334Y-14742884D02*
X14626286Y-14733360D01*
X14626286Y-14733360D02*
X14616763Y-14723836D01*
X14616763Y-14723836D02*
X14607239Y-14704788D01*
X14607239Y-14704788D02*
X14597715Y-14666693D01*
X14597715Y-14666693D02*
X14597715Y-14619074D01*
X14597715Y-14619074D02*
X14607239Y-14580979D01*
X14607239Y-14580979D02*
X14616763Y-14561931D01*
X14616763Y-14561931D02*
X14626286Y-14552408D01*
X14626286Y-14552408D02*
X14645334Y-14542884D01*
X14797715Y-14723836D02*
X14807239Y-14733360D01*
X14807239Y-14733360D02*
X14797715Y-14742884D01*
X14797715Y-14742884D02*
X14788191Y-14733360D01*
X14788191Y-14733360D02*
X14797715Y-14723836D01*
X14797715Y-14723836D02*
X14797715Y-14742884D01*
X14931048Y-14542884D02*
X14950096Y-14542884D01*
X14950096Y-14542884D02*
X14969144Y-14552408D01*
X14969144Y-14552408D02*
X14978667Y-14561931D01*
X14978667Y-14561931D02*
X14988191Y-14580979D01*
X14988191Y-14580979D02*
X14997715Y-14619074D01*
X14997715Y-14619074D02*
X14997715Y-14666693D01*
X14997715Y-14666693D02*
X14988191Y-14704788D01*
X14988191Y-14704788D02*
X14978667Y-14723836D01*
X14978667Y-14723836D02*
X14969144Y-14733360D01*
X14969144Y-14733360D02*
X14950096Y-14742884D01*
X14950096Y-14742884D02*
X14931048Y-14742884D01*
X14931048Y-14742884D02*
X14912001Y-14733360D01*
X14912001Y-14733360D02*
X14902477Y-14723836D01*
X14902477Y-14723836D02*
X14892953Y-14704788D01*
X14892953Y-14704788D02*
X14883429Y-14666693D01*
X14883429Y-14666693D02*
X14883429Y-14619074D01*
X14883429Y-14619074D02*
X14892953Y-14580979D01*
X14892953Y-14580979D02*
X14902477Y-14561931D01*
X14902477Y-14561931D02*
X14912001Y-14552408D01*
X14912001Y-14552408D02*
X14931048Y-14542884D01*
X15064382Y-14542884D02*
X15188191Y-14542884D01*
X15188191Y-14542884D02*
X15121525Y-14619074D01*
X15121525Y-14619074D02*
X15150096Y-14619074D01*
X15150096Y-14619074D02*
X15169144Y-14628598D01*
X15169144Y-14628598D02*
X15178667Y-14638122D01*
X15178667Y-14638122D02*
X15188191Y-14657169D01*
X15188191Y-14657169D02*
X15188191Y-14704788D01*
X15188191Y-14704788D02*
X15178667Y-14723836D01*
X15178667Y-14723836D02*
X15169144Y-14733360D01*
X15169144Y-14733360D02*
X15150096Y-14742884D01*
X15150096Y-14742884D02*
X15092953Y-14742884D01*
X15092953Y-14742884D02*
X15073906Y-14733360D01*
X15073906Y-14733360D02*
X15064382Y-14723836D01*
X15283429Y-14742884D02*
X15321525Y-14742884D01*
X15321525Y-14742884D02*
X15340572Y-14733360D01*
X15340572Y-14733360D02*
X15350096Y-14723836D01*
X15350096Y-14723836D02*
X15369144Y-14695265D01*
X15369144Y-14695265D02*
X15378667Y-14657169D01*
X15378667Y-14657169D02*
X15378667Y-14580979D01*
X15378667Y-14580979D02*
X15369144Y-14561931D01*
X15369144Y-14561931D02*
X15359620Y-14552408D01*
X15359620Y-14552408D02*
X15340572Y-14542884D01*
X15340572Y-14542884D02*
X15302477Y-14542884D01*
X15302477Y-14542884D02*
X15283429Y-14552408D01*
X15283429Y-14552408D02*
X15273906Y-14561931D01*
X15273906Y-14561931D02*
X15264382Y-14580979D01*
X15264382Y-14580979D02*
X15264382Y-14628598D01*
X15264382Y-14628598D02*
X15273906Y-14647646D01*
X15273906Y-14647646D02*
X15283429Y-14657169D01*
X15283429Y-14657169D02*
X15302477Y-14666693D01*
X15302477Y-14666693D02*
X15340572Y-14666693D01*
X15340572Y-14666693D02*
X15359620Y-14657169D01*
X15359620Y-14657169D02*
X15369144Y-14647646D01*
X15369144Y-14647646D02*
X15378667Y-14628598D01*
X15550096Y-14609550D02*
X15550096Y-14742884D01*
X15502477Y-14533360D02*
X15454858Y-14676217D01*
X15454858Y-14676217D02*
X15578667Y-14676217D01*
X15645334Y-14542884D02*
X15645334Y-14580979D01*
X15721525Y-14542884D02*
X15721525Y-14580979D01*
X16016763Y-14819074D02*
X16007239Y-14809550D01*
X16007239Y-14809550D02*
X15988191Y-14780979D01*
X15988191Y-14780979D02*
X15978668Y-14761931D01*
X15978668Y-14761931D02*
X15969144Y-14733360D01*
X15969144Y-14733360D02*
X15959620Y-14685741D01*
X15959620Y-14685741D02*
X15959620Y-14647646D01*
X15959620Y-14647646D02*
X15969144Y-14600027D01*
X15969144Y-14600027D02*
X15978668Y-14571455D01*
X15978668Y-14571455D02*
X15988191Y-14552408D01*
X15988191Y-14552408D02*
X16007239Y-14523836D01*
X16007239Y-14523836D02*
X16016763Y-14514312D01*
X16083429Y-14561931D02*
X16092953Y-14552408D01*
X16092953Y-14552408D02*
X16112001Y-14542884D01*
X16112001Y-14542884D02*
X16159620Y-14542884D01*
X16159620Y-14542884D02*
X16178668Y-14552408D01*
X16178668Y-14552408D02*
X16188191Y-14561931D01*
X16188191Y-14561931D02*
X16197715Y-14580979D01*
X16197715Y-14580979D02*
X16197715Y-14600027D01*
X16197715Y-14600027D02*
X16188191Y-14628598D01*
X16188191Y-14628598D02*
X16073906Y-14742884D01*
X16073906Y-14742884D02*
X16197715Y-14742884D01*
X16264382Y-14542884D02*
X16397715Y-14542884D01*
X16397715Y-14542884D02*
X16312001Y-14742884D01*
X16626287Y-14742884D02*
X16626287Y-14542884D01*
X16712001Y-14742884D02*
X16712001Y-14638122D01*
X16712001Y-14638122D02*
X16702477Y-14619074D01*
X16702477Y-14619074D02*
X16683430Y-14609550D01*
X16683430Y-14609550D02*
X16654858Y-14609550D01*
X16654858Y-14609550D02*
X16635810Y-14619074D01*
X16635810Y-14619074D02*
X16626287Y-14628598D01*
X16835811Y-14742884D02*
X16816763Y-14733360D01*
X16816763Y-14733360D02*
X16807239Y-14723836D01*
X16807239Y-14723836D02*
X16797715Y-14704788D01*
X16797715Y-14704788D02*
X16797715Y-14647646D01*
X16797715Y-14647646D02*
X16807239Y-14628598D01*
X16807239Y-14628598D02*
X16816763Y-14619074D01*
X16816763Y-14619074D02*
X16835811Y-14609550D01*
X16835811Y-14609550D02*
X16864382Y-14609550D01*
X16864382Y-14609550D02*
X16883430Y-14619074D01*
X16883430Y-14619074D02*
X16892953Y-14628598D01*
X16892953Y-14628598D02*
X16902477Y-14647646D01*
X16902477Y-14647646D02*
X16902477Y-14704788D01*
X16902477Y-14704788D02*
X16892953Y-14723836D01*
X16892953Y-14723836D02*
X16883430Y-14733360D01*
X16883430Y-14733360D02*
X16864382Y-14742884D01*
X16864382Y-14742884D02*
X16835811Y-14742884D01*
X17016763Y-14742884D02*
X16997715Y-14733360D01*
X16997715Y-14733360D02*
X16988192Y-14714312D01*
X16988192Y-14714312D02*
X16988192Y-14542884D01*
X17169144Y-14733360D02*
X17150096Y-14742884D01*
X17150096Y-14742884D02*
X17112001Y-14742884D01*
X17112001Y-14742884D02*
X17092953Y-14733360D01*
X17092953Y-14733360D02*
X17083430Y-14714312D01*
X17083430Y-14714312D02*
X17083430Y-14638122D01*
X17083430Y-14638122D02*
X17092953Y-14619074D01*
X17092953Y-14619074D02*
X17112001Y-14609550D01*
X17112001Y-14609550D02*
X17150096Y-14609550D01*
X17150096Y-14609550D02*
X17169144Y-14619074D01*
X17169144Y-14619074D02*
X17178668Y-14638122D01*
X17178668Y-14638122D02*
X17178668Y-14657169D01*
X17178668Y-14657169D02*
X17083430Y-14676217D01*
X17254858Y-14733360D02*
X17273906Y-14742884D01*
X17273906Y-14742884D02*
X17312001Y-14742884D01*
X17312001Y-14742884D02*
X17331049Y-14733360D01*
X17331049Y-14733360D02*
X17340573Y-14714312D01*
X17340573Y-14714312D02*
X17340573Y-14704788D01*
X17340573Y-14704788D02*
X17331049Y-14685741D01*
X17331049Y-14685741D02*
X17312001Y-14676217D01*
X17312001Y-14676217D02*
X17283430Y-14676217D01*
X17283430Y-14676217D02*
X17264382Y-14666693D01*
X17264382Y-14666693D02*
X17254858Y-14647646D01*
X17254858Y-14647646D02*
X17254858Y-14638122D01*
X17254858Y-14638122D02*
X17264382Y-14619074D01*
X17264382Y-14619074D02*
X17283430Y-14609550D01*
X17283430Y-14609550D02*
X17312001Y-14609550D01*
X17312001Y-14609550D02*
X17331049Y-14619074D01*
X17407239Y-14819074D02*
X17416763Y-14809550D01*
X17416763Y-14809550D02*
X17435811Y-14780979D01*
X17435811Y-14780979D02*
X17445334Y-14761931D01*
X17445334Y-14761931D02*
X17454858Y-14733360D01*
X17454858Y-14733360D02*
X17464382Y-14685741D01*
X17464382Y-14685741D02*
X17464382Y-14647646D01*
X17464382Y-14647646D02*
X17454858Y-14600027D01*
X17454858Y-14600027D02*
X17445334Y-14571455D01*
X17445334Y-14571455D02*
X17435811Y-14552408D01*
X17435811Y-14552408D02*
X17416763Y-14523836D01*
X17416763Y-14523836D02*
X17407239Y-14514312D01*
M02*
