%TF.GenerationSoftware,KiCad,Pcbnew,8.0.8*%
%TF.CreationDate,2025-01-28T15:40:47-03:00*%
%TF.ProjectId,temperature_sensor,74656d70-6572-4617-9475-72655f73656e,rev?*%
%TF.SameCoordinates,Original*%
%TF.FileFunction,Copper,L2,Bot*%
%TF.FilePolarity,Positive*%
%FSLAX46Y46*%
G04 Gerber Fmt 4.6, Leading zero omitted, Abs format (unit mm)*
G04 Created by KiCad (PCBNEW 8.0.8) date 2025-01-28 15:40:47*
%MOMM*%
%LPD*%
G01*
G04 APERTURE LIST*
%TA.AperFunction,ComponentPad*%
%ADD10R,1.700000X1.700000*%
%TD*%
%TA.AperFunction,ComponentPad*%
%ADD11O,1.700000X1.700000*%
%TD*%
%TA.AperFunction,ComponentPad*%
%ADD12C,1.600000*%
%TD*%
%TA.AperFunction,ComponentPad*%
%ADD13R,1.600000X1.600000*%
%TD*%
%TA.AperFunction,ComponentPad*%
%ADD14C,1.400000*%
%TD*%
%TA.AperFunction,ComponentPad*%
%ADD15O,1.400000X1.400000*%
%TD*%
%TA.AperFunction,ViaPad*%
%ADD16C,1.600000*%
%TD*%
%TA.AperFunction,Conductor*%
%ADD17C,0.500000*%
%TD*%
G04 APERTURE END LIST*
D10*
%TO.P,U103,1,GND*%
%TO.N,GND*%
X155881000Y-85953000D03*
D11*
%TO.P,U103,2,DQ*%
%TO.N,/DALLAS_TEMP*%
X155881000Y-88493000D03*
%TO.P,U103,3,V_{DD}*%
%TO.N,+5V*%
X155881000Y-91033000D03*
%TD*%
D12*
%TO.P,U102,1,VIN*%
%TO.N,+5V*%
X135561000Y-80492000D03*
%TO.P,U102,2,GND*%
%TO.N,GND*%
X138101000Y-80492000D03*
%TO.P,U102,3,3V3*%
%TO.N,unconnected-(U102-3V3-Pad3)*%
X140641000Y-80492000D03*
%TO.P,U102,4,CLK*%
%TO.N,/CLK*%
X143181000Y-80492000D03*
%TO.P,U102,5,SDO*%
%TO.N,/SDO*%
X145721000Y-80492000D03*
%TO.P,U102,6,SDI*%
%TO.N,/SDI*%
X148261000Y-80492000D03*
%TO.P,U102,7,CS*%
%TO.N,unconnected-(U102-CS-Pad7)*%
X150801000Y-80492000D03*
%TO.P,U102,8,NC*%
%TO.N,unconnected-(U102-NC-Pad8)*%
X153341000Y-80492000D03*
%TD*%
D13*
%TO.P,C101,1*%
%TO.N,+5V*%
X135524288Y-86842000D03*
D12*
%TO.P,C101,2*%
%TO.N,GND*%
X138024288Y-86842000D03*
%TD*%
%TO.P,U101,1,3V3*%
%TO.N,+3V3*%
X133402000Y-120370000D03*
%TO.P,U101,2,D8*%
%TO.N,unconnected-(U101-D8-Pad2)*%
X133402000Y-117830000D03*
%TO.P,U101,3,D7*%
%TO.N,/SDI*%
X133402000Y-115290000D03*
%TO.P,U101,4,D6*%
%TO.N,/SDO*%
X133402000Y-112750000D03*
%TO.P,U101,5,D5*%
%TO.N,/CLK*%
X133402000Y-110210000D03*
%TO.P,U101,6,D0*%
%TO.N,unconnected-(U101-D0-Pad6)*%
X133402000Y-107670000D03*
%TO.P,U101,7,A0*%
%TO.N,unconnected-(U101-A0-Pad7)*%
X133402000Y-105130000D03*
%TO.P,U101,8,RST*%
%TO.N,unconnected-(U101-RST-Pad8)*%
X133402000Y-102590000D03*
%TO.P,U101,9,5V*%
%TO.N,+5V*%
X155500000Y-120370000D03*
%TO.P,U101,10,GND*%
%TO.N,GND*%
X155500000Y-117830000D03*
%TO.P,U101,11,D4*%
%TO.N,/DALLAS_TEMP*%
X155500000Y-115290000D03*
%TO.P,U101,12,D3*%
%TO.N,unconnected-(U101-D3-Pad12)*%
X155500000Y-112750000D03*
%TO.P,U101,13,D2*%
%TO.N,unconnected-(U101-D2-Pad13)*%
X155500000Y-110210000D03*
%TO.P,U101,14,D1*%
%TO.N,unconnected-(U101-D1-Pad14)*%
X155500000Y-107670000D03*
%TO.P,U101,15,RX*%
%TO.N,unconnected-(U101-RX-Pad15)*%
X155500000Y-105130000D03*
%TO.P,U101,16,TX*%
%TO.N,unconnected-(U101-TX-Pad16)*%
X155500000Y-102590000D03*
%TD*%
D14*
%TO.P,R101,1*%
%TO.N,+5V*%
X155881000Y-96994000D03*
D15*
%TO.P,R101,2*%
%TO.N,/DALLAS_TEMP*%
X150801000Y-96994000D03*
%TD*%
D16*
%TO.N,GND*%
X152750000Y-117850000D03*
X144500000Y-124100000D03*
X154500000Y-131600000D03*
X127000000Y-124100000D03*
X162000000Y-72200000D03*
X154500000Y-51600000D03*
X138000000Y-98040979D03*
X162000000Y-111050000D03*
X150800000Y-85950000D03*
X144500000Y-59100000D03*
X162000000Y-98100000D03*
X162000000Y-124100000D03*
X162000000Y-85150000D03*
X144500000Y-72150000D03*
X134500000Y-51600000D03*
X127000000Y-111000000D03*
X127000000Y-59100000D03*
X127000000Y-72150000D03*
X162000000Y-59100000D03*
X140850000Y-107750000D03*
X134500000Y-131600000D03*
X144500000Y-111000000D03*
%TD*%
D17*
%TO.N,+5V*%
X157405000Y-77190000D02*
X137593000Y-77190000D01*
X159437000Y-100550000D02*
X155881000Y-96994000D01*
X135561000Y-80492000D02*
X135561000Y-80746000D01*
X155500000Y-120370000D02*
X157151000Y-120370000D01*
X135561000Y-79222000D02*
X135561000Y-80492000D01*
X137593000Y-77190000D02*
X135561000Y-79222000D01*
X135561000Y-80746000D02*
X135524288Y-80782712D01*
X157278000Y-91033000D02*
X159437000Y-88874000D01*
X155881000Y-91033000D02*
X155881000Y-96994000D01*
X159437000Y-88874000D02*
X159437000Y-79222000D01*
X159437000Y-118084000D02*
X159437000Y-100550000D01*
X135524288Y-80782712D02*
X135524288Y-86842000D01*
X159437000Y-79222000D02*
X157405000Y-77190000D01*
X157151000Y-120370000D02*
X159437000Y-118084000D01*
X155881000Y-91033000D02*
X157278000Y-91033000D01*
%TO.N,/DALLAS_TEMP*%
X150801000Y-90899000D02*
X150801000Y-96994000D01*
X153341000Y-115290000D02*
X150801000Y-112750000D01*
X150801000Y-112750000D02*
X150801000Y-96994000D01*
X155500000Y-115290000D02*
X153341000Y-115290000D01*
X153207000Y-88493000D02*
X150801000Y-90899000D01*
X155881000Y-88493000D02*
X153207000Y-88493000D01*
%TO.N,/CLK*%
X143181000Y-102119000D02*
X135090000Y-110210000D01*
X143181000Y-80492000D02*
X143181000Y-102119000D01*
X135090000Y-110210000D02*
X133402000Y-110210000D01*
%TO.N,/SDI*%
X144510000Y-115290000D02*
X133402000Y-115290000D01*
X148261000Y-80492000D02*
X148261000Y-111539000D01*
X148261000Y-111539000D02*
X144510000Y-115290000D01*
%TO.N,/SDO*%
X139350000Y-112750000D02*
X133402000Y-112750000D01*
X145721000Y-106379000D02*
X139350000Y-112750000D01*
X145721000Y-80492000D02*
X145721000Y-106379000D01*
%TD*%
%TA.AperFunction,Conductor*%
%TO.N,GND*%
G36*
X154760338Y-89263185D02*
G01*
X154794873Y-89296376D01*
X154842505Y-89364401D01*
X155009597Y-89531493D01*
X155009603Y-89531498D01*
X155195158Y-89661425D01*
X155238783Y-89716002D01*
X155245977Y-89785500D01*
X155214454Y-89847855D01*
X155195158Y-89864575D01*
X155009597Y-89994505D01*
X154842505Y-90161597D01*
X154706965Y-90355169D01*
X154706964Y-90355171D01*
X154607098Y-90569335D01*
X154607094Y-90569344D01*
X154545938Y-90797586D01*
X154545936Y-90797596D01*
X154525341Y-91032999D01*
X154525341Y-91033000D01*
X154545936Y-91268403D01*
X154545938Y-91268413D01*
X154607094Y-91496655D01*
X154607096Y-91496659D01*
X154607097Y-91496663D01*
X154685681Y-91665186D01*
X154706965Y-91710830D01*
X154706967Y-91710834D01*
X154842501Y-91904395D01*
X154842506Y-91904402D01*
X155009595Y-92071492D01*
X155009598Y-92071494D01*
X155009599Y-92071495D01*
X155077623Y-92119125D01*
X155121248Y-92173701D01*
X155130500Y-92220700D01*
X155130500Y-95998947D01*
X155110815Y-96065986D01*
X155090038Y-96090584D01*
X154990025Y-96181757D01*
X154990021Y-96181761D01*
X154855943Y-96359308D01*
X154855938Y-96359316D01*
X154756775Y-96558461D01*
X154756769Y-96558476D01*
X154695885Y-96772462D01*
X154695884Y-96772464D01*
X154675357Y-96993999D01*
X154675357Y-96994000D01*
X154695884Y-97215535D01*
X154695885Y-97215537D01*
X154756769Y-97429523D01*
X154756775Y-97429538D01*
X154855938Y-97628683D01*
X154855943Y-97628691D01*
X154990020Y-97806238D01*
X155154437Y-97956123D01*
X155154439Y-97956125D01*
X155343595Y-98073245D01*
X155343596Y-98073245D01*
X155343599Y-98073247D01*
X155551060Y-98153618D01*
X155769757Y-98194500D01*
X155769759Y-98194500D01*
X155968770Y-98194500D01*
X156035809Y-98214185D01*
X156056451Y-98230819D01*
X158650181Y-100824548D01*
X158683666Y-100885871D01*
X158686500Y-100912229D01*
X158686500Y-117721770D01*
X158666815Y-117788809D01*
X158650181Y-117809451D01*
X156876451Y-119583181D01*
X156815128Y-119616666D01*
X156788770Y-119619500D01*
X156626663Y-119619500D01*
X156559624Y-119599815D01*
X156525088Y-119566623D01*
X156500045Y-119530858D01*
X156339141Y-119369954D01*
X156152735Y-119239433D01*
X156152736Y-119239433D01*
X156152734Y-119239432D01*
X156094132Y-119212105D01*
X156041694Y-119165933D01*
X156022543Y-119098739D01*
X156042759Y-119031858D01*
X156094135Y-118987341D01*
X156152482Y-118960133D01*
X156225471Y-118909024D01*
X155629409Y-118312962D01*
X155692993Y-118295925D01*
X155807007Y-118230099D01*
X155900099Y-118137007D01*
X155965925Y-118022993D01*
X155982962Y-117959409D01*
X156579024Y-118555471D01*
X156630136Y-118482478D01*
X156726264Y-118276331D01*
X156726269Y-118276317D01*
X156785139Y-118056610D01*
X156785141Y-118056599D01*
X156804966Y-117830002D01*
X156804966Y-117829997D01*
X156785141Y-117603400D01*
X156785139Y-117603389D01*
X156726269Y-117383682D01*
X156726264Y-117383668D01*
X156630136Y-117177521D01*
X156630132Y-117177513D01*
X156579025Y-117104526D01*
X155982962Y-117700589D01*
X155965925Y-117637007D01*
X155900099Y-117522993D01*
X155807007Y-117429901D01*
X155692993Y-117364075D01*
X155629408Y-117347037D01*
X156225472Y-116750974D01*
X156152480Y-116699864D01*
X156094134Y-116672657D01*
X156041695Y-116626484D01*
X156022543Y-116559291D01*
X156042759Y-116492410D01*
X156094134Y-116447893D01*
X156152734Y-116420568D01*
X156339139Y-116290047D01*
X156500047Y-116129139D01*
X156630568Y-115942734D01*
X156726739Y-115736496D01*
X156785635Y-115516692D01*
X156805468Y-115290000D01*
X156785635Y-115063308D01*
X156726739Y-114843504D01*
X156630568Y-114637266D01*
X156500047Y-114450861D01*
X156500045Y-114450858D01*
X156339141Y-114289954D01*
X156152734Y-114159432D01*
X156152728Y-114159429D01*
X156094725Y-114132382D01*
X156042285Y-114086210D01*
X156023133Y-114019017D01*
X156043348Y-113952135D01*
X156094725Y-113907618D01*
X156152734Y-113880568D01*
X156339139Y-113750047D01*
X156500047Y-113589139D01*
X156630568Y-113402734D01*
X156726739Y-113196496D01*
X156785635Y-112976692D01*
X156805468Y-112750000D01*
X156785635Y-112523308D01*
X156726739Y-112303504D01*
X156630568Y-112097266D01*
X156500047Y-111910861D01*
X156500045Y-111910858D01*
X156339141Y-111749954D01*
X156152734Y-111619432D01*
X156152728Y-111619429D01*
X156094725Y-111592382D01*
X156042285Y-111546210D01*
X156023133Y-111479017D01*
X156043348Y-111412135D01*
X156094725Y-111367618D01*
X156152734Y-111340568D01*
X156339139Y-111210047D01*
X156500047Y-111049139D01*
X156630568Y-110862734D01*
X156726739Y-110656496D01*
X156785635Y-110436692D01*
X156805468Y-110210000D01*
X156785635Y-109983308D01*
X156726739Y-109763504D01*
X156630568Y-109557266D01*
X156500047Y-109370861D01*
X156500045Y-109370858D01*
X156339141Y-109209954D01*
X156152734Y-109079432D01*
X156152728Y-109079429D01*
X156094725Y-109052382D01*
X156042285Y-109006210D01*
X156023133Y-108939017D01*
X156043348Y-108872135D01*
X156094725Y-108827618D01*
X156152734Y-108800568D01*
X156339139Y-108670047D01*
X156500047Y-108509139D01*
X156630568Y-108322734D01*
X156726739Y-108116496D01*
X156785635Y-107896692D01*
X156805468Y-107670000D01*
X156785635Y-107443308D01*
X156726739Y-107223504D01*
X156630568Y-107017266D01*
X156500047Y-106830861D01*
X156500045Y-106830858D01*
X156339141Y-106669954D01*
X156152734Y-106539432D01*
X156152728Y-106539429D01*
X156094725Y-106512382D01*
X156042285Y-106466210D01*
X156023133Y-106399017D01*
X156043348Y-106332135D01*
X156094725Y-106287618D01*
X156152734Y-106260568D01*
X156339139Y-106130047D01*
X156500047Y-105969139D01*
X156630568Y-105782734D01*
X156726739Y-105576496D01*
X156785635Y-105356692D01*
X156805468Y-105130000D01*
X156785635Y-104903308D01*
X156726739Y-104683504D01*
X156630568Y-104477266D01*
X156500047Y-104290861D01*
X156500045Y-104290858D01*
X156339141Y-104129954D01*
X156152734Y-103999432D01*
X156152728Y-103999429D01*
X156094725Y-103972382D01*
X156042285Y-103926210D01*
X156023133Y-103859017D01*
X156043348Y-103792135D01*
X156094725Y-103747618D01*
X156152734Y-103720568D01*
X156339139Y-103590047D01*
X156500047Y-103429139D01*
X156630568Y-103242734D01*
X156726739Y-103036496D01*
X156785635Y-102816692D01*
X156805468Y-102590000D01*
X156785635Y-102363308D01*
X156726739Y-102143504D01*
X156630568Y-101937266D01*
X156532839Y-101797693D01*
X156500045Y-101750858D01*
X156339141Y-101589954D01*
X156152734Y-101459432D01*
X156152732Y-101459431D01*
X155946497Y-101363261D01*
X155946488Y-101363258D01*
X155726697Y-101304366D01*
X155726693Y-101304365D01*
X155726692Y-101304365D01*
X155726691Y-101304364D01*
X155726686Y-101304364D01*
X155500002Y-101284532D01*
X155499998Y-101284532D01*
X155273313Y-101304364D01*
X155273302Y-101304366D01*
X155053511Y-101363258D01*
X155053502Y-101363261D01*
X154847267Y-101459431D01*
X154847265Y-101459432D01*
X154660858Y-101589954D01*
X154499954Y-101750858D01*
X154369432Y-101937265D01*
X154369431Y-101937267D01*
X154273261Y-102143502D01*
X154273258Y-102143511D01*
X154214366Y-102363302D01*
X154214364Y-102363313D01*
X154194532Y-102589998D01*
X154194532Y-102590001D01*
X154214364Y-102816686D01*
X154214366Y-102816697D01*
X154273258Y-103036488D01*
X154273261Y-103036497D01*
X154369431Y-103242732D01*
X154369432Y-103242734D01*
X154499954Y-103429141D01*
X154660858Y-103590045D01*
X154660861Y-103590047D01*
X154847266Y-103720568D01*
X154905275Y-103747618D01*
X154957714Y-103793791D01*
X154976866Y-103860984D01*
X154956650Y-103927865D01*
X154905275Y-103972382D01*
X154847267Y-103999431D01*
X154847265Y-103999432D01*
X154660858Y-104129954D01*
X154499954Y-104290858D01*
X154369432Y-104477265D01*
X154369431Y-104477267D01*
X154273261Y-104683502D01*
X154273258Y-104683511D01*
X154214366Y-104903302D01*
X154214364Y-104903313D01*
X154194532Y-105129998D01*
X154194532Y-105130001D01*
X154214364Y-105356686D01*
X154214366Y-105356697D01*
X154273258Y-105576488D01*
X154273261Y-105576497D01*
X154369431Y-105782732D01*
X154369432Y-105782734D01*
X154499954Y-105969141D01*
X154660858Y-106130045D01*
X154660861Y-106130047D01*
X154847266Y-106260568D01*
X154905275Y-106287618D01*
X154957714Y-106333791D01*
X154976866Y-106400984D01*
X154956650Y-106467865D01*
X154905275Y-106512382D01*
X154847267Y-106539431D01*
X154847265Y-106539432D01*
X154660858Y-106669954D01*
X154499954Y-106830858D01*
X154369432Y-107017265D01*
X154369431Y-107017267D01*
X154273261Y-107223502D01*
X154273258Y-107223511D01*
X154214366Y-107443302D01*
X154214364Y-107443313D01*
X154194532Y-107669998D01*
X154194532Y-107670001D01*
X154214364Y-107896686D01*
X154214366Y-107896697D01*
X154273258Y-108116488D01*
X154273261Y-108116497D01*
X154369431Y-108322732D01*
X154369432Y-108322734D01*
X154499954Y-108509141D01*
X154660858Y-108670045D01*
X154660861Y-108670047D01*
X154847266Y-108800568D01*
X154905275Y-108827618D01*
X154957714Y-108873791D01*
X154976866Y-108940984D01*
X154956650Y-109007865D01*
X154905275Y-109052382D01*
X154847267Y-109079431D01*
X154847265Y-109079432D01*
X154660858Y-109209954D01*
X154499954Y-109370858D01*
X154369432Y-109557265D01*
X154369431Y-109557267D01*
X154273261Y-109763502D01*
X154273258Y-109763511D01*
X154214366Y-109983302D01*
X154214364Y-109983313D01*
X154194532Y-110209998D01*
X154194532Y-110210001D01*
X154214364Y-110436686D01*
X154214366Y-110436697D01*
X154273258Y-110656488D01*
X154273261Y-110656497D01*
X154369431Y-110862732D01*
X154369432Y-110862734D01*
X154499954Y-111049141D01*
X154660858Y-111210045D01*
X154660861Y-111210047D01*
X154847266Y-111340568D01*
X154905275Y-111367618D01*
X154957714Y-111413791D01*
X154976866Y-111480984D01*
X154956650Y-111547865D01*
X154905275Y-111592382D01*
X154847267Y-111619431D01*
X154847265Y-111619432D01*
X154660858Y-111749954D01*
X154499954Y-111910858D01*
X154369432Y-112097265D01*
X154369431Y-112097267D01*
X154273261Y-112303502D01*
X154273258Y-112303511D01*
X154214366Y-112523302D01*
X154214364Y-112523313D01*
X154194532Y-112749998D01*
X154194532Y-112750001D01*
X154214364Y-112976686D01*
X154214366Y-112976697D01*
X154273258Y-113196488D01*
X154273261Y-113196497D01*
X154369431Y-113402732D01*
X154369432Y-113402734D01*
X154499954Y-113589141D01*
X154660858Y-113750045D01*
X154660861Y-113750047D01*
X154847266Y-113880568D01*
X154905275Y-113907618D01*
X154957714Y-113953791D01*
X154976866Y-114020984D01*
X154956650Y-114087865D01*
X154905275Y-114132382D01*
X154847267Y-114159431D01*
X154847265Y-114159432D01*
X154660858Y-114289954D01*
X154499954Y-114450858D01*
X154474912Y-114486623D01*
X154420335Y-114530248D01*
X154373337Y-114539500D01*
X153703229Y-114539500D01*
X153636190Y-114519815D01*
X153615548Y-114503181D01*
X151587819Y-112475451D01*
X151554334Y-112414128D01*
X151551500Y-112387770D01*
X151551500Y-97989052D01*
X151571185Y-97922013D01*
X151591957Y-97897418D01*
X151691981Y-97806236D01*
X151826058Y-97628689D01*
X151925229Y-97429528D01*
X151986115Y-97215536D01*
X152006643Y-96994000D01*
X151986115Y-96772464D01*
X151925229Y-96558472D01*
X151925224Y-96558461D01*
X151826061Y-96359316D01*
X151826056Y-96359308D01*
X151790459Y-96312171D01*
X151691981Y-96181764D01*
X151691978Y-96181761D01*
X151691974Y-96181757D01*
X151591962Y-96090584D01*
X151555680Y-96030873D01*
X151551500Y-95998947D01*
X151551500Y-91261230D01*
X151571185Y-91194191D01*
X151587819Y-91173549D01*
X153481549Y-89279819D01*
X153542872Y-89246334D01*
X153569230Y-89243500D01*
X154693299Y-89243500D01*
X154760338Y-89263185D01*
G37*
%TD.AperFunction*%
%TA.AperFunction,Conductor*%
G36*
X147058865Y-81035348D02*
G01*
X147103382Y-81086725D01*
X147130429Y-81144728D01*
X147130432Y-81144734D01*
X147260954Y-81331141D01*
X147421859Y-81492046D01*
X147457621Y-81517086D01*
X147501247Y-81571662D01*
X147510500Y-81618662D01*
X147510500Y-111176770D01*
X147490815Y-111243809D01*
X147474181Y-111264451D01*
X144235451Y-114503181D01*
X144174128Y-114536666D01*
X144147770Y-114539500D01*
X134528663Y-114539500D01*
X134461624Y-114519815D01*
X134427088Y-114486623D01*
X134402045Y-114450858D01*
X134241141Y-114289954D01*
X134054734Y-114159432D01*
X134054728Y-114159429D01*
X133996725Y-114132382D01*
X133944285Y-114086210D01*
X133925133Y-114019017D01*
X133945348Y-113952135D01*
X133996725Y-113907618D01*
X134054734Y-113880568D01*
X134241139Y-113750047D01*
X134402047Y-113589139D01*
X134427088Y-113553377D01*
X134481665Y-113509752D01*
X134528663Y-113500500D01*
X139423920Y-113500500D01*
X139521462Y-113481096D01*
X139568913Y-113471658D01*
X139705495Y-113415084D01*
X139754729Y-113382186D01*
X139828416Y-113332952D01*
X146303952Y-106857415D01*
X146353428Y-106783368D01*
X146386084Y-106734495D01*
X146413006Y-106669500D01*
X146442659Y-106597912D01*
X146471500Y-106452917D01*
X146471500Y-106305082D01*
X146471500Y-81618662D01*
X146491185Y-81551623D01*
X146524379Y-81517086D01*
X146560139Y-81492047D01*
X146721047Y-81331139D01*
X146851568Y-81144734D01*
X146878618Y-81086724D01*
X146924790Y-81034285D01*
X146991983Y-81015133D01*
X147058865Y-81035348D01*
G37*
%TD.AperFunction*%
%TA.AperFunction,Conductor*%
G36*
X144518865Y-81035348D02*
G01*
X144563382Y-81086725D01*
X144590429Y-81144728D01*
X144590432Y-81144734D01*
X144720954Y-81331141D01*
X144881859Y-81492046D01*
X144917621Y-81517086D01*
X144961247Y-81571662D01*
X144970500Y-81618662D01*
X144970500Y-106016770D01*
X144950815Y-106083809D01*
X144934181Y-106104451D01*
X139075451Y-111963181D01*
X139014128Y-111996666D01*
X138987770Y-111999500D01*
X134528663Y-111999500D01*
X134461624Y-111979815D01*
X134427088Y-111946623D01*
X134402045Y-111910858D01*
X134241141Y-111749954D01*
X134054734Y-111619432D01*
X134054728Y-111619429D01*
X133996725Y-111592382D01*
X133944285Y-111546210D01*
X133925133Y-111479017D01*
X133945348Y-111412135D01*
X133996725Y-111367618D01*
X134054734Y-111340568D01*
X134241139Y-111210047D01*
X134402047Y-111049139D01*
X134427088Y-111013377D01*
X134481665Y-110969752D01*
X134528663Y-110960500D01*
X135163920Y-110960500D01*
X135261462Y-110941096D01*
X135308913Y-110931658D01*
X135445495Y-110875084D01*
X135494729Y-110842186D01*
X135568416Y-110792952D01*
X143763952Y-102597416D01*
X143787445Y-102562254D01*
X143834745Y-102491466D01*
X143834749Y-102491459D01*
X143846084Y-102474495D01*
X143902658Y-102337913D01*
X143931500Y-102192918D01*
X143931500Y-81618662D01*
X143951185Y-81551623D01*
X143984379Y-81517086D01*
X144020139Y-81492047D01*
X144181047Y-81331139D01*
X144311568Y-81144734D01*
X144338618Y-81086724D01*
X144384790Y-81034285D01*
X144451983Y-81015133D01*
X144518865Y-81035348D01*
G37*
%TD.AperFunction*%
%TA.AperFunction,Conductor*%
G36*
X160520032Y-49594648D02*
G01*
X160853929Y-49611052D01*
X160866037Y-49612245D01*
X160969146Y-49627539D01*
X161193699Y-49660849D01*
X161205617Y-49663219D01*
X161526951Y-49743709D01*
X161538588Y-49747240D01*
X161609806Y-49772722D01*
X161850467Y-49858832D01*
X161861688Y-49863479D01*
X162161163Y-50005120D01*
X162171871Y-50010844D01*
X162455988Y-50181137D01*
X162466106Y-50187897D01*
X162732170Y-50385224D01*
X162741576Y-50392944D01*
X162987013Y-50615395D01*
X162995604Y-50623986D01*
X163182755Y-50830475D01*
X163218055Y-50869423D01*
X163225775Y-50878829D01*
X163423102Y-51144893D01*
X163429862Y-51155011D01*
X163564982Y-51380446D01*
X163600148Y-51439116D01*
X163605883Y-51449844D01*
X163723954Y-51699485D01*
X163747514Y-51749297D01*
X163752170Y-51760540D01*
X163863759Y-52072411D01*
X163867292Y-52084055D01*
X163947777Y-52405369D01*
X163950151Y-52417305D01*
X163998754Y-52744962D01*
X163999947Y-52757071D01*
X164016351Y-53090966D01*
X164016500Y-53097051D01*
X164016500Y-130090948D01*
X164016351Y-130097033D01*
X163999947Y-130430928D01*
X163998754Y-130443037D01*
X163950151Y-130770694D01*
X163947777Y-130782630D01*
X163867292Y-131103944D01*
X163863759Y-131115588D01*
X163752170Y-131427459D01*
X163747514Y-131438702D01*
X163605885Y-131738151D01*
X163600148Y-131748883D01*
X163429862Y-132032988D01*
X163423102Y-132043106D01*
X163225775Y-132309170D01*
X163218055Y-132318576D01*
X162995611Y-132564006D01*
X162987006Y-132572611D01*
X162741576Y-132795055D01*
X162732170Y-132802775D01*
X162466106Y-133000102D01*
X162455988Y-133006862D01*
X162171883Y-133177148D01*
X162161151Y-133182885D01*
X161861702Y-133324514D01*
X161850459Y-133329170D01*
X161538588Y-133440759D01*
X161526944Y-133444292D01*
X161205630Y-133524777D01*
X161193694Y-133527151D01*
X160866037Y-133575754D01*
X160853928Y-133576947D01*
X160538989Y-133592419D01*
X160520031Y-133593351D01*
X160513949Y-133593500D01*
X128520051Y-133593500D01*
X128513968Y-133593351D01*
X128493900Y-133592365D01*
X128180071Y-133576947D01*
X128167962Y-133575754D01*
X127840305Y-133527151D01*
X127828369Y-133524777D01*
X127507055Y-133444292D01*
X127495411Y-133440759D01*
X127183540Y-133329170D01*
X127172301Y-133324515D01*
X126872844Y-133182883D01*
X126862121Y-133177150D01*
X126578011Y-133006862D01*
X126567893Y-133000102D01*
X126301829Y-132802775D01*
X126292423Y-132795055D01*
X126253475Y-132759755D01*
X126046986Y-132572604D01*
X126038395Y-132564013D01*
X125815944Y-132318576D01*
X125808224Y-132309170D01*
X125610897Y-132043106D01*
X125604137Y-132032988D01*
X125491162Y-131844500D01*
X125433844Y-131748871D01*
X125428120Y-131738163D01*
X125286479Y-131438688D01*
X125281829Y-131427459D01*
X125170240Y-131115588D01*
X125166707Y-131103944D01*
X125157958Y-131069015D01*
X125086219Y-130782617D01*
X125083848Y-130770694D01*
X125035245Y-130443037D01*
X125034052Y-130430927D01*
X125023980Y-130225902D01*
X126766500Y-130225902D01*
X126766500Y-130462097D01*
X126803446Y-130695368D01*
X126876433Y-130919996D01*
X126952363Y-131069015D01*
X126983657Y-131130433D01*
X127122483Y-131321510D01*
X127289490Y-131488517D01*
X127480567Y-131627343D01*
X127579991Y-131678002D01*
X127691003Y-131734566D01*
X127691005Y-131734566D01*
X127691008Y-131734568D01*
X127811412Y-131773689D01*
X127915631Y-131807553D01*
X128148903Y-131844500D01*
X128148908Y-131844500D01*
X128385097Y-131844500D01*
X128618368Y-131807553D01*
X128842992Y-131734568D01*
X129053433Y-131627343D01*
X129244510Y-131488517D01*
X129411517Y-131321510D01*
X129550343Y-131130433D01*
X129657568Y-130919992D01*
X129730553Y-130695368D01*
X129732671Y-130681993D01*
X129767500Y-130462097D01*
X129767500Y-130225902D01*
X159266500Y-130225902D01*
X159266500Y-130462097D01*
X159303446Y-130695368D01*
X159376433Y-130919996D01*
X159452363Y-131069015D01*
X159483657Y-131130433D01*
X159622483Y-131321510D01*
X159789490Y-131488517D01*
X159980567Y-131627343D01*
X160079991Y-131678002D01*
X160191003Y-131734566D01*
X160191005Y-131734566D01*
X160191008Y-131734568D01*
X160311412Y-131773689D01*
X160415631Y-131807553D01*
X160648903Y-131844500D01*
X160648908Y-131844500D01*
X160885097Y-131844500D01*
X161118368Y-131807553D01*
X161342992Y-131734568D01*
X161553433Y-131627343D01*
X161744510Y-131488517D01*
X161911517Y-131321510D01*
X162050343Y-131130433D01*
X162157568Y-130919992D01*
X162230553Y-130695368D01*
X162232671Y-130681993D01*
X162267500Y-130462097D01*
X162267500Y-130225902D01*
X162230553Y-129992631D01*
X162157566Y-129768003D01*
X162050342Y-129557566D01*
X161911517Y-129366490D01*
X161744510Y-129199483D01*
X161553433Y-129060657D01*
X161342996Y-128953433D01*
X161118368Y-128880446D01*
X160885097Y-128843500D01*
X160885092Y-128843500D01*
X160648908Y-128843500D01*
X160648903Y-128843500D01*
X160415631Y-128880446D01*
X160191003Y-128953433D01*
X159980566Y-129060657D01*
X159871550Y-129139862D01*
X159789490Y-129199483D01*
X159789488Y-129199485D01*
X159789487Y-129199485D01*
X159622485Y-129366487D01*
X159622485Y-129366488D01*
X159622483Y-129366490D01*
X159562862Y-129448550D01*
X159483657Y-129557566D01*
X159376433Y-129768003D01*
X159303446Y-129992631D01*
X159266500Y-130225902D01*
X129767500Y-130225902D01*
X129730553Y-129992631D01*
X129657566Y-129768003D01*
X129550342Y-129557566D01*
X129411517Y-129366490D01*
X129244510Y-129199483D01*
X129053433Y-129060657D01*
X128842996Y-128953433D01*
X128618368Y-128880446D01*
X128385097Y-128843500D01*
X128385092Y-128843500D01*
X128148908Y-128843500D01*
X128148903Y-128843500D01*
X127915631Y-128880446D01*
X127691003Y-128953433D01*
X127480566Y-129060657D01*
X127371550Y-129139862D01*
X127289490Y-129199483D01*
X127289488Y-129199485D01*
X127289487Y-129199485D01*
X127122485Y-129366487D01*
X127122485Y-129366488D01*
X127122483Y-129366490D01*
X127062862Y-129448550D01*
X126983657Y-129557566D01*
X126876433Y-129768003D01*
X126803446Y-129992631D01*
X126766500Y-130225902D01*
X125023980Y-130225902D01*
X125017649Y-130097032D01*
X125017500Y-130090948D01*
X125017500Y-102589998D01*
X132096532Y-102589998D01*
X132096532Y-102590001D01*
X132116364Y-102816686D01*
X132116366Y-102816697D01*
X132175258Y-103036488D01*
X132175261Y-103036497D01*
X132271431Y-103242732D01*
X132271432Y-103242734D01*
X132401954Y-103429141D01*
X132562858Y-103590045D01*
X132562861Y-103590047D01*
X132749266Y-103720568D01*
X132807275Y-103747618D01*
X132859714Y-103793791D01*
X132878866Y-103860984D01*
X132858650Y-103927865D01*
X132807275Y-103972382D01*
X132749267Y-103999431D01*
X132749265Y-103999432D01*
X132562858Y-104129954D01*
X132401954Y-104290858D01*
X132271432Y-104477265D01*
X132271431Y-104477267D01*
X132175261Y-104683502D01*
X132175258Y-104683511D01*
X132116366Y-104903302D01*
X132116364Y-104903313D01*
X132096532Y-105129998D01*
X132096532Y-105130001D01*
X132116364Y-105356686D01*
X132116366Y-105356697D01*
X132175258Y-105576488D01*
X132175261Y-105576497D01*
X132271431Y-105782732D01*
X132271432Y-105782734D01*
X132401954Y-105969141D01*
X132562858Y-106130045D01*
X132562861Y-106130047D01*
X132749266Y-106260568D01*
X132807275Y-106287618D01*
X132859714Y-106333791D01*
X132878866Y-106400984D01*
X132858650Y-106467865D01*
X132807275Y-106512382D01*
X132749267Y-106539431D01*
X132749265Y-106539432D01*
X132562858Y-106669954D01*
X132401954Y-106830858D01*
X132271432Y-107017265D01*
X132271431Y-107017267D01*
X132175261Y-107223502D01*
X132175258Y-107223511D01*
X132116366Y-107443302D01*
X132116364Y-107443313D01*
X132096532Y-107669998D01*
X132096532Y-107670001D01*
X132116364Y-107896686D01*
X132116366Y-107896697D01*
X132175258Y-108116488D01*
X132175261Y-108116497D01*
X132271431Y-108322732D01*
X132271432Y-108322734D01*
X132401954Y-108509141D01*
X132562858Y-108670045D01*
X132562861Y-108670047D01*
X132749266Y-108800568D01*
X132807275Y-108827618D01*
X132859714Y-108873791D01*
X132878866Y-108940984D01*
X132858650Y-109007865D01*
X132807275Y-109052382D01*
X132749267Y-109079431D01*
X132749265Y-109079432D01*
X132562858Y-109209954D01*
X132401954Y-109370858D01*
X132271432Y-109557265D01*
X132271431Y-109557267D01*
X132175261Y-109763502D01*
X132175258Y-109763511D01*
X132116366Y-109983302D01*
X132116364Y-109983313D01*
X132096532Y-110209998D01*
X132096532Y-110210001D01*
X132116364Y-110436686D01*
X132116366Y-110436697D01*
X132175258Y-110656488D01*
X132175261Y-110656497D01*
X132271431Y-110862732D01*
X132271432Y-110862734D01*
X132401954Y-111049141D01*
X132562858Y-111210045D01*
X132562861Y-111210047D01*
X132749266Y-111340568D01*
X132807275Y-111367618D01*
X132859714Y-111413791D01*
X132878866Y-111480984D01*
X132858650Y-111547865D01*
X132807275Y-111592382D01*
X132749267Y-111619431D01*
X132749265Y-111619432D01*
X132562858Y-111749954D01*
X132401954Y-111910858D01*
X132271432Y-112097265D01*
X132271431Y-112097267D01*
X132175261Y-112303502D01*
X132175258Y-112303511D01*
X132116366Y-112523302D01*
X132116364Y-112523313D01*
X132096532Y-112749998D01*
X132096532Y-112750001D01*
X132116364Y-112976686D01*
X132116366Y-112976697D01*
X132175258Y-113196488D01*
X132175261Y-113196497D01*
X132271431Y-113402732D01*
X132271432Y-113402734D01*
X132401954Y-113589141D01*
X132562858Y-113750045D01*
X132562861Y-113750047D01*
X132749266Y-113880568D01*
X132807275Y-113907618D01*
X132859714Y-113953791D01*
X132878866Y-114020984D01*
X132858650Y-114087865D01*
X132807275Y-114132382D01*
X132749267Y-114159431D01*
X132749265Y-114159432D01*
X132562858Y-114289954D01*
X132401954Y-114450858D01*
X132271432Y-114637265D01*
X132271431Y-114637267D01*
X132175261Y-114843502D01*
X132175258Y-114843511D01*
X132116366Y-115063302D01*
X132116364Y-115063313D01*
X132096532Y-115289998D01*
X132096532Y-115290001D01*
X132116364Y-115516686D01*
X132116366Y-115516697D01*
X132175258Y-115736488D01*
X132175261Y-115736497D01*
X132271431Y-115942732D01*
X132271432Y-115942734D01*
X132401954Y-116129141D01*
X132562858Y-116290045D01*
X132562861Y-116290047D01*
X132749266Y-116420568D01*
X132807275Y-116447618D01*
X132859714Y-116493791D01*
X132878866Y-116560984D01*
X132858650Y-116627865D01*
X132807275Y-116672382D01*
X132749267Y-116699431D01*
X132749265Y-116699432D01*
X132562858Y-116829954D01*
X132401954Y-116990858D01*
X132271432Y-117177265D01*
X132271431Y-117177267D01*
X132175261Y-117383502D01*
X132175258Y-117383511D01*
X132116366Y-117603302D01*
X132116364Y-117603313D01*
X132096532Y-117829998D01*
X132096532Y-117830001D01*
X132116364Y-118056686D01*
X132116366Y-118056697D01*
X132175258Y-118276488D01*
X132175261Y-118276497D01*
X132271431Y-118482732D01*
X132271432Y-118482734D01*
X132401954Y-118669141D01*
X132562858Y-118830045D01*
X132562861Y-118830047D01*
X132749266Y-118960568D01*
X132806681Y-118987341D01*
X132807275Y-118987618D01*
X132859714Y-119033791D01*
X132878866Y-119100984D01*
X132858650Y-119167865D01*
X132807275Y-119212382D01*
X132749267Y-119239431D01*
X132749265Y-119239432D01*
X132562858Y-119369954D01*
X132401954Y-119530858D01*
X132271432Y-119717265D01*
X132271431Y-119717267D01*
X132175261Y-119923502D01*
X132175258Y-119923511D01*
X132116366Y-120143302D01*
X132116364Y-120143313D01*
X132096532Y-120369998D01*
X132096532Y-120370001D01*
X132116364Y-120596686D01*
X132116366Y-120596697D01*
X132175258Y-120816488D01*
X132175261Y-120816497D01*
X132271431Y-121022732D01*
X132271432Y-121022734D01*
X132401954Y-121209141D01*
X132562858Y-121370045D01*
X132562861Y-121370047D01*
X132749266Y-121500568D01*
X132955504Y-121596739D01*
X133175308Y-121655635D01*
X133337230Y-121669801D01*
X133401998Y-121675468D01*
X133402000Y-121675468D01*
X133402002Y-121675468D01*
X133458673Y-121670509D01*
X133628692Y-121655635D01*
X133848496Y-121596739D01*
X134054734Y-121500568D01*
X134241139Y-121370047D01*
X134402047Y-121209139D01*
X134532568Y-121022734D01*
X134628739Y-120816496D01*
X134687635Y-120596692D01*
X134707468Y-120370000D01*
X134687635Y-120143308D01*
X134628739Y-119923504D01*
X134532568Y-119717266D01*
X134402047Y-119530861D01*
X134402045Y-119530858D01*
X134241141Y-119369954D01*
X134054734Y-119239432D01*
X134054728Y-119239429D01*
X133996725Y-119212382D01*
X133944285Y-119166210D01*
X133925133Y-119099017D01*
X133945348Y-119032135D01*
X133996725Y-118987618D01*
X133997319Y-118987341D01*
X134054734Y-118960568D01*
X134241139Y-118830047D01*
X134402047Y-118669139D01*
X134532568Y-118482734D01*
X134628739Y-118276496D01*
X134687635Y-118056692D01*
X134707468Y-117830000D01*
X134687635Y-117603308D01*
X134628739Y-117383504D01*
X134532568Y-117177266D01*
X134402047Y-116990861D01*
X134402045Y-116990858D01*
X134241141Y-116829954D01*
X134054734Y-116699432D01*
X134054728Y-116699429D01*
X133996725Y-116672382D01*
X133944285Y-116626210D01*
X133925133Y-116559017D01*
X133945348Y-116492135D01*
X133996725Y-116447618D01*
X134054734Y-116420568D01*
X134241139Y-116290047D01*
X134402047Y-116129139D01*
X134427088Y-116093377D01*
X134481665Y-116049752D01*
X134528663Y-116040500D01*
X144583920Y-116040500D01*
X144681462Y-116021096D01*
X144728913Y-116011658D01*
X144865495Y-115955084D01*
X144914729Y-115922186D01*
X144988416Y-115872952D01*
X148843952Y-112017416D01*
X148893186Y-111943729D01*
X148926084Y-111894495D01*
X148982658Y-111757913D01*
X148992096Y-111710462D01*
X149011500Y-111612920D01*
X149011500Y-81618662D01*
X149031185Y-81551623D01*
X149064379Y-81517086D01*
X149100139Y-81492047D01*
X149261047Y-81331139D01*
X149391568Y-81144734D01*
X149418618Y-81086724D01*
X149464790Y-81034285D01*
X149531983Y-81015133D01*
X149598865Y-81035348D01*
X149643382Y-81086725D01*
X149670429Y-81144728D01*
X149670432Y-81144734D01*
X149800954Y-81331141D01*
X149961858Y-81492045D01*
X149968383Y-81496614D01*
X150148266Y-81622568D01*
X150354504Y-81718739D01*
X150574308Y-81777635D01*
X150736230Y-81791801D01*
X150800998Y-81797468D01*
X150801000Y-81797468D01*
X150801002Y-81797468D01*
X150857673Y-81792509D01*
X151027692Y-81777635D01*
X151247496Y-81718739D01*
X151453734Y-81622568D01*
X151640139Y-81492047D01*
X151801047Y-81331139D01*
X151931568Y-81144734D01*
X151958618Y-81086724D01*
X152004790Y-81034285D01*
X152071983Y-81015133D01*
X152138865Y-81035348D01*
X152183382Y-81086725D01*
X152210429Y-81144728D01*
X152210432Y-81144734D01*
X152340954Y-81331141D01*
X152501858Y-81492045D01*
X152508383Y-81496614D01*
X152688266Y-81622568D01*
X152894504Y-81718739D01*
X153114308Y-81777635D01*
X153276230Y-81791801D01*
X153340998Y-81797468D01*
X153341000Y-81797468D01*
X153341002Y-81797468D01*
X153397673Y-81792509D01*
X153567692Y-81777635D01*
X153787496Y-81718739D01*
X153993734Y-81622568D01*
X154180139Y-81492047D01*
X154341047Y-81331139D01*
X154471568Y-81144734D01*
X154567739Y-80938496D01*
X154626635Y-80718692D01*
X154646468Y-80492000D01*
X154626635Y-80265308D01*
X154567739Y-80045504D01*
X154471568Y-79839266D01*
X154341047Y-79652861D01*
X154341045Y-79652858D01*
X154180141Y-79491954D01*
X153993734Y-79361432D01*
X153993732Y-79361431D01*
X153787497Y-79265261D01*
X153787488Y-79265258D01*
X153567697Y-79206366D01*
X153567693Y-79206365D01*
X153567692Y-79206365D01*
X153567691Y-79206364D01*
X153567686Y-79206364D01*
X153341002Y-79186532D01*
X153340998Y-79186532D01*
X153114313Y-79206364D01*
X153114302Y-79206366D01*
X152894511Y-79265258D01*
X152894502Y-79265261D01*
X152688267Y-79361431D01*
X152688265Y-79361432D01*
X152501858Y-79491954D01*
X152340954Y-79652858D01*
X152210432Y-79839265D01*
X152210431Y-79839267D01*
X152183382Y-79897275D01*
X152137209Y-79949714D01*
X152070016Y-79968866D01*
X152003135Y-79948650D01*
X151958618Y-79897275D01*
X151931568Y-79839266D01*
X151801047Y-79652861D01*
X151801045Y-79652858D01*
X151640141Y-79491954D01*
X151453734Y-79361432D01*
X151453732Y-79361431D01*
X151247497Y-79265261D01*
X151247488Y-79265258D01*
X151027697Y-79206366D01*
X151027693Y-79206365D01*
X151027692Y-79206365D01*
X151027691Y-79206364D01*
X151027686Y-79206364D01*
X150801002Y-79186532D01*
X150800998Y-79186532D01*
X150574313Y-79206364D01*
X150574302Y-79206366D01*
X150354511Y-79265258D01*
X150354502Y-79265261D01*
X150148267Y-79361431D01*
X150148265Y-79361432D01*
X149961858Y-79491954D01*
X149800954Y-79652858D01*
X149670432Y-79839265D01*
X149670431Y-79839267D01*
X149643382Y-79897275D01*
X149597209Y-79949714D01*
X149530016Y-79968866D01*
X149463135Y-79948650D01*
X149418618Y-79897275D01*
X149391568Y-79839266D01*
X149261047Y-79652861D01*
X149261045Y-79652858D01*
X149100141Y-79491954D01*
X148913734Y-79361432D01*
X148913732Y-79361431D01*
X148707497Y-79265261D01*
X148707488Y-79265258D01*
X148487697Y-79206366D01*
X148487693Y-79206365D01*
X148487692Y-79206365D01*
X148487691Y-79206364D01*
X148487686Y-79206364D01*
X148261002Y-79186532D01*
X148260998Y-79186532D01*
X148034313Y-79206364D01*
X148034302Y-79206366D01*
X147814511Y-79265258D01*
X147814502Y-79265261D01*
X147608267Y-79361431D01*
X147608265Y-79361432D01*
X147421858Y-79491954D01*
X147260954Y-79652858D01*
X147130432Y-79839265D01*
X147130431Y-79839267D01*
X147103382Y-79897275D01*
X147057209Y-79949714D01*
X146990016Y-79968866D01*
X146923135Y-79948650D01*
X146878618Y-79897275D01*
X146851568Y-79839266D01*
X146721047Y-79652861D01*
X146721045Y-79652858D01*
X146560141Y-79491954D01*
X146373734Y-79361432D01*
X146373732Y-79361431D01*
X146167497Y-79265261D01*
X146167488Y-79265258D01*
X145947697Y-79206366D01*
X145947693Y-79206365D01*
X145947692Y-79206365D01*
X145947691Y-79206364D01*
X145947686Y-79206364D01*
X145721002Y-79186532D01*
X145720998Y-79186532D01*
X145494313Y-79206364D01*
X145494302Y-79206366D01*
X145274511Y-79265258D01*
X145274502Y-79265261D01*
X145068267Y-79361431D01*
X145068265Y-79361432D01*
X144881858Y-79491954D01*
X144720954Y-79652858D01*
X144590432Y-79839265D01*
X144590431Y-79839267D01*
X144563382Y-79897275D01*
X144517209Y-79949714D01*
X144450016Y-79968866D01*
X144383135Y-79948650D01*
X144338618Y-79897275D01*
X144311568Y-79839266D01*
X144181047Y-79652861D01*
X144181045Y-79652858D01*
X144020141Y-79491954D01*
X143833734Y-79361432D01*
X143833732Y-79361431D01*
X143627497Y-79265261D01*
X143627488Y-79265258D01*
X143407697Y-79206366D01*
X143407693Y-79206365D01*
X143407692Y-79206365D01*
X143407691Y-79206364D01*
X143407686Y-79206364D01*
X143181002Y-79186532D01*
X143180998Y-79186532D01*
X142954313Y-79206364D01*
X142954302Y-79206366D01*
X142734511Y-79265258D01*
X142734502Y-79265261D01*
X142528267Y-79361431D01*
X142528265Y-79361432D01*
X142341858Y-79491954D01*
X142180954Y-79652858D01*
X142050432Y-79839265D01*
X142050431Y-79839267D01*
X142023382Y-79897275D01*
X141977209Y-79949714D01*
X141910016Y-79968866D01*
X141843135Y-79948650D01*
X141798618Y-79897275D01*
X141771568Y-79839266D01*
X141641047Y-79652861D01*
X141641045Y-79652858D01*
X141480141Y-79491954D01*
X141293734Y-79361432D01*
X141293732Y-79361431D01*
X141087497Y-79265261D01*
X141087488Y-79265258D01*
X140867697Y-79206366D01*
X140867693Y-79206365D01*
X140867692Y-79206365D01*
X140867691Y-79206364D01*
X140867686Y-79206364D01*
X140641002Y-79186532D01*
X140640998Y-79186532D01*
X140414313Y-79206364D01*
X140414302Y-79206366D01*
X140194511Y-79265258D01*
X140194502Y-79265261D01*
X139988267Y-79361431D01*
X139988265Y-79361432D01*
X139801858Y-79491954D01*
X139640954Y-79652858D01*
X139510432Y-79839265D01*
X139510428Y-79839272D01*
X139483105Y-79897866D01*
X139436932Y-79950305D01*
X139369738Y-79969456D01*
X139302858Y-79949239D01*
X139258342Y-79897864D01*
X139231136Y-79839521D01*
X139231132Y-79839513D01*
X139180025Y-79766526D01*
X138583962Y-80362589D01*
X138566925Y-80299007D01*
X138501099Y-80184993D01*
X138408007Y-80091901D01*
X138293993Y-80026075D01*
X138230408Y-80009037D01*
X138826472Y-79412974D01*
X138753478Y-79361863D01*
X138547331Y-79265735D01*
X138547317Y-79265730D01*
X138327610Y-79206860D01*
X138327599Y-79206858D01*
X138101002Y-79187034D01*
X138100998Y-79187034D01*
X137874400Y-79206858D01*
X137874389Y-79206860D01*
X137654682Y-79265730D01*
X137654673Y-79265734D01*
X137448516Y-79361866D01*
X137448512Y-79361868D01*
X137375526Y-79412973D01*
X137375526Y-79412974D01*
X137971590Y-80009037D01*
X137908007Y-80026075D01*
X137793993Y-80091901D01*
X137700901Y-80184993D01*
X137635075Y-80299007D01*
X137618037Y-80362590D01*
X137021974Y-79766526D01*
X137021973Y-79766526D01*
X136970868Y-79839512D01*
X136970868Y-79839513D01*
X136943657Y-79897867D01*
X136897484Y-79950306D01*
X136830290Y-79969457D01*
X136763409Y-79949241D01*
X136718893Y-79897865D01*
X136691682Y-79839512D01*
X136691568Y-79839266D01*
X136561047Y-79652861D01*
X136463955Y-79555769D01*
X136430472Y-79494449D01*
X136435456Y-79424757D01*
X136463955Y-79380411D01*
X137867549Y-77976819D01*
X137928872Y-77943334D01*
X137955230Y-77940500D01*
X157042770Y-77940500D01*
X157109809Y-77960185D01*
X157130451Y-77976819D01*
X158650181Y-79496549D01*
X158683666Y-79557872D01*
X158686500Y-79584230D01*
X158686500Y-88511769D01*
X158666815Y-88578808D01*
X158650181Y-88599450D01*
X157091445Y-90158186D01*
X157030122Y-90191671D01*
X156960430Y-90186687D01*
X156916083Y-90158187D01*
X156916082Y-90158186D01*
X156752401Y-89994505D01*
X156752397Y-89994502D01*
X156752396Y-89994501D01*
X156566842Y-89864575D01*
X156523217Y-89809998D01*
X156516023Y-89740500D01*
X156547546Y-89678145D01*
X156566842Y-89661425D01*
X156589026Y-89645891D01*
X156752401Y-89531495D01*
X156919495Y-89364401D01*
X157055035Y-89170830D01*
X157154903Y-88956663D01*
X157216063Y-88728408D01*
X157236659Y-88493000D01*
X157216063Y-88257592D01*
X157154903Y-88029337D01*
X157055035Y-87815171D01*
X157024346Y-87771343D01*
X156919496Y-87621600D01*
X156865367Y-87567471D01*
X156797179Y-87499283D01*
X156763696Y-87437963D01*
X156768680Y-87368271D01*
X156810551Y-87312337D01*
X156841529Y-87295422D01*
X156973086Y-87246354D01*
X156973093Y-87246350D01*
X157088187Y-87160190D01*
X157088190Y-87160187D01*
X157174350Y-87045093D01*
X157174354Y-87045086D01*
X157224596Y-86910379D01*
X157224598Y-86910372D01*
X157230999Y-86850844D01*
X157231000Y-86850827D01*
X157231000Y-86203000D01*
X156314012Y-86203000D01*
X156346925Y-86145993D01*
X156381000Y-86018826D01*
X156381000Y-85887174D01*
X156346925Y-85760007D01*
X156314012Y-85703000D01*
X157231000Y-85703000D01*
X157231000Y-85055172D01*
X157230999Y-85055155D01*
X157224598Y-84995627D01*
X157224596Y-84995620D01*
X157174354Y-84860913D01*
X157174350Y-84860906D01*
X157088190Y-84745812D01*
X157088187Y-84745809D01*
X156973093Y-84659649D01*
X156973086Y-84659645D01*
X156838379Y-84609403D01*
X156838372Y-84609401D01*
X156778844Y-84603000D01*
X156131000Y-84603000D01*
X156131000Y-85519988D01*
X156073993Y-85487075D01*
X155946826Y-85453000D01*
X155815174Y-85453000D01*
X155688007Y-85487075D01*
X155631000Y-85519988D01*
X155631000Y-84603000D01*
X154983155Y-84603000D01*
X154923627Y-84609401D01*
X154923620Y-84609403D01*
X154788913Y-84659645D01*
X154788906Y-84659649D01*
X154673812Y-84745809D01*
X154673809Y-84745812D01*
X154587649Y-84860906D01*
X154587645Y-84860913D01*
X154537403Y-84995620D01*
X154537401Y-84995627D01*
X154531000Y-85055155D01*
X154531000Y-85703000D01*
X155447988Y-85703000D01*
X155415075Y-85760007D01*
X155381000Y-85887174D01*
X155381000Y-86018826D01*
X155415075Y-86145993D01*
X155447988Y-86203000D01*
X154531000Y-86203000D01*
X154531000Y-86850844D01*
X154537401Y-86910372D01*
X154537403Y-86910379D01*
X154587645Y-87045086D01*
X154587649Y-87045093D01*
X154673809Y-87160187D01*
X154673812Y-87160190D01*
X154788906Y-87246350D01*
X154788913Y-87246354D01*
X154920470Y-87295421D01*
X154976403Y-87337292D01*
X155000821Y-87402756D01*
X154985970Y-87471029D01*
X154964819Y-87499284D01*
X154842503Y-87621600D01*
X154794874Y-87689623D01*
X154740297Y-87733248D01*
X154693299Y-87742500D01*
X153133080Y-87742500D01*
X152988092Y-87771340D01*
X152988082Y-87771343D01*
X152851509Y-87827913D01*
X152851507Y-87827914D01*
X152810645Y-87855218D01*
X152810643Y-87855219D01*
X152728589Y-87910043D01*
X152728584Y-87910047D01*
X150218049Y-90420582D01*
X150218049Y-90420583D01*
X150198360Y-90450050D01*
X150135914Y-90543508D01*
X150079343Y-90680082D01*
X150079340Y-90680092D01*
X150050500Y-90825079D01*
X150050500Y-95998947D01*
X150030815Y-96065986D01*
X150010038Y-96090584D01*
X149910025Y-96181757D01*
X149910021Y-96181761D01*
X149775943Y-96359308D01*
X149775938Y-96359316D01*
X149676775Y-96558461D01*
X149676769Y-96558476D01*
X149615885Y-96772462D01*
X149615884Y-96772464D01*
X149595357Y-96993999D01*
X149595357Y-96994000D01*
X149615884Y-97215535D01*
X149615885Y-97215537D01*
X149676769Y-97429523D01*
X149676775Y-97429538D01*
X149775938Y-97628683D01*
X149775943Y-97628691D01*
X149842980Y-97717462D01*
X149910019Y-97806236D01*
X150010039Y-97897416D01*
X150046319Y-97957126D01*
X150050500Y-97989052D01*
X150050500Y-112823918D01*
X150050500Y-112823920D01*
X150050499Y-112823920D01*
X150079340Y-112968907D01*
X150079343Y-112968917D01*
X150135914Y-113105492D01*
X150168812Y-113154727D01*
X150168813Y-113154730D01*
X150218046Y-113228414D01*
X150218052Y-113228421D01*
X152279631Y-115289998D01*
X152758048Y-115768415D01*
X152758049Y-115768416D01*
X152862583Y-115872950D01*
X152862585Y-115872952D01*
X152985498Y-115955080D01*
X152985511Y-115955087D01*
X153122082Y-116011656D01*
X153122087Y-116011658D01*
X153122091Y-116011658D01*
X153122092Y-116011659D01*
X153267079Y-116040500D01*
X153267082Y-116040500D01*
X154373337Y-116040500D01*
X154440376Y-116060185D01*
X154474912Y-116093377D01*
X154499954Y-116129141D01*
X154660858Y-116290045D01*
X154660861Y-116290047D01*
X154847266Y-116420568D01*
X154905865Y-116447893D01*
X154958305Y-116494065D01*
X154977457Y-116561258D01*
X154957242Y-116628139D01*
X154905867Y-116672657D01*
X154847513Y-116699868D01*
X154847512Y-116699868D01*
X154774526Y-116750973D01*
X154774526Y-116750974D01*
X155370590Y-117347037D01*
X155307007Y-117364075D01*
X155192993Y-117429901D01*
X155099901Y-117522993D01*
X155034075Y-117637007D01*
X155017037Y-117700590D01*
X154420974Y-117104526D01*
X154420973Y-117104526D01*
X154369868Y-117177512D01*
X154369866Y-117177516D01*
X154273734Y-117383673D01*
X154273730Y-117383682D01*
X154214860Y-117603389D01*
X154214858Y-117603400D01*
X154195034Y-117829997D01*
X154195034Y-117830002D01*
X154214858Y-118056599D01*
X154214860Y-118056610D01*
X154273730Y-118276317D01*
X154273735Y-118276331D01*
X154369863Y-118482478D01*
X154420974Y-118555472D01*
X155017037Y-117959409D01*
X155034075Y-118022993D01*
X155099901Y-118137007D01*
X155192993Y-118230099D01*
X155307007Y-118295925D01*
X155370590Y-118312962D01*
X154774526Y-118909025D01*
X154847513Y-118960132D01*
X154847521Y-118960136D01*
X154905864Y-118987342D01*
X154958304Y-119033514D01*
X154977456Y-119100707D01*
X154957241Y-119167589D01*
X154905866Y-119212105D01*
X154847272Y-119239428D01*
X154847265Y-119239432D01*
X154660858Y-119369954D01*
X154499954Y-119530858D01*
X154369432Y-119717265D01*
X154369431Y-119717267D01*
X154273261Y-119923502D01*
X154273258Y-119923511D01*
X154214366Y-120143302D01*
X154214364Y-120143313D01*
X154194532Y-120369998D01*
X154194532Y-120370001D01*
X154214364Y-120596686D01*
X154214366Y-120596697D01*
X154273258Y-120816488D01*
X154273261Y-120816497D01*
X154369431Y-121022732D01*
X154369432Y-121022734D01*
X154499954Y-121209141D01*
X154660858Y-121370045D01*
X154660861Y-121370047D01*
X154847266Y-121500568D01*
X155053504Y-121596739D01*
X155273308Y-121655635D01*
X155435230Y-121669801D01*
X155499998Y-121675468D01*
X155500000Y-121675468D01*
X155500002Y-121675468D01*
X155556673Y-121670509D01*
X155726692Y-121655635D01*
X155946496Y-121596739D01*
X156152734Y-121500568D01*
X156339139Y-121370047D01*
X156500047Y-121209139D01*
X156525088Y-121173377D01*
X156579665Y-121129752D01*
X156626663Y-121120500D01*
X157224920Y-121120500D01*
X157322462Y-121101096D01*
X157369913Y-121091658D01*
X157506495Y-121035084D01*
X157555729Y-121002186D01*
X157629416Y-120952952D01*
X160019951Y-118562416D01*
X160102084Y-118439495D01*
X160158658Y-118302913D01*
X160187500Y-118157918D01*
X160187500Y-118010083D01*
X160187500Y-100476082D01*
X160187500Y-100476079D01*
X160158659Y-100331092D01*
X160158658Y-100331091D01*
X160158658Y-100331087D01*
X160158656Y-100331082D01*
X160102087Y-100194511D01*
X160102080Y-100194498D01*
X160019952Y-100071585D01*
X160019951Y-100071584D01*
X159915416Y-99967049D01*
X157115568Y-97167201D01*
X157082083Y-97105878D01*
X157079778Y-97068078D01*
X157086643Y-96993999D01*
X157066115Y-96772464D01*
X157066114Y-96772462D01*
X157005230Y-96558476D01*
X157005229Y-96558472D01*
X157005224Y-96558461D01*
X156906061Y-96359316D01*
X156906056Y-96359308D01*
X156870459Y-96312171D01*
X156771981Y-96181764D01*
X156771978Y-96181761D01*
X156771974Y-96181757D01*
X156671962Y-96090584D01*
X156635680Y-96030873D01*
X156631500Y-95998947D01*
X156631500Y-92220700D01*
X156651185Y-92153661D01*
X156684375Y-92119126D01*
X156752401Y-92071495D01*
X156919495Y-91904401D01*
X156967127Y-91836376D01*
X157021704Y-91792751D01*
X157068701Y-91783500D01*
X157351920Y-91783500D01*
X157449462Y-91764096D01*
X157496913Y-91754658D01*
X157633495Y-91698084D01*
X157682729Y-91665186D01*
X157756416Y-91615952D01*
X160019952Y-89352416D01*
X160069186Y-89278729D01*
X160102084Y-89229495D01*
X160158658Y-89092913D01*
X160168096Y-89045462D01*
X160187500Y-88947920D01*
X160187500Y-79148079D01*
X160158659Y-79003092D01*
X160158658Y-79003091D01*
X160158658Y-79003087D01*
X160102085Y-78866508D01*
X160102085Y-78866507D01*
X160069186Y-78817270D01*
X160069185Y-78817268D01*
X160019956Y-78743589D01*
X160019952Y-78743584D01*
X157883421Y-76607052D01*
X157883414Y-76607046D01*
X157809729Y-76557812D01*
X157809729Y-76557813D01*
X157760491Y-76524913D01*
X157623917Y-76468343D01*
X157623907Y-76468340D01*
X157478920Y-76439500D01*
X157478918Y-76439500D01*
X137519082Y-76439500D01*
X137519080Y-76439500D01*
X137374092Y-76468340D01*
X137374086Y-76468342D01*
X137237508Y-76524914D01*
X137237496Y-76524921D01*
X137188269Y-76557813D01*
X137114588Y-76607044D01*
X137114580Y-76607050D01*
X134978050Y-78743580D01*
X134978044Y-78743588D01*
X134928812Y-78817268D01*
X134928813Y-78817269D01*
X134895921Y-78866496D01*
X134895914Y-78866508D01*
X134839342Y-79003086D01*
X134839340Y-79003092D01*
X134810500Y-79148079D01*
X134810500Y-79365336D01*
X134790815Y-79432375D01*
X134757625Y-79466910D01*
X134721863Y-79491951D01*
X134560951Y-79652862D01*
X134430432Y-79839265D01*
X134430431Y-79839267D01*
X134334261Y-80045502D01*
X134334258Y-80045511D01*
X134275366Y-80265302D01*
X134275364Y-80265313D01*
X134255532Y-80491998D01*
X134255532Y-80492001D01*
X134275364Y-80718686D01*
X134275366Y-80718697D01*
X134334258Y-80938488D01*
X134334261Y-80938497D01*
X134430431Y-81144732D01*
X134430432Y-81144734D01*
X134560954Y-81331141D01*
X134721861Y-81492048D01*
X134726006Y-81495526D01*
X134725092Y-81496614D01*
X134764534Y-81545954D01*
X134773788Y-81592957D01*
X134773788Y-85419648D01*
X134754103Y-85486687D01*
X134701299Y-85532442D01*
X134663043Y-85542938D01*
X134616804Y-85547909D01*
X134481959Y-85598202D01*
X134481952Y-85598206D01*
X134366743Y-85684452D01*
X134366740Y-85684455D01*
X134280494Y-85799664D01*
X134280490Y-85799671D01*
X134230196Y-85934517D01*
X134223789Y-85994116D01*
X134223789Y-85994123D01*
X134223788Y-85994135D01*
X134223788Y-87689870D01*
X134223789Y-87689876D01*
X134230196Y-87749483D01*
X134280490Y-87884328D01*
X134280494Y-87884335D01*
X134366740Y-87999544D01*
X134366743Y-87999547D01*
X134481952Y-88085793D01*
X134481959Y-88085797D01*
X134616805Y-88136091D01*
X134616804Y-88136091D01*
X134623732Y-88136835D01*
X134676415Y-88142500D01*
X136372160Y-88142499D01*
X136431771Y-88136091D01*
X136566619Y-88085796D01*
X136681834Y-87999546D01*
X136768084Y-87884331D01*
X136818379Y-87749483D01*
X136824788Y-87689873D01*
X136824787Y-87689845D01*
X136824966Y-87686547D01*
X136826471Y-87686627D01*
X136844400Y-87625326D01*
X136897156Y-87579514D01*
X136940753Y-87571981D01*
X137624288Y-86888446D01*
X137624288Y-86894661D01*
X137651547Y-86996394D01*
X137704208Y-87087606D01*
X137778682Y-87162080D01*
X137869894Y-87214741D01*
X137971627Y-87242000D01*
X137977841Y-87242000D01*
X137298814Y-87921025D01*
X137371801Y-87972132D01*
X137371809Y-87972136D01*
X137577956Y-88068264D01*
X137577970Y-88068269D01*
X137797677Y-88127139D01*
X137797688Y-88127141D01*
X138024286Y-88146966D01*
X138024290Y-88146966D01*
X138250887Y-88127141D01*
X138250898Y-88127139D01*
X138470605Y-88068269D01*
X138470619Y-88068264D01*
X138676766Y-87972136D01*
X138749759Y-87921024D01*
X138070735Y-87242000D01*
X138076949Y-87242000D01*
X138178682Y-87214741D01*
X138269894Y-87162080D01*
X138344368Y-87087606D01*
X138397029Y-86996394D01*
X138424288Y-86894661D01*
X138424288Y-86888447D01*
X139103312Y-87567471D01*
X139154424Y-87494478D01*
X139250552Y-87288331D01*
X139250557Y-87288317D01*
X139309427Y-87068610D01*
X139309429Y-87068599D01*
X139329254Y-86842002D01*
X139329254Y-86841997D01*
X139309429Y-86615400D01*
X139309427Y-86615389D01*
X139250557Y-86395682D01*
X139250552Y-86395668D01*
X139154424Y-86189521D01*
X139154420Y-86189513D01*
X139103313Y-86116526D01*
X138424288Y-86795551D01*
X138424288Y-86789339D01*
X138397029Y-86687606D01*
X138344368Y-86596394D01*
X138269894Y-86521920D01*
X138178682Y-86469259D01*
X138076949Y-86442000D01*
X138070733Y-86442000D01*
X138749760Y-85762974D01*
X138676766Y-85711863D01*
X138470619Y-85615735D01*
X138470605Y-85615730D01*
X138250898Y-85556860D01*
X138250887Y-85556858D01*
X138024290Y-85537034D01*
X138024286Y-85537034D01*
X137797688Y-85556858D01*
X137797677Y-85556860D01*
X137577970Y-85615730D01*
X137577961Y-85615734D01*
X137371804Y-85711866D01*
X137371800Y-85711868D01*
X137298814Y-85762973D01*
X137298814Y-85762974D01*
X137977841Y-86442000D01*
X137971627Y-86442000D01*
X137869894Y-86469259D01*
X137778682Y-86521920D01*
X137704208Y-86596394D01*
X137651547Y-86687606D01*
X137624288Y-86789339D01*
X137624288Y-86795552D01*
X136940087Y-86111351D01*
X136891093Y-86101505D01*
X136840910Y-86052889D01*
X136826269Y-85997366D01*
X136825188Y-85997423D01*
X136825142Y-85997429D01*
X136825141Y-85997426D01*
X136824964Y-85997436D01*
X136824787Y-85994135D01*
X136824787Y-85994128D01*
X136818379Y-85934517D01*
X136800721Y-85887174D01*
X136768085Y-85799671D01*
X136768081Y-85799664D01*
X136681835Y-85684455D01*
X136681832Y-85684452D01*
X136566623Y-85598206D01*
X136566616Y-85598202D01*
X136431771Y-85547908D01*
X136385531Y-85542937D01*
X136320981Y-85516199D01*
X136281133Y-85458806D01*
X136274788Y-85419648D01*
X136274788Y-81644368D01*
X136294473Y-81577329D01*
X136327666Y-81542792D01*
X136400139Y-81492047D01*
X136561047Y-81331139D01*
X136691568Y-81144734D01*
X136718893Y-81086134D01*
X136765065Y-81033695D01*
X136832258Y-81014543D01*
X136899139Y-81034758D01*
X136943657Y-81086134D01*
X136970864Y-81144480D01*
X137021974Y-81217472D01*
X137618037Y-80621409D01*
X137635075Y-80684993D01*
X137700901Y-80799007D01*
X137793993Y-80892099D01*
X137908007Y-80957925D01*
X137971590Y-80974962D01*
X137375526Y-81571025D01*
X137448513Y-81622132D01*
X137448521Y-81622136D01*
X137654668Y-81718264D01*
X137654682Y-81718269D01*
X137874389Y-81777139D01*
X137874400Y-81777141D01*
X138100998Y-81796966D01*
X138101002Y-81796966D01*
X138327599Y-81777141D01*
X138327610Y-81777139D01*
X138547317Y-81718269D01*
X138547331Y-81718264D01*
X138753478Y-81622136D01*
X138826471Y-81571024D01*
X138230409Y-80974962D01*
X138293993Y-80957925D01*
X138408007Y-80892099D01*
X138501099Y-80799007D01*
X138566925Y-80684993D01*
X138583962Y-80621409D01*
X139180024Y-81217471D01*
X139231133Y-81144482D01*
X139258341Y-81086135D01*
X139304513Y-81033696D01*
X139371707Y-81014543D01*
X139438588Y-81034758D01*
X139483105Y-81086132D01*
X139510432Y-81144734D01*
X139510433Y-81144735D01*
X139640954Y-81331141D01*
X139801858Y-81492045D01*
X139808383Y-81496614D01*
X139988266Y-81622568D01*
X140194504Y-81718739D01*
X140414308Y-81777635D01*
X140576230Y-81791801D01*
X140640998Y-81797468D01*
X140641000Y-81797468D01*
X140641002Y-81797468D01*
X140697673Y-81792509D01*
X140867692Y-81777635D01*
X141087496Y-81718739D01*
X141293734Y-81622568D01*
X141480139Y-81492047D01*
X141641047Y-81331139D01*
X141771568Y-81144734D01*
X141798618Y-81086724D01*
X141844790Y-81034285D01*
X141911983Y-81015133D01*
X141978865Y-81035348D01*
X142023382Y-81086725D01*
X142050429Y-81144728D01*
X142050432Y-81144734D01*
X142180954Y-81331141D01*
X142341859Y-81492046D01*
X142377621Y-81517086D01*
X142421247Y-81571662D01*
X142430500Y-81618662D01*
X142430500Y-101756770D01*
X142410815Y-101823809D01*
X142394181Y-101844451D01*
X134815451Y-109423181D01*
X134754128Y-109456666D01*
X134727770Y-109459500D01*
X134528663Y-109459500D01*
X134461624Y-109439815D01*
X134427088Y-109406623D01*
X134402045Y-109370858D01*
X134241141Y-109209954D01*
X134054734Y-109079432D01*
X134054728Y-109079429D01*
X133996725Y-109052382D01*
X133944285Y-109006210D01*
X133925133Y-108939017D01*
X133945348Y-108872135D01*
X133996725Y-108827618D01*
X134054734Y-108800568D01*
X134241139Y-108670047D01*
X134402047Y-108509139D01*
X134532568Y-108322734D01*
X134628739Y-108116496D01*
X134687635Y-107896692D01*
X134707468Y-107670000D01*
X134687635Y-107443308D01*
X134628739Y-107223504D01*
X134532568Y-107017266D01*
X134402047Y-106830861D01*
X134402045Y-106830858D01*
X134241141Y-106669954D01*
X134054734Y-106539432D01*
X134054728Y-106539429D01*
X133996725Y-106512382D01*
X133944285Y-106466210D01*
X133925133Y-106399017D01*
X133945348Y-106332135D01*
X133996725Y-106287618D01*
X134054734Y-106260568D01*
X134241139Y-106130047D01*
X134402047Y-105969139D01*
X134532568Y-105782734D01*
X134628739Y-105576496D01*
X134687635Y-105356692D01*
X134707468Y-105130000D01*
X134687635Y-104903308D01*
X134628739Y-104683504D01*
X134532568Y-104477266D01*
X134402047Y-104290861D01*
X134402045Y-104290858D01*
X134241141Y-104129954D01*
X134054734Y-103999432D01*
X134054728Y-103999429D01*
X133996725Y-103972382D01*
X133944285Y-103926210D01*
X133925133Y-103859017D01*
X133945348Y-103792135D01*
X133996725Y-103747618D01*
X134054734Y-103720568D01*
X134241139Y-103590047D01*
X134402047Y-103429139D01*
X134532568Y-103242734D01*
X134628739Y-103036496D01*
X134687635Y-102816692D01*
X134707468Y-102590000D01*
X134687635Y-102363308D01*
X134628739Y-102143504D01*
X134532568Y-101937266D01*
X134434839Y-101797693D01*
X134402045Y-101750858D01*
X134241141Y-101589954D01*
X134054734Y-101459432D01*
X134054732Y-101459431D01*
X133848497Y-101363261D01*
X133848488Y-101363258D01*
X133628697Y-101304366D01*
X133628693Y-101304365D01*
X133628692Y-101304365D01*
X133628691Y-101304364D01*
X133628686Y-101304364D01*
X133402002Y-101284532D01*
X133401998Y-101284532D01*
X133175313Y-101304364D01*
X133175302Y-101304366D01*
X132955511Y-101363258D01*
X132955502Y-101363261D01*
X132749267Y-101459431D01*
X132749265Y-101459432D01*
X132562858Y-101589954D01*
X132401954Y-101750858D01*
X132271432Y-101937265D01*
X132271431Y-101937267D01*
X132175261Y-102143502D01*
X132175258Y-102143511D01*
X132116366Y-102363302D01*
X132116364Y-102363313D01*
X132096532Y-102589998D01*
X125017500Y-102589998D01*
X125017500Y-57513902D01*
X132790500Y-57513902D01*
X132790500Y-57750097D01*
X132827446Y-57983368D01*
X132900433Y-58207996D01*
X133007657Y-58418433D01*
X133146483Y-58609510D01*
X133313490Y-58776517D01*
X133504567Y-58915343D01*
X133603991Y-58966002D01*
X133715003Y-59022566D01*
X133715005Y-59022566D01*
X133715008Y-59022568D01*
X133835412Y-59061689D01*
X133939631Y-59095553D01*
X134172903Y-59132500D01*
X134172908Y-59132500D01*
X134409097Y-59132500D01*
X134642368Y-59095553D01*
X134866992Y-59022568D01*
X135077433Y-58915343D01*
X135268510Y-58776517D01*
X135435517Y-58609510D01*
X135574343Y-58418433D01*
X135681568Y-58207992D01*
X135754553Y-57983368D01*
X135791500Y-57750097D01*
X135791500Y-57513902D01*
X153110500Y-57513902D01*
X153110500Y-57750097D01*
X153147446Y-57983368D01*
X153220433Y-58207996D01*
X153327657Y-58418433D01*
X153466483Y-58609510D01*
X153633490Y-58776517D01*
X153824567Y-58915343D01*
X153923991Y-58966002D01*
X154035003Y-59022566D01*
X154035005Y-59022566D01*
X154035008Y-59022568D01*
X154155412Y-59061689D01*
X154259631Y-59095553D01*
X154492903Y-59132500D01*
X154492908Y-59132500D01*
X154729097Y-59132500D01*
X154962368Y-59095553D01*
X155186992Y-59022568D01*
X155397433Y-58915343D01*
X155588510Y-58776517D01*
X155755517Y-58609510D01*
X155894343Y-58418433D01*
X156001568Y-58207992D01*
X156074553Y-57983368D01*
X156111500Y-57750097D01*
X156111500Y-57513902D01*
X156074553Y-57280631D01*
X156001566Y-57056003D01*
X155894342Y-56845566D01*
X155755517Y-56654490D01*
X155588510Y-56487483D01*
X155397433Y-56348657D01*
X155186996Y-56241433D01*
X154962368Y-56168446D01*
X154729097Y-56131500D01*
X154729092Y-56131500D01*
X154492908Y-56131500D01*
X154492903Y-56131500D01*
X154259631Y-56168446D01*
X154035003Y-56241433D01*
X153824566Y-56348657D01*
X153715550Y-56427862D01*
X153633490Y-56487483D01*
X153633488Y-56487485D01*
X153633487Y-56487485D01*
X153466485Y-56654487D01*
X153466485Y-56654488D01*
X153466483Y-56654490D01*
X153406862Y-56736550D01*
X153327657Y-56845566D01*
X153220433Y-57056003D01*
X153147446Y-57280631D01*
X153110500Y-57513902D01*
X135791500Y-57513902D01*
X135754553Y-57280631D01*
X135681566Y-57056003D01*
X135574342Y-56845566D01*
X135435517Y-56654490D01*
X135268510Y-56487483D01*
X135077433Y-56348657D01*
X134866996Y-56241433D01*
X134642368Y-56168446D01*
X134409097Y-56131500D01*
X134409092Y-56131500D01*
X134172908Y-56131500D01*
X134172903Y-56131500D01*
X133939631Y-56168446D01*
X133715003Y-56241433D01*
X133504566Y-56348657D01*
X133395550Y-56427862D01*
X133313490Y-56487483D01*
X133313488Y-56487485D01*
X133313487Y-56487485D01*
X133146485Y-56654487D01*
X133146485Y-56654488D01*
X133146483Y-56654490D01*
X133086862Y-56736550D01*
X133007657Y-56845566D01*
X132900433Y-57056003D01*
X132827446Y-57280631D01*
X132790500Y-57513902D01*
X125017500Y-57513902D01*
X125017500Y-53097051D01*
X125017649Y-53090967D01*
X125034052Y-52757072D01*
X125035245Y-52744962D01*
X125038072Y-52725902D01*
X126766500Y-52725902D01*
X126766500Y-52962097D01*
X126803446Y-53195368D01*
X126876433Y-53419996D01*
X126983657Y-53630433D01*
X127122483Y-53821510D01*
X127289490Y-53988517D01*
X127480567Y-54127343D01*
X127579991Y-54178002D01*
X127691003Y-54234566D01*
X127691005Y-54234566D01*
X127691008Y-54234568D01*
X127811412Y-54273689D01*
X127915631Y-54307553D01*
X128148903Y-54344500D01*
X128148908Y-54344500D01*
X128385097Y-54344500D01*
X128618368Y-54307553D01*
X128842992Y-54234568D01*
X129053433Y-54127343D01*
X129244510Y-53988517D01*
X129411517Y-53821510D01*
X129550343Y-53630433D01*
X129657568Y-53419992D01*
X129730553Y-53195368D01*
X129746608Y-53094000D01*
X129767500Y-52962097D01*
X129767500Y-52725902D01*
X159266500Y-52725902D01*
X159266500Y-52962097D01*
X159303446Y-53195368D01*
X159376433Y-53419996D01*
X159483657Y-53630433D01*
X159622483Y-53821510D01*
X159789490Y-53988517D01*
X159980567Y-54127343D01*
X160079991Y-54178002D01*
X160191003Y-54234566D01*
X160191005Y-54234566D01*
X160191008Y-54234568D01*
X160311412Y-54273689D01*
X160415631Y-54307553D01*
X160648903Y-54344500D01*
X160648908Y-54344500D01*
X160885097Y-54344500D01*
X161118368Y-54307553D01*
X161342992Y-54234568D01*
X161553433Y-54127343D01*
X161744510Y-53988517D01*
X161911517Y-53821510D01*
X162050343Y-53630433D01*
X162157568Y-53419992D01*
X162230553Y-53195368D01*
X162246608Y-53094000D01*
X162267500Y-52962097D01*
X162267500Y-52725902D01*
X162230553Y-52492631D01*
X162157566Y-52268003D01*
X162050342Y-52057566D01*
X161911517Y-51866490D01*
X161744510Y-51699483D01*
X161553433Y-51560657D01*
X161342996Y-51453433D01*
X161118368Y-51380446D01*
X160885097Y-51343500D01*
X160885092Y-51343500D01*
X160648908Y-51343500D01*
X160648903Y-51343500D01*
X160415631Y-51380446D01*
X160191003Y-51453433D01*
X159980566Y-51560657D01*
X159871550Y-51639862D01*
X159789490Y-51699483D01*
X159789488Y-51699485D01*
X159789487Y-51699485D01*
X159622485Y-51866487D01*
X159622485Y-51866488D01*
X159622483Y-51866490D01*
X159562862Y-51948550D01*
X159483657Y-52057566D01*
X159376433Y-52268003D01*
X159303446Y-52492631D01*
X159266500Y-52725902D01*
X129767500Y-52725902D01*
X129730553Y-52492631D01*
X129657566Y-52268003D01*
X129550342Y-52057566D01*
X129411517Y-51866490D01*
X129244510Y-51699483D01*
X129053433Y-51560657D01*
X128842996Y-51453433D01*
X128618368Y-51380446D01*
X128385097Y-51343500D01*
X128385092Y-51343500D01*
X128148908Y-51343500D01*
X128148903Y-51343500D01*
X127915631Y-51380446D01*
X127691003Y-51453433D01*
X127480566Y-51560657D01*
X127371550Y-51639862D01*
X127289490Y-51699483D01*
X127289488Y-51699485D01*
X127289487Y-51699485D01*
X127122485Y-51866487D01*
X127122485Y-51866488D01*
X127122483Y-51866490D01*
X127062862Y-51948550D01*
X126983657Y-52057566D01*
X126876433Y-52268003D01*
X126803446Y-52492631D01*
X126766500Y-52725902D01*
X125038072Y-52725902D01*
X125083849Y-52417296D01*
X125086218Y-52405385D01*
X125166710Y-52084043D01*
X125170240Y-52072411D01*
X125243920Y-51866490D01*
X125281835Y-51760525D01*
X125286476Y-51749318D01*
X125428124Y-51449828D01*
X125433840Y-51439136D01*
X125604145Y-51154998D01*
X125610888Y-51144905D01*
X125808232Y-50878818D01*
X125815935Y-50869433D01*
X126038405Y-50623975D01*
X126046975Y-50615405D01*
X126292433Y-50392935D01*
X126301818Y-50385232D01*
X126567905Y-50187888D01*
X126577998Y-50181145D01*
X126862136Y-50010840D01*
X126872828Y-50005124D01*
X127172318Y-49863476D01*
X127183525Y-49858835D01*
X127495412Y-49747239D01*
X127507043Y-49743710D01*
X127828385Y-49663218D01*
X127840296Y-49660849D01*
X128167962Y-49612244D01*
X128180068Y-49611052D01*
X128513967Y-49594648D01*
X128520051Y-49594500D01*
X128582892Y-49594500D01*
X160451108Y-49594500D01*
X160513949Y-49594500D01*
X160520032Y-49594648D01*
G37*
%TD.AperFunction*%
%TD*%
M02*
