%TF.GenerationSoftware,KiCad,Pcbnew,9.0.1-9.0.1-0~ubuntu24.04.1*%
%TF.CreationDate,2025-04-10T17:48:27-04:00*%
%TF.ProjectId,temperature_sensor,74656d70-6572-4617-9475-72655f73656e,rev?*%
%TF.SameCoordinates,Original*%
%TF.FileFunction,Copper,L2,Bot*%
%TF.FilePolarity,Positive*%
%FSLAX46Y46*%
G04 Gerber Fmt 4.6, Leading zero omitted, Abs format (unit mm)*
G04 Created by KiCad (PCBNEW 9.0.1-9.0.1-0~ubuntu24.04.1) date 2025-04-10 17:48:27*
%MOMM*%
%LPD*%
G01*
G04 APERTURE LIST*
%TA.AperFunction,ComponentPad*%
%ADD10C,1.400000*%
%TD*%
%TA.AperFunction,ComponentPad*%
%ADD11O,1.400000X1.400000*%
%TD*%
%TA.AperFunction,ComponentPad*%
%ADD12R,1.700000X1.700000*%
%TD*%
%TA.AperFunction,ComponentPad*%
%ADD13O,1.700000X1.700000*%
%TD*%
%TA.AperFunction,ComponentPad*%
%ADD14C,1.600000*%
%TD*%
%TA.AperFunction,ComponentPad*%
%ADD15R,1.600000X1.600000*%
%TD*%
%TA.AperFunction,ViaPad*%
%ADD16C,1.600000*%
%TD*%
%TA.AperFunction,Conductor*%
%ADD17C,0.500000*%
%TD*%
G04 APERTURE END LIST*
D10*
%TO.P,R101,1*%
%TO.N,+5V*%
X160909000Y-96520000D03*
D11*
%TO.P,R101,2*%
%TO.N,/DALLAS_TEMP*%
X153289000Y-96520000D03*
%TD*%
D12*
%TO.P,U103,1,GND*%
%TO.N,GND*%
X155881000Y-85953000D03*
D13*
%TO.P,U103,2,DQ*%
%TO.N,/DALLAS_TEMP*%
X155881000Y-88493000D03*
%TO.P,U103,3,V_{DD}*%
%TO.N,+5V*%
X155881000Y-91033000D03*
%TD*%
D14*
%TO.P,U102,1,VIN*%
%TO.N,+5V*%
X135561000Y-80492000D03*
%TO.P,U102,2,GND*%
%TO.N,GND*%
X138101000Y-80492000D03*
%TO.P,U102,3,3V3*%
%TO.N,unconnected-(U102-3V3-Pad3)*%
X140641000Y-80492000D03*
%TO.P,U102,4,CLK*%
%TO.N,/CLK*%
X143181000Y-80492000D03*
%TO.P,U102,5,SDO*%
%TO.N,/SDO*%
X145721000Y-80492000D03*
%TO.P,U102,6,SDI*%
%TO.N,/SDI*%
X148261000Y-80492000D03*
%TO.P,U102,7,CS*%
%TO.N,/CS*%
X150801000Y-80492000D03*
%TO.P,U102,8,NC*%
%TO.N,unconnected-(U102-NC-Pad8)*%
X153341000Y-80492000D03*
%TD*%
D15*
%TO.P,C101,1*%
%TO.N,+5V*%
X135524288Y-86842000D03*
D14*
%TO.P,C101,2*%
%TO.N,GND*%
X138024288Y-86842000D03*
%TD*%
%TO.P,U101,1,3V3*%
%TO.N,+3V3*%
X133402000Y-120370000D03*
%TO.P,U101,2,D8*%
%TO.N,unconnected-(U101-D8-Pad2)*%
X133402000Y-117830000D03*
%TO.P,U101,3,D7*%
%TO.N,/SDI*%
X133402000Y-115290000D03*
%TO.P,U101,4,D6*%
%TO.N,/SDO*%
X133402000Y-112750000D03*
%TO.P,U101,5,D5*%
%TO.N,/CLK*%
X133402000Y-110210000D03*
%TO.P,U101,6,D0*%
%TO.N,unconnected-(U101-D0-Pad6)*%
X133402000Y-107670000D03*
%TO.P,U101,7,A0*%
%TO.N,unconnected-(U101-A0-Pad7)*%
X133402000Y-105130000D03*
%TO.P,U101,8,RST*%
%TO.N,unconnected-(U101-RST-Pad8)*%
X133402000Y-102590000D03*
%TO.P,U101,9,5V*%
%TO.N,+5V*%
X155500000Y-120370000D03*
%TO.P,U101,10,GND*%
%TO.N,GND*%
X155500000Y-117830000D03*
%TO.P,U101,11,D4*%
%TO.N,/DALLAS_TEMP*%
X155500000Y-115290000D03*
%TO.P,U101,12,D3*%
%TO.N,unconnected-(U101-D3-Pad12)*%
X155500000Y-112750000D03*
%TO.P,U101,13,D2*%
%TO.N,/CS*%
X155500000Y-110210000D03*
%TO.P,U101,14,D1*%
%TO.N,unconnected-(U101-D1-Pad14)*%
X155500000Y-107670000D03*
%TO.P,U101,15,RX*%
%TO.N,unconnected-(U101-RX-Pad15)*%
X155500000Y-105130000D03*
%TO.P,U101,16,TX*%
%TO.N,unconnected-(U101-TX-Pad16)*%
X155500000Y-102590000D03*
%TD*%
D16*
%TO.N,GND*%
X162000000Y-75200000D03*
X138000000Y-96040979D03*
X144500000Y-62100000D03*
X162000000Y-122100000D03*
X152750000Y-115850000D03*
X127000000Y-109000000D03*
X127000000Y-62100000D03*
X127000000Y-75150000D03*
X162000000Y-62100000D03*
X134500000Y-129600000D03*
X154500000Y-129600000D03*
X127000000Y-122100000D03*
X144500000Y-122100000D03*
X162941000Y-108998000D03*
X157480000Y-94107000D03*
X140850000Y-107750000D03*
X144500000Y-111000000D03*
%TD*%
D17*
%TO.N,/DALLAS_TEMP*%
X155881000Y-88493000D02*
X154458000Y-88493000D01*
X154458000Y-88493000D02*
X153289000Y-89662000D01*
X153289000Y-89662000D02*
X153289000Y-96520000D01*
X153289000Y-96520000D02*
X158623000Y-101854000D01*
X158623000Y-101854000D02*
X158623000Y-113157000D01*
X158623000Y-113157000D02*
X156490000Y-115290000D01*
X156490000Y-115290000D02*
X155500000Y-115290000D01*
%TO.N,+5V*%
X160909000Y-96520000D02*
X160909000Y-92964000D01*
X159284000Y-91033000D02*
X160909000Y-92658000D01*
X160909000Y-92658000D02*
X160909000Y-92964000D01*
X155881000Y-91033000D02*
X159284000Y-91033000D01*
X159284000Y-91033000D02*
X160909000Y-89408000D01*
X160909000Y-89408000D02*
X160909000Y-89281000D01*
X160909000Y-89281000D02*
X160909000Y-79248000D01*
X160909000Y-79248000D02*
X158851000Y-77190000D01*
X158851000Y-77190000D02*
X137593000Y-77190000D01*
X137593000Y-77190000D02*
X135561000Y-79222000D01*
X135561000Y-79222000D02*
X135561000Y-80492000D01*
X155500000Y-120370000D02*
X158522000Y-120370000D01*
X158522000Y-120370000D02*
X160909000Y-117983000D01*
X160909000Y-117983000D02*
X160909000Y-96520000D01*
%TO.N,/CS*%
X155500000Y-110210000D02*
X153263000Y-110210000D01*
X153263000Y-110210000D02*
X150749000Y-107696000D01*
X150749000Y-107696000D02*
X150749000Y-80544000D01*
X150749000Y-80544000D02*
X150801000Y-80492000D01*
%TO.N,+5V*%
X135561000Y-80492000D02*
X135561000Y-80746000D01*
X135561000Y-80746000D02*
X135524288Y-80782712D01*
X135524288Y-80782712D02*
X135524288Y-86842000D01*
%TO.N,/CLK*%
X143181000Y-102119000D02*
X135090000Y-110210000D01*
X143181000Y-80492000D02*
X143181000Y-102119000D01*
X135090000Y-110210000D02*
X133402000Y-110210000D01*
%TO.N,/SDI*%
X144510000Y-115290000D02*
X133402000Y-115290000D01*
X148261000Y-80492000D02*
X148261000Y-111539000D01*
X148261000Y-111539000D02*
X144510000Y-115290000D01*
%TO.N,/SDO*%
X139350000Y-112750000D02*
X133402000Y-112750000D01*
X145721000Y-106379000D02*
X139350000Y-112750000D01*
X145721000Y-80492000D02*
X145721000Y-106379000D01*
%TD*%
%TA.AperFunction,Conductor*%
%TO.N,GND*%
G36*
X154790322Y-89324556D02*
G01*
X154846256Y-89366427D01*
X154847304Y-89367848D01*
X154850895Y-89372791D01*
X155001213Y-89523109D01*
X155173182Y-89648050D01*
X155181946Y-89652516D01*
X155232742Y-89700491D01*
X155249536Y-89768312D01*
X155226998Y-89834447D01*
X155181946Y-89873484D01*
X155173182Y-89877949D01*
X155001213Y-90002890D01*
X154850890Y-90153213D01*
X154725951Y-90325179D01*
X154629444Y-90514585D01*
X154563753Y-90716760D01*
X154530500Y-90926713D01*
X154530500Y-91139286D01*
X154563753Y-91349239D01*
X154629444Y-91551414D01*
X154725951Y-91740820D01*
X154850890Y-91912786D01*
X155001213Y-92063109D01*
X155173179Y-92188048D01*
X155173181Y-92188049D01*
X155173184Y-92188051D01*
X155362588Y-92284557D01*
X155564757Y-92350246D01*
X155774713Y-92383500D01*
X155774714Y-92383500D01*
X155987286Y-92383500D01*
X155987287Y-92383500D01*
X156197243Y-92350246D01*
X156399412Y-92284557D01*
X156588816Y-92188051D01*
X156610789Y-92172086D01*
X156760786Y-92063109D01*
X156760788Y-92063106D01*
X156760792Y-92063104D01*
X156911104Y-91912792D01*
X156911108Y-91912786D01*
X156967903Y-91834615D01*
X157023233Y-91791949D01*
X157068221Y-91783500D01*
X158921770Y-91783500D01*
X158988809Y-91803185D01*
X159009451Y-91819819D01*
X160122181Y-92932549D01*
X160155666Y-92993872D01*
X160158500Y-93020230D01*
X160158500Y-95521374D01*
X160138815Y-95588413D01*
X160122182Y-95609055D01*
X159993309Y-95737928D01*
X159882240Y-95890800D01*
X159796454Y-96059163D01*
X159738059Y-96238881D01*
X159708500Y-96425513D01*
X159708500Y-96614486D01*
X159738059Y-96801118D01*
X159796454Y-96980836D01*
X159882240Y-97149199D01*
X159993310Y-97302073D01*
X159993312Y-97302075D01*
X160122181Y-97430944D01*
X160155666Y-97492267D01*
X160158500Y-97518625D01*
X160158500Y-117620770D01*
X160138815Y-117687809D01*
X160122181Y-117708451D01*
X158247451Y-119583181D01*
X158186128Y-119616666D01*
X158159770Y-119619500D01*
X156625418Y-119619500D01*
X156558379Y-119599815D01*
X156525100Y-119568385D01*
X156491971Y-119522787D01*
X156491967Y-119522782D01*
X156347213Y-119378028D01*
X156181611Y-119257713D01*
X156088369Y-119210203D01*
X156037574Y-119162229D01*
X156020779Y-119094407D01*
X156043317Y-119028273D01*
X156088371Y-118989234D01*
X156181346Y-118941861D01*
X156181347Y-118941861D01*
X156225921Y-118909474D01*
X155629409Y-118312962D01*
X155692993Y-118295925D01*
X155807007Y-118230099D01*
X155900099Y-118137007D01*
X155965925Y-118022993D01*
X155982962Y-117959409D01*
X156579474Y-118555921D01*
X156611859Y-118511349D01*
X156704755Y-118329031D01*
X156767990Y-118134417D01*
X156800000Y-117932317D01*
X156800000Y-117727682D01*
X156767990Y-117525582D01*
X156704755Y-117330968D01*
X156611859Y-117148650D01*
X156579474Y-117104077D01*
X156579474Y-117104076D01*
X155982962Y-117700589D01*
X155965925Y-117637007D01*
X155900099Y-117522993D01*
X155807007Y-117429901D01*
X155692993Y-117364075D01*
X155629408Y-117347037D01*
X156225922Y-116750524D01*
X156225921Y-116750523D01*
X156181359Y-116718147D01*
X156181350Y-116718141D01*
X156088369Y-116670765D01*
X156037573Y-116622790D01*
X156020778Y-116554969D01*
X156043315Y-116488835D01*
X156088370Y-116449795D01*
X156088920Y-116449515D01*
X156181610Y-116402287D01*
X156231144Y-116366298D01*
X156347213Y-116281971D01*
X156347215Y-116281968D01*
X156347219Y-116281966D01*
X156491966Y-116137219D01*
X156533424Y-116080155D01*
X156588753Y-116037490D01*
X156609551Y-116031423D01*
X156658614Y-116021663D01*
X156708913Y-116011658D01*
X156845495Y-115955084D01*
X156894729Y-115922186D01*
X156968416Y-115872952D01*
X159205952Y-113635415D01*
X159261945Y-113551615D01*
X159278299Y-113527140D01*
X159281560Y-113522257D01*
X159288084Y-113512495D01*
X159339742Y-113387782D01*
X159344659Y-113375912D01*
X159373500Y-113230917D01*
X159373500Y-113083082D01*
X159373500Y-101780082D01*
X159373500Y-101780079D01*
X159344659Y-101635092D01*
X159344658Y-101635091D01*
X159344658Y-101635087D01*
X159329308Y-101598028D01*
X159288087Y-101498511D01*
X159288080Y-101498498D01*
X159205952Y-101375585D01*
X159205951Y-101375584D01*
X159101416Y-101271049D01*
X154525819Y-96695452D01*
X154492334Y-96634129D01*
X154489500Y-96607771D01*
X154489500Y-96425513D01*
X154459940Y-96238881D01*
X154401545Y-96059163D01*
X154315759Y-95890800D01*
X154204690Y-95737927D01*
X154075818Y-95609055D01*
X154042334Y-95547732D01*
X154039500Y-95521374D01*
X154039500Y-90024228D01*
X154059185Y-89957189D01*
X154075815Y-89936551D01*
X154659310Y-89353055D01*
X154720631Y-89319572D01*
X154790322Y-89324556D01*
G37*
%TD.AperFunction*%
%TA.AperFunction,Conductor*%
G36*
X147062445Y-81035865D02*
G01*
X147101485Y-81080919D01*
X147148715Y-81173614D01*
X147269028Y-81339213D01*
X147269034Y-81339219D01*
X147413781Y-81483966D01*
X147459384Y-81517098D01*
X147502050Y-81572425D01*
X147510500Y-81617416D01*
X147510500Y-111176770D01*
X147490815Y-111243809D01*
X147474181Y-111264451D01*
X144235451Y-114503181D01*
X144174128Y-114536666D01*
X144147770Y-114539500D01*
X134527418Y-114539500D01*
X134460379Y-114519815D01*
X134427100Y-114488385D01*
X134393971Y-114442787D01*
X134393967Y-114442782D01*
X134249213Y-114298028D01*
X134083614Y-114177715D01*
X134077006Y-114174348D01*
X133990917Y-114130483D01*
X133940123Y-114082511D01*
X133923328Y-114014690D01*
X133945865Y-113948555D01*
X133990917Y-113909516D01*
X134083610Y-113862287D01*
X134104770Y-113846913D01*
X134249213Y-113741971D01*
X134249215Y-113741968D01*
X134249219Y-113741966D01*
X134393966Y-113597219D01*
X134396650Y-113593524D01*
X134427100Y-113551615D01*
X134482429Y-113508949D01*
X134527418Y-113500500D01*
X139423920Y-113500500D01*
X139521462Y-113481096D01*
X139568913Y-113471658D01*
X139705495Y-113415084D01*
X139764120Y-113375912D01*
X139828416Y-113332952D01*
X146303952Y-106857415D01*
X146353428Y-106783368D01*
X146386084Y-106734495D01*
X146413006Y-106669500D01*
X146442659Y-106597912D01*
X146471500Y-106452917D01*
X146471500Y-106305082D01*
X146471500Y-81617416D01*
X146491185Y-81550377D01*
X146522613Y-81517099D01*
X146568219Y-81483966D01*
X146712966Y-81339219D01*
X146712968Y-81339215D01*
X146712971Y-81339213D01*
X146833284Y-81173614D01*
X146833286Y-81173611D01*
X146833287Y-81173610D01*
X146880516Y-81080917D01*
X146928489Y-81030123D01*
X146996310Y-81013328D01*
X147062445Y-81035865D01*
G37*
%TD.AperFunction*%
%TA.AperFunction,Conductor*%
G36*
X158555809Y-77960185D02*
G01*
X158576451Y-77976819D01*
X160122181Y-79522548D01*
X160155666Y-79583871D01*
X160158500Y-79610229D01*
X160158500Y-89045770D01*
X160138815Y-89112809D01*
X160122181Y-89133451D01*
X159009451Y-90246181D01*
X158948128Y-90279666D01*
X158921770Y-90282500D01*
X157068221Y-90282500D01*
X157001182Y-90262815D01*
X156967903Y-90231385D01*
X156911107Y-90153211D01*
X156760786Y-90002890D01*
X156588820Y-89877951D01*
X156588115Y-89877591D01*
X156580054Y-89873485D01*
X156529259Y-89825512D01*
X156512463Y-89757692D01*
X156534999Y-89691556D01*
X156580054Y-89652515D01*
X156588816Y-89648051D01*
X156671361Y-89588079D01*
X156760786Y-89523109D01*
X156760788Y-89523106D01*
X156760792Y-89523104D01*
X156911104Y-89372792D01*
X156911106Y-89372788D01*
X156911109Y-89372786D01*
X157020086Y-89222789D01*
X157036051Y-89200816D01*
X157132557Y-89011412D01*
X157198246Y-88809243D01*
X157231500Y-88599287D01*
X157231500Y-88386713D01*
X157198246Y-88176757D01*
X157132557Y-87974588D01*
X157036051Y-87785184D01*
X157036049Y-87785181D01*
X157036048Y-87785179D01*
X156911109Y-87613213D01*
X156797181Y-87499285D01*
X156763696Y-87437962D01*
X156768680Y-87368270D01*
X156810552Y-87312337D01*
X156841529Y-87295422D01*
X156973086Y-87246354D01*
X156973093Y-87246350D01*
X157088187Y-87160190D01*
X157088190Y-87160187D01*
X157174350Y-87045093D01*
X157174354Y-87045086D01*
X157224596Y-86910379D01*
X157224598Y-86910372D01*
X157230999Y-86850844D01*
X157231000Y-86850827D01*
X157231000Y-86203000D01*
X156314012Y-86203000D01*
X156346925Y-86145993D01*
X156381000Y-86018826D01*
X156381000Y-85887174D01*
X156346925Y-85760007D01*
X156314012Y-85703000D01*
X157231000Y-85703000D01*
X157231000Y-85055172D01*
X157230999Y-85055155D01*
X157224598Y-84995627D01*
X157224596Y-84995620D01*
X157174354Y-84860913D01*
X157174350Y-84860906D01*
X157088190Y-84745812D01*
X157088187Y-84745809D01*
X156973093Y-84659649D01*
X156973086Y-84659645D01*
X156838379Y-84609403D01*
X156838372Y-84609401D01*
X156778844Y-84603000D01*
X156131000Y-84603000D01*
X156131000Y-85519988D01*
X156073993Y-85487075D01*
X155946826Y-85453000D01*
X155815174Y-85453000D01*
X155688007Y-85487075D01*
X155631000Y-85519988D01*
X155631000Y-84603000D01*
X154983155Y-84603000D01*
X154923627Y-84609401D01*
X154923620Y-84609403D01*
X154788913Y-84659645D01*
X154788906Y-84659649D01*
X154673812Y-84745809D01*
X154673809Y-84745812D01*
X154587649Y-84860906D01*
X154587645Y-84860913D01*
X154537403Y-84995620D01*
X154537401Y-84995627D01*
X154531000Y-85055155D01*
X154531000Y-85703000D01*
X155447988Y-85703000D01*
X155415075Y-85760007D01*
X155381000Y-85887174D01*
X155381000Y-86018826D01*
X155415075Y-86145993D01*
X155447988Y-86203000D01*
X154531000Y-86203000D01*
X154531000Y-86850844D01*
X154537401Y-86910372D01*
X154537403Y-86910379D01*
X154587645Y-87045086D01*
X154587649Y-87045093D01*
X154673809Y-87160187D01*
X154673812Y-87160190D01*
X154788906Y-87246350D01*
X154788913Y-87246354D01*
X154920470Y-87295422D01*
X154976404Y-87337293D01*
X155000821Y-87402758D01*
X154985969Y-87471031D01*
X154964819Y-87499285D01*
X154850892Y-87613212D01*
X154794097Y-87691385D01*
X154738767Y-87734051D01*
X154693779Y-87742500D01*
X154384076Y-87742500D01*
X154355242Y-87748234D01*
X154355243Y-87748235D01*
X154239092Y-87771339D01*
X154239086Y-87771341D01*
X154205668Y-87785184D01*
X154102508Y-87827914D01*
X154061645Y-87855218D01*
X153979582Y-87910049D01*
X153979579Y-87910052D01*
X152706052Y-89183578D01*
X152706049Y-89183581D01*
X152666013Y-89243499D01*
X152666014Y-89243500D01*
X152623914Y-89306508D01*
X152567343Y-89443082D01*
X152567340Y-89443092D01*
X152538500Y-89588079D01*
X152538500Y-95521374D01*
X152518815Y-95588413D01*
X152502182Y-95609055D01*
X152373309Y-95737928D01*
X152262240Y-95890800D01*
X152176454Y-96059163D01*
X152118059Y-96238881D01*
X152088500Y-96425513D01*
X152088500Y-96614486D01*
X152118059Y-96801118D01*
X152176454Y-96980836D01*
X152262240Y-97149199D01*
X152373310Y-97302073D01*
X152506927Y-97435690D01*
X152659801Y-97546760D01*
X152739347Y-97587290D01*
X152828163Y-97632545D01*
X152828165Y-97632545D01*
X152828168Y-97632547D01*
X152924497Y-97663846D01*
X153007881Y-97690940D01*
X153194514Y-97720500D01*
X153376771Y-97720500D01*
X153443810Y-97740185D01*
X153464452Y-97756819D01*
X157836181Y-102128548D01*
X157869666Y-102189871D01*
X157872500Y-102216229D01*
X157872500Y-112794769D01*
X157852815Y-112861808D01*
X157836181Y-112882450D01*
X156464606Y-114254024D01*
X156403283Y-114287509D01*
X156333591Y-114282525D01*
X156304041Y-114266662D01*
X156181612Y-114177714D01*
X156178186Y-114175968D01*
X156088917Y-114130483D01*
X156038123Y-114082511D01*
X156021328Y-114014690D01*
X156043865Y-113948555D01*
X156088917Y-113909516D01*
X156181610Y-113862287D01*
X156202770Y-113846913D01*
X156347213Y-113741971D01*
X156347215Y-113741968D01*
X156347219Y-113741966D01*
X156491966Y-113597219D01*
X156491968Y-113597215D01*
X156491971Y-113597213D01*
X156553521Y-113512495D01*
X156612287Y-113431610D01*
X156705220Y-113249219D01*
X156768477Y-113054534D01*
X156800500Y-112852352D01*
X156800500Y-112647648D01*
X156768477Y-112445466D01*
X156705220Y-112250781D01*
X156705218Y-112250778D01*
X156705218Y-112250776D01*
X156671503Y-112184607D01*
X156612287Y-112068390D01*
X156491970Y-111902786D01*
X156491968Y-111902783D01*
X156347213Y-111758028D01*
X156181614Y-111637715D01*
X156132947Y-111612918D01*
X156088917Y-111590483D01*
X156038123Y-111542511D01*
X156021328Y-111474690D01*
X156043865Y-111408555D01*
X156088917Y-111369516D01*
X156181610Y-111322287D01*
X156289627Y-111243809D01*
X156347213Y-111201971D01*
X156347215Y-111201968D01*
X156347219Y-111201966D01*
X156491966Y-111057219D01*
X156491968Y-111057215D01*
X156491971Y-111057213D01*
X156562236Y-110960500D01*
X156612287Y-110891610D01*
X156705220Y-110709219D01*
X156768477Y-110514534D01*
X156800500Y-110312352D01*
X156800500Y-110107648D01*
X156768477Y-109905466D01*
X156705220Y-109710781D01*
X156705218Y-109710778D01*
X156705218Y-109710776D01*
X156671503Y-109644607D01*
X156612287Y-109528390D01*
X156558587Y-109454477D01*
X156491971Y-109362786D01*
X156347213Y-109218028D01*
X156181614Y-109097715D01*
X156175006Y-109094348D01*
X156088917Y-109050483D01*
X156038123Y-109002511D01*
X156021328Y-108934690D01*
X156043865Y-108868555D01*
X156088917Y-108829516D01*
X156181610Y-108782287D01*
X156202770Y-108766913D01*
X156347213Y-108661971D01*
X156347215Y-108661968D01*
X156347219Y-108661966D01*
X156491966Y-108517219D01*
X156491968Y-108517215D01*
X156491971Y-108517213D01*
X156544732Y-108444590D01*
X156612287Y-108351610D01*
X156705220Y-108169219D01*
X156768477Y-107974534D01*
X156800500Y-107772352D01*
X156800500Y-107567648D01*
X156768477Y-107365466D01*
X156758178Y-107333770D01*
X156705218Y-107170776D01*
X156671503Y-107104607D01*
X156612287Y-106988390D01*
X156604556Y-106977749D01*
X156491971Y-106822786D01*
X156347213Y-106678028D01*
X156181614Y-106557715D01*
X156175006Y-106554348D01*
X156088917Y-106510483D01*
X156038123Y-106462511D01*
X156021328Y-106394690D01*
X156043865Y-106328555D01*
X156088917Y-106289516D01*
X156181610Y-106242287D01*
X156202770Y-106226913D01*
X156347213Y-106121971D01*
X156347215Y-106121968D01*
X156347219Y-106121966D01*
X156491966Y-105977219D01*
X156491968Y-105977215D01*
X156491971Y-105977213D01*
X156544732Y-105904590D01*
X156612287Y-105811610D01*
X156705220Y-105629219D01*
X156768477Y-105434534D01*
X156800500Y-105232352D01*
X156800500Y-105027648D01*
X156768477Y-104825466D01*
X156705220Y-104630781D01*
X156705218Y-104630778D01*
X156705218Y-104630776D01*
X156671503Y-104564607D01*
X156612287Y-104448390D01*
X156604556Y-104437749D01*
X156491971Y-104282786D01*
X156347213Y-104138028D01*
X156181614Y-104017715D01*
X156175006Y-104014348D01*
X156088917Y-103970483D01*
X156038123Y-103922511D01*
X156021328Y-103854690D01*
X156043865Y-103788555D01*
X156088917Y-103749516D01*
X156181610Y-103702287D01*
X156202770Y-103686913D01*
X156347213Y-103581971D01*
X156347215Y-103581968D01*
X156347219Y-103581966D01*
X156491966Y-103437219D01*
X156491968Y-103437215D01*
X156491971Y-103437213D01*
X156544732Y-103364590D01*
X156612287Y-103271610D01*
X156705220Y-103089219D01*
X156768477Y-102894534D01*
X156800500Y-102692352D01*
X156800500Y-102487648D01*
X156768477Y-102285466D01*
X156705220Y-102090781D01*
X156705218Y-102090778D01*
X156705218Y-102090776D01*
X156671503Y-102024607D01*
X156612287Y-101908390D01*
X156550836Y-101823809D01*
X156491971Y-101742786D01*
X156347213Y-101598028D01*
X156181613Y-101477715D01*
X156181612Y-101477714D01*
X156181610Y-101477713D01*
X156124653Y-101448691D01*
X155999223Y-101384781D01*
X155804534Y-101321522D01*
X155629995Y-101293878D01*
X155602352Y-101289500D01*
X155397648Y-101289500D01*
X155373329Y-101293351D01*
X155195465Y-101321522D01*
X155000776Y-101384781D01*
X154818386Y-101477715D01*
X154652786Y-101598028D01*
X154508028Y-101742786D01*
X154387715Y-101908386D01*
X154294781Y-102090776D01*
X154231522Y-102285465D01*
X154199500Y-102487648D01*
X154199500Y-102692351D01*
X154231522Y-102894534D01*
X154294781Y-103089223D01*
X154387715Y-103271613D01*
X154508028Y-103437213D01*
X154652786Y-103581971D01*
X154807749Y-103694556D01*
X154818390Y-103702287D01*
X154909840Y-103748883D01*
X154911080Y-103749515D01*
X154961876Y-103797490D01*
X154978671Y-103865311D01*
X154956134Y-103931446D01*
X154911080Y-103970485D01*
X154818386Y-104017715D01*
X154652786Y-104138028D01*
X154508028Y-104282786D01*
X154387715Y-104448386D01*
X154294781Y-104630776D01*
X154231522Y-104825465D01*
X154199500Y-105027648D01*
X154199500Y-105232351D01*
X154231522Y-105434534D01*
X154294781Y-105629223D01*
X154387715Y-105811613D01*
X154508028Y-105977213D01*
X154652786Y-106121971D01*
X154807749Y-106234556D01*
X154818390Y-106242287D01*
X154909840Y-106288883D01*
X154911080Y-106289515D01*
X154961876Y-106337490D01*
X154978671Y-106405311D01*
X154956134Y-106471446D01*
X154911080Y-106510485D01*
X154818386Y-106557715D01*
X154652786Y-106678028D01*
X154508028Y-106822786D01*
X154387715Y-106988386D01*
X154294781Y-107170776D01*
X154231522Y-107365465D01*
X154199500Y-107567648D01*
X154199500Y-107772351D01*
X154231522Y-107974534D01*
X154294781Y-108169223D01*
X154387715Y-108351613D01*
X154508028Y-108517213D01*
X154652786Y-108661971D01*
X154807749Y-108774556D01*
X154818390Y-108782287D01*
X154909840Y-108828883D01*
X154911080Y-108829515D01*
X154961876Y-108877490D01*
X154978671Y-108945311D01*
X154956134Y-109011446D01*
X154911080Y-109050485D01*
X154818386Y-109097715D01*
X154652786Y-109218028D01*
X154508032Y-109362782D01*
X154508028Y-109362787D01*
X154474900Y-109408385D01*
X154419571Y-109451051D01*
X154374582Y-109459500D01*
X153625230Y-109459500D01*
X153558191Y-109439815D01*
X153537549Y-109423181D01*
X151535819Y-107421451D01*
X151502334Y-107360128D01*
X151499500Y-107333770D01*
X151499500Y-81655197D01*
X151519185Y-81588158D01*
X151550615Y-81554879D01*
X151648215Y-81483969D01*
X151648215Y-81483968D01*
X151648219Y-81483966D01*
X151792966Y-81339219D01*
X151792968Y-81339215D01*
X151792971Y-81339213D01*
X151913284Y-81173614D01*
X151913286Y-81173611D01*
X151913287Y-81173610D01*
X151960516Y-81080917D01*
X152008489Y-81030123D01*
X152076310Y-81013328D01*
X152142445Y-81035865D01*
X152181485Y-81080919D01*
X152228715Y-81173614D01*
X152349028Y-81339213D01*
X152493786Y-81483971D01*
X152642499Y-81592015D01*
X152659390Y-81604287D01*
X152775607Y-81663503D01*
X152841776Y-81697218D01*
X152841778Y-81697218D01*
X152841781Y-81697220D01*
X152946137Y-81731127D01*
X153036465Y-81760477D01*
X153137557Y-81776488D01*
X153238648Y-81792500D01*
X153238649Y-81792500D01*
X153443351Y-81792500D01*
X153443352Y-81792500D01*
X153645534Y-81760477D01*
X153840219Y-81697220D01*
X154022610Y-81604287D01*
X154115590Y-81536732D01*
X154188213Y-81483971D01*
X154188215Y-81483968D01*
X154188219Y-81483966D01*
X154332966Y-81339219D01*
X154332968Y-81339215D01*
X154332971Y-81339213D01*
X154385732Y-81266590D01*
X154453287Y-81173610D01*
X154546220Y-80991219D01*
X154609477Y-80796534D01*
X154641500Y-80594352D01*
X154641500Y-80389648D01*
X154609477Y-80187466D01*
X154608673Y-80184993D01*
X154546218Y-79992776D01*
X154453420Y-79810652D01*
X154453287Y-79810390D01*
X154421092Y-79766077D01*
X154332971Y-79644786D01*
X154188213Y-79500028D01*
X154022613Y-79379715D01*
X154022612Y-79379714D01*
X154022610Y-79379713D01*
X153965653Y-79350691D01*
X153840223Y-79286781D01*
X153645534Y-79223522D01*
X153470995Y-79195878D01*
X153443352Y-79191500D01*
X153238648Y-79191500D01*
X153214329Y-79195351D01*
X153036465Y-79223522D01*
X152841776Y-79286781D01*
X152659386Y-79379715D01*
X152493786Y-79500028D01*
X152349028Y-79644786D01*
X152228715Y-79810386D01*
X152181485Y-79903080D01*
X152133510Y-79953876D01*
X152065689Y-79970671D01*
X151999554Y-79948134D01*
X151960515Y-79903080D01*
X151913420Y-79810652D01*
X151913287Y-79810390D01*
X151881092Y-79766077D01*
X151792971Y-79644786D01*
X151648213Y-79500028D01*
X151482613Y-79379715D01*
X151482612Y-79379714D01*
X151482610Y-79379713D01*
X151425653Y-79350691D01*
X151300223Y-79286781D01*
X151105534Y-79223522D01*
X150930995Y-79195878D01*
X150903352Y-79191500D01*
X150698648Y-79191500D01*
X150674329Y-79195351D01*
X150496465Y-79223522D01*
X150301776Y-79286781D01*
X150119386Y-79379715D01*
X149953786Y-79500028D01*
X149809028Y-79644786D01*
X149688715Y-79810386D01*
X149641485Y-79903080D01*
X149593510Y-79953876D01*
X149525689Y-79970671D01*
X149459554Y-79948134D01*
X149420515Y-79903080D01*
X149373420Y-79810652D01*
X149373287Y-79810390D01*
X149341092Y-79766077D01*
X149252971Y-79644786D01*
X149108213Y-79500028D01*
X148942613Y-79379715D01*
X148942612Y-79379714D01*
X148942610Y-79379713D01*
X148885653Y-79350691D01*
X148760223Y-79286781D01*
X148565534Y-79223522D01*
X148390995Y-79195878D01*
X148363352Y-79191500D01*
X148158648Y-79191500D01*
X148134329Y-79195351D01*
X147956465Y-79223522D01*
X147761776Y-79286781D01*
X147579386Y-79379715D01*
X147413786Y-79500028D01*
X147269028Y-79644786D01*
X147148715Y-79810386D01*
X147101485Y-79903080D01*
X147053510Y-79953876D01*
X146985689Y-79970671D01*
X146919554Y-79948134D01*
X146880515Y-79903080D01*
X146833420Y-79810652D01*
X146833287Y-79810390D01*
X146801092Y-79766077D01*
X146712971Y-79644786D01*
X146568213Y-79500028D01*
X146402613Y-79379715D01*
X146402612Y-79379714D01*
X146402610Y-79379713D01*
X146345653Y-79350691D01*
X146220223Y-79286781D01*
X146025534Y-79223522D01*
X145850995Y-79195878D01*
X145823352Y-79191500D01*
X145618648Y-79191500D01*
X145594329Y-79195351D01*
X145416465Y-79223522D01*
X145221776Y-79286781D01*
X145039386Y-79379715D01*
X144873786Y-79500028D01*
X144729028Y-79644786D01*
X144608715Y-79810386D01*
X144561485Y-79903080D01*
X144513510Y-79953876D01*
X144445689Y-79970671D01*
X144379554Y-79948134D01*
X144340515Y-79903080D01*
X144293420Y-79810652D01*
X144293287Y-79810390D01*
X144261092Y-79766077D01*
X144172971Y-79644786D01*
X144028213Y-79500028D01*
X143862613Y-79379715D01*
X143862612Y-79379714D01*
X143862610Y-79379713D01*
X143805653Y-79350691D01*
X143680223Y-79286781D01*
X143485534Y-79223522D01*
X143310995Y-79195878D01*
X143283352Y-79191500D01*
X143078648Y-79191500D01*
X143054329Y-79195351D01*
X142876465Y-79223522D01*
X142681776Y-79286781D01*
X142499386Y-79379715D01*
X142333786Y-79500028D01*
X142189028Y-79644786D01*
X142068715Y-79810386D01*
X142021485Y-79903080D01*
X141973510Y-79953876D01*
X141905689Y-79970671D01*
X141839554Y-79948134D01*
X141800515Y-79903080D01*
X141753420Y-79810652D01*
X141753287Y-79810390D01*
X141721092Y-79766077D01*
X141632971Y-79644786D01*
X141488213Y-79500028D01*
X141322613Y-79379715D01*
X141322612Y-79379714D01*
X141322610Y-79379713D01*
X141265653Y-79350691D01*
X141140223Y-79286781D01*
X140945534Y-79223522D01*
X140770995Y-79195878D01*
X140743352Y-79191500D01*
X140538648Y-79191500D01*
X140514329Y-79195351D01*
X140336465Y-79223522D01*
X140141776Y-79286781D01*
X139959386Y-79379715D01*
X139793786Y-79500028D01*
X139649028Y-79644786D01*
X139528713Y-79810388D01*
X139481203Y-79903630D01*
X139433228Y-79954426D01*
X139365407Y-79971220D01*
X139299272Y-79948682D01*
X139260234Y-79903628D01*
X139212861Y-79810652D01*
X139180474Y-79766077D01*
X139180474Y-79766076D01*
X138583962Y-80362589D01*
X138566925Y-80299007D01*
X138501099Y-80184993D01*
X138408007Y-80091901D01*
X138293993Y-80026075D01*
X138230408Y-80009037D01*
X138826922Y-79412524D01*
X138826921Y-79412523D01*
X138782359Y-79380147D01*
X138782350Y-79380141D01*
X138600031Y-79287244D01*
X138405417Y-79224009D01*
X138203317Y-79192000D01*
X137998683Y-79192000D01*
X137796582Y-79224009D01*
X137601968Y-79287244D01*
X137419644Y-79380143D01*
X137375077Y-79412523D01*
X137375077Y-79412524D01*
X137971591Y-80009037D01*
X137908007Y-80026075D01*
X137793993Y-80091901D01*
X137700901Y-80184993D01*
X137635075Y-80299007D01*
X137618037Y-80362590D01*
X137021524Y-79766077D01*
X137021523Y-79766077D01*
X136989143Y-79810644D01*
X136941765Y-79903630D01*
X136893790Y-79954426D01*
X136825969Y-79971221D01*
X136759834Y-79948683D01*
X136720795Y-79903630D01*
X136673284Y-79810385D01*
X136552971Y-79644786D01*
X136463957Y-79555772D01*
X136459618Y-79547826D01*
X136452371Y-79542401D01*
X136443136Y-79517641D01*
X136430472Y-79494449D01*
X136431117Y-79485419D01*
X136427954Y-79476937D01*
X136433570Y-79451116D01*
X136435456Y-79424757D01*
X136441274Y-79415703D01*
X136442806Y-79408664D01*
X136463957Y-79380410D01*
X136472265Y-79372102D01*
X137867549Y-77976819D01*
X137928872Y-77943334D01*
X137955230Y-77940500D01*
X158488770Y-77940500D01*
X158555809Y-77960185D01*
G37*
%TD.AperFunction*%
%TA.AperFunction,Conductor*%
G36*
X144522445Y-81035865D02*
G01*
X144561485Y-81080919D01*
X144608715Y-81173614D01*
X144729028Y-81339213D01*
X144729034Y-81339219D01*
X144873781Y-81483966D01*
X144919384Y-81517098D01*
X144962050Y-81572425D01*
X144970500Y-81617416D01*
X144970500Y-106016770D01*
X144950815Y-106083809D01*
X144934181Y-106104451D01*
X139075451Y-111963181D01*
X139014128Y-111996666D01*
X138987770Y-111999500D01*
X134527418Y-111999500D01*
X134460379Y-111979815D01*
X134427100Y-111948385D01*
X134393968Y-111902783D01*
X134249213Y-111758028D01*
X134083614Y-111637715D01*
X134034947Y-111612918D01*
X133990917Y-111590483D01*
X133940123Y-111542511D01*
X133923328Y-111474690D01*
X133945865Y-111408555D01*
X133990917Y-111369516D01*
X134083610Y-111322287D01*
X134191627Y-111243809D01*
X134249213Y-111201971D01*
X134249215Y-111201968D01*
X134249219Y-111201966D01*
X134393966Y-111057219D01*
X134396650Y-111053524D01*
X134427100Y-111011615D01*
X134482429Y-110968949D01*
X134527418Y-110960500D01*
X135163920Y-110960500D01*
X135261462Y-110941096D01*
X135308913Y-110931658D01*
X135445495Y-110875084D01*
X135494729Y-110842186D01*
X135494734Y-110842183D01*
X135519071Y-110825921D01*
X135568416Y-110792952D01*
X143763952Y-102597416D01*
X143837293Y-102487651D01*
X143837295Y-102487649D01*
X143846081Y-102474499D01*
X143846084Y-102474495D01*
X143902658Y-102337913D01*
X143931500Y-102192918D01*
X143931500Y-81617416D01*
X143951185Y-81550377D01*
X143982613Y-81517099D01*
X144028219Y-81483966D01*
X144172966Y-81339219D01*
X144172968Y-81339215D01*
X144172971Y-81339213D01*
X144293284Y-81173614D01*
X144293286Y-81173611D01*
X144293287Y-81173610D01*
X144340516Y-81080917D01*
X144388489Y-81030123D01*
X144456310Y-81013328D01*
X144522445Y-81035865D01*
G37*
%TD.AperFunction*%
%TA.AperFunction,Conductor*%
G36*
X160520032Y-52594648D02*
G01*
X160853929Y-52611052D01*
X160866037Y-52612245D01*
X160969146Y-52627539D01*
X161193699Y-52660849D01*
X161205617Y-52663219D01*
X161526951Y-52743709D01*
X161538588Y-52747240D01*
X161609806Y-52772722D01*
X161850467Y-52858832D01*
X161861688Y-52863479D01*
X162161163Y-53005120D01*
X162171871Y-53010844D01*
X162455988Y-53181137D01*
X162466106Y-53187897D01*
X162732170Y-53385224D01*
X162741576Y-53392944D01*
X162987013Y-53615395D01*
X162995604Y-53623986D01*
X163182755Y-53830475D01*
X163218055Y-53869423D01*
X163225775Y-53878829D01*
X163423102Y-54144893D01*
X163429862Y-54155011D01*
X163564982Y-54380446D01*
X163600148Y-54439116D01*
X163605883Y-54449844D01*
X163723954Y-54699485D01*
X163747514Y-54749297D01*
X163752170Y-54760540D01*
X163863759Y-55072411D01*
X163867292Y-55084055D01*
X163947777Y-55405369D01*
X163950151Y-55417305D01*
X163998754Y-55744962D01*
X163999947Y-55757071D01*
X164016351Y-56090966D01*
X164016500Y-56097051D01*
X164016500Y-128090948D01*
X164016351Y-128097033D01*
X163999947Y-128430928D01*
X163998754Y-128443037D01*
X163950151Y-128770694D01*
X163947777Y-128782630D01*
X163867292Y-129103944D01*
X163863759Y-129115588D01*
X163752170Y-129427459D01*
X163747514Y-129438702D01*
X163605885Y-129738151D01*
X163600148Y-129748883D01*
X163429862Y-130032988D01*
X163423102Y-130043106D01*
X163225775Y-130309170D01*
X163218055Y-130318576D01*
X162995611Y-130564006D01*
X162987006Y-130572611D01*
X162741576Y-130795055D01*
X162732170Y-130802775D01*
X162466106Y-131000102D01*
X162455988Y-131006862D01*
X162171883Y-131177148D01*
X162161151Y-131182885D01*
X161861702Y-131324514D01*
X161850459Y-131329170D01*
X161538588Y-131440759D01*
X161526944Y-131444292D01*
X161205630Y-131524777D01*
X161193694Y-131527151D01*
X160866037Y-131575754D01*
X160853928Y-131576947D01*
X160538989Y-131592419D01*
X160520031Y-131593351D01*
X160513949Y-131593500D01*
X128520051Y-131593500D01*
X128513968Y-131593351D01*
X128493900Y-131592365D01*
X128180071Y-131576947D01*
X128167962Y-131575754D01*
X127840305Y-131527151D01*
X127828369Y-131524777D01*
X127507055Y-131444292D01*
X127495411Y-131440759D01*
X127183540Y-131329170D01*
X127172301Y-131324515D01*
X126872844Y-131182883D01*
X126862121Y-131177150D01*
X126578011Y-131006862D01*
X126567893Y-131000102D01*
X126301829Y-130802775D01*
X126292423Y-130795055D01*
X126253475Y-130759755D01*
X126046986Y-130572604D01*
X126038395Y-130564013D01*
X125815944Y-130318576D01*
X125808224Y-130309170D01*
X125610897Y-130043106D01*
X125604137Y-130032988D01*
X125491162Y-129844500D01*
X125433844Y-129748871D01*
X125428120Y-129738163D01*
X125286479Y-129438688D01*
X125281829Y-129427459D01*
X125170240Y-129115588D01*
X125166707Y-129103944D01*
X125157958Y-129069015D01*
X125086219Y-128782617D01*
X125083848Y-128770694D01*
X125035245Y-128443037D01*
X125034052Y-128430927D01*
X125024040Y-128227120D01*
X125023980Y-128225902D01*
X126766500Y-128225902D01*
X126766500Y-128462097D01*
X126803446Y-128695368D01*
X126876433Y-128919996D01*
X126952363Y-129069015D01*
X126983657Y-129130433D01*
X127122483Y-129321510D01*
X127289490Y-129488517D01*
X127480567Y-129627343D01*
X127579991Y-129678002D01*
X127691003Y-129734566D01*
X127691005Y-129734566D01*
X127691008Y-129734568D01*
X127811412Y-129773689D01*
X127915631Y-129807553D01*
X128148903Y-129844500D01*
X128148908Y-129844500D01*
X128385097Y-129844500D01*
X128618368Y-129807553D01*
X128842992Y-129734568D01*
X129053433Y-129627343D01*
X129244510Y-129488517D01*
X129411517Y-129321510D01*
X129550343Y-129130433D01*
X129657568Y-128919992D01*
X129730553Y-128695368D01*
X129732671Y-128681993D01*
X129767500Y-128462097D01*
X129767500Y-128225902D01*
X159266500Y-128225902D01*
X159266500Y-128462097D01*
X159303446Y-128695368D01*
X159376433Y-128919996D01*
X159452363Y-129069015D01*
X159483657Y-129130433D01*
X159622483Y-129321510D01*
X159789490Y-129488517D01*
X159980567Y-129627343D01*
X160079991Y-129678002D01*
X160191003Y-129734566D01*
X160191005Y-129734566D01*
X160191008Y-129734568D01*
X160311412Y-129773689D01*
X160415631Y-129807553D01*
X160648903Y-129844500D01*
X160648908Y-129844500D01*
X160885097Y-129844500D01*
X161118368Y-129807553D01*
X161342992Y-129734568D01*
X161553433Y-129627343D01*
X161744510Y-129488517D01*
X161911517Y-129321510D01*
X162050343Y-129130433D01*
X162157568Y-128919992D01*
X162230553Y-128695368D01*
X162232671Y-128681993D01*
X162267500Y-128462097D01*
X162267500Y-128225902D01*
X162230553Y-127992631D01*
X162157566Y-127768003D01*
X162050342Y-127557566D01*
X161911517Y-127366490D01*
X161744510Y-127199483D01*
X161553433Y-127060657D01*
X161342996Y-126953433D01*
X161118368Y-126880446D01*
X160885097Y-126843500D01*
X160885092Y-126843500D01*
X160648908Y-126843500D01*
X160648903Y-126843500D01*
X160415631Y-126880446D01*
X160191003Y-126953433D01*
X159980566Y-127060657D01*
X159871550Y-127139862D01*
X159789490Y-127199483D01*
X159789488Y-127199485D01*
X159789487Y-127199485D01*
X159622485Y-127366487D01*
X159622485Y-127366488D01*
X159622483Y-127366490D01*
X159562862Y-127448550D01*
X159483657Y-127557566D01*
X159376433Y-127768003D01*
X159303446Y-127992631D01*
X159266500Y-128225902D01*
X129767500Y-128225902D01*
X129730553Y-127992631D01*
X129657566Y-127768003D01*
X129550342Y-127557566D01*
X129411517Y-127366490D01*
X129244510Y-127199483D01*
X129053433Y-127060657D01*
X128842996Y-126953433D01*
X128618368Y-126880446D01*
X128385097Y-126843500D01*
X128385092Y-126843500D01*
X128148908Y-126843500D01*
X128148903Y-126843500D01*
X127915631Y-126880446D01*
X127691003Y-126953433D01*
X127480566Y-127060657D01*
X127371550Y-127139862D01*
X127289490Y-127199483D01*
X127289488Y-127199485D01*
X127289487Y-127199485D01*
X127122485Y-127366487D01*
X127122485Y-127366488D01*
X127122483Y-127366490D01*
X127062862Y-127448550D01*
X126983657Y-127557566D01*
X126876433Y-127768003D01*
X126803446Y-127992631D01*
X126766500Y-128225902D01*
X125023980Y-128225902D01*
X125017649Y-128097033D01*
X125017500Y-128090948D01*
X125017500Y-102487648D01*
X132101500Y-102487648D01*
X132101500Y-102692351D01*
X132133522Y-102894534D01*
X132196781Y-103089223D01*
X132289715Y-103271613D01*
X132410028Y-103437213D01*
X132554786Y-103581971D01*
X132709749Y-103694556D01*
X132720390Y-103702287D01*
X132811840Y-103748883D01*
X132813080Y-103749515D01*
X132863876Y-103797490D01*
X132880671Y-103865311D01*
X132858134Y-103931446D01*
X132813080Y-103970485D01*
X132720386Y-104017715D01*
X132554786Y-104138028D01*
X132410028Y-104282786D01*
X132289715Y-104448386D01*
X132196781Y-104630776D01*
X132133522Y-104825465D01*
X132101500Y-105027648D01*
X132101500Y-105232351D01*
X132133522Y-105434534D01*
X132196781Y-105629223D01*
X132289715Y-105811613D01*
X132410028Y-105977213D01*
X132554786Y-106121971D01*
X132709749Y-106234556D01*
X132720390Y-106242287D01*
X132811840Y-106288883D01*
X132813080Y-106289515D01*
X132863876Y-106337490D01*
X132880671Y-106405311D01*
X132858134Y-106471446D01*
X132813080Y-106510485D01*
X132720386Y-106557715D01*
X132554786Y-106678028D01*
X132410028Y-106822786D01*
X132289715Y-106988386D01*
X132196781Y-107170776D01*
X132133522Y-107365465D01*
X132101500Y-107567648D01*
X132101500Y-107772351D01*
X132133522Y-107974534D01*
X132196781Y-108169223D01*
X132289715Y-108351613D01*
X132410028Y-108517213D01*
X132554786Y-108661971D01*
X132709749Y-108774556D01*
X132720390Y-108782287D01*
X132811840Y-108828883D01*
X132813080Y-108829515D01*
X132863876Y-108877490D01*
X132880671Y-108945311D01*
X132858134Y-109011446D01*
X132813080Y-109050485D01*
X132720386Y-109097715D01*
X132554786Y-109218028D01*
X132410028Y-109362786D01*
X132289715Y-109528386D01*
X132196781Y-109710776D01*
X132133522Y-109905465D01*
X132101500Y-110107648D01*
X132101500Y-110312351D01*
X132133522Y-110514534D01*
X132196781Y-110709223D01*
X132289715Y-110891613D01*
X132410028Y-111057213D01*
X132554786Y-111201971D01*
X132709749Y-111314556D01*
X132720390Y-111322287D01*
X132811840Y-111368883D01*
X132813080Y-111369515D01*
X132863876Y-111417490D01*
X132880671Y-111485311D01*
X132858134Y-111551446D01*
X132813080Y-111590485D01*
X132720386Y-111637715D01*
X132554786Y-111758028D01*
X132410032Y-111902782D01*
X132410032Y-111902783D01*
X132289715Y-112068386D01*
X132196781Y-112250776D01*
X132133522Y-112445465D01*
X132101500Y-112647648D01*
X132101500Y-112852351D01*
X132133522Y-113054534D01*
X132196781Y-113249223D01*
X132239444Y-113332952D01*
X132267381Y-113387782D01*
X132289715Y-113431613D01*
X132410028Y-113597213D01*
X132554786Y-113741971D01*
X132709749Y-113854556D01*
X132720390Y-113862287D01*
X132811840Y-113908883D01*
X132813080Y-113909515D01*
X132863876Y-113957490D01*
X132880671Y-114025311D01*
X132858134Y-114091446D01*
X132813080Y-114130485D01*
X132720386Y-114177715D01*
X132554786Y-114298028D01*
X132410028Y-114442786D01*
X132289715Y-114608386D01*
X132196781Y-114790776D01*
X132133522Y-114985465D01*
X132101500Y-115187648D01*
X132101500Y-115392351D01*
X132133522Y-115594534D01*
X132196781Y-115789223D01*
X132289715Y-115971613D01*
X132410028Y-116137213D01*
X132554786Y-116281971D01*
X132709749Y-116394556D01*
X132720390Y-116402287D01*
X132811840Y-116448883D01*
X132813080Y-116449515D01*
X132863876Y-116497490D01*
X132880671Y-116565311D01*
X132858134Y-116631446D01*
X132813080Y-116670485D01*
X132720386Y-116717715D01*
X132554786Y-116838028D01*
X132410028Y-116982786D01*
X132289715Y-117148386D01*
X132196781Y-117330776D01*
X132133522Y-117525465D01*
X132101500Y-117727648D01*
X132101500Y-117932351D01*
X132133522Y-118134534D01*
X132196781Y-118329223D01*
X132226589Y-118387723D01*
X132289585Y-118511359D01*
X132289715Y-118511613D01*
X132410028Y-118677213D01*
X132554786Y-118821971D01*
X132675226Y-118909474D01*
X132720390Y-118942287D01*
X132811840Y-118988883D01*
X132813080Y-118989515D01*
X132863876Y-119037490D01*
X132880671Y-119105311D01*
X132858134Y-119171446D01*
X132813080Y-119210485D01*
X132720386Y-119257715D01*
X132554786Y-119378028D01*
X132410028Y-119522786D01*
X132289715Y-119688386D01*
X132196781Y-119870776D01*
X132133522Y-120065465D01*
X132101500Y-120267648D01*
X132101500Y-120472351D01*
X132133522Y-120674534D01*
X132196781Y-120869223D01*
X132289715Y-121051613D01*
X132410028Y-121217213D01*
X132554786Y-121361971D01*
X132709749Y-121474556D01*
X132720390Y-121482287D01*
X132836607Y-121541503D01*
X132902776Y-121575218D01*
X132902778Y-121575218D01*
X132902781Y-121575220D01*
X133007137Y-121609127D01*
X133097465Y-121638477D01*
X133198557Y-121654488D01*
X133299648Y-121670500D01*
X133299649Y-121670500D01*
X133504351Y-121670500D01*
X133504352Y-121670500D01*
X133706534Y-121638477D01*
X133901219Y-121575220D01*
X134083610Y-121482287D01*
X134176590Y-121414732D01*
X134249213Y-121361971D01*
X134249215Y-121361968D01*
X134249219Y-121361966D01*
X134393966Y-121217219D01*
X134393968Y-121217215D01*
X134393971Y-121217213D01*
X134464236Y-121120500D01*
X134514287Y-121051610D01*
X134607220Y-120869219D01*
X134670477Y-120674534D01*
X134702500Y-120472352D01*
X134702500Y-120267648D01*
X134670477Y-120065466D01*
X134607220Y-119870781D01*
X134607218Y-119870778D01*
X134607218Y-119870776D01*
X134573503Y-119804607D01*
X134514287Y-119688390D01*
X134462177Y-119616666D01*
X134393971Y-119522786D01*
X134249213Y-119378028D01*
X134083614Y-119257715D01*
X134077006Y-119254348D01*
X133990917Y-119210483D01*
X133940123Y-119162511D01*
X133923328Y-119094690D01*
X133945865Y-119028555D01*
X133990917Y-118989516D01*
X134083610Y-118942287D01*
X134128774Y-118909474D01*
X134249213Y-118821971D01*
X134249215Y-118821968D01*
X134249219Y-118821966D01*
X134393966Y-118677219D01*
X134393968Y-118677215D01*
X134393971Y-118677213D01*
X134446732Y-118604590D01*
X134514287Y-118511610D01*
X134607220Y-118329219D01*
X134670477Y-118134534D01*
X134702500Y-117932352D01*
X134702500Y-117727648D01*
X134685572Y-117620770D01*
X134670477Y-117525465D01*
X134618038Y-117364075D01*
X134607220Y-117330781D01*
X134607218Y-117330778D01*
X134607218Y-117330776D01*
X134514419Y-117148650D01*
X134514287Y-117148390D01*
X134482092Y-117104077D01*
X134393971Y-116982786D01*
X134249213Y-116838028D01*
X134083614Y-116717715D01*
X134077006Y-116714348D01*
X133990917Y-116670483D01*
X133940123Y-116622511D01*
X133923328Y-116554690D01*
X133945865Y-116488555D01*
X133990917Y-116449516D01*
X134083610Y-116402287D01*
X134104770Y-116386913D01*
X134249213Y-116281971D01*
X134249215Y-116281968D01*
X134249219Y-116281966D01*
X134393966Y-116137219D01*
X134396650Y-116133524D01*
X134427100Y-116091615D01*
X134482429Y-116048949D01*
X134527418Y-116040500D01*
X144583920Y-116040500D01*
X144681462Y-116021096D01*
X144728913Y-116011658D01*
X144865495Y-115955084D01*
X144914729Y-115922186D01*
X144988416Y-115872952D01*
X148843952Y-112017416D01*
X148880190Y-111963181D01*
X148920545Y-111902786D01*
X148920546Y-111902783D01*
X148922408Y-111899995D01*
X148926084Y-111894495D01*
X148982658Y-111757913D01*
X148992096Y-111710462D01*
X149011500Y-111612920D01*
X149011500Y-81617416D01*
X149031185Y-81550377D01*
X149062613Y-81517099D01*
X149108219Y-81483966D01*
X149252966Y-81339219D01*
X149252968Y-81339215D01*
X149252971Y-81339213D01*
X149373284Y-81173614D01*
X149373286Y-81173611D01*
X149373287Y-81173610D01*
X149420516Y-81080917D01*
X149468489Y-81030123D01*
X149536310Y-81013328D01*
X149602445Y-81035865D01*
X149641485Y-81080919D01*
X149688715Y-81173614D01*
X149809027Y-81339211D01*
X149809031Y-81339215D01*
X149809034Y-81339219D01*
X149902266Y-81432451D01*
X149953784Y-81483969D01*
X149955032Y-81485035D01*
X149955374Y-81485559D01*
X149957227Y-81487412D01*
X149956837Y-81487801D01*
X149993225Y-81543542D01*
X149998500Y-81579325D01*
X149998500Y-107769918D01*
X149998500Y-107769920D01*
X149998499Y-107769920D01*
X150027340Y-107914907D01*
X150027343Y-107914917D01*
X150083914Y-108051492D01*
X150116812Y-108100727D01*
X150116813Y-108100730D01*
X150166046Y-108174414D01*
X150166052Y-108174421D01*
X152784584Y-110792952D01*
X152784586Y-110792954D01*
X152814058Y-110812645D01*
X152858270Y-110842186D01*
X152907505Y-110875084D01*
X152907506Y-110875084D01*
X152907507Y-110875085D01*
X152907509Y-110875086D01*
X153044082Y-110931656D01*
X153044087Y-110931658D01*
X153044091Y-110931658D01*
X153044092Y-110931659D01*
X153189079Y-110960500D01*
X153189082Y-110960500D01*
X153189083Y-110960500D01*
X153336917Y-110960500D01*
X154374582Y-110960500D01*
X154441621Y-110980185D01*
X154474900Y-111011615D01*
X154508028Y-111057212D01*
X154508032Y-111057217D01*
X154652786Y-111201971D01*
X154807749Y-111314556D01*
X154818390Y-111322287D01*
X154909840Y-111368883D01*
X154911080Y-111369515D01*
X154961876Y-111417490D01*
X154978671Y-111485311D01*
X154956134Y-111551446D01*
X154911080Y-111590485D01*
X154818386Y-111637715D01*
X154652786Y-111758028D01*
X154508032Y-111902782D01*
X154508032Y-111902783D01*
X154387715Y-112068386D01*
X154294781Y-112250776D01*
X154231522Y-112445465D01*
X154199500Y-112647648D01*
X154199500Y-112852351D01*
X154231522Y-113054534D01*
X154294781Y-113249223D01*
X154337444Y-113332952D01*
X154365381Y-113387782D01*
X154387715Y-113431613D01*
X154508028Y-113597213D01*
X154652786Y-113741971D01*
X154807749Y-113854556D01*
X154818390Y-113862287D01*
X154909840Y-113908883D01*
X154911080Y-113909515D01*
X154961876Y-113957490D01*
X154978671Y-114025311D01*
X154956134Y-114091446D01*
X154911080Y-114130485D01*
X154818386Y-114177715D01*
X154652786Y-114298028D01*
X154508028Y-114442786D01*
X154387715Y-114608386D01*
X154294781Y-114790776D01*
X154231522Y-114985465D01*
X154199500Y-115187648D01*
X154199500Y-115392351D01*
X154231522Y-115594534D01*
X154294781Y-115789223D01*
X154387715Y-115971613D01*
X154508028Y-116137213D01*
X154652786Y-116281971D01*
X154818385Y-116402284D01*
X154818387Y-116402285D01*
X154818390Y-116402287D01*
X154911080Y-116449515D01*
X154911630Y-116449795D01*
X154962426Y-116497770D01*
X154979221Y-116565591D01*
X154956684Y-116631725D01*
X154911630Y-116670765D01*
X154818644Y-116718143D01*
X154774077Y-116750523D01*
X154774077Y-116750524D01*
X155370591Y-117347037D01*
X155307007Y-117364075D01*
X155192993Y-117429901D01*
X155099901Y-117522993D01*
X155034075Y-117637007D01*
X155017037Y-117700590D01*
X154420524Y-117104077D01*
X154420523Y-117104077D01*
X154388143Y-117148644D01*
X154295244Y-117330968D01*
X154232009Y-117525582D01*
X154200000Y-117727682D01*
X154200000Y-117932317D01*
X154232009Y-118134417D01*
X154295244Y-118329031D01*
X154388141Y-118511350D01*
X154388147Y-118511359D01*
X154420523Y-118555921D01*
X154420524Y-118555922D01*
X155017037Y-117959409D01*
X155034075Y-118022993D01*
X155099901Y-118137007D01*
X155192993Y-118230099D01*
X155307007Y-118295925D01*
X155370590Y-118312962D01*
X154774076Y-118909474D01*
X154818652Y-118941861D01*
X154911628Y-118989234D01*
X154962425Y-119037208D01*
X154979220Y-119105029D01*
X154956683Y-119171164D01*
X154911630Y-119210203D01*
X154818388Y-119257713D01*
X154652786Y-119378028D01*
X154508028Y-119522786D01*
X154387715Y-119688386D01*
X154294781Y-119870776D01*
X154231522Y-120065465D01*
X154199500Y-120267648D01*
X154199500Y-120472351D01*
X154231522Y-120674534D01*
X154294781Y-120869223D01*
X154387715Y-121051613D01*
X154508028Y-121217213D01*
X154652786Y-121361971D01*
X154807749Y-121474556D01*
X154818390Y-121482287D01*
X154934607Y-121541503D01*
X155000776Y-121575218D01*
X155000778Y-121575218D01*
X155000781Y-121575220D01*
X155105137Y-121609127D01*
X155195465Y-121638477D01*
X155296557Y-121654488D01*
X155397648Y-121670500D01*
X155397649Y-121670500D01*
X155602351Y-121670500D01*
X155602352Y-121670500D01*
X155804534Y-121638477D01*
X155999219Y-121575220D01*
X156181610Y-121482287D01*
X156274590Y-121414732D01*
X156347213Y-121361971D01*
X156347215Y-121361968D01*
X156347219Y-121361966D01*
X156491966Y-121217219D01*
X156494650Y-121213524D01*
X156525100Y-121171615D01*
X156580429Y-121128949D01*
X156625418Y-121120500D01*
X158595920Y-121120500D01*
X158693462Y-121101096D01*
X158740913Y-121091658D01*
X158877495Y-121035084D01*
X158926729Y-121002186D01*
X159000416Y-120952952D01*
X161491952Y-118461416D01*
X161541186Y-118387729D01*
X161574084Y-118338495D01*
X161630658Y-118201913D01*
X161659500Y-118056918D01*
X161659500Y-97518625D01*
X161679185Y-97451586D01*
X161695819Y-97430944D01*
X161824690Y-97302073D01*
X161935760Y-97149199D01*
X162021547Y-96980832D01*
X162079940Y-96801118D01*
X162096676Y-96695452D01*
X162109500Y-96614486D01*
X162109500Y-96425513D01*
X162079940Y-96238881D01*
X162021545Y-96059163D01*
X161935759Y-95890800D01*
X161824690Y-95737927D01*
X161695818Y-95609055D01*
X161662334Y-95547732D01*
X161659500Y-95521374D01*
X161659500Y-92584079D01*
X161630659Y-92439092D01*
X161630658Y-92439091D01*
X161630658Y-92439087D01*
X161574084Y-92302505D01*
X161541186Y-92253270D01*
X161541185Y-92253268D01*
X161491956Y-92179589D01*
X161491952Y-92179584D01*
X160433049Y-91120681D01*
X160399564Y-91059358D01*
X160404548Y-90989666D01*
X160433049Y-90945319D01*
X161491948Y-89886420D01*
X161491952Y-89886416D01*
X161542846Y-89810246D01*
X161574084Y-89763495D01*
X161630658Y-89626913D01*
X161640096Y-89579462D01*
X161659500Y-89481920D01*
X161659500Y-79174081D01*
X161654328Y-79148082D01*
X161653763Y-79145241D01*
X161630659Y-79029088D01*
X161576408Y-78898117D01*
X161574764Y-78893522D01*
X161491954Y-78769588D01*
X161491953Y-78769587D01*
X161491951Y-78769584D01*
X161387416Y-78665049D01*
X159329421Y-76607052D01*
X159329414Y-76607046D01*
X159255729Y-76557812D01*
X159255729Y-76557813D01*
X159206491Y-76524913D01*
X159069917Y-76468343D01*
X159069907Y-76468340D01*
X158924920Y-76439500D01*
X158924918Y-76439500D01*
X137519082Y-76439500D01*
X137519080Y-76439500D01*
X137374092Y-76468340D01*
X137374086Y-76468342D01*
X137237508Y-76524914D01*
X137237496Y-76524921D01*
X137188269Y-76557813D01*
X137114588Y-76607044D01*
X137114580Y-76607050D01*
X134978050Y-78743580D01*
X134978044Y-78743588D01*
X134928812Y-78817268D01*
X134928813Y-78817269D01*
X134895921Y-78866496D01*
X134895914Y-78866508D01*
X134839342Y-79003086D01*
X134839340Y-79003092D01*
X134810500Y-79148079D01*
X134810500Y-79366582D01*
X134790815Y-79433621D01*
X134759385Y-79466900D01*
X134713787Y-79500028D01*
X134713782Y-79500032D01*
X134569028Y-79644786D01*
X134448715Y-79810386D01*
X134355781Y-79992776D01*
X134292522Y-80187465D01*
X134260500Y-80389648D01*
X134260500Y-80594351D01*
X134292522Y-80796534D01*
X134355781Y-80991223D01*
X134419691Y-81116653D01*
X134448585Y-81173359D01*
X134448715Y-81173613D01*
X134569028Y-81339213D01*
X134569034Y-81339219D01*
X134713781Y-81483966D01*
X134722672Y-81490425D01*
X134765337Y-81545752D01*
X134773788Y-81590744D01*
X134773788Y-85419648D01*
X134754103Y-85486687D01*
X134701299Y-85532442D01*
X134663043Y-85542938D01*
X134616804Y-85547909D01*
X134481959Y-85598202D01*
X134481952Y-85598206D01*
X134366743Y-85684452D01*
X134366740Y-85684455D01*
X134280494Y-85799664D01*
X134280490Y-85799671D01*
X134230196Y-85934517D01*
X134223789Y-85994116D01*
X134223788Y-85994135D01*
X134223788Y-87689870D01*
X134223789Y-87689876D01*
X134230196Y-87749483D01*
X134280490Y-87884328D01*
X134280494Y-87884335D01*
X134366740Y-87999544D01*
X134366743Y-87999547D01*
X134481952Y-88085793D01*
X134481959Y-88085797D01*
X134616805Y-88136091D01*
X134616804Y-88136091D01*
X134623732Y-88136835D01*
X134676415Y-88142500D01*
X136372160Y-88142499D01*
X136431771Y-88136091D01*
X136566619Y-88085796D01*
X136681834Y-87999546D01*
X136768084Y-87884331D01*
X136818379Y-87749483D01*
X136824788Y-87689873D01*
X136824787Y-87677612D01*
X136828363Y-87663052D01*
X136838630Y-87645380D01*
X136844355Y-87625760D01*
X136855827Y-87615783D01*
X136863465Y-87602640D01*
X136881655Y-87593325D01*
X136897080Y-87579913D01*
X136913568Y-87576984D01*
X136925655Y-87570795D01*
X136940306Y-87572234D01*
X136940542Y-87572192D01*
X137624288Y-86888446D01*
X137624288Y-86894661D01*
X137651547Y-86996394D01*
X137704208Y-87087606D01*
X137778682Y-87162080D01*
X137869894Y-87214741D01*
X137971627Y-87242000D01*
X137977841Y-87242000D01*
X137298364Y-87921474D01*
X137342938Y-87953859D01*
X137525256Y-88046755D01*
X137719870Y-88109990D01*
X137921971Y-88142000D01*
X138126605Y-88142000D01*
X138328705Y-88109990D01*
X138523319Y-88046755D01*
X138705637Y-87953859D01*
X138750209Y-87921474D01*
X138070735Y-87242000D01*
X138076949Y-87242000D01*
X138178682Y-87214741D01*
X138269894Y-87162080D01*
X138344368Y-87087606D01*
X138397029Y-86996394D01*
X138424288Y-86894661D01*
X138424288Y-86888448D01*
X139103762Y-87567922D01*
X139103762Y-87567921D01*
X139136147Y-87523349D01*
X139229043Y-87341031D01*
X139292278Y-87146417D01*
X139324288Y-86944317D01*
X139324288Y-86739682D01*
X139292278Y-86537582D01*
X139229043Y-86342968D01*
X139136147Y-86160650D01*
X139103762Y-86116077D01*
X139103762Y-86116076D01*
X138424288Y-86795551D01*
X138424288Y-86789339D01*
X138397029Y-86687606D01*
X138344368Y-86596394D01*
X138269894Y-86521920D01*
X138178682Y-86469259D01*
X138076949Y-86442000D01*
X138070734Y-86442000D01*
X138750210Y-85762524D01*
X138750209Y-85762523D01*
X138705647Y-85730147D01*
X138705638Y-85730141D01*
X138523319Y-85637244D01*
X138328705Y-85574009D01*
X138126605Y-85542000D01*
X137921971Y-85542000D01*
X137719870Y-85574009D01*
X137525256Y-85637244D01*
X137342932Y-85730143D01*
X137298365Y-85762523D01*
X137298365Y-85762524D01*
X137977842Y-86442000D01*
X137971627Y-86442000D01*
X137869894Y-86469259D01*
X137778682Y-86521920D01*
X137704208Y-86596394D01*
X137651547Y-86687606D01*
X137624288Y-86789339D01*
X137624288Y-86795553D01*
X136939801Y-86111066D01*
X136890137Y-86100633D01*
X136840381Y-86051581D01*
X136828364Y-86020947D01*
X136824787Y-86006378D01*
X136824787Y-85994128D01*
X136818379Y-85934517D01*
X136785500Y-85846365D01*
X136785499Y-85846359D01*
X136768085Y-85799671D01*
X136768081Y-85799664D01*
X136681835Y-85684455D01*
X136681832Y-85684452D01*
X136566623Y-85598206D01*
X136566616Y-85598202D01*
X136431771Y-85547908D01*
X136385531Y-85542937D01*
X136320981Y-85516199D01*
X136281133Y-85458806D01*
X136274788Y-85419648D01*
X136274788Y-81644090D01*
X136275180Y-81642753D01*
X136274817Y-81641409D01*
X136284994Y-81609330D01*
X136294473Y-81577051D01*
X136295661Y-81575708D01*
X136295947Y-81574810D01*
X136302142Y-81568390D01*
X136319631Y-81548643D01*
X136322694Y-81546102D01*
X136408219Y-81483966D01*
X136552966Y-81339219D01*
X136552968Y-81339215D01*
X136552971Y-81339213D01*
X136673286Y-81173611D01*
X136673415Y-81173359D01*
X136720795Y-81080369D01*
X136768769Y-81029573D01*
X136836590Y-81012778D01*
X136902725Y-81035315D01*
X136941765Y-81080369D01*
X136989141Y-81173350D01*
X136989147Y-81173359D01*
X137021523Y-81217921D01*
X137021524Y-81217922D01*
X137618037Y-80621409D01*
X137635075Y-80684993D01*
X137700901Y-80799007D01*
X137793993Y-80892099D01*
X137908007Y-80957925D01*
X137971590Y-80974962D01*
X137375076Y-81571474D01*
X137419650Y-81603859D01*
X137601968Y-81696755D01*
X137796582Y-81759990D01*
X137998683Y-81792000D01*
X138203317Y-81792000D01*
X138405417Y-81759990D01*
X138600031Y-81696755D01*
X138782349Y-81603859D01*
X138826921Y-81571474D01*
X138230409Y-80974962D01*
X138293993Y-80957925D01*
X138408007Y-80892099D01*
X138501099Y-80799007D01*
X138566925Y-80684993D01*
X138583962Y-80621410D01*
X139180474Y-81217922D01*
X139180474Y-81217921D01*
X139212861Y-81173347D01*
X139212861Y-81173346D01*
X139260234Y-81080371D01*
X139308208Y-81029575D01*
X139376028Y-81012779D01*
X139442164Y-81035316D01*
X139481203Y-81080369D01*
X139528713Y-81173611D01*
X139649028Y-81339213D01*
X139793786Y-81483971D01*
X139942499Y-81592015D01*
X139959390Y-81604287D01*
X140075607Y-81663503D01*
X140141776Y-81697218D01*
X140141778Y-81697218D01*
X140141781Y-81697220D01*
X140246137Y-81731127D01*
X140336465Y-81760477D01*
X140437557Y-81776488D01*
X140538648Y-81792500D01*
X140538649Y-81792500D01*
X140743351Y-81792500D01*
X140743352Y-81792500D01*
X140945534Y-81760477D01*
X141140219Y-81697220D01*
X141322610Y-81604287D01*
X141415590Y-81536732D01*
X141488213Y-81483971D01*
X141488215Y-81483968D01*
X141488219Y-81483966D01*
X141632966Y-81339219D01*
X141632968Y-81339215D01*
X141632971Y-81339213D01*
X141753284Y-81173614D01*
X141753286Y-81173611D01*
X141753287Y-81173610D01*
X141800516Y-81080917D01*
X141848489Y-81030123D01*
X141916310Y-81013328D01*
X141982445Y-81035865D01*
X142021485Y-81080919D01*
X142068715Y-81173614D01*
X142189028Y-81339213D01*
X142189034Y-81339219D01*
X142333781Y-81483966D01*
X142379384Y-81517098D01*
X142422050Y-81572425D01*
X142430500Y-81617416D01*
X142430500Y-101756770D01*
X142410815Y-101823809D01*
X142394181Y-101844451D01*
X134815451Y-109423181D01*
X134788523Y-109437884D01*
X134762705Y-109454477D01*
X134756504Y-109455368D01*
X134754128Y-109456666D01*
X134727770Y-109459500D01*
X134527418Y-109459500D01*
X134460379Y-109439815D01*
X134427100Y-109408385D01*
X134393971Y-109362787D01*
X134393967Y-109362782D01*
X134249213Y-109218028D01*
X134083614Y-109097715D01*
X134077006Y-109094348D01*
X133990917Y-109050483D01*
X133940123Y-109002511D01*
X133923328Y-108934690D01*
X133945865Y-108868555D01*
X133990917Y-108829516D01*
X134083610Y-108782287D01*
X134104770Y-108766913D01*
X134249213Y-108661971D01*
X134249215Y-108661968D01*
X134249219Y-108661966D01*
X134393966Y-108517219D01*
X134393968Y-108517215D01*
X134393971Y-108517213D01*
X134446732Y-108444590D01*
X134514287Y-108351610D01*
X134607220Y-108169219D01*
X134670477Y-107974534D01*
X134702500Y-107772352D01*
X134702500Y-107567648D01*
X134670477Y-107365466D01*
X134660178Y-107333770D01*
X134607218Y-107170776D01*
X134573503Y-107104607D01*
X134514287Y-106988390D01*
X134506556Y-106977749D01*
X134393971Y-106822786D01*
X134249213Y-106678028D01*
X134083614Y-106557715D01*
X134077006Y-106554348D01*
X133990917Y-106510483D01*
X133940123Y-106462511D01*
X133923328Y-106394690D01*
X133945865Y-106328555D01*
X133990917Y-106289516D01*
X134083610Y-106242287D01*
X134104770Y-106226913D01*
X134249213Y-106121971D01*
X134249215Y-106121968D01*
X134249219Y-106121966D01*
X134393966Y-105977219D01*
X134393968Y-105977215D01*
X134393971Y-105977213D01*
X134446732Y-105904590D01*
X134514287Y-105811610D01*
X134607220Y-105629219D01*
X134670477Y-105434534D01*
X134702500Y-105232352D01*
X134702500Y-105027648D01*
X134670477Y-104825466D01*
X134607220Y-104630781D01*
X134607218Y-104630778D01*
X134607218Y-104630776D01*
X134573503Y-104564607D01*
X134514287Y-104448390D01*
X134506556Y-104437749D01*
X134393971Y-104282786D01*
X134249213Y-104138028D01*
X134083614Y-104017715D01*
X134077006Y-104014348D01*
X133990917Y-103970483D01*
X133940123Y-103922511D01*
X133923328Y-103854690D01*
X133945865Y-103788555D01*
X133990917Y-103749516D01*
X134083610Y-103702287D01*
X134104770Y-103686913D01*
X134249213Y-103581971D01*
X134249215Y-103581968D01*
X134249219Y-103581966D01*
X134393966Y-103437219D01*
X134393968Y-103437215D01*
X134393971Y-103437213D01*
X134446732Y-103364590D01*
X134514287Y-103271610D01*
X134607220Y-103089219D01*
X134670477Y-102894534D01*
X134702500Y-102692352D01*
X134702500Y-102487648D01*
X134670477Y-102285466D01*
X134607220Y-102090781D01*
X134607218Y-102090778D01*
X134607218Y-102090776D01*
X134573503Y-102024607D01*
X134514287Y-101908390D01*
X134452836Y-101823809D01*
X134393971Y-101742786D01*
X134249213Y-101598028D01*
X134083613Y-101477715D01*
X134083612Y-101477714D01*
X134083610Y-101477713D01*
X134026653Y-101448691D01*
X133901223Y-101384781D01*
X133706534Y-101321522D01*
X133531995Y-101293878D01*
X133504352Y-101289500D01*
X133299648Y-101289500D01*
X133275329Y-101293351D01*
X133097465Y-101321522D01*
X132902776Y-101384781D01*
X132720386Y-101477715D01*
X132554786Y-101598028D01*
X132410028Y-101742786D01*
X132289715Y-101908386D01*
X132196781Y-102090776D01*
X132133522Y-102285465D01*
X132101500Y-102487648D01*
X125017500Y-102487648D01*
X125017500Y-57513902D01*
X132790500Y-57513902D01*
X132790500Y-57750097D01*
X132827446Y-57983368D01*
X132900433Y-58207996D01*
X133007657Y-58418433D01*
X133146483Y-58609510D01*
X133313490Y-58776517D01*
X133504567Y-58915343D01*
X133603991Y-58966002D01*
X133715003Y-59022566D01*
X133715005Y-59022566D01*
X133715008Y-59022568D01*
X133835412Y-59061689D01*
X133939631Y-59095553D01*
X134172903Y-59132500D01*
X134172908Y-59132500D01*
X134409097Y-59132500D01*
X134642368Y-59095553D01*
X134866992Y-59022568D01*
X135077433Y-58915343D01*
X135268510Y-58776517D01*
X135435517Y-58609510D01*
X135574343Y-58418433D01*
X135681568Y-58207992D01*
X135754553Y-57983368D01*
X135791500Y-57750097D01*
X135791500Y-57513902D01*
X153110500Y-57513902D01*
X153110500Y-57750097D01*
X153147446Y-57983368D01*
X153220433Y-58207996D01*
X153327657Y-58418433D01*
X153466483Y-58609510D01*
X153633490Y-58776517D01*
X153824567Y-58915343D01*
X153923991Y-58966002D01*
X154035003Y-59022566D01*
X154035005Y-59022566D01*
X154035008Y-59022568D01*
X154155412Y-59061689D01*
X154259631Y-59095553D01*
X154492903Y-59132500D01*
X154492908Y-59132500D01*
X154729097Y-59132500D01*
X154962368Y-59095553D01*
X155186992Y-59022568D01*
X155397433Y-58915343D01*
X155588510Y-58776517D01*
X155755517Y-58609510D01*
X155894343Y-58418433D01*
X156001568Y-58207992D01*
X156074553Y-57983368D01*
X156111500Y-57750097D01*
X156111500Y-57513902D01*
X156074553Y-57280631D01*
X156001566Y-57056003D01*
X155894342Y-56845566D01*
X155876865Y-56821511D01*
X155755517Y-56654490D01*
X155588510Y-56487483D01*
X155397433Y-56348657D01*
X155186996Y-56241433D01*
X154962368Y-56168446D01*
X154729097Y-56131500D01*
X154729092Y-56131500D01*
X154492908Y-56131500D01*
X154492903Y-56131500D01*
X154259631Y-56168446D01*
X154035003Y-56241433D01*
X153824566Y-56348657D01*
X153715550Y-56427862D01*
X153633490Y-56487483D01*
X153633488Y-56487485D01*
X153633487Y-56487485D01*
X153466485Y-56654487D01*
X153466485Y-56654488D01*
X153466483Y-56654490D01*
X153406862Y-56736550D01*
X153327657Y-56845566D01*
X153220433Y-57056003D01*
X153147446Y-57280631D01*
X153110500Y-57513902D01*
X135791500Y-57513902D01*
X135754553Y-57280631D01*
X135681566Y-57056003D01*
X135574342Y-56845566D01*
X135556865Y-56821511D01*
X135435517Y-56654490D01*
X135268510Y-56487483D01*
X135077433Y-56348657D01*
X134866996Y-56241433D01*
X134642368Y-56168446D01*
X134409097Y-56131500D01*
X134409092Y-56131500D01*
X134172908Y-56131500D01*
X134172903Y-56131500D01*
X133939631Y-56168446D01*
X133715003Y-56241433D01*
X133504566Y-56348657D01*
X133395550Y-56427862D01*
X133313490Y-56487483D01*
X133313488Y-56487485D01*
X133313487Y-56487485D01*
X133146485Y-56654487D01*
X133146485Y-56654488D01*
X133146483Y-56654490D01*
X133086862Y-56736550D01*
X133007657Y-56845566D01*
X132900433Y-57056003D01*
X132827446Y-57280631D01*
X132790500Y-57513902D01*
X125017500Y-57513902D01*
X125017500Y-56097051D01*
X125017649Y-56090967D01*
X125034052Y-55757072D01*
X125035245Y-55744961D01*
X125038072Y-55725902D01*
X126766500Y-55725902D01*
X126766500Y-55962097D01*
X126803446Y-56195368D01*
X126876433Y-56419996D01*
X126910820Y-56487483D01*
X126983657Y-56630433D01*
X127122483Y-56821510D01*
X127289490Y-56988517D01*
X127480567Y-57127343D01*
X127579991Y-57178002D01*
X127691003Y-57234566D01*
X127691005Y-57234566D01*
X127691008Y-57234568D01*
X127811412Y-57273689D01*
X127915631Y-57307553D01*
X128148903Y-57344500D01*
X128148908Y-57344500D01*
X128385097Y-57344500D01*
X128618368Y-57307553D01*
X128842992Y-57234568D01*
X129053433Y-57127343D01*
X129244510Y-56988517D01*
X129411517Y-56821510D01*
X129550343Y-56630433D01*
X129657568Y-56419992D01*
X129730553Y-56195368D01*
X129746608Y-56094000D01*
X129767500Y-55962097D01*
X129767500Y-55725902D01*
X159266500Y-55725902D01*
X159266500Y-55962097D01*
X159303446Y-56195368D01*
X159376433Y-56419996D01*
X159410820Y-56487483D01*
X159483657Y-56630433D01*
X159622483Y-56821510D01*
X159789490Y-56988517D01*
X159980567Y-57127343D01*
X160079991Y-57178002D01*
X160191003Y-57234566D01*
X160191005Y-57234566D01*
X160191008Y-57234568D01*
X160311412Y-57273689D01*
X160415631Y-57307553D01*
X160648903Y-57344500D01*
X160648908Y-57344500D01*
X160885097Y-57344500D01*
X161118368Y-57307553D01*
X161342992Y-57234568D01*
X161553433Y-57127343D01*
X161744510Y-56988517D01*
X161911517Y-56821510D01*
X162050343Y-56630433D01*
X162157568Y-56419992D01*
X162230553Y-56195368D01*
X162246608Y-56094000D01*
X162267500Y-55962097D01*
X162267500Y-55725902D01*
X162230553Y-55492631D01*
X162157566Y-55268003D01*
X162050342Y-55057566D01*
X161911517Y-54866490D01*
X161744510Y-54699483D01*
X161553433Y-54560657D01*
X161342996Y-54453433D01*
X161118368Y-54380446D01*
X160885097Y-54343500D01*
X160885092Y-54343500D01*
X160648908Y-54343500D01*
X160648903Y-54343500D01*
X160415631Y-54380446D01*
X160191003Y-54453433D01*
X159980566Y-54560657D01*
X159871550Y-54639862D01*
X159789490Y-54699483D01*
X159789488Y-54699485D01*
X159789487Y-54699485D01*
X159622485Y-54866487D01*
X159622485Y-54866488D01*
X159622483Y-54866490D01*
X159562862Y-54948550D01*
X159483657Y-55057566D01*
X159376433Y-55268003D01*
X159303446Y-55492631D01*
X159266500Y-55725902D01*
X129767500Y-55725902D01*
X129730553Y-55492631D01*
X129657566Y-55268003D01*
X129550342Y-55057566D01*
X129411517Y-54866490D01*
X129244510Y-54699483D01*
X129053433Y-54560657D01*
X128842996Y-54453433D01*
X128618368Y-54380446D01*
X128385097Y-54343500D01*
X128385092Y-54343500D01*
X128148908Y-54343500D01*
X128148903Y-54343500D01*
X127915631Y-54380446D01*
X127691003Y-54453433D01*
X127480566Y-54560657D01*
X127371550Y-54639862D01*
X127289490Y-54699483D01*
X127289488Y-54699485D01*
X127289487Y-54699485D01*
X127122485Y-54866487D01*
X127122485Y-54866488D01*
X127122483Y-54866490D01*
X127062862Y-54948550D01*
X126983657Y-55057566D01*
X126876433Y-55268003D01*
X126803446Y-55492631D01*
X126766500Y-55725902D01*
X125038072Y-55725902D01*
X125041493Y-55702841D01*
X125041493Y-55702840D01*
X125083849Y-55417296D01*
X125086218Y-55405385D01*
X125166710Y-55084043D01*
X125170240Y-55072411D01*
X125243920Y-54866490D01*
X125281835Y-54760525D01*
X125286476Y-54749318D01*
X125428124Y-54449828D01*
X125433840Y-54439136D01*
X125604145Y-54154998D01*
X125610888Y-54144905D01*
X125808232Y-53878818D01*
X125815935Y-53869433D01*
X126038405Y-53623975D01*
X126046975Y-53615405D01*
X126292433Y-53392935D01*
X126301818Y-53385232D01*
X126567905Y-53187888D01*
X126577998Y-53181145D01*
X126862136Y-53010840D01*
X126872828Y-53005124D01*
X127172318Y-52863476D01*
X127183525Y-52858835D01*
X127495412Y-52747239D01*
X127507043Y-52743710D01*
X127828385Y-52663218D01*
X127840296Y-52660849D01*
X128167962Y-52612244D01*
X128180068Y-52611052D01*
X128513967Y-52594648D01*
X128520051Y-52594500D01*
X128582892Y-52594500D01*
X160451108Y-52594500D01*
X160513949Y-52594500D01*
X160520032Y-52594648D01*
G37*
%TD.AperFunction*%
%TD*%
M02*
